<?xml version="1.0" standalone="no"?><!DOCTYPE svg PUBLIC "-//W3C//DTD SVG 1.1//EN" "http://www.w3.org/Graphics/SVG/1.1/DTD/svg11.dtd"><svg width="2208px" height="240px" version="1.1" xmlns="http://www.w3.org/2000/svg" xmlns:xlink="http://www.w3.org/1999/xlink" xml:space="preserve" style="fill-rule:evenodd;clip-rule:evenodd;stroke-linejoin:round;stroke-miterlimit:1.41421;"><g><g id="people" transform="matrix(1,0,0,1,0,-12)"><g><path d="M1030,238.5l-4.234,0l-7.682,-57.418l3.348,-6.879l8.568,64.297Z" style="fill:#f4f2ed;fill-rule:nonzero;"/><path d="M1023.3,220.141l4.203,-0.5l2.5,18.859l-4.234,0l-2.469,-18.359Z" style="fill:#ae2025;fill-rule:nonzero;"/><path d="M1011.98,139.326l-2.834,-1.889l-2.061,-5.839l-4.757,1.357l-1.51,3.709l-3.262,1.632l6.906,15.085l7.518,-14.055Z" style="fill:#72594b;fill-rule:nonzero;"/><path d="M1021.74,174.976l1.325,5.457l-1.056,7.112l-2.645,-1.307l0.418,-6.091l-0.074,1.844l-2.42,-0.468l1.78,-4.589l2.672,-1.958Z" style="fill:#72594b;fill-rule:nonzero;"/><path d="M998.514,233.034l-0.853,6.195l6.039,-0.155l0.465,-6.658l-5.651,0.618Z" style="fill:#f4f2ed;fill-rule:nonzero;"/><path d="M1002.87,242.499l1.219,9.001l4.762,0l0.697,-1.975l-1.24,-8.166l-5.438,1.14Z" style="fill:#f4f2ed;fill-rule:nonzero;"/><path d="M1012.95,146.787l6.085,30.561l2.986,-1.304l-5.584,-33.819l-3.487,4.562Z" style="fill:#72594b;fill-rule:nonzero;"/><path d="M1004.01,201.568l-0.929,40.911l5.187,-1.083l4.569,-39.983" style="fill:#72594b;fill-rule:nonzero;"/><path d="M1004.16,185l-0.156,13.813l-0.736,33.835l-4.759,0.386l-2.324,-34.432l7.975,-13.602Z" style="fill:#553f37;fill-rule:nonzero;"/><path d="M995.459,144.292l-1.292,33.291l-3.288,-0.237l1.705,-37.096l2.875,4.042Z" style="fill:#72594b;fill-rule:nonzero;"/><path d="M990.942,176.283l-0.295,4.335l2.928,6.144l2.4,-1.423l-2.129,-5.506l0.358,1.809l2.021,-1.636l-2.037,-3.326l-3.246,-0.397Z" style="fill:#72594b;fill-rule:nonzero;"/><path d="M992.55,140.204l5.702,-2.352l2.275,5.603l8.051,0.233l2.625,-4.876l5.273,3.445l-3.485,4.605l0.072,22.45l3.396,36.088l-22.833,0.233l2.687,-36.383l-0.819,-24.865l-2.944,-4.181Z" style="fill:#fec;fill-rule:nonzero;"/><path d="M1013.35,132.589l-1.957,-14.958l-6.967,-3.421l0.008,-0.121l-6.834,4.25l-1.332,13.918l1.748,3.249l12.982,0.5l2.352,-3.417Z" style="fill:#2a2b2a;fill-rule:nonzero;"/><path d="M1013.06,168.756l6.708,60.668l-29.847,0.232l6.389,-60.4l16.75,-0.5Z" style="fill:#313156;fill-rule:nonzero;"/><path d="M1013.25,170.506l-17.094,0.01l0.11,-2.76l16.812,0l0.172,2.75Z" style="fill:#2a2b2a;fill-rule:nonzero;"/></g><g><path d="M1314.06,134.25l-1.75,14l-6.5,4.417l1.25,-18l7,-0.417Z" style="fill:#5c5e5f;fill-rule:nonzero;"/><path d="M1336.56,137.661l3.726,16.214l7.173,-3.123l-5.608,-15.71l-5.291,2.619Z" style="fill:#5c5e5f;fill-rule:nonzero;"/><path d="M1348.83,114.787l-1.035,-4.798l-4.217,-3.118l-0.731,-0.7l-5.766,-0.028l-8.718,13.138l2.612,1.531l0.729,-0.323l2.144,0.593l2.587,2.67l0.913,2.075l2.106,1.431l9.376,-12.471Z" style="fill:#2a2b2a;fill-rule:nonzero;"/><path d="M1332.55,117.926l2.019,0.14l3.087,-1.997l1.746,2.364l-0.636,2.292l0.942,1.951l-6.23,8.921l-11.584,7.262l10.656,-20.933Z" style="fill:#735a4c;fill-rule:nonzero;"/><path d="M1336.1,117.989l2.017,1.556l4.324,-1.117l3.584,-5.446l-3.375,-3.635l-3.144,-0.899l-3.655,4.897l0.249,4.644Z" style="fill:#aa8b7e;fill-rule:nonzero;"/><path d="M1344.62,114.521l1.309,1.046l-1.678,2.393l-1.3,-1.115l1.669,-2.324Z" style="fill:#aa8b7e;fill-rule:nonzero;"/><path d="M1338.44,110.254l-1.62,-0.668l-1.391,2.019l1.15,0.96l1.861,-2.311Z" style="fill:#aa8b7e;fill-rule:nonzero;"/><path d="M1339.82,122.663l4.229,1.212l-14.942,24.328l-2.429,-1.625l11.871,-19.388l-14.002,19.484l-10.848,-7.983l12.387,-16.525l2.474,-4.743l4.04,0.442l0.153,2.62l4.106,3.273l2.961,-1.095Z" style="fill:#f6f1e1;fill-rule:nonzero;"/><path d="M1334.38,230.52l0.943,6.871l-9.701,-0.172l-0.515,-7.384l9.273,0.685Z" style="fill:#c1beba;fill-rule:nonzero;"/><path d="M1317.52,239.753l-1.377,9.058l0.773,2.189l8.284,0l1.351,-9.981l-9.031,-1.266Z" style="fill:#c1beba;fill-rule:nonzero;"/><path d="M1317.66,126.741l2.278,-8.109l7.632,0.462l1.997,3.472l2.246,1.207l-5.49,12.316l-8.663,-9.348Z" style="fill:#553f37;fill-rule:nonzero;"/><path d="M1321.93,122.56l4.248,-0.579l3.773,-6.503l-2.531,-12.467l-8.344,-0.251l-4.794,2.706l1.787,11.903l5.861,5.191Z" style="fill:#72594b;fill-rule:nonzero;"/><path d="M1328.43,108.167l2.803,-0.334l0.885,4.841l-2.874,0.24l-0.814,-4.747Z" style="fill:#72594b;fill-rule:nonzero;"/><path d="M1315.36,110.624l-2.717,1.152l0.778,4.055l2.507,-0.243l-0.568,-4.964Z" style="fill:#72594b;fill-rule:nonzero;"/><path d="M1344.05,169.037l-9.665,61.483l-8.414,0l-1.201,-57.358l2.795,26.46l-1.078,41.46l-8.926,-1.288l-4.096,-39.927l-5.033,-30.867l21.424,-2.438l14.194,2.475Z" style="fill:#313156;fill-rule:nonzero;"/><clipPath id="tag1"><rect x="1325.31" y="173.062" width="15.666" height="57.467"/></clipPath><g clip-path="url(#tag1)"><g opacity="0.300003"><path d="M1325.31,173.062l4.166,27.896l-2.729,29.571l8.851,-8.951l5.378,-32.953l-15.666,-15.563Z" style="fill:#0a1723;fill-rule:nonzero;"/></g></g><path d="M1300.55,159.156l11.391,3.302l0.241,-4.358l-6.34,-2.376l1.895,0.77l0.762,-2.276l-5.011,-0.374l-2.938,5.312Z" style="fill:#72594b;fill-rule:nonzero;"/><path d="M1331.77,123.746l10.229,2.705l9.817,20.549l-3.25,15.25l-6.094,-2.234l3.576,-10.914l-8.311,-15.012l6.378,34.945l-35.681,-0.035l2.257,-34.25l-14.625,9.875l7.5,9.208l-3,5.334l-15,-15.542l22.808,-15.285l8.841,-3.565l8.371,8.502l6.184,-9.531Z" style="fill:#c1beba;fill-rule:nonzero;"/><path d="M1320.57,130.02l3.151,1.623l5.414,0.414l-0.071,-2.149l-4.896,-0.916l1.472,0.314l0.431,-1.799l-3.294,-0.086l-2.207,2.599Z" style="fill:#aa8b7e;fill-rule:nonzero;"/><path d="M1318.69,119.709l-8.306,5.228l0.66,2.325l9.628,2.768l2.15,-2.61l-4.715,-2.232l1.354,-4.833l-0.771,-0.646Z" style="fill:#f6f1e1;fill-rule:nonzero;"/><path d="M1337.22,137.808l-2.974,1.683l-5.202,0.606l-0.013,-2.072l4.684,-1.071l-1.408,0.36l-0.483,-1.719l3.288,-0.407l2.108,2.62Z" style="fill:#aa8b7e;fill-rule:nonzero;"/><path d="M1344.05,123.875l3.462,8.832l-0.659,2.325l-9.629,2.768l-2.15,-2.61l8.429,-3.252l-1.505,-5.487l2.052,-2.576Z" style="fill:#f6f1e1;fill-rule:nonzero;"/><path d="M1338.69,148.108l3.47,12.017l6.679,-2.315l-5.222,-11.643l-4.927,1.941Z" style="fill:#694;fill-rule:nonzero;"/><path d="M1312.62,146.875l-2.438,11.75l-6.749,-1.541l4,-11.584l5.187,1.375Z" style="fill:#694;fill-rule:nonzero;"/><path d="M1308.81,154.125l-0.708,2.5l-4.666,0.459l0.124,-3.24l5.25,0.281Z" style="fill:#72594b;fill-rule:nonzero;"/><path d="M1348.58,162.197l-0.6,4.779l-3.689,6.393l-4.392,-2.848l2.732,-6.195l-0.775,1.893l-2.352,-0.898l2.985,-5.306l6.091,2.182Z" style="fill:#72594b;fill-rule:nonzero;"/></g><g><path d="M1128.56,239.218l0.657,4.066l-3.979,-0.005l-0.411,-4.379l3.733,0.318Z" style="fill:#fec;fill-rule:nonzero;"/><path d="M1129.12,156.005l-3.825,-3.076l-5.239,0.233l-1.009,-0.084l-4.497,3.61l1.499,15.695l2.993,-0.454l0.363,-0.711l2.039,-0.889l3.692,0.446l2.014,1.037l2.537,-0.215l-0.567,-15.592Z" style="fill:#553f37;fill-rule:nonzero;"/><path d="M1118.45,168.693l1.656,-1.162l1.142,-3.496l2.845,0.738l0.949,2.181l1.96,0.922l0.776,10.853l-4.427,12.936l-4.901,-22.972Z" style="fill:#735a4c;fill-rule:nonzero;"/><path d="M1121.25,166.508l2.546,-0.061l2.656,-3.59l-0.644,-6.488l-4.911,-0.699l-3.008,1.281l0.244,6.106l3.117,3.451Z" style="fill:#aa8b7e;fill-rule:nonzero;"/><path d="M1125.68,158.449l1.676,-0.012l0.203,2.916l-1.712,-0.048l-0.167,-2.856Z" style="fill:#aa8b7e;fill-rule:nonzero;"/><path d="M1118.2,159.026l-1.68,0.501l0.192,2.444l1.497,0.023l-0.009,-2.968Z" style="fill:#aa8b7e;fill-rule:nonzero;"/><path d="M1130.3,196.07l-1.735,43.147l-3.213,0.078l-1.603,-37.048l2.109,18.676l0.95,24.612l-5.537,-0.632l-1.406,-23.691l-2.983,-24.515l13.418,-0.627Z" style="fill:#ae2025;fill-rule:nonzero;"/><path d="M1124.07,202.18l2.094,19.952l0.4,15.799l2.264,-4.698l0.914,-25.718l-5.672,-5.335Z" style="fill:#720e1a;fill-rule:nonzero;"/><path d="M1109.15,175.562l-2.229,-2.238l-4.455,-1.663l-0.08,1.685l3.541,1.908l-3.86,-1.004l-0.313,3.187l5.563,1l1.833,-2.875Z" style="fill:#aa8b7e;fill-rule:nonzero;"/><path d="M1133.92,193.747l1.118,2.634l0.011,4.385l-1.727,-0.186l-0.445,-3.998l0.166,1.205l-1.476,0.239l0.417,-3.333l1.936,-0.946Z" style="fill:#aa8b7e;fill-rule:nonzero;"/><path d="M1127.08,167.798l4.513,1.657l3.246,24.93l-2.91,0.267l-2.986,-22.537l1.39,23.954l-13.453,0.628l0.514,-20.948l-2.361,-4.932l3.417,-2.201l1.768,1.94l5.251,-0.043l1.611,-2.715Z" style="fill:#c1beba;fill-rule:nonzero;"/><path d="M1115.06,170.844l-2.063,10.344l-3.874,-5.625l-1.875,2.812l5.437,8.416l2.416,-0.042l2.417,-11.125" style="fill:#c1beba;fill-rule:nonzero;"/><path d="M1073.6,140.25l4.799,-1.888l10.424,-0.406l-1.975,-8.332l-12.687,-0.233l-0.561,10.859Z" style="fill:#e4e2dc;fill-rule:nonzero;"/><path d="M1074.54,138.305l2.553,-1.703l1.857,-5.265l4.293,1.223l1.361,3.346l2.942,1.47l-1.858,6.116l-8.748,0.233l-2.4,-5.42Z" style="fill:#ceab97;fill-rule:nonzero;"/><path d="M1088.32,233.534l0.852,6.195l-7.038,-0.155l-0.466,-6.658l6.652,0.618Z" style="fill:#2a2b2a;fill-rule:nonzero;"/><path d="M1081.82,196.062l0.93,46.917l-7.19,-1.083l-4.568,-45.989" style="fill:#e1c5b5;fill-rule:nonzero;"/><path d="M1081.66,179.494l0.156,19.819l0.737,33.835l5.759,0.386l2.325,-34.433l-8.977,-19.607Z" style="fill:#ceab97;fill-rule:nonzero;"/><path d="M1096.28,139.698l-8.703,-2.352l-2.274,5.603l-8.052,0.233l-2.709,-4.994l-8.192,3.563l4.211,6.999l-0.293,12l-4.205,48.158l29.846,0.232l-3.885,-47.89l0.703,-12.833l3.553,-8.719Z" style="fill:#49799e;fill-rule:nonzero;"/><path d="M1093.31,146.812l8.756,23.845l4.067,-1.381l-9.874,-29.557l-2.949,7.093Z" style="fill:#e1c5b5;fill-rule:nonzero;"/><path d="M1106.12,169.181l1.449,4.097l-1.169,6.704l-2.694,-0.725l0.57,-5.875l0.142,1.838l-2.387,-1.033l0.044,-3.562l4.045,-1.444Z" style="fill:#e1c5b5;fill-rule:nonzero;"/><path d="M1074.37,250.025l2.614,1.975l4.761,0l1.219,-9.001l-7.354,-1.141l-1.24,8.167Z" style="fill:#2a2b2a;fill-rule:nonzero;"/><path d="M1078.86,135.089l3.865,0l4.162,-5.351l-0.744,-11.446l-7.424,-1.24l-4.613,1.835l0.149,10.851l4.605,5.351Z" style="fill:#e1c5b5;fill-rule:nonzero;"/><path d="M1061.81,169.936l-0.984,5.412l1.427,7.047l2.573,-1.444l-0.737,-6.061l0.17,1.838l2.393,-0.595l-0.967,-4.113l-3.875,-2.084Z" style="fill:#e1c5b5;fill-rule:nonzero;"/><path d="M1070.5,148.375l-4.814,23.682l-4.051,-1.145l4.74,-29.037l4.125,6.5Z" style="fill:#e1c5b5;fill-rule:nonzero;"/><path d="M1079.98,113.667l8.582,2.708l4.707,23.208l-4.85,5.167l0.059,-5.574l-0.31,-1.646l-1.491,-7.529l-1.865,-9.501l-5.102,-2.083l0.27,-4.75Z" style="fill:#e4e2dc;fill-rule:nonzero;"/><path d="M1079.8,118.417l-5.023,1.887l-0.588,22.196l-4.248,-0.749l0.832,-23.918l9.334,-4.25l-0.307,4.834Z" style="fill:#e4e2dc;fill-rule:nonzero;"/><path d="M1120.55,250.214l1.492,1.327l3.136,-0.073l0.682,-6.207l-4.621,-0.445l-0.689,5.398Z" style="fill:#fec;fill-rule:nonzero;"/></g><g><path d="M438.041,175.75l4.799,-1.888l10.424,-0.406l-2.475,-20.082l-12.688,-0.233l-0.06,22.609Z" style="fill:#ecdbb1;fill-rule:nonzero;"/><path d="M444.417,149.167l8.583,2.708l4.707,23.208l-4.851,5.167l0.059,-5.574l-0.31,-1.646l-1.491,-7.529l-1.864,-9.501l-5.103,-2.083l0.27,-4.75Z" style="fill:#ecdbb1;fill-rule:nonzero;"/><path d="M444.233,153.917l-5.022,1.887l-0.588,22.196l-4.248,-0.749l0.832,-23.918l9.334,-4.25l-0.308,4.834Z" style="fill:#ecdbb1;fill-rule:nonzero;"/><path d="M436.581,205.249l-0.58,29.062l5.187,1.084l2.868,-30.575" style="fill:#ceab97;fill-rule:nonzero;"/><path d="M446.598,204.881l3.729,29.809l4.761,0.385l-0.672,-30.406l-7.818,0.212Z" style="fill:#ceab97;fill-rule:nonzero;"/><path d="M463.269,222.258l1.396,-9.402l-38.828,-0.036l1.499,9.479l35.933,-0.041Z" style="fill:#c1beba;fill-rule:nonzero;"/><clipPath id="tag2"><rect x="425.837" y="212.789" width="38.828" height="9.479"/></clipPath><g clip-path="url(#tag2)"><g opacity="0.25"><path d="M463.269,222.227l1.396,-9.402l-38.828,-0.036l1.499,9.479l35.933,-0.041Z" style="fill:#171817;fill-rule:nonzero;"/></g></g><path d="M427.186,244.198l0,-4.2l17.147,-0.056l0.719,4.273l-17.866,-0.017Z" style="fill:#c1beba;fill-rule:nonzero;"/><path d="M464.718,244.198l0,-4.2l-17.147,-0.056l-0.719,4.273l17.866,-0.017Z" style="fill:#c1beba;fill-rule:nonzero;"/><path d="M463.06,213.028l4.399,-42.402l-44.834,-0.036l4.502,42.479l35.933,-0.041Z" style="fill:#d8d3cb;fill-rule:nonzero;"/><path d="M463.496,202.866l-1.244,1.289l0.046,46.008l1.381,1.837l2.252,0l1.334,-2.07l-0.183,-46.008l-1.38,-1.056l-2.206,0Z" style="fill:#2a2b2a;fill-rule:nonzero;"/><path d="M424.002,202.866l-1.243,1.289l0.046,46.008l1.38,1.837l2.252,0l1.335,-2.07l-0.183,-46.008l-1.381,-1.056l-2.206,0Z" style="fill:#2a2b2a;fill-rule:nonzero;"/><path d="M435.963,234.273l-1.715,5.726l8.543,0l-1.5,-5.708l-5.328,-0.018Z" style="fill:#f4f2ed;fill-rule:nonzero;"/><path d="M450.172,234.607l-1.715,5.726l8.543,0l-1.5,-5.708l-5.328,-0.018Z" style="fill:#f4f2ed;fill-rule:nonzero;"/></g><g><path d="M320.269,222.258l1.396,-9.402l-38.828,-0.036l1.499,9.479l35.933,-0.041Z" style="fill:#c1beba;fill-rule:nonzero;"/><clipPath id="tag3"><rect x="282.837" y="212.789" width="38.828" height="9.479"/></clipPath><g clip-path="url(#tag3)"><g opacity="0.25"><path d="M320.269,222.227l1.396,-9.402l-38.828,-0.036l1.499,9.479l35.933,-0.041Z" style="fill:#171817;fill-rule:nonzero;"/></g></g><path d="M284.186,244.198l0,-4.2l17.147,-0.056l0.719,4.273l-17.866,-0.017Z" style="fill:#c1beba;fill-rule:nonzero;"/><path d="M321.718,244.198l0,-4.2l-17.147,-0.056l-0.719,4.273l17.866,-0.017Z" style="fill:#c1beba;fill-rule:nonzero;"/><path d="M320.06,213.028l4.399,-42.402l-44.834,-0.036l4.502,42.479l35.933,-0.041Z" style="fill:#d8d3cb;fill-rule:nonzero;"/><path d="M320.496,202.866l-1.244,1.289l0.046,46.008l1.381,1.837l2.252,0l1.334,-2.07l-0.183,-46.008l-1.38,-1.056l-2.206,0Z" style="fill:#2a2b2a;fill-rule:nonzero;"/><path d="M281.002,202.866l-1.243,1.289l0.046,46.008l1.38,1.837l2.253,0l1.334,-2.07l-0.183,-46.008l-1.38,-1.056l-2.207,0Z" style="fill:#2a2b2a;fill-rule:nonzero;"/><path d="M295.041,175.75l4.799,-1.888l10.424,-0.406l-1.975,-8.332l-12.688,-0.233l-0.56,10.859Z" style="fill:#2a2b2a;fill-rule:nonzero;"/><path d="M295.979,173.805l2.554,-1.703l1.857,-5.265l4.292,1.223l1.361,3.346l2.942,1.47l-1.858,6.116l-8.748,0.233l-2.4,-5.42Z" style="fill:#553f37;fill-rule:nonzero;"/><path d="M300.301,170.589l3.864,0l4.162,-5.351l-0.744,-11.446l-7.423,-1.24l-4.614,1.835l0.149,10.851l4.606,5.351Z" style="fill:#72594b;fill-rule:nonzero;"/><path d="M301.417,149.167l8.583,2.708l4.707,23.208l-4.851,5.167l0.059,-5.574l-0.31,-1.646l-1.491,-7.529l-1.864,-9.501l-5.103,-2.083l0.27,-4.75Z" style="fill:#2a2b2a;fill-rule:nonzero;"/><path d="M301.233,153.917l-5.022,1.887l-0.588,22.196l-4.248,-0.749l0.832,-23.918l9.334,-4.25l-0.308,4.834Z" style="fill:#2a2b2a;fill-rule:nonzero;"/><path d="M314.716,175.198l-5.701,-2.352l-6.271,5.719l-6.764,-4.877l-5.189,3.563l3.485,4.605l-0.693,18.394l-2.645,18.25l23.625,0l-3.062,-17.917l0.332,-20.001l2.883,-5.384Z" style="fill:#ecdbb1;fill-rule:nonzero;"/><path d="M293.581,205.249l-0.58,29.062l5.187,1.084l2.868,-30.575" style="fill:#72594b;fill-rule:nonzero;"/><path d="M292.963,234.273l-1.715,5.726l8.543,0l-1.5,-5.708l-5.328,-0.018Z" style="fill:#f4f2ed;fill-rule:nonzero;"/><path d="M303.598,204.881l3.729,29.809l4.761,0.385l-0.672,-30.406l-7.818,0.212Z" style="fill:#72594b;fill-rule:nonzero;"/><path d="M307.172,234.607l-1.715,5.726l8.543,0l-1.5,-5.708l-5.328,-0.018Z" style="fill:#f4f2ed;fill-rule:nonzero;"/><path d="M290.875,218.5l23.625,0l-3.031,-18.125l-17.875,0l-2.719,18.125Z" style="fill:#f6f1e1;fill-rule:nonzero;"/><path d="M294.394,181.798l-2.456,15.202l3.917,8.542l-2.647,2.791l-5.052,-10.88l2.727,-20.106l3.511,4.451Z" style="fill:#72594b;fill-rule:nonzero;"/><path d="M293.186,208.265l5.354,1.693l7.167,-0.568l-1.124,-2.727l-6.105,0l1.846,0.052l-0.304,-2.445l-4.698,1.464l-2.136,2.531Z" style="fill:#72594b;fill-rule:nonzero;"/><path d="M311.75,180.582l7.625,12.043l0.125,10.709l3.416,-0.375l0.001,-11.126l-8.196,-16.674l-2.971,5.423Z" style="fill:#72594b;fill-rule:nonzero;"/><path d="M326.937,201.812l0.187,7.5l-3.041,0.479l-0.021,-4.104l-7.051,1.705l-0.449,-3.455l10.375,-2.125Z" style="fill:#72594b;fill-rule:nonzero;"/></g><g><path d="M126.542,140.25l4.798,-1.888l10.425,-0.406l-1.975,-8.332l-12.688,-0.233l-0.56,10.859Z" style="fill:#e4e2dc;fill-rule:nonzero;"/><path d="M127.48,138.305l2.554,-1.703l1.857,-5.265l4.292,1.223l1.361,3.346l2.942,1.47l-1.858,6.116l-8.748,0.233l-2.4,-5.42Z" style="fill:#ceab97;fill-rule:nonzero;"/><path d="M141.253,233.534l0.853,6.195l-7.039,-0.155l-0.465,-6.658l6.651,0.618Z" style="fill:#2a2b2a;fill-rule:nonzero;"/><path d="M134.758,196.062l0.929,46.917l-7.19,-1.083l-4.568,-45.989" style="fill:#e1c5b5;fill-rule:nonzero;"/><path d="M134.602,179.494l0.156,19.819l0.736,33.835l5.76,0.386l2.324,-34.433l-8.976,-19.607Z" style="fill:#ceab97;fill-rule:nonzero;"/><path d="M149.219,139.698l-8.704,-2.352l-2.274,5.603l-8.052,0.233l-2.709,-4.994l-8.192,3.563l4.212,6.999l-0.294,12l-4.205,48.158l29.847,0.232l-3.886,-47.89l0.704,-12.833l3.553,-8.719Z" style="fill:#694;fill-rule:nonzero;"/><path d="M148.912,174.666l0.056,77.334l4.199,0l0.017,-79.344l-4.272,2.01Z" style="fill:#5c5e5f;fill-rule:nonzero;"/><path d="M115.385,252l4.199,0l0.017,-75.906l-4.272,-2.719l0.056,78.625Z" style="fill:#5c5e5f;fill-rule:nonzero;"/><path d="M117.5,189.698l0,-4.2l34.501,-0.056l0.719,4.273l-35.22,-0.017Z" style="fill:#5c5e5f;fill-rule:nonzero;"/><path d="M145.562,148.75l3.999,22.426l4.246,-0.653l-4.58,-30.824l-3.665,9.051Z" style="fill:#e1c5b5;fill-rule:nonzero;"/><path d="M153.808,170.427l0.714,4.286l-2.317,6.399l-2.527,-1.183l1.584,-5.687l-0.18,1.835l-2.171,-1.432l0.663,-3.5l4.234,-0.718Z" style="fill:#e1c5b5;fill-rule:nonzero;"/><path d="M127.304,250.025l2.614,1.975l4.761,0l1.219,-9.001l-7.354,-1.141l-1.24,8.167Z" style="fill:#2a2b2a;fill-rule:nonzero;"/><path d="M131.801,135.089l3.864,0l4.162,-5.351l-0.744,-11.446l-7.423,-1.24l-4.614,1.835l0.149,10.851l4.606,5.351Z" style="fill:#e1c5b5;fill-rule:nonzero;"/><path d="M114.751,169.936l-0.985,5.412l1.427,7.047l2.573,-1.444l-0.737,-6.061l0.171,1.838l2.392,-0.595l-0.966,-4.113l-3.875,-2.084Z" style="fill:#e1c5b5;fill-rule:nonzero;"/><path d="M123.438,148.375l-4.814,23.682l-4.052,-1.145l4.741,-29.037l4.125,6.5Z" style="fill:#e1c5b5;fill-rule:nonzero;"/><path d="M132.917,113.667l8.583,2.708l4.707,23.208l-4.851,5.167l0.059,-5.574l-0.31,-1.646l-1.491,-7.529l-1.864,-9.501l-5.103,-2.083l0.27,-4.75Z" style="fill:#e4e2dc;fill-rule:nonzero;"/><path d="M132.734,118.417l-5.022,1.887l-0.588,22.196l-4.248,-0.749l0.832,-23.918l9.334,-4.25l-0.308,4.834Z" style="fill:#e4e2dc;fill-rule:nonzero;"/></g><g><path d="M60.912,173.375l0.056,78.625l4.199,0l0.017,-79.344l-4.272,0.719Z" style="fill:#988a74;fill-rule:nonzero;"/><path d="M48.1538,231.52l0.943,6.871l-9.7,-0.172l-0.515,-7.384l9.272,0.685Z" style="fill:#2a2b2a;fill-rule:nonzero;"/><path d="M29.9115,249.81l0.774,2.19l8.283,0l1.352,-9.981l-9.032,-1.267l-1.377,9.058Z" style="fill:#2a2b2a;fill-rule:nonzero;"/><path d="M30.9829,125.905l1.29,-1.889l2.061,-5.839l7.5,1.489l1.509,3.709l2.064,1.5l-7.103,11.462l-7.321,-10.432Z" style="fill:#ceab97;fill-rule:nonzero;"/><path d="M35.7759,122.339l4.286,0l4.616,-5.935l-0.824,-12.694l-8.234,-1.375l-5.116,2.034l0.164,12.035l5.108,5.935Z" style="fill:#e1c5b5;fill-rule:nonzero;"/><path d="M33.1294,102.55l0.43,-1.718l13.816,1.337l1.15,9.826l-4.277,0.258l-3.348,-6.827l-6.224,-0.901l-1.547,-1.975Z" style="fill:#e4e2dc;fill-rule:nonzero;"/><path d="M44.1626,108.956l2.822,0.047l0.223,4.916l-2.879,-0.15l-0.166,-4.813Z" style="fill:#e1c5b5;fill-rule:nonzero;"/><path d="M34.7173,104.524l-3.479,1.417l-0.641,6.182l-5.056,0.644l0.582,-8.142l7.5,-3.75l1.094,3.649Z" style="fill:#e4e2dc;fill-rule:nonzero;"/><path d="M30.8745,109.625l-2.848,0.775l0.223,4.122l2.518,0.098l0.107,-4.995Z" style="fill:#e1c5b5;fill-rule:nonzero;"/><path d="M58.8208,170.037l-10.667,61.483l-8.413,0l-1.201,-57.358l2.795,26.46l-1.078,41.46l-8.927,-1.288l-4.095,-39.927l-7.036,-30.867l23.426,-2.438l15.196,2.475Z" style="fill:#5c5e5f;fill-rule:nonzero;"/><clipPath id="tag4"><rect x="39.0835" y="174.062" width="16.25" height="57.467"/></clipPath><g clip-path="url(#tag4)"><g opacity="0.5"><path d="M39.0835,174.062l4.167,27.896l-2.729,29.571l9.228,-9.113l5.584,-32.25l-16.25,-16.104Z" style="fill:#171817;fill-rule:nonzero;"/></g></g><path d="M10.0654,165.573l-2.349,5.768l0.451,7.992l5.48,-1.596l0.541,-6.748l-0.22,2.034l2.399,0.107l-0.871,-5.549l-5.431,-2.008Z" style="fill:#e1c5b5;fill-rule:nonzero;"/><path d="M67.3335,166.273l1.776,4.479l-0.157,7.378l-5.22,-0.381l-0.587,-6.746l0.232,2.033l-2.494,0.344l0.837,-5.593l5.613,-1.514Z" style="fill:#e1c5b5;fill-rule:nonzero;"/><path d="M45.5376,124.746l10.229,2.705l11.9,39.665l-6.042,0.601l-10.121,-32.627l7.379,34.945l-38.684,-0.035l5.893,-32.161l-10.53,29.821l-5.728,-1.459l12.308,-36.861l8.841,-3.565l8.371,8.502l6.184,-9.531Z" style="fill:#313156;fill-rule:nonzero;"/></g><g><path d="M1388.14,169.33l-1.037,5.519l1.428,7.046l2.572,-1.444l-0.736,-6.06l0.17,1.837l2.392,-0.594l-2.019,-4.489l-2.77,-1.815Z" style="fill:#e1c5b5;fill-rule:nonzero;"/><path d="M1395.88,139.75l4.798,-1.888l10.425,-0.406l-1.975,-8.332l-12.688,-0.233l-0.56,10.859Z" style="fill:#543e36;fill-rule:nonzero;"/><path d="M1409.59,233.034l0.853,6.195l-6.039,-0.155l-0.465,-6.658l5.651,0.618Z" style="fill:#2a2b2a;fill-rule:nonzero;"/><path d="M1398.55,249.525l0.697,1.975l4.761,0l1.218,-9.001l-5.436,-1.141l-1.24,8.167Z" style="fill:#2a2b2a;fill-rule:nonzero;"/><path d="M1396.81,137.805l2.554,-1.703l1.857,-5.265l4.292,1.223l1.361,3.346l2.942,1.47l-1.858,6.116l-8.748,0.233l-2.4,-5.42Z" style="fill:#ceab97;fill-rule:nonzero;"/><path d="M1401.13,134.589l3.864,0l4.162,-5.351l-0.744,-11.446l-7.423,-1.24l-4.614,1.835l0.149,10.851l4.606,5.351Z" style="fill:#e1c5b5;fill-rule:nonzero;"/><path d="M1395.23,145.798l-4.264,25.759l-3.05,-1.145l3.803,-29.065l3.511,4.451Z" style="fill:#e1c5b5;fill-rule:nonzero;"/><path d="M1402.25,113.167l8.583,2.708l4.707,23.208l-4.851,5.167l0.059,-5.574l-0.31,-1.646l-1.491,-7.529l-1.864,-9.501l-5.103,-2.083l0.27,-4.75Z" style="fill:#543e36;fill-rule:nonzero;"/><path d="M1402.07,117.917l-5.022,1.887l-0.588,22.196l-4.248,-0.749l0.832,-23.918l9.334,-4.25l-0.308,4.834Z" style="fill:#543e36;fill-rule:nonzero;"/><path d="M1404.09,195.562l0.929,46.917l-5.188,-1.083l-4.568,-45.989" style="fill:#e1c5b5;fill-rule:nonzero;"/><path d="M1403.94,178.994l0.156,19.819l0.736,33.835l4.759,0.386l2.324,-34.433l-7.975,-19.607Z" style="fill:#ceab97;fill-rule:nonzero;"/><path d="M1415.55,139.198l-5.701,-2.352l-2.274,5.603l-8.052,0.233l-2.709,-4.994l-5.189,3.563l3.485,4.605l0.433,14.394l-7.208,40.15l29.847,0.233l-6.889,-39.883l1.314,-17.371l2.943,-4.181Z" style="fill:#376388;fill-rule:nonzero;"/><path d="M1412.65,143.344l1.214,27.267l3.288,-0.238l-1.564,-31.123l-2.938,4.094Z" style="fill:#e1c5b5;fill-rule:nonzero;"/><path d="M1417.16,170.277l0.295,4.335l-2.928,6.144l-2.4,-1.423l2.129,-5.506l-0.358,1.809l-2.021,-1.636l2.037,-3.326l3.246,-0.397Z" style="fill:#e1c5b5;fill-rule:nonzero;"/></g><g><path d="M1452.48,231.02l0.943,6.871l-6.697,-0.172l-0.516,-7.384l6.27,0.685Z" style="fill:#2a2b2a;fill-rule:nonzero;"/><path d="M1440.25,249.311l0.773,2.189l5.28,0l1.353,-9.981l-6.029,-1.266l-1.377,9.058Z" style="fill:#2a2b2a;fill-rule:nonzero;"/><path d="M1438.32,125.405l2.834,-1.889l2.061,-5.839l4.757,1.357l1.51,3.709l3.262,1.632l-7.103,11.462l-7.321,-10.432Z" style="fill:#ceab97;fill-rule:nonzero;"/><path d="M1443.11,121.839l4.286,0l4.616,-5.935l-0.824,-12.694l-8.234,-1.375l-5.116,2.034l0.164,12.035l5.108,5.935Z" style="fill:#e1c5b5;fill-rule:nonzero;"/><path d="M1440.46,102.05l0.43,-1.718l13.816,1.337l1.15,9.826l-4.277,0.258l-3.348,-6.827l-6.224,-0.901l-1.547,-1.975Z" style="fill:#543e36;fill-rule:nonzero;"/><path d="M1451.5,108.456l2.822,0.047l0.223,4.916l-2.879,-0.15l-0.166,-4.813Z" style="fill:#e1c5b5;fill-rule:nonzero;"/><path d="M1442.05,104.024l-3.479,1.417l-0.641,6.182l-5.056,0.644l0.582,-8.142l7.5,-3.75l1.094,3.649Z" style="fill:#543e36;fill-rule:nonzero;"/><path d="M1438.21,109.125l-2.848,0.775l0.223,4.122l2.518,0.098l0.107,-4.995Z" style="fill:#e1c5b5;fill-rule:nonzero;"/><path d="M1457.15,163.531l-4.661,67.489l-5.41,0l-1.201,-57.358l2.794,26.46l-1.078,41.46l-5.923,-1.288l-3.094,-39.927l-4.033,-36.322l22.606,-0.514Z" style="fill:#5c5e5f;fill-rule:nonzero;"/><clipPath id="tag5"><rect x="1446.42" y="173.562" width="9.331" height="57.467"/></clipPath><g clip-path="url(#tag5)"><g opacity="0.5"><path d="M1446.42,173.562l2.72,28.607l-1.282,28.86l5.317,-10.071l2.576,-38.19l-9.331,-9.206Z" style="fill:#171817;fill-rule:nonzero;"/></g></g><path d="M1427.23,159.49l-2.349,5.768l0.451,7.992l2.654,-1.018l0.541,-6.748l-0.22,2.034l2.4,0.107l-0.872,-5.549l-2.605,-2.586Z" style="fill:#e1c5b5;fill-rule:nonzero;"/><path d="M1463.34,159.768l1.776,4.479l-0.157,7.378l-2.899,-0.381l-0.588,-6.746l0.232,2.033l-2.494,0.344l0.837,-5.593l3.293,-1.514Z" style="fill:#e1c5b5;fill-rule:nonzero;"/><path d="M1452.87,124.246l6.225,2.705l4.459,33.659l-3.606,0.601l-4.115,-29.624l1.373,31.942l-22.668,0.516l1.889,-29.709l-6.526,27.819l-3.306,-1.459l5.881,-31.856l5.839,-3.565l8.371,8.502l6.184,-9.531Z" style="fill:#e4e2dc;fill-rule:nonzero;"/></g><g><path d="M883.206,168.33l-1.037,5.519l1.428,7.046l2.572,-1.444l-0.736,-6.06l0.17,1.837l2.392,-0.594l-2.019,-4.489l-2.77,-1.815Z" style="fill:#e1c5b5;fill-rule:nonzero;"/><path d="M890.937,138.75l4.798,-1.888l10.425,-0.406l-1.975,-8.332l-12.688,-0.233l-0.56,10.859Z" style="fill:#543e36;fill-rule:nonzero;"/><path d="M904.649,232.034l0.853,6.195l-6.039,-0.155l-0.465,-6.658l5.651,0.618Z" style="fill:#2a2b2a;fill-rule:nonzero;"/><path d="M894.857,240.358l-1.24,8.167l0.697,1.975l4.761,0l1.219,-9.001l-5.437,-1.141Z" style="fill:#2a2b2a;fill-rule:nonzero;"/><path d="M891.876,136.805l2.554,-1.703l1.857,-5.265l4.292,1.223l1.361,3.346l2.942,1.47l-1.858,6.116l-8.748,0.233l-2.4,-5.42Z" style="fill:#ceab97;fill-rule:nonzero;"/><path d="M896.197,133.589l3.864,0l4.162,-5.351l-0.744,-11.446l-7.423,-1.24l-4.614,1.835l0.149,10.851l4.606,5.351Z" style="fill:#e1c5b5;fill-rule:nonzero;"/><path d="M890.29,144.798l-4.264,25.759l-3.05,-1.145l3.803,-29.065l3.511,4.451Z" style="fill:#e1c5b5;fill-rule:nonzero;"/><path d="M897.313,112.167l8.583,2.708l4.707,23.208l-4.851,5.167l0.059,-5.574l-0.31,-1.646l-1.491,-7.529l-1.864,-9.501l-5.103,-2.083l0.27,-4.75Z" style="fill:#543e36;fill-rule:nonzero;"/><path d="M897.13,116.917l-5.022,1.887l-0.588,22.196l-4.248,-0.749l0.832,-23.918l9.334,-4.25l-0.308,4.834Z" style="fill:#543e36;fill-rule:nonzero;"/><path d="M899.154,194.562l0.929,46.917l-5.188,-1.083l-4.568,-45.989" style="fill:#e1c5b5;fill-rule:nonzero;"/><path d="M898.998,177.994l0.156,19.819l0.736,33.835l4.759,0.386l2.324,-34.433l-7.975,-19.607Z" style="fill:#ceab97;fill-rule:nonzero;"/><path d="M910.612,138.198l-5.701,-2.352l-2.274,5.603l-8.052,0.233l-2.709,-4.994l-5.189,3.563l3.485,4.605l0.433,14.394l-7.208,48.158l29.847,0.232l-6.889,-47.89l1.314,-17.371l2.943,-4.181Z" style="fill:#5c5e5f;fill-rule:nonzero;"/><path d="M907.709,142.344l1.214,27.267l3.288,-0.238l-1.564,-31.123l-2.938,4.094Z" style="fill:#e1c5b5;fill-rule:nonzero;"/><path d="M912.221,169.277l0.295,4.335l-2.928,6.144l-2.4,-1.423l2.129,-5.506l-0.358,1.809l-2.021,-1.636l2.037,-3.326l3.246,-0.397Z" style="fill:#e1c5b5;fill-rule:nonzero;"/><path d="M932.234,165.318l-2.735,-2.53l2.922,-2.17l2.663,4.694l-2.85,0.006Z" style="fill:#ae2025;fill-rule:nonzero;"/><path d="M938.691,168.434l-3.659,-3.137l-6.341,-0.03l-4.583,4.53l1.123,14.698l3.003,-0.383l0.381,-0.702l2.059,-0.839l3.68,0.533l1.989,1.085l2.541,-0.153l-0.193,-15.602Z" style="fill:#2a2b2a;fill-rule:nonzero;"/><path d="M927.721,180.863l1.684,-1.122l1.224,-3.468l2.826,0.806l0.897,2.203l1.937,0.969l0.517,10.869l-4.735,7.82l-4.35,-18.077Z" style="fill:#ceab97;fill-rule:nonzero;"/><path d="M930.568,178.745l2.546,0l2.742,-3.525l-1.168,-7.298l-4.213,-0.021l-3.039,3.255l0.098,4.064l3.034,3.525Z" style="fill:#e1c5b5;fill-rule:nonzero;"/><path d="M935.079,170.812l1.792,0.011l0.133,2.92l-1.71,-0.089l-0.215,-2.842Z" style="fill:#e1c5b5;fill-rule:nonzero;"/><path d="M927.695,171.192l-1.616,0.011l0.062,2.968l1.492,-0.011l0.062,-2.968Z" style="fill:#e1c5b5;fill-rule:nonzero;"/><path d="M928.302,238.081l-0.596,4.334l4.224,-0.108l0.326,-4.659l-3.954,0.433Z" style="fill:#2a2b2a;fill-rule:nonzero;"/><path d="M935.153,243.904l0.867,5.714l-0.488,1.382l-3.331,0l-0.853,-6.297l3.805,-0.799Z" style="fill:#2a2b2a;fill-rule:nonzero;"/><path d="M943.372,203.63l0.733,3.904l-1.009,4.987l-1.821,-1.022l0.521,-4.289l-0.121,1.301l-1.692,-0.421l1.428,-3.176l1.961,-1.284Z" style="fill:#e1c5b5;fill-rule:nonzero;"/><path d="M938.359,186.98l3.017,18.226l2.158,-0.81l-2.691,-20.565l-2.484,3.149Z" style="fill:#e1c5b5;fill-rule:nonzero;"/><path d="M921.218,202.255l-0.733,3.904l1.009,4.987l1.821,-1.022l-0.521,-4.289l0.121,1.301l1.692,-0.421l-1.428,-3.176l-1.961,-1.284Z" style="fill:#e1c5b5;fill-rule:nonzero;"/><path d="M926.231,185.605l-3.017,18.226l-2.158,-0.81l2.691,-20.565l2.484,3.149Z" style="fill:#e1c5b5;fill-rule:nonzero;"/><path d="M932.146,211.865l-0.649,32.824l3.628,-0.758l3.197,-32.175" style="fill:#e1c5b5;fill-rule:nonzero;"/><path d="M932.256,200.273l-0.109,13.866l-0.515,23.671l-3.33,0.271l-1.625,-24.09l5.579,-13.718Z" style="fill:#ceab97;fill-rule:nonzero;"/><path d="M923.775,182.403l4.054,-1.673l1.616,3.984l5.54,-0.027l1.187,-4.437l4.613,3.612l-2.478,3.273l-1.308,10.234l3.122,32.098l-16.214,0.165l3.896,-31.909l-1.935,-12.348l-2.093,-2.972Z" style="fill:#ae2025;fill-rule:nonzero;"/><path d="M937.112,167.124l3.793,-0.242l-0.876,-3.534l-5.039,1.933" style="fill:#ae2025;fill-rule:nonzero;"/></g><g><path d="M215.208,140.25l4.798,-1.888l10.425,-0.406l-1.975,-8.332l-12.688,-0.233l-0.56,10.859Z" style="fill:#e4e2dc;fill-rule:nonzero;"/><path d="M216.146,138.305l2.554,-1.703l1.857,-5.265l4.292,1.223l1.361,3.346l2.942,1.47l-1.858,6.116l-8.748,0.233l-2.4,-5.42Z" style="fill:#553f37;fill-rule:nonzero;"/><path d="M229.92,233.534l0.853,6.195l-7.039,-0.155l-0.465,-6.658l6.651,0.618Z" style="fill:#2a2b2a;fill-rule:nonzero;"/><path d="M223.425,196.062l0.929,46.917l-7.19,-1.083l-4.568,-45.989" style="fill:#72594b;fill-rule:nonzero;"/><path d="M223.269,179.494l0.156,19.819l0.736,33.835l5.76,0.386l2.324,-34.433l-8.976,-19.607Z" style="fill:#553f37;fill-rule:nonzero;"/><path d="M237.886,139.698l-8.704,-2.352l-2.274,5.603l-8.052,0.233l-2.709,-4.994l-8.192,3.563l4.212,6.999l-0.294,12l-4.205,67.9l29.847,0.233l-3.886,-67.633l0.704,-12.833l3.553,-8.719Z" style="fill:#ae1f25;fill-rule:nonzero;"/><path d="M237.578,174.666l0.056,77.334l4.199,0l0.017,-79.344l-4.272,2.01Z" style="fill:#c1beba;fill-rule:nonzero;"/><path d="M204.051,252l4.199,0l0.017,-75.906l-4.272,-2.719l0.056,78.625Z" style="fill:#c1beba;fill-rule:nonzero;"/><path d="M206.166,189.698l0,-4.2l34.501,-0.056l0.719,4.273l-35.22,-0.017Z" style="fill:#c1beba;fill-rule:nonzero;"/><path d="M234.229,148.75l3.999,22.426l4.246,-0.653l-4.58,-30.824l-3.665,9.051Z" style="fill:#72594b;fill-rule:nonzero;"/><path d="M242.475,170.427l0.714,4.286l-2.317,6.399l-2.527,-1.183l1.584,-5.687l-0.18,1.835l-2.171,-1.432l0.663,-3.5l4.234,-0.718Z" style="fill:#72594b;fill-rule:nonzero;"/><path d="M215.97,250.025l2.615,1.975l4.761,0l1.218,-9.001l-7.354,-1.141l-1.24,8.167Z" style="fill:#2a2b2a;fill-rule:nonzero;"/><path d="M220.468,135.089l3.864,0l4.162,-5.351l-0.744,-11.446l-7.423,-1.24l-4.614,1.835l0.149,10.851l4.606,5.351Z" style="fill:#72594b;fill-rule:nonzero;"/><path d="M203.417,169.936l-0.985,5.412l1.427,7.047l2.573,-1.444l-0.737,-6.061l0.171,1.838l2.392,-0.595l-0.966,-4.113l-3.875,-2.084Z" style="fill:#72594b;fill-rule:nonzero;"/><path d="M212.104,148.375l-4.814,23.682l-4.052,-1.145l4.741,-29.037l4.125,6.5Z" style="fill:#72594b;fill-rule:nonzero;"/><path d="M221.584,113.667l8.583,2.708l4.707,23.208l-4.851,5.167l0.059,-5.574l-0.31,-1.646l-1.491,-7.529l-1.864,-9.501l-5.103,-2.083l0.27,-4.75Z" style="fill:#e4e2dc;fill-rule:nonzero;"/><path d="M221.4,118.417l-5.022,1.887l-0.588,22.196l-4.248,-0.749l0.832,-23.918l9.334,-4.25l-0.308,4.834Z" style="fill:#e4e2dc;fill-rule:nonzero;"/></g><g><path d="M1519.4,157.318l1.037,5.519l-1.428,7.046l-2.572,-1.444l0.736,-6.06l-0.17,1.837l-2.392,-0.594l2.018,-4.489l2.771,-1.815Z" style="fill:#e1c5b5;fill-rule:nonzero;"/><path d="M1497.95,233.034l-0.853,6.195l6.039,-0.155l0.465,-6.658l-5.651,0.618Z" style="fill:#2a2b2a;fill-rule:nonzero;"/><path d="M1502.31,242.499l1.219,9.001l4.761,0l0.697,-1.975l-1.24,-8.166l-5.437,1.14Z" style="fill:#2a2b2a;fill-rule:nonzero;"/><path d="M1512.31,133.786l4.264,25.759l3.049,-1.145l-3.802,-29.065l-3.511,4.451Z" style="fill:#e1c5b5;fill-rule:nonzero;"/><path d="M1503.45,183.551l-0.929,58.929l5.187,-1.083l4.569,-58.001" style="fill:#e1c5b5;fill-rule:nonzero;"/><path d="M1503.6,166.982l-0.156,19.819l-0.736,45.847l-4.759,0.386l-2.324,-46.445l7.975,-19.607Z" style="fill:#ceab97;fill-rule:nonzero;"/><path d="M1494.89,131.332l-1.214,27.267l-3.288,-0.238l1.564,-31.123l2.938,4.094Z" style="fill:#e1c5b5;fill-rule:nonzero;"/><path d="M1490.38,158.266l-0.295,4.335l2.928,6.144l2.4,-1.423l-2.129,-5.506l0.358,1.809l2.021,-1.636l-2.037,-3.326l-3.246,-0.397Z" style="fill:#e1c5b5;fill-rule:nonzero;"/><path d="M1491.99,127.186l5.702,-2.352l2.274,5.603l8.052,0.233l2.708,-4.994l5.19,3.563l-3.485,4.605l-0.433,14.394l7.208,57.162l-29.847,0.232l6.889,-56.894l-1.314,-17.371l-2.944,-4.181Z" style="fill:#fec;fill-rule:nonzero;"/><path d="M1515.29,142.071l-2.957,-37.458l-8.467,-3.421l0.008,-0.121l-9.334,4.25l-1.332,36.418l4.248,3.249l14.233,0.5l3.601,-3.417Z" style="fill:#543e36;fill-rule:nonzero;"/></g><g><path d="M510.254,239.081l-0.596,4.334l4.224,-0.108l0.326,-4.659l-3.954,0.433Z" style="fill:#fec;fill-rule:nonzero;"/><path d="M513.301,245.703l0.852,6.297l3.332,0l0.488,-1.381l-0.867,-5.714l-3.805,0.798Z" style="fill:#fec;fill-rule:nonzero;"/><path d="M525.324,204.63l0.733,3.904l-1.009,4.987l-1.821,-1.022l0.521,-4.289l-0.121,1.301l-1.692,-0.421l1.428,-3.176l1.961,-1.284Z" style="fill:#e1c5b5;fill-rule:nonzero;"/><path d="M520.311,187.98l3.017,18.226l2.158,-0.81l-2.691,-20.565l-2.484,3.149Z" style="fill:#e1c5b5;fill-rule:nonzero;"/><path d="M503.17,203.255l-0.733,3.904l1.009,4.987l1.821,-1.022l-0.521,-4.289l0.121,1.301l1.692,-0.421l-1.428,-3.176l-1.961,-1.284Z" style="fill:#e1c5b5;fill-rule:nonzero;"/><path d="M508.183,186.605l-3.017,18.226l-2.158,-0.81l2.691,-20.565l2.484,3.149Z" style="fill:#e1c5b5;fill-rule:nonzero;"/><path d="M514.099,212.865l-0.649,32.824l3.628,-0.758l3.197,-32.175" style="fill:#e1c5b5;fill-rule:nonzero;"/><path d="M514.208,201.273l-0.109,13.866l-0.515,23.671l-3.33,0.271l-1.625,-24.09l5.579,-13.718Z" style="fill:#ceab97;fill-rule:nonzero;"/><path d="M505.727,183.403l4.054,-1.673l1.616,3.984l5.726,0.167l1.924,-3.552l3.69,2.533l-2.478,3.273l-0.307,10.234l5.124,32.098l-21.219,0.165l4.897,-31.909l-0.934,-12.348l-2.093,-2.972Z" style="fill:#fec;fill-rule:nonzero;"/><path d="M521.778,191.072l-1.884,-23.864l-5.394,-2.18l0.004,-0.078l-5.947,2.708l-0.848,23.203l2.707,2.07l9.067,0.319l2.295,-2.178Z" style="fill:#543e36;fill-rule:nonzero;"/></g><g><path d="M1552.51,231.02l-0.943,6.871l6.697,-0.172l0.516,-7.384l-6.27,0.685Z" style="fill:#2a2b2a;fill-rule:nonzero;"/><path d="M1557.34,241.519l1.353,9.981l5.28,0l0.773,-2.189l-1.377,-9.057l-6.029,1.265Z" style="fill:#2a2b2a;fill-rule:nonzero;"/><path d="M1561.89,124.339l-4.286,0l-4.616,-5.935l0.824,-12.694l8.234,-1.375l5.115,2.034l-0.163,12.035l-5.108,5.935Z" style="fill:#e1c5b5;fill-rule:nonzero;"/><path d="M1566.68,127.905l-2.834,-1.889l-2.061,-5.839l-4.757,1.357l-1.51,3.709l-3.262,1.632l7.103,11.462l7.321,-10.432Z" style="fill:#e1c5b5;fill-rule:nonzero;"/><path d="M1553.5,110.956l-2.822,0.047l-0.223,4.916l2.879,-0.15l0.166,-4.813Z" style="fill:#e1c5b5;fill-rule:nonzero;"/><path d="M1566.79,111.625l2.848,0.775l-0.223,4.122l-2.518,0.098l-0.107,-4.995Z" style="fill:#e1c5b5;fill-rule:nonzero;"/><path d="M1547.85,166.031l4.661,64.989l5.41,0l1.201,-54.858l-2.794,23.96l1.078,41.46l5.923,-1.288l3.094,-39.927l4.033,-33.822l-22.606,-0.514Z" style="fill:#313156;fill-rule:nonzero;"/><clipPath id="tag6"><rect x="1549.25" y="176.062" width="9.331" height="54.967"/></clipPath><g clip-path="url(#tag6)"><g opacity="0.5"><path d="M1558.58,176.062l-2.72,26.107l1.282,28.86l-5.317,-10.071l-2.576,-35.69l9.331,-9.206Z" style="fill:#171817;fill-rule:nonzero;"/></g></g><path d="M1577.76,161.99l2.349,5.768l-0.451,7.992l-2.655,-1.018l-0.54,-6.748l0.22,2.034l-2.4,0.107l0.871,-5.549l-6,-25.23l4.693,-0.784l3.913,23.428Z" style="fill:#e1c5b5;fill-rule:nonzero;"/><path d="M1541.66,162.018l-1.775,4.729l0.156,7.378l2.899,-0.381l0.587,-6.746l-0.231,2.033l2.494,0.344l-0.837,-5.843l3.696,-25.741l-3.753,-0.745l-3.236,24.972Z" style="fill:#e1c5b5;fill-rule:nonzero;"/><path d="M1554.62,125.746l-8.725,3.705l-1.173,8.886l3.81,0.225l0.625,-1.975l-1.373,29.442l22.668,0.516l-1.889,-29.709l0.59,2.511l4.694,-0.785l-1.333,-7.222l-8.339,-5.065l-9.555,-0.529Z" style="fill:#ef9b75;fill-rule:nonzero;"/><path d="M1568.04,106.375l-3.914,-3.457l-7.522,-0.086l-3.816,3.837l-0.9,4.326l1.527,3.258l13.651,-0.13l1.306,-2.105l-0.332,-5.643Z" style="fill:#2a2b2a;fill-rule:nonzero;"/></g><g><path d="M1613.92,133.32l-2.834,-1.889l-2.061,-5.839l-4.757,1.357l-1.51,3.709l-3.262,1.632l6.906,15.085l7.518,-14.055Z" style="fill:#72594b;fill-rule:nonzero;"/><path d="M1621.9,169.33l1.037,5.519l-1.428,7.046l-2.572,-1.444l0.736,-6.06l-0.17,1.837l-2.392,-0.594l2.018,-4.489l2.771,-1.815Z" style="fill:#72594b;fill-rule:nonzero;"/><path d="M1600.45,233.034l-0.853,6.195l6.039,-0.155l0.465,-6.658l-5.651,0.618Z" style="fill:#ae1f25;fill-rule:nonzero;"/><path d="M1604.81,242.499l1.219,9.001l4.761,0l0.698,-1.975l-1.24,-8.166l-5.438,1.14Z" style="fill:#ae1f25;fill-rule:nonzero;"/><path d="M1614.81,140.798l4.264,30.759l3.049,-1.145l-3.802,-34.065l-3.511,4.451Z" style="fill:#72594b;fill-rule:nonzero;"/><path d="M1605.95,195.562l-0.929,46.917l5.187,-1.083l4.569,-45.989" style="fill:#72594b;fill-rule:nonzero;"/><path d="M1606.1,178.994l-0.156,19.819l-0.736,33.835l-4.759,0.386l-2.324,-34.433l7.975,-19.607Z" style="fill:#553f37;fill-rule:nonzero;"/><path d="M1597.39,138.344l-1.214,32.267l-3.288,-0.238l1.564,-36.123l2.938,4.094Z" style="fill:#72594b;fill-rule:nonzero;"/><path d="M1592.88,170.277l-0.295,4.335l2.928,6.144l2.4,-1.423l-2.129,-5.506l0.358,1.809l2.021,-1.636l-2.037,-3.326l-3.246,-0.397Z" style="fill:#72594b;fill-rule:nonzero;"/><path d="M1594.49,134.198l5.702,-2.352l2.274,5.603l8.052,0.233l2.708,-4.994l5.19,3.563l-3.485,4.605l-0.433,19.394l7.208,45.15l-29.847,0.233l6.889,-44.883l-1.314,-22.371l-2.944,-4.181Z" style="fill:#694;fill-rule:nonzero;"/><path d="M1615.29,126.583l-1.957,-14.958l-6.967,-3.421l0.008,-0.121l-6.834,4.25l-1.332,13.918l1.748,3.249l12.982,0.5l2.352,-3.417Z" style="fill:#2a2b2a;fill-rule:nonzero;"/></g><g><path d="M1777.14,169.33l-1.036,5.519l1.428,7.046l2.572,-1.444l-0.736,-6.06l0.17,1.837l2.392,-0.594l-2.019,-4.489l-2.771,-1.815Z" style="fill:#72594b;fill-rule:nonzero;"/><path d="M1784.88,139.75l4.799,-1.888l10.424,-0.406l-1.975,-8.332l-12.688,-0.233l-0.56,10.859Z" style="fill:#2a2b2a;fill-rule:nonzero;"/><path d="M1798.59,233.034l0.853,6.195l-6.039,-0.155l-0.465,-6.658l5.651,0.618Z" style="fill:#2a2b2a;fill-rule:nonzero;"/><path d="M1787.55,249.525l0.698,1.975l4.76,0l1.218,-9.001l-5.436,-1.141l-1.24,8.167Z" style="fill:#2a2b2a;fill-rule:nonzero;"/><path d="M1785.81,137.805l2.554,-1.703l1.857,-5.265l4.292,1.223l1.361,3.346l2.942,1.47l-1.858,6.116l-8.748,0.233l-2.4,-5.42Z" style="fill:#553f37;fill-rule:nonzero;"/><path d="M1790.13,134.589l3.864,0l4.162,-5.351l-0.744,-11.446l-7.423,-1.24l-4.614,1.835l0.149,10.851l4.606,5.351Z" style="fill:#72594b;fill-rule:nonzero;"/><path d="M1784.23,145.798l-4.264,25.759l-3.05,-1.145l3.803,-29.065l3.511,4.451Z" style="fill:#72594b;fill-rule:nonzero;"/><path d="M1791.25,113.167l8.583,2.708l4.707,23.208l-4.851,5.167l0.059,-5.574l-0.31,-1.646l-1.491,-7.529l-1.864,-9.501l-5.103,-2.083l0.27,-4.75Z" style="fill:#2a2b2a;fill-rule:nonzero;"/><path d="M1791.07,117.917l-5.022,1.887l-0.588,22.196l-4.248,-0.749l0.832,-23.918l9.334,-4.25l-0.308,4.834Z" style="fill:#2a2b2a;fill-rule:nonzero;"/><path d="M1793.09,195.562l0.929,46.917l-5.188,-1.083l-4.568,-45.989" style="fill:#72594b;fill-rule:nonzero;"/><path d="M1792.94,178.994l0.156,19.819l0.735,33.835l4.76,0.386l2.324,-34.433l-7.975,-19.607Z" style="fill:#553f37;fill-rule:nonzero;"/><path d="M1804.55,139.198l-5.701,-2.352l-2.274,5.603l-8.052,0.233l-2.709,-4.994l-5.189,3.563l3.485,4.605l0.433,14.394l-7.208,40.15l29.847,0.233l-6.889,-39.883l1.314,-17.371l2.943,-4.181Z" style="fill:#e4e2dc;fill-rule:nonzero;"/><path d="M1801.65,143.344l1.213,27.267l3.289,-0.238l-1.564,-31.123l-2.938,4.094Z" style="fill:#72594b;fill-rule:nonzero;"/><path d="M1806.16,170.277l0.295,4.335l-2.928,6.144l-2.4,-1.423l2.129,-5.506l-0.358,1.809l-2.021,-1.636l2.037,-3.326l3.246,-0.397Z" style="fill:#72594b;fill-rule:nonzero;"/></g><g><path d="M1843.49,231.02l0.943,6.871l-8.699,-0.172l-0.515,-7.384l8.271,0.685Z" style="fill:#ceab97;fill-rule:nonzero;"/><path d="M1827.25,249.311l0.774,2.189l7.282,0l1.353,-9.981l-8.032,-1.266l-1.377,9.058Z" style="fill:#ceab97;fill-rule:nonzero;"/><path d="M1827.32,125.405l2.834,-1.889l2.061,-5.839l4.757,1.357l1.51,3.709l3.262,1.632l-7.103,11.462l-7.321,-10.432Z" style="fill:#72594b;fill-rule:nonzero;"/><path d="M1832.11,121.839l4.286,0l4.616,-5.935l-0.824,-12.694l-8.234,-1.375l-5.116,2.034l0.164,12.035l5.108,5.935Z" style="fill:#ceab97;fill-rule:nonzero;"/><path d="M1829.46,102.05l0.43,-1.718l13.816,1.337l1.15,9.826l-4.277,0.258l-3.348,-6.827l-6.224,-0.901l-1.547,-1.975Z" style="fill:#2a2b2a;fill-rule:nonzero;"/><path d="M1840.5,108.456l2.822,0.047l0.223,4.916l-2.879,-0.15l-0.166,-4.813Z" style="fill:#ceab97;fill-rule:nonzero;"/><path d="M1831.05,104.024l-3.479,1.417l-0.641,6.182l-5.056,0.644l0.582,-8.142l7.5,-3.75l1.094,3.649Z" style="fill:#2a2b2a;fill-rule:nonzero;"/><path d="M1827.21,109.125l-2.849,0.775l0.224,4.122l2.518,0.098l0.107,-4.995Z" style="fill:#ceab97;fill-rule:nonzero;"/><path d="M1848.15,163.531l-4.661,67.489l-7.412,0l-1.201,-57.358l2.795,26.46l-1.079,41.46l-7.925,-1.288l-3.094,-39.927l-4.033,-36.322l26.61,-0.514Z" style="fill:#c1beba;fill-rule:nonzero;"/><clipPath id="tag7"><rect x="1835.62" y="172.625" width="11.063" height="58.404"/></clipPath><g clip-path="url(#tag7)"><g opacity="0.25"><path d="M1835.62,172.625l2.512,29.545l-1.282,28.859l7.124,-7.237l2.709,-40.104l-11.063,-11.063Z" style="fill:#171817;fill-rule:nonzero;"/></g></g><path d="M1814.23,159.49l-2.349,5.768l0.451,7.992l2.654,-1.018l0.541,-6.748l-0.22,2.034l2.4,0.107l-0.872,-5.549l-2.605,-2.586Z" style="fill:#ceab97;fill-rule:nonzero;"/><path d="M1854.34,159.768l1.776,4.479l-0.157,7.378l-2.899,-0.381l-0.588,-6.746l0.232,2.033l-2.494,0.344l0.837,-5.593l3.293,-1.514Z" style="fill:#ceab97;fill-rule:nonzero;"/><path d="M1841.87,124.246l8.227,2.705l4.459,33.659l-3.606,0.601l-4.115,-29.624l1.373,31.942l-26.672,0.516l1.889,-29.709l-6.526,27.819l-3.306,-1.459l5.881,-31.856l7.841,-3.565l8.371,8.502l6.184,-9.531Z" style="fill:#ef9b75;fill-rule:nonzero;"/></g><g><path d="M1908.4,169.33l1.037,5.519l-1.428,7.046l-2.572,-1.444l0.736,-6.06l-0.17,1.837l-2.392,-0.594l2.018,-4.489l2.771,-1.815Z" style="fill:#e1c5b5;fill-rule:nonzero;"/><path d="M1886.95,233.034l-0.853,6.195l6.039,-0.155l0.465,-6.658l-5.651,0.618Z" style="fill:#ae1f25;fill-rule:nonzero;"/><path d="M1891.31,242.499l1.219,9.001l4.761,0l0.697,-1.975l-1.24,-8.166l-5.437,1.14Z" style="fill:#ae1f25;fill-rule:nonzero;"/><path d="M1901.31,145.798l4.264,25.759l3.049,-1.145l-3.802,-29.065l-3.511,4.451Z" style="fill:#e1c5b5;fill-rule:nonzero;"/><path d="M1892.45,195.562l-0.929,46.917l5.187,-1.083l4.569,-45.989" style="fill:#e1c5b5;fill-rule:nonzero;"/><path d="M1892.6,178.994l-0.156,19.819l-0.736,33.835l-4.759,0.386l-2.324,-34.433l7.975,-19.607Z" style="fill:#ceab97;fill-rule:nonzero;"/><path d="M1883.89,143.344l-1.214,27.267l-3.288,-0.238l1.564,-31.123l2.938,4.094Z" style="fill:#e1c5b5;fill-rule:nonzero;"/><path d="M1879.38,170.277l-0.295,4.335l2.928,6.144l2.4,-1.423l-2.129,-5.506l0.358,1.809l2.021,-1.636l-2.037,-3.326l-3.246,-0.397Z" style="fill:#e1c5b5;fill-rule:nonzero;"/><path d="M1880.99,139.198l5.702,-2.352l2.275,5.603l8.051,0.233l2.708,-4.994l5.19,3.563l1.804,14.593l-3.593,0.687l-1.696,-10.675l-0.433,14.394l7.208,45.15l-29.847,0.233l6.889,-44.883l-1.314,-17.371l-0.62,12.746l-3.156,-0.125l0.832,-16.802Z" style="fill:#ae1f25;fill-rule:nonzero;"/><path d="M1904.29,154.083l-2.957,-37.458l-8.467,-3.421l0.008,-0.121l-9.334,4.25l-1.332,36.418l4.248,3.249l14.233,0.5l3.601,-3.417Z" style="fill:#f5f3e9;fill-rule:nonzero;"/></g><g><path d="M1941.51,231.02l-0.943,6.871l6.697,-0.172l0.516,-7.384l-6.27,0.685Z" style="fill:#2a2b2a;fill-rule:nonzero;"/><path d="M1946.34,241.519l1.353,9.981l5.28,0l0.773,-2.189l-1.377,-9.057l-6.029,1.265Z" style="fill:#2a2b2a;fill-rule:nonzero;"/><path d="M1950.89,114.329l-4.286,0l-4.616,-5.935l0.824,-12.694l8.234,-1.375l5.115,2.034l-0.163,12.035l-5.108,5.935Z" style="fill:#e1c5b5;fill-rule:nonzero;"/><path d="M1955.68,117.896l-2.834,-1.889l-2.061,-5.839l-4.757,1.357l-1.51,3.709l-3.262,1.632l7.103,11.462l7.321,-10.432Z" style="fill:#e1c5b5;fill-rule:nonzero;"/><path d="M1942.5,100.946l-2.822,0.047l-0.223,4.916l2.879,-0.15l0.166,-4.813Z" style="fill:#e1c5b5;fill-rule:nonzero;"/><path d="M1955.79,101.615l2.848,0.775l-0.223,4.122l-2.518,0.098l-0.107,-4.995Z" style="fill:#e1c5b5;fill-rule:nonzero;"/><path d="M1936.85,156.022l4.661,74.999l5.41,0l1.201,-64.868l-2.794,28.965l1.078,46.465l5.923,-1.289l3.094,-44.931l4.033,-38.827l-22.606,-0.514Z" style="fill:#313156;fill-rule:nonzero;"/><clipPath id="tag8"><rect x="1938.25" y="166.053" width="9.331" height="64.977"/></clipPath><g clip-path="url(#tag8)"><g opacity="0.5"><path d="M1947.58,166.053l-2.72,31.112l1.282,33.865l-5.317,-10.072l-2.576,-45.699l9.331,-9.206Z" style="fill:#171817;fill-rule:nonzero;"/></g></g><path d="M1966.76,151.981l2.349,5.768l-0.451,7.992l-2.655,-1.018l-0.54,-6.748l0.22,2.034l-2.4,0.107l0.871,-5.549l-6,-25.23l4.693,-0.784l3.913,23.428Z" style="fill:#e1c5b5;fill-rule:nonzero;"/><path d="M1930.66,152.008l-1.775,4.729l0.156,7.378l2.899,-0.381l0.587,-6.746l-0.232,2.033l2.495,0.344l-0.837,-5.843l3.696,-25.741l-3.753,-0.745l-3.236,24.972Z" style="fill:#e1c5b5;fill-rule:nonzero;"/><path d="M1943.62,115.736l-8.725,3.705l-1.173,8.886l3.81,0.225l0.625,-1.975l-1.373,29.442l22.668,0.516l-1.889,-29.709l0.59,2.511l4.694,-0.785l-1.333,-7.222l-8.339,-5.065l-9.555,-0.529Z" style="fill:#694;fill-rule:nonzero;"/></g><g><path d="M2002.92,133.32l-2.834,-1.889l-2.061,-5.839l-4.757,1.357l-1.51,3.709l-3.262,1.632l6.906,15.085l7.518,-14.055Z" style="fill:#72594b;fill-rule:nonzero;"/><path d="M2010.9,169.33l1.037,5.519l-1.428,7.046l-2.572,-1.444l0.736,-6.06l-0.17,1.837l-2.392,-0.594l2.018,-4.489l2.771,-1.815Z" style="fill:#72594b;fill-rule:nonzero;"/><path d="M1989.45,233.034l-0.853,6.195l6.039,-0.155l0.465,-6.658l-5.651,0.618Z" style="fill:#694;fill-rule:nonzero;"/><path d="M1993.81,242.499l1.219,9.001l4.761,0l0.697,-1.975l-1.24,-8.166l-5.437,1.14Z" style="fill:#694;fill-rule:nonzero;"/><path d="M2003.81,140.798l4.264,30.759l3.049,-1.145l-3.802,-34.065l-3.511,4.451Z" style="fill:#72594b;fill-rule:nonzero;"/><path d="M1994.95,195.562l-0.929,46.917l5.187,-1.083l4.569,-45.989" style="fill:#72594b;fill-rule:nonzero;"/><path d="M1995.1,178.994l-0.156,19.819l-0.736,33.835l-4.759,0.386l-2.324,-34.433l7.975,-19.607Z" style="fill:#553f37;fill-rule:nonzero;"/><path d="M1986.39,138.344l-1.214,32.267l-3.288,-0.238l1.564,-36.123l2.938,4.094Z" style="fill:#72594b;fill-rule:nonzero;"/><path d="M1981.88,170.277l-0.295,4.335l2.928,6.144l2.4,-1.423l-2.129,-5.506l0.358,1.809l2.021,-1.636l-2.037,-3.326l-3.246,-0.397Z" style="fill:#72594b;fill-rule:nonzero;"/><path d="M1983.49,134.198l5.702,-2.352l2.275,5.603l8.051,0.233l2.708,-4.994l5.19,3.563l-3.485,4.605l-0.433,19.394l7.208,45.15l-29.847,0.233l6.889,-44.883l-1.314,-22.371l-2.944,-4.181Z" style="fill:#694;fill-rule:nonzero;"/><path d="M2004.29,126.583l-1.957,-14.958l-6.967,-3.421l0.008,-0.121l-6.834,4.25l-1.332,13.918l1.748,3.249l12.982,0.5l2.352,-3.417Z" style="fill:#2a2b2a;fill-rule:nonzero;"/><path d="M2004,162.75l6.708,42.65l-29.847,0.233l6.389,-42.383l16.75,-0.5Z" style="fill:#e4e2dc;fill-rule:nonzero;"/><path d="M2004.29,164.5l-17.148,0l0.5,-2.75l16.148,0l0.5,2.75Z" style="fill:#2a2b2a;fill-rule:nonzero;"/></g><g><path d="M2123.98,231.02l0.943,6.871l-6.697,-0.172l-0.516,-7.384l6.27,0.685Z" style="fill:#2a2b2a;fill-rule:nonzero;"/><path d="M2111.75,249.311l0.773,2.189l5.28,0l1.353,-9.981l-6.029,-1.266l-1.377,9.058Z" style="fill:#2a2b2a;fill-rule:nonzero;"/><path d="M2109.82,130.405l2.834,-1.889l2.061,-5.839l4.757,1.357l1.51,3.709l3.262,1.632l-7.103,11.462l-7.321,-10.432Z" style="fill:#ceab97;fill-rule:nonzero;"/><path d="M2112.11,126.839l9.286,0l4.616,-5.935l-3.324,-12.694l-8.234,-1.375l-5.116,2.034l-2.336,12.035l5.108,5.935Z" style="fill:#e1c5b5;fill-rule:nonzero;"/><path d="M2123,113.456l2.822,0.047l0.223,4.916l-2.879,-0.15l-0.166,-4.813Z" style="fill:#e1c5b5;fill-rule:nonzero;"/><path d="M2109.71,114.125l-2.849,0.775l0.224,4.122l2.518,0.098l0.107,-4.995Z" style="fill:#e1c5b5;fill-rule:nonzero;"/><path d="M2133.65,168.531l-9.661,62.489l-5.41,0l-1.201,-52.358l2.794,23.96l-1.078,38.96l-5.923,-1.288l-5.594,-37.427l-6.533,-33.822l32.606,-0.514Z" style="fill:#313156;fill-rule:nonzero;"/><clipPath id="tag9"><rect x="2117.92" y="178.562" width="9.331" height="52.467"/></clipPath><g clip-path="url(#tag9)"><g opacity="0.25"><path d="M2117.92,178.562l2.72,26.107l-1.282,26.36l5.317,-10.071l2.576,-35.69l-9.331,-6.706Z" style="fill:#171817;fill-rule:nonzero;"/></g></g><path d="M2092.98,164.49l-2.349,5.768l1.201,7.992l2.654,-1.018l0.541,-6.748l-0.22,2.034l2.4,0.107l-0.872,-5.549l-3.355,-2.586Z" style="fill:#e1c5b5;fill-rule:nonzero;"/><path d="M2143.09,164.768l1.776,4.479l-0.907,7.378l-2.899,-0.381l-0.588,-6.746l0.232,2.033l-2.494,0.344l0.837,-5.593l4.043,-1.514Z" style="fill:#e1c5b5;fill-rule:nonzero;"/><path d="M2124.37,129.246l6.225,2.705l12.709,33.659l-4.356,0.601l-9.115,-22.124l3.873,24.442l-32.668,0.516l4.389,-24.709l-9.026,22.819l-4.056,-1.459l11.63,-31.856l5.84,-3.565l8.371,3.502l6.184,-4.531Z" style="fill:#e4e2dc;fill-rule:nonzero;"/></g><g><path d="M2066.48,231.02l0.943,6.871l-6.697,-0.172l-0.516,-7.384l6.27,0.685Z" style="fill:#ceab97;fill-rule:nonzero;"/><path d="M2069.46,104.669l-4.381,-4.424l-9.435,-0.913l-0.022,0.086l-5.398,2.699l-2.016,2.508l-0.082,26.893l5.056,-0.645l0.641,-1.182l3.467,-1.412l6.194,0.897l3.349,1.827l4.277,-0.258l-1.65,-26.076Z" style="fill:#f5f3e9;fill-rule:nonzero;"/><path d="M2054.25,249.311l0.773,2.189l5.28,0l1.353,-9.981l-6.029,-1.266l-1.377,9.058Z" style="fill:#ceab97;fill-rule:nonzero;"/><path d="M2052.32,125.405l2.834,-1.889l2.061,-5.839l4.757,1.357l1.51,3.709l3.262,1.632l0.869,18.297l-7.972,13.165l-7.321,-30.432Z" style="fill:#ceab97;fill-rule:nonzero;"/><path d="M2057.11,121.839l4.286,0l4.616,-5.935l-0.824,-10.944l-8.234,-1.375l-5.116,2.034l0.164,10.285l5.108,5.935Z" style="fill:#e1c5b5;fill-rule:nonzero;"/><path d="M2063.5,108.456l2.822,0.047l0.223,4.916l-2.879,-0.15l-0.166,-4.813Z" style="fill:#e1c5b5;fill-rule:nonzero;"/><path d="M2053.96,109.125l-2.848,0.775l0.224,4.122l2.518,0.098l0.106,-4.995Z" style="fill:#e1c5b5;fill-rule:nonzero;"/><path d="M2071.15,163.531l-4.661,67.489l-5.41,0l-1.201,-57.358l2.794,26.46l-1.078,41.46l-5.923,-1.288l-3.094,-39.927l-4.033,-36.322l22.606,-0.514Z" style="fill:#5c5e5f;fill-rule:nonzero;"/><clipPath id="tag10"><rect x="2060.42" y="173.562" width="9.331" height="57.467"/></clipPath><g clip-path="url(#tag10)"><g opacity="0.25"><path d="M2060.42,173.562l2.72,28.607l-1.282,28.86l5.317,-10.071l2.576,-38.19l-9.331,-9.206Z" style="fill:#171817;fill-rule:nonzero;"/></g></g><path d="M2041.23,159.49l-2.349,5.768l0.451,7.992l2.654,-1.018l0.541,-6.748l-0.22,2.034l2.4,0.107l-0.872,-5.549l-2.605,-2.586Z" style="fill:#ceab97;fill-rule:nonzero;"/><path d="M2077.34,159.768l1.776,4.479l-0.157,7.378l-2.899,-0.381l-0.588,-6.746l0.232,2.033l-2.494,0.344l0.837,-5.593l3.293,-1.514Z" style="fill:#ceab97;fill-rule:nonzero;"/><path d="M2066.87,124.246l6.225,2.705l4.459,33.659l-3.606,0.601l-4.115,-29.624l1.373,31.942l-22.668,0.516l1.889,-29.709l-6.526,27.819l-3.306,-1.459l5.88,-31.856l5.84,-3.565l2.546,8.6l10.825,-0.098l1.184,-9.531Z" style="fill:#2a2b2a;fill-rule:nonzero;"/></g><g><path d="M562.279,239.835l0.56,4.081l-3.978,-0.102l-0.307,-4.386l3.725,0.407Z" style="fill:#fec;fill-rule:nonzero;"/><path d="M564.833,164.667l-3.75,-3.167l-5.244,0.108l-1.006,-0.108l-4.583,3.5l1.123,15.728l3.003,-0.383l0.381,-0.702l2.059,-0.839l3.68,0.533l1.989,1.085l2.541,-0.153l-0.193,-15.602Z" style="fill:#2a2b2a;fill-rule:nonzero;"/><path d="M554.009,250.637l1.461,1.363l3.136,0l0.831,-6.187l-4.609,-0.555l-0.819,5.379Z" style="fill:#fec;fill-rule:nonzero;"/><path d="M553.862,177.097l1.684,-1.122l1.224,-3.468l2.826,0.806l0.897,2.203l1.937,0.969l0.517,10.869l-4.735,7.82l-4.35,-18.077Z" style="fill:#553f37;fill-rule:nonzero;"/><path d="M556.71,174.978l2.546,0l2.742,-3.525l-0.489,-6.501l-4.892,-0.818l-3.039,1.209l0.098,6.11l3.034,3.525Z" style="fill:#72594b;fill-rule:nonzero;"/><path d="M561.337,167.028l1.676,0.028l0.133,2.92l-1.71,-0.089l-0.099,-2.859Z" style="fill:#72594b;fill-rule:nonzero;"/><path d="M553.837,167.426l-1.691,0.461l0.132,2.448l1.497,0.059l0.062,-2.968Z" style="fill:#72594b;fill-rule:nonzero;"/><path d="M564.047,199.744l0.584,6.046l-2.352,34.045l-3.213,0l-0.714,-34.072l1.66,15.717l0.36,24.628l-5.52,-0.764l-0.837,-23.718l-1.73,-15.582l0.335,-5.994l11.427,-0.306Z" style="fill:#c1beba;fill-rule:nonzero;"/><clipPath id="tag11"><rect x="558.675" y="205.703" width="5.543" height="32.797"/></clipPath><g clip-path="url(#tag11)"><g opacity="0.25"><path d="M558.675,205.703l1.615,16.993l0.023,15.804l2.375,-4.643l1.53,-22.685l-5.543,-5.469Z" style="fill:#171817;fill-rule:nonzero;"/></g></g><path d="M547.278,197.344l-1.396,3.427l0.268,4.747l1.576,-0.605l0.323,-4.008l-0.131,1.209l1.424,0.062l-0.516,-3.296l-1.548,-1.536Z" style="fill:#553f37;fill-rule:nonzero;"/><path d="M568.727,197.509l1.055,2.66l-0.094,4.384l-1.722,-0.228l-0.349,-4.006l0.137,1.208l-1.481,0.204l0.497,-3.323l1.957,-0.899Z" style="fill:#553f37;fill-rule:nonzero;"/><path d="M562.509,176.408l4.472,1.765l2.648,19.995l-2.916,0.198l-2.444,-17.598l0.376,24.981l-12.375,0.306l0.47,-23.654l-3.876,16.526l-2.697,-1.26l4.227,-18.53l3.469,-2.118l1.72,1.981l5.25,0.083l1.676,-2.675Z" style="fill:#694;fill-rule:nonzero;"/></g><g><path d="M2169.51,231.914l-0.944,6.753l5.738,-0.145l-0.203,-7.1l-4.591,0.492Z" style="fill:#553f37;fill-rule:nonzero;"/><path d="M2174.34,242.231l1.346,9.769l5.301,0l0.758,-2.111l-1.376,-8.902l-6.029,1.244Z" style="fill:#553f37;fill-rule:nonzero;"/><path d="M2183.67,128.123l-2.834,-1.855l-2.062,-5.738l-4.757,1.332l-1.511,3.645l-3.261,1.604l7.104,11.264l7.321,-10.252Z" style="fill:#cdaa97;fill-rule:nonzero;"/><path d="M2178.88,124.618l-4.285,0l-4.618,-5.831l0.825,-11.984l7.734,-1.843l5.117,2l0.335,11.827l-5.108,5.831Z" style="fill:#cdaa97;fill-rule:nonzero;"/><path d="M2170.49,111.467l-2.821,0.046l-0.223,4.831l2.878,-0.146l0.166,-4.731Z" style="fill:#cdaa97;fill-rule:nonzero;"/><path d="M2183.78,112.125l2.848,0.762l-0.223,4.05l-2.518,0.096l-0.107,-4.908Z" style="fill:#cdaa97;fill-rule:nonzero;"/><path d="M2164.84,165.592l4.661,66.322l5.409,0l1.201,-56.366l-2.795,26.002l1.079,40.744l5.924,-1.266l3.093,-39.237l4.033,-35.694l-22.605,-0.505Z" style="fill:#c1beba;fill-rule:nonzero;"/><clipPath id="tag12"><rect x="2166.24" y="175.449" width="9.332" height="56.475"/></clipPath><g clip-path="url(#tag12)"><g opacity="0.25"><path d="M2175.57,175.449l-2.72,28.113l1.282,28.362l-5.317,-9.899l-2.577,-37.529l9.332,-9.047Z" style="fill:#171818;fill-rule:nonzero;"/></g></g><path d="M2194.76,161.62l2.349,5.668l-0.451,7.854l-2.653,-1l-0.541,-6.631l0.219,1.998l-2.399,0.105l0.872,-5.452l2.604,-2.542Z" style="fill:#cdaa97;fill-rule:nonzero;"/><path d="M2158.65,161.893l-1.776,4.401l0.157,7.252l2.9,-0.377l0.588,-6.627l-0.232,1.997l2.494,0.339l-0.838,-5.497l-3.293,-1.488Z" style="fill:#cdaa97;fill-rule:nonzero;"/><path d="M2169.12,126.985l-7.226,3.149l-0.748,8.78l4.228,0.831l0.783,-5.547l-1.373,31.391l22.668,0.507l-1.889,-29.196l1.069,4.477l4.652,-1.632l-1.769,-8.246l-5.839,-3.503l-7.872,3.933l-6.684,-4.944Z" style="fill:#494a72;fill-rule:nonzero;"/><path d="M2191.28,139.745l-4.652,1.632l5.457,22.861l3.305,-1.433l-4.11,-23.06Z" style="fill:#cdaa97;fill-rule:nonzero;"/><path d="M2182.43,120.783l-4.554,5.217l-2.892,0l-3.455,-5.16l0.797,-0.38l2.743,1.54l2.915,0l3.538,-1.485l0.908,0.268Z" style="fill:#2a2b2a;fill-rule:nonzero;"/><path d="M2165.37,139.745l-4.228,-0.831l-2.709,23.807l3.605,0.59l3.332,-23.566Z" style="fill:#cdaa97;fill-rule:nonzero;"/></g><g><path d="M369.506,231.914l-0.944,6.753l5.738,-0.145l-0.203,-7.1l-4.591,0.492Z" style="fill:#553f37;fill-rule:nonzero;"/><path d="M374.335,242.231l1.347,9.769l5.301,0l0.757,-2.111l-1.376,-8.902l-6.029,1.244Z" style="fill:#553f37;fill-rule:nonzero;"/><path d="M383.674,136.123l-2.834,-1.855l-2.062,-5.738l-4.757,1.332l-1.511,3.645l-3.261,1.604l7.104,11.264l7.321,-10.252Z" style="fill:#cdaa97;fill-rule:nonzero;"/><path d="M378.88,132.618l-4.285,0l-4.618,-5.831l0.825,-11.984l7.734,-1.843l5.117,2l0.335,11.827l-5.108,5.831Z" style="fill:#cdaa97;fill-rule:nonzero;"/><path d="M370.492,119.467l-2.821,0.046l-0.223,4.831l2.878,-0.146l0.166,-4.731Z" style="fill:#cdaa97;fill-rule:nonzero;"/><path d="M383.782,120.125l2.848,0.762l-0.223,4.05l-2.518,0.096l-0.107,-4.908Z" style="fill:#cdaa97;fill-rule:nonzero;"/><path d="M364.75,177.583l4.756,57.334l5.409,0l1.201,-44.362l-2.796,13.998l1.079,37.741l5.924,-1.267l3.094,-36.233l4.033,-26.693l-22.7,-0.518Z" style="fill:#c1beba;fill-rule:nonzero;"/><clipPath id="tag13"><rect x="366.562" y="187.453" width="9.01" height="44.471"/></clipPath><g clip-path="url(#tag13)"><g opacity="0.25"><path d="M375.572,187.453l-2.72,19.112l1.282,25.359l-5.317,-6.896l-2.255,-25.903l9.01,-11.672Z" style="fill:#171818;fill-rule:nonzero;"/></g></g><path d="M394.953,169.797l2.349,5.668l-0.451,7.854l-2.653,-1l-0.541,-6.631l0.219,1.998l-2.399,0.105l0.632,-5.588l2.844,-2.406Z" style="fill:#cdaa97;fill-rule:nonzero;"/><path d="M358.651,169.893l-1.776,4.401l0.157,7.252l2.9,-0.377l0.588,-6.627l-0.232,1.997l2.494,0.339l-0.751,-5.581l-3.38,-1.404Z" style="fill:#cdaa97;fill-rule:nonzero;"/><path d="M391.282,147.745l-4.652,1.632l5.457,22.861l3.305,-1.433l-4.11,-23.06Z" style="fill:#cdaa97;fill-rule:nonzero;"/><path d="M365.372,147.745l-4.228,-0.831l-2.709,23.807l3.605,0.59l3.332,-23.566Z" style="fill:#cdaa97;fill-rule:nonzero;"/><path d="M369.118,134.985l-7.226,3.149l-3.057,24.785l4.915,1.018l2.405,-21.739l-1.373,35.395l22.668,0.507l-1.889,-33.2l4.661,21.356l4.653,-1.631l-5.362,-25.126l-5.839,-3.503l-7.872,3.933l-6.684,-4.944Z" style="fill:#ae1f25;fill-rule:nonzero;"/><path d="M382.434,128.783l-4.554,11.217l-2.892,0l-3.455,-11.16l0.797,-0.38l2.743,1.54l2.915,0l3.538,-1.485l0.908,0.268Z" style="fill:#e4e2dc;fill-rule:nonzero;"/></g><g><path d="M1660.03,231.02l-0.943,6.871l6.697,-0.172l0.516,-7.384l-6.27,0.685Z" style="fill:#2a2b2a;fill-rule:nonzero;"/><path d="M1664.86,241.519l1.353,9.981l5.28,0l0.774,-2.189l-1.377,-9.057l-6.03,1.265Z" style="fill:#2a2b2a;fill-rule:nonzero;"/><path d="M1674.19,120.405l-2.834,-1.889l-2.061,-5.839l-4.757,1.357l-1.51,3.709l-3.262,1.632l7.103,11.462l7.321,-10.432Z" style="fill:#553f37;fill-rule:nonzero;"/><path d="M1669.4,116.839l-4.286,0l-4.616,-5.935l0.824,-12.694l1.762,-1.462l8.722,0.087l2.867,2.034l-0.166,12.035l-5.107,5.935Z" style="fill:#72594b;fill-rule:nonzero;"/><path d="M1661.01,103.456l-2.822,0.047l-0.223,4.916l2.879,-0.15l0.166,-4.813Z" style="fill:#72594b;fill-rule:nonzero;"/><path d="M1674.3,104.125l2.848,0.775l-0.224,4.122l-2.518,0.098l-0.106,-4.995Z" style="fill:#72594b;fill-rule:nonzero;"/><path d="M1655.36,161.031l4.661,69.989l5.41,0l1.201,-59.858l-2.794,28.96l1.078,41.46l5.923,-1.288l3.094,-39.927l4.033,-38.822l-22.606,-0.514Z" style="fill:#5c5e5f;fill-rule:nonzero;"/><clipPath id="tag14"><rect x="1656.76" y="171.062" width="9.33" height="59.967"/></clipPath><g clip-path="url(#tag14)"><g opacity="0.5"><path d="M1666.09,171.062l-2.719,31.107l1.282,28.86l-5.317,-10.071l-2.576,-40.69l9.33,-9.206Z" style="fill:#171817;fill-rule:nonzero;"/></g></g><path d="M1685.28,156.99l2.349,5.768l-0.452,7.992l-2.653,-1.018l-0.541,-6.748l0.22,2.034l-2.4,0.107l0.873,-5.549l2.604,-2.586Z" style="fill:#72594b;fill-rule:nonzero;"/><path d="M1649.17,157.268l-1.776,4.479l0.157,7.378l2.899,-0.381l0.588,-6.746l-0.233,2.033l2.495,0.344l-0.837,-5.593l-3.293,-1.514Z" style="fill:#72594b;fill-rule:nonzero;"/><path d="M1659.64,119.246l-6.225,2.705l-4.459,36.159l3.606,0.601l4.115,-32.124l-1.373,34.442l22.668,0.516l-1.889,-32.209l6.526,30.319l3.306,-1.459l-5.881,-34.356l-5.839,-3.565l-8.371,-0.498l-6.184,-0.531Z" style="fill:#ebdab0;fill-rule:nonzero;"/><path d="M1676.31,134.312l1.658,27.232l-22.668,-0.515l0.198,-5.967" style="fill:#e0cea8;fill-rule:nonzero;"/></g><g><path d="M1734.98,231.02l0.943,6.871l-6.697,-0.172l-0.516,-7.384l6.27,0.685Z" style="fill:#2a2b2a;fill-rule:nonzero;"/><path d="M1722.75,249.311l0.774,2.189l5.28,0l1.353,-9.981l-6.03,-1.266l-1.377,9.058Z" style="fill:#2a2b2a;fill-rule:nonzero;"/><path d="M1720.82,130.405l2.834,-1.889l2.061,-5.839l4.757,1.357l1.51,3.709l3.262,1.632l-7.103,11.462l-7.321,-10.432Z" style="fill:#ceab97;fill-rule:nonzero;"/><path d="M1723.11,126.839l9.286,0l4.616,-5.935l-3.324,-12.694l-8.234,-1.375l-5.116,2.034l-2.336,12.035l5.108,5.935Z" style="fill:#e1c5b5;fill-rule:nonzero;"/><path d="M1734,113.456l2.822,0.047l0.223,4.916l-2.879,-0.15l-0.166,-4.813Z" style="fill:#e1c5b5;fill-rule:nonzero;"/><path d="M1720.71,114.125l-2.849,0.775l0.224,4.122l2.518,0.098l0.107,-4.995Z" style="fill:#e1c5b5;fill-rule:nonzero;"/><path d="M1722.96,107.05l0.43,-1.718l12.865,2.918l4.82,26.417l-5.559,-1.166l-3.498,-22l-7.511,-2.476l-1.547,-1.975Z" style="fill:#f5f3e9;fill-rule:nonzero;"/><path d="M1744.65,168.531l-9.661,62.489l-5.41,0l-1.201,-52.358l2.794,23.96l-1.078,38.96l-5.923,-1.288l-5.594,-37.427l-6.533,-33.822l32.606,-0.514Z" style="fill:#c1beba;fill-rule:nonzero;"/><path d="M1724.55,109.024l-3.479,1.417l-1.109,6.184l-4.588,-4.358l0.582,-3.142l7.5,-3.75l1.094,3.649Z" style="fill:#f5f3e9;fill-rule:nonzero;"/><clipPath id="tag15"><rect x="1728.92" y="178.562" width="12.271" height="52.467"/></clipPath><g clip-path="url(#tag15)"><g opacity="0.25"><path d="M1728.92,178.562l2.72,26.107l-1.282,26.36l5.478,-5.279l5.355,-34.875l-12.271,-12.313Z" style="fill:#171817;fill-rule:nonzero;"/></g></g><path d="M1703.98,164.49l-2.349,5.768l1.201,7.992l2.654,-1.018l0.541,-6.748l-0.22,2.034l2.4,0.107l-0.872,-5.549l-3.355,-2.586Z" style="fill:#e1c5b5;fill-rule:nonzero;"/><path d="M1754.09,164.768l1.776,4.479l-0.907,7.378l-2.899,-0.381l-0.588,-6.746l0.232,2.033l-2.494,0.344l0.837,-5.593l4.043,-1.514Z" style="fill:#e1c5b5;fill-rule:nonzero;"/><path d="M1735.37,129.246l6.225,2.705l12.709,33.659l-4.356,0.601l-9.115,-22.124l3.873,24.442l-32.668,0.516l4.389,-24.709l-9.026,22.819l-4.056,-1.459l11.631,-31.856l5.839,-3.565l8.371,3.502l6.184,-4.531Z" style="fill:#ae1f25;fill-rule:nonzero;"/></g><g><path d="M660.987,209.8l-3.961,1.396l-15.004,-36.722l3.79,-2.099l15.175,37.425Z" style="fill:#c1beba;fill-rule:nonzero;"/><path d="M611.173,169.83l-1.037,5.519l1.428,7.046l2.572,-1.444l-0.736,-6.06l0.17,1.837l2.392,-0.594l-2.019,-4.489l-2.77,-1.815Z" style="fill:#e1c5b5;fill-rule:nonzero;"/><path d="M618.904,137.247l4.798,-1.888l10.425,-0.406l-1.975,-8.332l-12.688,-0.233l-0.56,10.859Z" style="fill:#543e36;fill-rule:nonzero;"/><path d="M632.616,233.534l0.853,6.195l-6.039,-0.155l-0.465,-6.658l5.651,0.618Z" style="fill:#988a74;fill-rule:nonzero;"/><path d="M621.584,250.025l0.697,1.975l4.761,0l1.218,-9.001l-5.436,-1.141l-1.24,8.167Z" style="fill:#988a74;fill-rule:nonzero;"/><path d="M619.843,135.302l2.554,-1.703l1.857,-5.265l4.292,1.223l1.361,3.346l2.942,1.47l-1.858,6.116l-8.748,0.233l-2.4,-5.42Z" style="fill:#ceab97;fill-rule:nonzero;"/><path d="M624.164,132.086l3.864,0l4.162,-5.351l-0.744,-11.446l-7.423,-1.24l-4.614,1.835l0.149,10.851l4.606,5.351Z" style="fill:#e1c5b5;fill-rule:nonzero;"/><path d="M618.257,143.295l-4.264,28.762l-3.05,-1.145l3.803,-32.068l3.511,4.451Z" style="fill:#e1c5b5;fill-rule:nonzero;"/><path d="M625.28,110.664l8.583,2.708l4.72,23.372l-4.864,5.003l0.059,-5.574l-0.31,-1.646l-1.491,-7.529l-1.864,-9.501l-5.103,-2.083l0.27,-4.75Z" style="fill:#543e36;fill-rule:nonzero;"/><path d="M625.097,115.414l-5.022,1.887l-0.588,22.196l-4.248,-0.749l0.832,-23.918l9.334,-4.25l-0.308,4.834Z" style="fill:#543e36;fill-rule:nonzero;"/><path d="M627.121,196.062l0.929,46.917l-5.188,-1.083l-4.568,-45.989" style="fill:#e1c5b5;fill-rule:nonzero;"/><path d="M626.965,179.494l0.156,19.819l0.736,33.835l4.759,0.386l2.324,-34.433l-7.975,-19.607Z" style="fill:#ceab97;fill-rule:nonzero;"/><path d="M638.579,136.695l-5.701,-2.352l-2.274,5.603l-8.052,0.233l-2.709,-4.994l-5.189,3.563l3.485,4.605l1.434,17.397l-8.209,40.15l29.847,0.233l-7.89,-39.883l2.315,-20.374l2.943,-4.181Z" style="fill:#fec;fill-rule:nonzero;"/><path d="M636.188,140.099l7.047,30.662l3.171,-0.902l-7.874,-33.155l-2.344,3.395Z" style="fill:#e1c5b5;fill-rule:nonzero;"/><path d="M646.394,169.763l4.569,6.795l-1.953,3.734l-2.214,-5.479l-2.521,-0.983l-0.732,4.344l-2.312,-1.19l2.034,-6.265l3.129,-0.956Z" style="fill:#e1c5b5;fill-rule:nonzero;"/><path d="M643.312,226.625l0.354,22.084l3.662,-0.006l0.296,-16.078l-4.312,-6Z" style="fill:#2a2b2a;fill-rule:nonzero;"/><path d="M645.5,229.812l-0.25,10.125l-1.703,1.656l0.109,7.156l3.766,0l0.245,-17.352l-2.167,-1.585Z" style="fill:#f4f2ed;fill-rule:nonzero;"/><path d="M657.625,233.75l-0.266,15l-4.109,0l0.063,-14.375l4.312,-0.625Z" style="fill:#f4f2ed;fill-rule:nonzero;"/><path d="M646.813,215.375l-3.5,11.25l5.25,9.875l1.125,15.5l4.124,0l0.75,-16.252l4.833,0l0.5,16.252l3.917,0l3.126,-40.626l-12.25,-0.25l-7.875,4.251Z" style="fill:#2a2b2a;fill-rule:nonzero;"/><path d="M654.625,211.125l-0.156,13.375l5.968,5.937l5.469,-5.281l1.094,-13.781l-12.375,-0.25Z" style="fill:#f4f2ed;fill-rule:nonzero;"/><path d="M666.797,206.109l1.789,-2.846l3.398,0.815l-1.218,-3.719l-7.219,0l3.25,5.75Z" style="fill:#2a2b2a;fill-rule:nonzero;"/><path d="M655.25,206.438l-2.242,-3.158l-3.399,0.814l1.297,-3.687l7.141,-0.031l-2.797,6.062Z" style="fill:#2a2b2a;fill-rule:nonzero;"/><path d="M657.937,200.375l-4.812,9.531l5.624,5.657l5.125,0l5.376,-5.438l-5.626,-9.75l-5.687,0Z" style="fill:#2a2b2a;fill-rule:nonzero;"/></g><g><path d="M768,104.562l-4.187,0.687l-1.125,-9.5l4.625,-6l6.062,1.438l6.438,-3.312l3.25,6.999l6.749,2.751l-3.062,8.562l-4,-1" style="fill:#2a2b2a;fill-rule:nonzero;"/><path d="M731.686,197.436l3.961,1.396l19.914,-35.765l-3.79,-2.099l-20.085,36.468Z" style="fill:#c1beba;fill-rule:nonzero;"/><path d="M767.588,231.52l-0.943,6.871l6.697,-0.172l0.516,-7.384l-6.27,0.685Z" style="fill:#2a2b2a;fill-rule:nonzero;"/><path d="M772.418,242.019l1.353,9.981l5.28,0l0.773,-2.19l-1.377,-9.057l-6.029,1.266Z" style="fill:#2a2b2a;fill-rule:nonzero;"/><path d="M781.756,120.905l-2.834,-1.889l-2.061,-5.839l-4.757,1.357l-1.51,3.709l-3.262,1.632l7.103,11.462l7.321,-10.432Z" style="fill:#aa8b7e;fill-rule:nonzero;"/><path d="M776.963,117.339l-4.286,0l-4.616,-5.935l0.824,-12.694l1.762,-1.462l8.722,0.087l2.867,2.034l-0.166,12.035l-5.107,5.935Z" style="fill:#ceab97;fill-rule:nonzero;"/><path d="M768.576,103.956l-2.822,0.047l-0.223,4.916l2.879,-0.15l0.166,-4.813Z" style="fill:#ceab97;fill-rule:nonzero;"/><path d="M781.864,104.625l2.848,0.775l-0.224,4.122l-2.518,0.098l-0.106,-4.995Z" style="fill:#ceab97;fill-rule:nonzero;"/><path d="M762.927,161.531l4.661,69.989l5.41,0l1.201,-59.858l-2.794,28.96l1.078,41.46l5.923,-1.288l3.094,-39.927l4.033,-38.822l-22.606,-0.514Z" style="fill:#5c5e5f;fill-rule:nonzero;"/><clipPath id="tag16"><rect x="764.324" y="171.562" width="9.33" height="59.967"/></clipPath><g clip-path="url(#tag16)"><g opacity="0.5"><path d="M773.654,171.562l-2.719,31.107l1.282,28.86l-5.317,-10.071l-2.576,-40.69l9.33,-9.206Z" style="fill:#171817;fill-rule:nonzero;"/></g></g><path d="M792.841,157.49l2.349,5.768l-0.452,7.992l-2.653,-1.018l-0.541,-6.748l0.22,2.034l-2.4,0.107l0.873,-5.549l2.604,-2.586Z" style="fill:#ceab97;fill-rule:nonzero;"/><path d="M751.443,155.976l-1.776,4.479l0.157,7.378l2.899,-0.381l0.588,-6.746l-0.233,2.033l2.495,0.344l-0.837,-5.593l-3.293,-1.514Z" style="fill:#ceab97;fill-rule:nonzero;"/><path d="M767.201,119.746l-6.225,2.705l-9.836,34.315l3.59,0.735l9.508,-30.414l-1.373,34.442l22.668,0.516l-1.889,-32.209l6.526,30.319l3.306,-1.459l-5.881,-34.356l-5.839,-3.565l-8.371,-0.498l-6.184,-0.531Z" style="fill:#ef9c74;fill-rule:nonzero;"/><path d="M767.578,231.516l4.672,-0.016l-1.328,-30.078l0.765,-5.672l-6.5,-0.5l2.391,36.266Z" style="fill:#aa8b7e;fill-rule:nonzero;"/><path d="M771.531,195.734l-0.625,5.734l1.531,40.625l5.99,-1.302l3.575,-44.964l-10.471,-0.093Z" style="fill:#ceab97;fill-rule:nonzero;"/><path d="M753.48,214.648l-0.521,32.508l-5.39,-0.009l-0.437,-23.667l6.348,-8.832Z" style="fill:#2a2b2a;fill-rule:nonzero;"/><path d="M747.25,230.022l5.907,6.875l-0.183,10.319l-5.505,0.003l-0.219,-17.197Z" style="fill:#cead80;fill-rule:nonzero;"/><path d="M732.411,225.136l0.392,22.08l6.048,0l-0.091,-21.16l-6.349,-0.92Z" style="fill:#2a2b2a;fill-rule:nonzero;"/><path d="M718.703,192.2l4.601,59.801l5.765,0l0.737,-23.922l7.115,0l1.102,23.922l6.073,0l1.656,-22.817l7.727,-14.536l-5.152,-16.559l-11.592,-6.257l-18.032,0.368Z" style="fill:#cead80;fill-rule:nonzero;"/><path d="M736.827,191.831l0.185,20.333l-7.643,7.648l-9.25,-9.156l-1.508,-18.457l18.216,-0.368Z" style="fill:#f6f1e1;fill-rule:nonzero;"/><path d="M718.91,184.448l-5.864,-9.031l2.168,-4.166l8.48,4.733l-4.784,8.464Z" style="fill:#2a2b2a;fill-rule:nonzero;"/><path d="M736.345,184.609l6.368,-9.693l-2.583,-3.499l-8.34,4.59l4.555,8.602Z" style="fill:#2a2b2a;fill-rule:nonzero;"/><path d="M731.951,176.008l6.992,13.615l-8.855,8.752l-5.375,-0.062l-8.625,-8.625l7.491,-13.68l8.372,0Z" style="fill:#cead80;fill-rule:nonzero;"/><path d="M732.213,188.25l-2.125,10.125l-5.375,-0.062l-2.25,-9.938l9.75,-0.125Z" style="fill:#2a2b2a;fill-rule:nonzero;"/></g><g><path d="M823.021,196.188l3.438,-0.062l-0.424,-14.507l-4.201,-0.056l1.187,14.625Z" style="fill:#72594b;fill-rule:nonzero;"/><path d="M849.021,196.188l-3.438,-0.062l0.547,-14.547l4.078,-0.016l-1.187,14.625Z" style="fill:#72594b;fill-rule:nonzero;"/><path d="M847.568,224.156l0.766,4.406l-5.438,0l0.438,-4.422l4.234,0.016Z" style="fill:#ef9c74;fill-rule:nonzero;"/><path d="M842.018,157.493l-3.75,-3.167l-5.244,0.108l-1.006,-0.108l-4.583,3.5l1.123,15.728l3.003,-0.383l0.381,-0.702l2.059,-0.839l3.68,0.533l1.989,1.085l2.541,-0.153l-0.193,-15.602Z" style="fill:#2a2b2a;fill-rule:nonzero;"/><path d="M830.812,238l-0.166,5.917l2.008,0.909l5.325,-0.326l-0.333,-6.667l-6.834,0.167Z" style="fill:#ef9c74;fill-rule:nonzero;"/><path d="M831.047,169.923l1.684,-1.122l1.224,-3.468l2.826,0.806l0.897,2.203l1.937,0.969l0.517,10.869l-4.735,7.82l-4.35,-18.077Z" style="fill:#553f37;fill-rule:nonzero;"/><path d="M833.894,167.805l2.546,0l2.742,-3.525l-0.489,-6.501l-4.892,-0.818l-3.039,1.209l0.098,6.11l3.034,3.525Z" style="fill:#72594b;fill-rule:nonzero;"/><path d="M838.521,159.855l1.676,0.028l0.133,2.92l-1.71,-0.089l-0.099,-2.859Z" style="fill:#72594b;fill-rule:nonzero;"/><path d="M831.021,160.252l-1.691,0.461l0.132,2.448l1.497,0.059l0.062,-2.968Z" style="fill:#72594b;fill-rule:nonzero;"/><path d="M842.232,192.57l5.444,20.627l-0.108,10.975l-4.234,0.031l-0.854,-10.703l-5.417,-12.583l0.75,13.5l-0.167,23.5l-7,0.253l0.083,-23.502l-1.926,-21.792l13.429,-0.306Z" style="fill:#5c5e5f;fill-rule:nonzero;"/><clipPath id="tag17"><rect x="842.442" y="213.484" width="5.267" height="10.734"/></clipPath><g clip-path="url(#tag17)"><g opacity="0.5"><path d="M842.442,213.529l0.892,10.689l4.234,-0.062l0.141,-10.672l-5.267,0.045Z" style="fill:#171817;fill-rule:nonzero;"/></g></g><path d="M839.693,169.234l4.472,1.765l6.106,10.563l-4.174,0.038l-4.599,-8.093l0.77,19.062l-13.465,0.307l1.121,-17.649l-3.778,6.523l-4.375,-0.125l5.807,-9.662l3.469,-2.118l1.72,1.981l5.25,0.083l1.676,-2.675Z" style="fill:#fec;fill-rule:nonzero;"/><path d="M832.79,244.334l-0.299,-38.665l3.413,0.009l0.23,38.476l-3.344,0.18Z" style="fill:#f4f2ed;fill-rule:nonzero;"/><path d="M833.395,241.944l-1.243,1.289l0.046,6.429l1.38,1.837l2.252,0l1.334,-2.07l-0.183,-6.429l-1.38,-1.056l-2.206,0Z" style="fill:#694;fill-rule:nonzero;"/><path d="M835.997,212.688l-3.5,-3.531l0,-7.473l3.407,0.063l0.093,10.941Z" style="fill:#c1bebb;fill-rule:nonzero;"/><path d="M828.353,198.417l11.372,-0.07l-0.002,3.414l-11.317,0l-0.053,-3.344Z" style="fill:#f4f2ed;fill-rule:nonzero;"/><path d="M838.958,197.859l0.246,4.452l13.491,-1.481l-0.643,-5.347l-13.094,2.376Z" style="fill:#694;fill-rule:nonzero;"/><path d="M830.238,197.971l-0.248,4.455l-13.488,-1.484l0.64,-5.347l13.096,2.376Z" style="fill:#694;fill-rule:nonzero;"/><path d="M843.275,195.751l-0.402,2.891l7.334,0.233l0.23,-3.277l-7.162,0.153Z" style="fill:#72594b;fill-rule:nonzero;"/><path d="M821.088,195.501l-0.402,2.891l7.334,0.233l0.23,-3.277l-7.162,0.153Z" style="fill:#72594b;fill-rule:nonzero;"/><path d="M827.125,159.293l8.513,-1.63l5.982,0.181l2.113,-3.747l-7.394,-5.329l-4.754,0.038l-7.663,7.709l3.203,2.778Z" style="fill:#36823f;fill-rule:nonzero;"/><path d="M827.125,159.293l8.513,-1.63l6.34,0.249l1.755,-3.8l-9.501,-0.218l-10.243,2.688l3.136,2.711Z" style="fill:#669b45;fill-rule:nonzero;"/></g><g><path d="M1199.15,145.5l6.024,26.479l3.905,-1.791l-7.179,-31.188l-2.75,6.5Z" style="fill:#72594b;fill-rule:nonzero;"/><path d="M1208.46,170.017l4.797,1.093l0.812,5.344l-8.085,0.646l-0.034,-5.902l0.329,1.814l-3.729,0.645l-0.322,-3.547l6.232,-0.093Z" style="fill:#72594b;fill-rule:nonzero;"/><path d="M1245.22,230.52l0.943,6.871l-9.701,-0.172l-0.515,-7.384l9.273,0.685Z" style="fill:#2a2b2a;fill-rule:nonzero;"/><path d="M1228.35,239.753l-1.377,9.058l0.773,2.189l8.284,0l1.351,-9.981l-9.031,-1.266Z" style="fill:#2a2b2a;fill-rule:nonzero;"/><path d="M1228.04,124.905l1.291,-1.889l2.061,-5.839l7.5,1.489l1.509,3.709l2.063,1.5l-7.102,11.462l-7.322,-10.432Z" style="fill:#ceab97;fill-rule:nonzero;"/><path d="M1232.84,121.339l4.287,0l4.615,-5.935l-0.824,-12.694l-8.234,-1.375l-5.115,2.034l0.164,12.035l5.107,5.935Z" style="fill:#e1c5b5;fill-rule:nonzero;"/><path d="M1230.19,101.55l0.43,-1.718l13.816,1.337l1.15,9.826l-4.277,0.258l-3.348,-6.827l-6.224,-0.901l-1.547,-1.975Z" style="fill:#e4e2dc;fill-rule:nonzero;"/><path d="M1241.22,107.956l2.822,0.047l0.223,4.916l-2.879,-0.15l-0.166,-4.813Z" style="fill:#e1c5b5;fill-rule:nonzero;"/><path d="M1231.78,103.524l-3.479,1.417l-0.64,6.182l-5.057,0.644l0.582,-8.142l7.5,-3.75l1.094,3.649Z" style="fill:#e4e2dc;fill-rule:nonzero;"/><path d="M1227.94,108.625l-2.848,0.775l0.223,4.122l2.518,0.098l0.107,-4.995Z" style="fill:#e1c5b5;fill-rule:nonzero;"/><path d="M1255.88,169.037l-10.666,61.483l-8.414,0l-1.201,-57.358l2.795,26.46l-1.078,41.46l-8.926,-1.288l-4.096,-39.927l-7.035,-30.867l23.426,-2.438l15.195,2.475Z" style="fill:#5c5e5f;fill-rule:nonzero;"/><clipPath id="tag18"><rect x="1236.15" y="173.062" width="16.249" height="57.467"/></clipPath><g clip-path="url(#tag18)"><g opacity="0.5"><path d="M1236.15,173.062l4.166,27.896l-2.729,29.571l9.229,-9.113l5.583,-32.25l-16.249,-16.104Z" style="fill:#171817;fill-rule:nonzero;"/></g></g><path d="M1207.13,164.573l-2.349,5.768l0.451,7.992l5.479,-1.596l0.541,-6.748l-0.219,2.034l2.399,0.107l-0.871,-5.549l-5.431,-2.008Z" style="fill:#e1c5b5;fill-rule:nonzero;"/><path d="M1264.4,165.273l1.775,4.479l-0.156,7.378l-5.221,-0.381l-0.587,-6.746l0.232,2.033l-2.494,0.344l0.838,-5.593l5.613,-1.514Z" style="fill:#e1c5b5;fill-rule:nonzero;"/><path d="M1242.6,123.746l10.229,2.705l11.901,39.665l-6.042,0.601l-10.121,-32.627l7.379,34.945l-38.684,-0.035l5.893,-32.161l-10.53,29.821l-5.728,-1.459l12.307,-36.861l8.841,-3.565l8.371,8.502l6.184,-9.531Z" style="fill:#313156;fill-rule:nonzero;"/><path d="M1179.28,139.584l4.798,-1.888l10.425,-0.406l-1.975,-8.332l-12.688,-0.233l-0.56,10.859Z" style="fill:#e4e2dc;fill-rule:nonzero;"/><path d="M1180.22,137.639l2.554,-1.703l1.857,-5.265l4.292,1.223l1.361,3.346l2.942,1.47l-1.858,6.116l-8.748,0.233l-2.4,-5.42Z" style="fill:#553f37;fill-rule:nonzero;"/><path d="M1193.99,232.868l0.853,6.195l-7.039,-0.155l-0.465,-6.658l6.651,0.618Z" style="fill:#2a2b2a;fill-rule:nonzero;"/><path d="M1187.49,195.397l0.929,46.917l-7.19,-1.083l-4.568,-45.989" style="fill:#72594b;fill-rule:nonzero;"/><path d="M1187.34,178.828l0.156,19.819l0.736,33.835l5.76,0.386l2.324,-34.433l-8.976,-19.607Z" style="fill:#553f37;fill-rule:nonzero;"/><path d="M1201.96,139.032l-8.704,-2.352l-2.274,5.603l-8.052,0.233l-2.709,-4.994l-8.192,3.563l4.211,6.999l-0.293,12l-4.205,67.9l29.847,0.233l-3.886,-67.633l0.704,-12.833l3.553,-8.719Z" style="fill:#694;fill-rule:nonzero;"/><path d="M1180.04,249.359l2.614,1.975l4.761,0l1.218,-9.001l-7.353,-1.141l-1.24,8.167Z" style="fill:#2a2b2a;fill-rule:nonzero;"/><path d="M1184.54,134.423l3.864,0l4.162,-5.351l-0.744,-11.446l-7.423,-1.24l-4.614,1.835l0.149,10.851l4.606,5.351Z" style="fill:#72594b;fill-rule:nonzero;"/><path d="M1167.49,169.27l-0.985,5.412l1.427,7.047l2.573,-1.444l-0.737,-6.061l0.171,1.838l2.392,-0.595l-0.966,-4.113l-3.875,-2.084Z" style="fill:#72594b;fill-rule:nonzero;"/><path d="M1176.24,147.958l-4.878,23.433l-4.052,-1.145l4.741,-29.037l4.189,6.749Z" style="fill:#72594b;fill-rule:nonzero;"/><path d="M1185.65,113.001l8.583,2.708l4.707,23.208l-4.851,5.167l0.059,-5.574l-0.31,-1.646l-1.491,-7.529l-1.864,-9.501l-5.103,-2.083l0.27,-4.75Z" style="fill:#e4e2dc;fill-rule:nonzero;"/><path d="M1185.47,117.751l-5.022,1.887l-0.588,22.196l-4.248,-0.749l0.832,-23.918l9.334,-4.25l-0.308,4.834Z" style="fill:#e4e2dc;fill-rule:nonzero;"/></g></g></g></svg>