<?xml version="1.0" standalone="no"?><!DOCTYPE svg PUBLIC "-//W3C//DTD SVG 1.1//EN" "http://www.w3.org/Graphics/SVG/1.1/DTD/svg11.dtd"><svg width="96px" height="168px" version="1.1" xmlns="http://www.w3.org/2000/svg" xmlns:xlink="http://www.w3.org/1999/xlink" xml:space="preserve" style="fill-rule:evenodd;clip-rule:evenodd;stroke-linejoin:round;stroke-miterlimit:1.41421;"><g><g id="barricade" transform="matrix(0.5,0,0,0.5,24,84.5)"><g transform="matrix(1.99989,-9.86076e-32,-9.86076e-32,1.99989,-279.013,-166.982)"><path d="M118.614,167l13.64,0l14.246,-67.333l-12.555,-0.406l-15.331,67.739Z" style="fill:#d8d3cb;fill-rule:nonzero;"/></g><g transform="matrix(1.99989,-9.86076e-32,-9.86076e-32,1.99989,-279.013,-166.982)"><path d="M181.531,99.6674l14.245,67.333l13.642,0l-15.332,-67.74l-12.555,0.407Z" style="fill:#d8d3cb;fill-rule:nonzero;"/></g><g transform="matrix(1.99989,-9.86076e-32,-9.86076e-32,1.99989,-279.013,-166.982)"><path d="M119.013,118.126l88.659,-0.056l1.322,-14.198l-91.381,-0.019l1.4,14.273Z" style="fill:#f4f2ed;fill-rule:nonzero;"/></g><g transform="matrix(1.99989,-9.86076e-32,-9.86076e-32,1.99989,-279.013,-166.982)"><path d="M119.013,118.126l0.455,0l14.27,-14.27l-16.125,-0.003l1.4,14.273Z" style="fill:#ad2125;fill-rule:nonzero;"/></g><g transform="matrix(1.99989,-9.86076e-32,-9.86076e-32,1.99989,-279.013,-166.982)"><path d="M195.058,118.078l12.614,-0.008l1.295,-13.901l-13.909,13.909Z" style="fill:#ad2125;fill-rule:nonzero;"/></g><g transform="matrix(1.99989,-9.86076e-32,-9.86076e-32,1.99989,-279.013,-166.982)"><path d="M133.283,118.117l17.45,-0.011l14.244,-14.243l-17.436,-0.004l-14.258,14.258Z" style="fill:#ad2125;fill-rule:nonzero;"/></g><g transform="matrix(1.99989,-9.86076e-32,-9.86076e-32,1.99989,-279.013,-166.982)"><path d="M164.302,118.098l17.451,-0.011l14.218,-14.217l-17.437,-0.004l-14.232,14.232Z" style="fill:#ad2125;fill-rule:nonzero;"/></g><g transform="matrix(1.99989,-9.86076e-32,-9.86076e-32,1.99989,-279.013,-166.982)"><path d="M117.613,141.399l91.382,-0.019l-1.323,-14.198l-88.659,-0.055l-1.4,14.272Z" style="fill:#f4f2ed;fill-rule:nonzero;"/></g><g transform="matrix(1.99989,-9.86076e-32,-9.86076e-32,1.99989,-279.013,-166.982)"><path d="M117.613,141.399l0.583,0l14.264,-14.264l-13.447,-0.008l-1.4,14.272Z" style="fill:#ad2125;fill-rule:nonzero;"/></g><g transform="matrix(1.99989,-9.86076e-32,-9.86076e-32,1.99989,-279.013,-166.982)"><path d="M193.754,141.383l15.24,-0.003l-1.298,-13.939l-13.942,13.942Z" style="fill:#ad2125;fill-rule:nonzero;"/></g><g transform="matrix(1.99989,-9.86076e-32,-9.86076e-32,1.99989,-279.013,-166.982)"><path d="M132.006,141.396l17.442,-0.004l14.238,-14.238l-17.428,-0.01l-14.252,14.252Z" style="fill:#ad2125;fill-rule:nonzero;"/></g><g transform="matrix(1.99989,-9.86076e-32,-9.86076e-32,1.99989,-279.013,-166.982)"><path d="M163.012,141.389l17.443,-0.004l14.212,-14.212l-17.428,-0.011l-14.227,14.227Z" style="fill:#ad2125;fill-rule:nonzero;"/></g></g></g></svg>