<?xml version="1.0" standalone="no"?><!DOCTYPE svg PUBLIC "-//W3C//DTD SVG 1.1//EN" "http://www.w3.org/Graphics/SVG/1.1/DTD/svg11.dtd"><svg width="24px" height="168px" version="1.1" xmlns="http://www.w3.org/2000/svg" xmlns:xlink="http://www.w3.org/1999/xlink" xml:space="preserve" style="fill-rule:evenodd;clip-rule:evenodd;stroke-linejoin:round;stroke-miterlimit:1.41421;"><g><g id="Bollard" transform="matrix(0.5,0,0,0.5,0,48)"><g id="Layer 1"><path d="M11.9997,29.0004l-3,211l30,0l-3,-211l-5.299,-9.74l-13.4,-0.003l-5.301,9.743Z" style="fill:#ffe876;fill-rule:nonzero;"/></g><g id="Layer 4"><path d="M9,240l30,0l-28.685,-92.414l-1.315,92.414Z" style="fill:#ceba63;fill-rule:nonzero;"/></g><g id="stripe v2"><path d="M12,32l6,0l-4.25,21l-2.091,0l0.341,-21Z" style="fill:#5c5e5f;fill-rule:nonzero;"/><path d="M23,32l6,0l-4.25,21l-5.75,0l4,-21Z" style="fill:#5c5e5f;fill-rule:nonzero;"/><path d="M34,32l2.043,0l0.26,18.271l-0.553,2.729l-5.75,0l4,-21Z" style="fill:#5c5e5f;fill-rule:nonzero;"/><path d="M12,29l24,0l0.043,3l-12.043,2l-12,-2l0,-3Z" style="fill:#ffe876;fill-rule:nonzero;"/><path d="M11.687,51l12.313,2l12.1,-2l0.099,7l-12.199,2l-12.412,-2.009l0.099,-6.991Z" style="fill:#ffe876;fill-rule:nonzero;"/></g><g id="stripe v3"><path d="M11.957,32l12.043,2l12.043,-2l0.269,18.984l-12.312,2.016l-12.313,-2.016l0.27,-18.984Z" style="fill:#5c5e5f;fill-rule:nonzero;"/><path d="M27,29l8,0l-14.25,25l-7.75,0l14,-25Z" style="fill:#ffe876;fill-rule:nonzero;"/></g></g></g></svg>