<?xml version="1.0" standalone="no"?><!DOCTYPE svg PUBLIC "-//W3C//DTD SVG 1.1//EN" "http://www.w3.org/Graphics/SVG/1.1/DTD/svg11.dtd"><svg width="96px" height="120px" version="1.1" xmlns="http://www.w3.org/2000/svg" xmlns:xlink="http://www.w3.org/1999/xlink" xml:space="preserve" style="fill-rule:evenodd;clip-rule:evenodd;stroke-linejoin:round;stroke-miterlimit:1.41421;"><g><g id="grass" transform="matrix(1,0,0,1,0,-0.5)"><g transform="matrix(1,0,0,1,-6.1702,52.6016)"><path d="M10.3462,70.3984l-0.349,-8.456l5.704,-1.363l3.142,2.182l1.165,-3.274l3.609,0.819l1.164,-3.274l6.723,2.663l1.397,0.273l13.298,-2.936c0,0 8.029,6.417 8.612,6.69c0.582,0.273 19.788,-3.273 19.788,-3.273l3.841,-3.417l8.728,4.235l9.314,1.909l1.861,6.405l-87.997,0.817Z" style="fill:#679a45;fill-rule:nonzero;"/></g><g transform="matrix(1,0,0,1,-6.1702,52.6016)"><path d="M13.1987,68.3535l3.726,-5.864l6.139,5.932l-9.865,-0.068Z" style="fill:#35813f;fill-rule:nonzero;"/></g><g transform="matrix(1,0,0,1,-6.1702,52.6016)"><path d="M30.5425,68.3535l2.647,-3.273l1.747,0l4.627,-2.661l1.133,3.069l12.049,-1.022l4.801,3.682l-27.004,0.205Z" style="fill:#35813f;fill-rule:nonzero;"/></g><g transform="matrix(1,0,0,1,-6.1702,52.6016)"><path d="M69.4204,67.9433l0.697,-1.908l5.005,-0.82l1.457,-2.045l11.87,4.978l-19.029,-0.205Z" style="fill:#35813f;fill-rule:nonzero;"/></g></g></g></svg>