<?xml version="1.0" standalone="no"?><!DOCTYPE svg PUBLIC "-//W3C//DTD SVG 1.1//EN" "http://www.w3.org/Graphics/SVG/1.1/DTD/svg11.dtd"><svg width="216px" height="504px" version="1.1" xmlns="http://www.w3.org/2000/svg" xmlns:xlink="http://www.w3.org/1999/xlink" xml:space="preserve" style="fill-rule:evenodd;clip-rule:evenodd;stroke-linejoin:round;stroke-miterlimit:1.41421;"><g><g id="tree" transform="matrix(1,0,0,1,-12,-5)"><g transform="matrix(1,0,0,1,5.4564,0)"><path d="M167.628,98.3271l-38.668,-1.248l-18.667,-28.999l-21.333,35.333l-60,-4.667l33.333,-20l-22,-39.333l19.667,-15.003l61,-6.33l20,36l27.333,2.666l-0.665,41.581Z" style="fill:#694;fill-rule:nonzero;"/></g><g transform="matrix(1,0,0,1,5.4564,0)"><path d="M205.962,85.4102l-2,32l12.163,11.208l-13.497,3.416l-3.666,21.584l-34.587,-1l-19.5,-42.75l21.75,-25.75l-3.247,-41.789l14.584,0.748l10,32l18,10.333Z" style="fill:#36803f;fill-rule:nonzero;"/></g><g transform="matrix(1,0,0,1,5.4564,0)"><path d="M166.125,27.6182l-8.649,3.361l-5.619,2.185l-27.23,10.583l-8,22.334l31,-10l18.832,13.666l-0.334,-42.129Z" style="fill:#694;fill-rule:nonzero;"/></g><g transform="matrix(1,0,0,1,5.4564,0)"><path d="M108.319,68.0771l9.334,-8.333l-7.167,-4.667l0.5,-11.333l-17.75,4.083l-2.583,11.584l17.666,8.666Z" style="fill:#88ba6a;fill-rule:nonzero;"/></g><g transform="matrix(1,0,0,1,5.4564,0)"><path d="M92.7363,114.827l-35.776,11.92l-46,-8l14,-8.667l-9.666,-13.003l0.333,-12.33l33.813,-14.683l0.854,-16.654l15.999,9.337l26.443,52.08Z" style="fill:#694;fill-rule:nonzero;"/></g><g transform="matrix(1,0,0,1,5.4564,0)"><path d="M161.293,61.0352l2.829,23.378l12.335,-2.711l-14,20.667l32,10l4.749,-9.456l-10.083,-7.211l20,-10l-1.917,-11.789l-17.416,-1.544l-5.333,-30.667l-23.164,19.333Z" style="fill:#694;fill-rule:nonzero;"/></g><g transform="matrix(1,0,0,1,5.4564,0)"><path d="M82.627,56.4121l39.666,15l20,-0.333l14,30.666l-109.333,6.334l5.859,-24.504l40.667,-5.998l1.807,-5.165l-12.666,-16Z" style="fill:#36803f;fill-rule:nonzero;"/></g><g transform="matrix(1,0,0,1,5.4564,0)"><path d="M108.628,286.744l-48.334,33.333l-22,-10.666l5.667,-4.334l-21,-10l-1,-11l33.333,-19.666" style="fill:#694;fill-rule:nonzero;"/></g><g transform="matrix(1,0,0,1,5.4564,0)"><path d="M76.9629,280.744l37.333,54.667l-1.476,16.999l-53.857,-68.999l18,-2.667Z" style="fill:#7c705a;fill-rule:nonzero;"/></g><g transform="matrix(1,0,0,1,5.4564,0)"><path d="M61.8779,287.41l20,0.25l30.289,44.672l5.25,10.668l-55.539,-55.59Z" style="fill:#645849;fill-rule:nonzero;"/></g><g transform="matrix(1,0,0,1,5.4564,0)"><path d="M34.9629,253.411l18,34l63.333,2l-11.333,-44.667l-20,-5.333l-50,14Z" style="fill:#36803f;fill-rule:nonzero;"/></g><g transform="matrix(1,0,0,1,5.4564,0)"><path d="M90.2949,237.411l-31.333,21.333l-30.834,2.666l-0.724,-8.154l-14.442,-2.512l-0.334,-5.834l14.334,-2.833l-9.333,-25.333l50.666,-22l22,42.667Z" style="fill:#694;fill-rule:nonzero;"/></g><g transform="matrix(1,0,0,1,5.4564,0)"><path d="M160.628,269.077l-39,15.333l-16,-22.667l18.333,-6.333l5.667,9l24,-10.667l7,15.334Z" style="fill:#36803f;fill-rule:nonzero;"/></g><g transform="matrix(1,0,0,1,5.4564,0)"><path d="M87.6289,284.077l62.667,-26.334l-10.667,-45.333l-44,29.001l18.666,10l-26.5,16.501l2.333,8.334l-2.499,7.831Z" style="fill:#694;fill-rule:nonzero;"/></g><g transform="matrix(1,0,0,1,5.4564,0)"><path d="M174.295,222.41l-43.333,6.666l-18.667,-28.999l-21.333,35.333l-60,-4.667l33.333,-20l-22,-39.333l80.667,-21.333l20,36l27.333,2.666l4,33.667Z" style="fill:#88ba6a;fill-rule:nonzero;"/></g><g transform="matrix(1,0,0,1,5.4564,0)"><path d="M163.794,284.245l43.083,1.37l-16.749,-21.584l27.999,-3.416l-13.999,-32.584l-36.001,-68.416l0.5,56.5l-21.75,25.75l16.917,42.38Z" style="fill:#36803f;fill-rule:nonzero;"/></g><g transform="matrix(1,0,0,1,5.4564,0)"><path d="M117.877,361.448l28,-22.783l33.75,-122.717l6.5,-8.5l-33.71,134.678l-35.29,35.322l0.75,-16Z" style="fill:#7c705a;fill-rule:nonzero;"/></g><g transform="matrix(1,0,0,1,5.4564,0)"><path d="M113.5,180.619l-2.358,86.713l1.588,100.695l-2.457,93.723l-0.879,47.25l18.302,0l-3.018,-67.298l-3.539,-88.117l3.813,-71.262l-2.737,-106.853l-8.715,5.149Z" style="fill:#7c705a;fill-rule:nonzero;"/></g><g transform="matrix(1,0,0,1,5.4564,0)"><path d="M112.334,382.125l-2.415,101.21l11.998,-110.668" style="fill:#968974;fill-rule:nonzero;"/></g><g transform="matrix(1,0,0,1,5.4564,0)"><path d="M121.5,347.062l-9.344,-9.281l-0.989,-67.28l13.505,-4.235l0.244,22.151l-3.416,58.645Z" style="fill:#645849;fill-rule:nonzero;"/></g><g transform="matrix(1,0,0,1,5.4564,0)"><path d="M160.712,266.032l38.249,2.546l-2.796,-8.389l-7.783,-3.144l-3.004,-9.013l-22,-2l9.085,-13.619l-14.833,-14.501l-24.918,26.787l28,21.333Z" style="fill:#88ba6a;fill-rule:nonzero;"/></g><g transform="matrix(1,0,0,1,5.4564,0)"><path d="M168.461,193.032l0,24l11.5,-3.62l-13.5,20.954l34.333,7.712l-3,-7.166l-4.667,-7.213l20,-10l-1,-8.287l-18.333,-5.046l-5.333,-30.667l-20,19.333Z" style="fill:#694;fill-rule:nonzero;"/></g><g transform="matrix(1,0,0,1,5.4564,0)"><path d="M168.127,159.615l-41.498,16.129l-8,22.334l31,-10l18.832,13.666l-0.334,-42.129Z" style="fill:#694;fill-rule:nonzero;"/></g><g transform="matrix(1,0,0,1,5.4564,0)"><path d="M84.6289,188.409l39.666,15l20,-0.333l14,36.17l-109.333,6.334l19.333,-21.838l25.334,-1l3.666,-18.333l-12.666,-16Z" style="fill:#36803f;fill-rule:nonzero;"/></g><g transform="matrix(1,0,0,1,5.4564,0)"><path d="M108.5,275.417l16.641,-7.089l-1.058,-27.576l-14.122,-0.839l-27,-12l-1.999,5.164l27.538,42.34Z" style="fill:#694;fill-rule:nonzero;"/></g><g transform="matrix(1,0,0,1,5.4564,0)"><path d="M78.2959,257.077l30.666,-2l-3.333,16.333l-38,0l10.667,-14.333Z" style="fill:#88ba6a;fill-rule:nonzero;"/></g><g transform="matrix(1,0,0,1,5.4564,0)"><path d="M109.918,170.597l3.127,9.402l-18.691,0.036l-0.226,-9.459l15.79,0.021Z" style="fill:#694;fill-rule:nonzero;"/></g><g transform="matrix(1,0,0,1,5.4564,0)"><path d="M128.443,236.099l2.602,23.9l-18.692,0.036l0.3,-23.957l15.79,0.021Z" style="fill:#36803f;fill-rule:nonzero;"/></g><g transform="matrix(1,0,0,1,5.4564,0)"><path d="M196.125,184.411l-19.831,35.167l-61.502,0.833l11.333,-44.667l20,-5.333l50,14Z" style="fill:#36803f;fill-rule:nonzero;"/></g><g transform="matrix(1,0,0,1,5.4564,0)"><path d="M140.793,168.411l31.333,21.333l46,-8l-14,-8.667l-3.498,-17.667l12.831,-7.666l-50.666,-22l-22,42.667Z" style="fill:#694;fill-rule:nonzero;"/></g><g transform="matrix(1,0,0,1,5.4564,0)"><path d="M143.459,215.077l-3.999,6.169l-58.668,-32.503l10.667,-45.333l44,29.001l-18.666,10l26.666,32.666Z" style="fill:#694;fill-rule:nonzero;"/></g><g transform="matrix(1,0,0,1,5.4564,0)"><path d="M64.7109,215.615l-40.5,1l16.749,-21.584l-27.999,-3.416l13.999,-32.584l28.502,-53.788l0.167,-6.666l7.332,-0.628l-0.5,49.166l21.75,25.75l-19.5,42.75Z" style="fill:#36803f;fill-rule:nonzero;"/></g><g transform="matrix(1,0,0,1,5.4564,0)"><path d="M70.376,197.032l-40.498,3.128l0.5,-7.25l12.159,-4.357l3.173,-9.521l22,-2l-9.085,-13.619l14.833,-14.501l24.337,29.498l-11.333,0.333l0,12.667l-16.086,5.622Z" style="fill:#694;fill-rule:nonzero;"/></g><g transform="matrix(1,0,0,1,5.4564,0)"><path d="M62.627,124.032l0.335,23.378l5.524,7.167l-3.859,10.789l-32,10l-4.749,-9.456l10.083,-7.211l-20,-10l1.917,-11.789l17.416,-1.544l5.333,-30.667l20,19.333Z" style="fill:#694;fill-rule:nonzero;"/></g><g transform="matrix(1,0,0,1,5.4564,0)"><path d="M123.792,206.077l-18.666,-8l4.666,-26.334l40.334,-7.666l-26.334,42Z" style="fill:#694;fill-rule:nonzero;"/></g><g transform="matrix(1,0,0,1,5.4564,0)"><path d="M79.1279,214.577l-28.834,9.501l4.667,15l41.667,-16.501l-17.5,-8Z" style="fill:#36803f;fill-rule:nonzero;"/></g><g transform="matrix(1,0,0,1,5.4564,0)"><path d="M56.793,153.41l43.333,6.666l18.667,-28.999l21.333,35.333l60,-4.667l-33.333,-20l22,-39.333l-80.667,-21.333l-20,36l-24.807,8l-6.526,28.333Z" style="fill:#694;fill-rule:nonzero;"/></g><g transform="matrix(1,0,0,1,5.4564,0)"><path d="M59.9863,108.327l11.624,-14.351l25.376,12.601l7.473,0.167l8,22.334l-31,-10l-13.473,13.999l-8,-24.75Z" style="fill:#88ba6a;fill-rule:nonzero;"/></g><g transform="matrix(1,0,0,1,5.4564,0)"><path d="M146.459,119.409l-39.666,15l-20,-0.333l-14,30.666l109.333,6.334l-19.333,-16.334l-25.334,-1l-3.666,-18.333l12.666,-16Z" style="fill:#36803f;fill-rule:nonzero;"/></g><g transform="matrix(1,0,0,1,5.4564,0)"><path d="M49.9756,127.935l0.133,9.908l17.666,-6.102l-2.891,-9.008l-14.908,5.202Z" style="fill:#88ba6a;fill-rule:nonzero;"/></g><g transform="matrix(1,0,0,1,5.4564,0)"><path d="M67.9863,82.0771l-6.5,-17l9,0.5l10,14l-12.5,2.5Z" style="fill:#36803f;fill-rule:nonzero;"/></g><g transform="matrix(1,0,0,1,5.4564,0)"><path d="M139.986,153.077l16.5,0.5l1.5,-11l-9,-11.5l-9,22Z" style="fill:#88ba6a;fill-rule:nonzero;"/></g></g></g></svg>