<?xml version="1.0" standalone="no"?><!DOCTYPE svg PUBLIC "-//W3C//DTD SVG 1.1//EN" "http://www.w3.org/Graphics/SVG/1.1/DTD/svg11.dtd"><svg width="288px" height="360px" version="1.1" xmlns="http://www.w3.org/2000/svg" xmlns:xlink="http://www.w3.org/1999/xlink" xml:space="preserve" style="fill-rule:evenodd;clip-rule:evenodd;stroke-linejoin:round;stroke-miterlimit:1.41421;"><g><g id="car-outbound" transform="matrix(1,0,0,1,71.9798,166.584)"><g transform="matrix(1,0,0,1,0,-10.3296)"><path d="M127.589,121.742l13.651,-2.45l2.8,-7.279l-15.261,-2.662l-1.259,6.721l-2.321,2.339l2.39,3.331Z" style="fill:#e4e2dc;fill-rule:nonzero;"/></g><g transform="matrix(1,0,0,1,0,-10.3296)"><path d="M127.604,121.746l-2.327,-3.494l2.259,-2.185l1.269,-6.697l1.297,0.208l6.621,10.502l-9.119,1.666Z" style="fill:#c1bebb;fill-rule:nonzero;"/></g><g transform="matrix(1,0,0,1,0,-10.3296)"><path d="M130.896,111.731l-0.98,7.141l9.616,-1.149l1.5,-4.083l-10.136,-1.909Z" style="fill:#2a2b2a;fill-rule:nonzero;"/></g><g transform="matrix(1,0,0,1,0,-10.3296)"><path d="M0,111.919l2.8,7.279l13.651,2.45l2.39,-3.331l-2.321,-2.339l-1.26,-6.72l-15.26,2.661Z" style="fill:#e4e2dc;fill-rule:nonzero;"/></g><g transform="matrix(1,0,0,1,0,-10.3296)"><path d="M16.4668,121.646l2.327,-3.494l-2.259,-2.185l-1.269,-6.697l-1.297,0.208l-6.641,10.531l9.139,1.637Z" style="fill:#c1bebb;fill-rule:nonzero;"/></g><g transform="matrix(1,0,0,1,0,-10.3296)"><path d="M13.1445,111.638l0.98,7.141l-9.616,-1.149l-1.5,-4.083l10.136,-1.909Z" style="fill:#2a2b2a;fill-rule:nonzero;"/></g><path d="M3.8898,173.884l1.68,19.532l19.321,0l3.991,-19.742l-24.992,0.21Z" style="fill:#5c5e5f;fill-rule:nonzero;"/><path d="M24.0516,173.674l0.84,19.742l5.992,-19.742l-6.832,0Z" style="fill:#2a2b2a;fill-rule:nonzero;"/><path d="M117.358,193.416l19.35,0l1.68,-19.321l-24.993,-0.211l3.963,19.532Z" style="fill:#5c5e5f;fill-rule:nonzero;"/><path d="M111.394,173.884l5.964,19.532l0.869,-19.532l-6.833,0Z" style="fill:#2a2b2a;fill-rule:nonzero;"/><g transform="matrix(1,-3.22153e-17,-3.22153e-17,1.13153,0,-22.926)"><path d="M29.4678,85.9277l-28.118,49.341l2.519,38.615l1.89,0.006l132.637,0.414l3.796,-38.796l-27.505,-49.58l-85.219,0Z" style="fill:#e4e2dc;fill-rule:nonzero;"/></g><g transform="matrix(1,0,0,1,0,-4.6582)"><path d="M1.3447,135.384l0.834,14.584l18.512,0.002l0.941,-14.502l-20.287,-0.084Z" style="fill:#ae2025;fill-rule:nonzero;"/></g><g transform="matrix(1,0,0,1,0,-4.6582)"><path d="M25.8818,135.426l7.041,10.46l-4.455,4.169l-7.771,-0.105l1.055,-14.463l4.13,-0.061Z" style="fill:#f6f1e1;fill-rule:nonzero;"/></g><g transform="matrix(1,0,0,1,0,-4.6582)"><path d="M142.191,135.425l-1.249,14.501l-18.182,0.044l-1.05,-14.491l20.481,-0.054Z" style="fill:#ae2025;fill-rule:nonzero;"/></g><g transform="matrix(1,0,0,1,0,-4.6582)"><path d="M117.706,135.478l-6.009,10.447l4.417,4.044l6.666,-0.044l-1.083,-14.459l-3.991,0.012Z" style="fill:#f6f1e1;fill-rule:nonzero;"/></g><g transform="matrix(1,-8.52366e-17,-8.52366e-17,1.348,1.39815e-14,-42.2467)"><path d="M34.958,90.9817l-14.6294,24.4951l101.925,1.7053e-13l-12.6694,-24.4951l-74.6264,2.84217e-14Z" style="fill:#313156;fill-rule:nonzero;"/></g><path d="M43.9678,171.364c0,2.783 -2.257,5.041 -5.04,5.041c-2.783,0 -5.041,-2.258 -5.041,-5.041c0,-2.783 2.258,-5.04 5.041,-5.04c2.783,0 5.04,2.257 5.04,5.04" style="fill:#2a2b2a;fill-rule:nonzero;"/><g transform="matrix(1,0,0,1,0,-4.6582)"><path d="M32.9219,145.804l-4.454,4.271l87.604,-0.105l-4.417,-4.166l-78.733,0Z" style="fill:#c1bebb;fill-rule:nonzero;"/></g><g transform="matrix(1,0,0,1,0,-4.1445)"><path d="M55.3003,156.916l-3.036,10.645l35.407,0l-3.001,-10.515l-29.37,-0.13Z" style="fill:#f4f2ed;fill-rule:nonzero;"/></g><g transform="matrix(1.35601,0,0,1.35601,-9.08601,-43.1939)"><g opacity="0.300003"><path d="M32.4767,91.1429l-10.7847,24.3504l14.7311,1.42109e-14l24.2705,-24.3504l-28.217,-2.84217e-14Z" style="fill:#0f2342;fill-rule:nonzero;"/></g></g><g opacity="0.300003"><path d="M109.62,80.397l-3.65123,3.11218e-12l-33.219,33.0195l49.5041,-2.84217e-14l-12.6339,-33.0195Z" style="fill:#0a1723;fill-rule:nonzero;"/></g><g transform="matrix(1.34973,0,0,1.34973,-25.576,-42.4401)"><path d="M73.2494,115.472l24.2103,-24.4637l-6.14,2.41585e-13l-23.7937,24.4637l5.72344,8.66862e-13Z" style="fill:#494a72;fill-rule:nonzero;"/></g></g><g id="car-outbound-turn-signal-right" transform="matrix(1,0,0,1,67.175,161.973)"><g transform="matrix(1,0,0,1,-812.848,0)"><path d="M959.796,135.425l-1.249,14.501l-18.063,0.006l-1.169,-14.453l20.481,-0.054Z" style="fill:#ae2025;fill-rule:nonzero;"/></g><g transform="matrix(1,0,0,1,-812.848,0)"><g opacity="0.350006"><path d="M959.797,135.416l-1.266,14.516l-17.968,0l0.375,5.396l23.699,0.506l2.79,-25.208l-28.254,0l0.297,4.849l20.327,-0.059Z" style="fill:#ad2126;fill-rule:nonzero;"/></g></g><g transform="matrix(1,0,0,1,-812.848,0)"><g opacity="0.199997"><path d="M967.46,130.625l-2.792,25.208l-23.728,-0.506l0.354,5.338l29.987,1.162l3.542,-36.411l-35.95,-0.083l0.313,5.292l28.274,0Z" style="fill:#ad2126;fill-rule:nonzero;"/></g></g></g></g></svg>