<?xml version="1.0" standalone="no"?><!DOCTYPE svg PUBLIC "-//W3C//DTD SVG 1.1//EN" "http://www.w3.org/Graphics/SVG/1.1/DTD/svg11.dtd"><svg width="288px" height="360px" version="1.1" xmlns="http://www.w3.org/2000/svg" xmlns:xlink="http://www.w3.org/1999/xlink" xml:space="preserve" style="fill-rule:evenodd;clip-rule:evenodd;stroke-linejoin:round;stroke-miterlimit:1.41421;"><g><g id="car-inbound" transform="matrix(1,0,0,1,71.9798,166.584)"><g transform="matrix(1,0,0,1,0,-10.3296)"><path d="M127.589,121.742l13.651,-2.45l2.8,-7.279l-15.261,-2.662l-1.259,6.721l-2.321,2.339l2.39,3.331Z" style="fill:#e4e2dc;fill-rule:nonzero;"/></g><g transform="matrix(1,0,0,1,0,-10.3296)"><path d="M127.604,121.746l-2.327,-3.494l2.259,-2.185l1.269,-6.697l1.297,0.208l6.621,10.502l-9.119,1.666Z" style="fill:#c1bebb;fill-rule:nonzero;"/></g><g transform="matrix(1,0,0,1,0,-10.3296)"><path d="M0,111.919l2.8,7.279l13.651,2.45l2.39,-3.331l-2.321,-2.339l-1.26,-6.72l-15.26,2.661Z" style="fill:#e4e2dc;fill-rule:nonzero;"/></g><g transform="matrix(1,0,0,1,0,-10.3296)"><path d="M16.4668,121.646l2.327,-3.494l-2.259,-2.185l-1.269,-6.697l-1.297,0.208l-6.641,10.531l9.139,1.637Z" style="fill:#c1bebb;fill-rule:nonzero;"/></g><path d="M3.8898,173.884l1.68,19.532l19.321,0l3.991,-19.742l-24.992,0.21Z" style="fill:#5c5e5f;fill-rule:nonzero;"/><path d="M24.0516,173.674l0.84,19.742l5.992,-19.742l-6.832,0Z" style="fill:#2a2b2a;fill-rule:nonzero;"/><path d="M117.358,193.416l19.35,0l1.68,-19.321l-24.993,-0.211l3.963,19.532Z" style="fill:#5c5e5f;fill-rule:nonzero;"/><path d="M111.394,173.884l5.964,19.532l0.869,-19.532l-6.833,0Z" style="fill:#2a2b2a;fill-rule:nonzero;"/><g transform="matrix(1,-3.22153e-17,-3.22153e-17,1.13153,0,-22.926)"><path d="M29.4678,85.9277l-28.118,49.341l2.519,38.615l1.89,0.006l132.637,0.414l3.796,-38.796l-27.505,-49.58l-85.219,0Z" style="fill:#e4e2dc;fill-rule:nonzero;"/></g><g transform="matrix(1,-8.52366e-17,-8.52366e-17,1.348,1.39815e-14,-42.2467)"><path d="M32.958,89.498l-15.6294,22.2696l107.925,1.7053e-13l-13.6694,-22.2696l-78.6264,2.84217e-14Z" style="fill:#313156;fill-rule:nonzero;"/></g><g transform="matrix(1.35601,0,0,1.35601,-9.08601,-43.1939)"><g opacity="0.300003"><path d="M31.0322,89.668l-11.5526,22.1381l20.6308,5.68434e-14l22.0581,-22.1381l-31.1364,-1.42109e-14Z" style="fill:#0f2342;fill-rule:nonzero;"/></g></g><g opacity="0.300003"><path d="M111.625,78.397l-3.65614,5.72697e-12l-30.219,30.0195l47.5041,3.09797e-12l-13.629,-30.0195Z" style="fill:#0a1723;fill-rule:nonzero;"/></g><g transform="matrix(1.34973,0,0,1.34973,-25.576,-42.4401)"><path d="M76.9538,111.768l21.9876,-22.241l-6.14,2.84217e-14l-21.571,22.241l5.72344,1.42109e-13Z" style="fill:#494a72;fill-rule:nonzero;"/></g><g transform="matrix(1,0,0,1,-199.295,-4.4702)"><path d="M200.645,135.387l0.86688,14.5l28.1193,-0.028l1.051,-14.511l-30.0372,0.039Z" style="fill:#f6f1e1;fill-rule:nonzero;"/></g><g transform="matrix(1,0,0,1,-199.295,-4.4702)"><path d="M230.683,135.348l7.571,12.829l-8.623,1.682l1.052,-14.511Z" style="fill:#ef9c74;fill-rule:nonzero;"/></g><g transform="matrix(1,0,0,1,-199.295,-4.4702)"><path d="M341.445,135.387l-1.26346,14.458l-27.344,0.014l-1.052,-14.511l29.6594,0.039Z" style="fill:#f6f1e1;fill-rule:nonzero;"/></g><g transform="matrix(1,0,0,1,-199.295,-4.4702)"><path d="M311.786,135.348l-5.818,12.829l6.87,1.682l-1.052,-14.511Z" style="fill:#ef9c74;fill-rule:nonzero;"/></g><g transform="matrix(1,0,0,1,-199.295,-4.4702)"><path d="M311.753,135.388l-81.06,-0.043l7.604,12.831l67.715,0l5.741,-12.788Z" style="fill:#2a2b2a;fill-rule:nonzero;"/></g><g transform="matrix(1,0,0,1,-199.295,-4.4702)"><path d="M306.083,139.461l-1.926,3.936l-64.038,0.055l-2.592,-4.272l68.556,0.281Z" style="fill:#5c5e5f;fill-rule:nonzero;"/></g></g><g id="car-inbound-turn-signal-left" transform="matrix(1,0,0,1,-8.42578,26.239)"><g transform="matrix(1,0,0,1,-936.84,135.879)"><path d="M1159.18,135.387l-1.371,14.458l-27.209,0.014l-1.052,-14.511l29.632,0.039Z" style="fill:#f6f1e1;fill-rule:nonzero;"/></g><g transform="matrix(1,0,0,1,-936.84,135.879)"><g opacity="0.699997"><path d="M1159.22,135.375l-1.388,14.51l-27.206,-0.041l0.422,5.4l33.68,0.578l2,-25.202l-37.445,-0.109l0.296,4.848l29.641,0.016Z" style="fill:#fec;fill-rule:nonzero;"/></g></g><g transform="matrix(1,0,0,1,-936.84,135.879)"><g opacity="0.300003"><path d="M1166.65,130.62l-1.927,25.218l-33.692,-0.578l0.353,5.156l38.522,1.166l3.167,-35.296l-44.13,-0.192l0.312,4.417l37.395,0.109Z" style="fill:#fec;fill-rule:nonzero;"/></g></g></g></g></svg>