<?xml version="1.0" encoding="UTF-8" standalone="no"?>
<!DOCTYPE svg PUBLIC "-//W3C//DTD SVG 1.1//EN" "http://www.w3.org/Graphics/SVG/1.1/DTD/svg11.dtd">
<svg width="100%" height="100%" viewBox="0 0 288 360" version="1.1" xmlns="http://www.w3.org/2000/svg" xmlns:xlink="http://www.w3.org/1999/xlink" xml:space="preserve" xmlns:serif="http://www.serif.com/" style="fill-rule:evenodd;clip-rule:evenodd;stroke-linejoin:round;stroke-miterlimit:2;">
    <g id="microvan-inbound" transform="matrix(1,0,0,1,34.8457,112.832)">
        <g transform="matrix(1,0,0,1,160.451,148.736)">
            <path d="M0,20.368L4.711,13.606L9.81,13.385L8.896,0L-1.164,0.166L0.083,13.052L-2.327,16.874L0,20.368Z" style="fill:rgb(42,43,41);fill-rule:nonzero;"/>
        </g>
        <g transform="matrix(1,0,0,1,57.8579,148.736)">
            <path d="M0,20.368L-4.711,13.606L-9.81,13.385L-8.896,0L1.164,0.166L-0.083,13.052L2.327,16.874L0,20.368Z" style="fill:rgb(42,43,41);fill-rule:nonzero;"/>
        </g>
        <g transform="matrix(0.999995,-0.00305039,-0.00305039,-0.999995,59.8046,247.187)">
            <path d="M-0.03,0.024L13.083,0.024L17.138,19.78L-1.653,19.628L-0.03,0.024Z" style="fill:rgb(92,94,95);fill-rule:nonzero;"/>
        </g>
        <g transform="matrix(1,0,0,1,72.1289,246.703)">
            <path d="M0,-19.348L0.842,0L6.839,-19.348L0,-19.348Z" style="fill:rgb(42,43,41);fill-rule:nonzero;"/>
        </g>
        <g transform="matrix(-0.999995,-0.00305016,-0.00305016,0.999995,142.197,227.248)">
            <path d="M-15.457,19.785L-2.343,19.785L1.712,0.029L-17.079,0.181L-15.457,19.785Z" style="fill:rgb(92,94,95);fill-rule:nonzero;"/>
        </g>
        <g transform="matrix(1,0,0,1,145.239,246.62)">
            <path d="M0,-19.348L-0.842,0L-6.839,-19.348L0,-19.348Z" style="fill:rgb(42,43,41);fill-rule:nonzero;"/>
        </g>
        <g transform="matrix(1,0,0,1,72.0947,227.631)">
            <path d="M0,-109.651L-14.129,-62.158L-18.362,-48.437L-18.583,-14.257L-15.149,-0.042L88.386,0L91.599,-14.368L91.789,-48.2L87.478,-63.712L72.198,-109.651L0,-109.651Z" style="fill:rgb(252,209,87);fill-rule:nonzero;"/>
        </g>
        <g transform="matrix(-0.274198,0.961673,0.961673,0.274198,134.989,117.796)">
            <path d="M30.526,-56.078L64.896,-56.078L39.819,32.125L10.828,12.707L30.526,-56.078Z" style="fill:rgb(49,49,86);fill-rule:nonzero;"/>
        </g>
        <g transform="matrix(-0.412727,-0.910855,-0.910855,0.412727,103.936,205.396)">
            <path d="M-29.289,-11.449L-21.233,-11.449L-8.869,15.602L-14.101,21.929L-29.289,-11.449Z" style="fill:rgb(42,43,41);fill-rule:nonzero;"/>
        </g>
        <g transform="matrix(0.320559,0.947229,0.947229,-0.320559,72.7718,188.289)">
            <path d="M-7.485,4.434L-1.186,4.434L-6.809,-12.29L-12.513,-10.424L-7.485,4.434Z" style="fill:rgb(239,156,116);fill-rule:nonzero;"/>
        </g>
        <g transform="matrix(-1,0,0,1,218.366,-346.05)">
            <rect x="58.999" y="533.864" width="100.368" height="20.119" style="fill:rgb(42,43,41);"/>
        </g>
        <g transform="matrix(0,-1,-1,0,69.03,191.183)">
            <path d="M-6.554,-6.554C-10.172,-6.554 -13.109,-3.618 -13.109,0C-13.109,3.621 -10.172,6.554 -6.554,6.554C-2.933,6.554 0.001,3.621 0.001,0C0.001,-3.618 -2.933,-6.554 -6.554,-6.554" style="fill:rgb(244,242,237);fill-rule:nonzero;"/>
        </g>
        <g transform="matrix(-0.320559,0.947229,0.947229,0.320559,155.685,177.267)">
            <path d="M6.181,-10.435L12.48,-10.435L6.857,6.289L1.153,4.423L6.181,-10.435Z" style="fill:rgb(239,156,116);fill-rule:nonzero;"/>
        </g>
        <g transform="matrix(0,1,1,0,149.362,191.183)">
            <path d="M6.554,-6.554C10.172,-6.554 13.109,-3.618 13.109,0C13.109,3.621 10.172,6.554 6.554,6.554C2.933,6.554 -0.001,3.621 -0.001,0C-0.001,-3.618 2.933,-6.554 6.554,-6.554" style="fill:rgb(244,242,237);fill-rule:nonzero;"/>
        </g>
        <g transform="matrix(1,0,0,1,0,-884.203)">
            <g opacity="0.3">
                <g transform="matrix(1,0,0,1,72.6602,1039.44)">
                    <path d="M0,-23.44L-6.605,0.031L16.834,-23.471L0,-23.44Z" style="fill:rgb(15,35,66);fill-rule:nonzero;"/>
                </g>
            </g>
        </g>
        <g transform="matrix(1,0,0,1,0,-884.203)">
            <g opacity="0.3">
                <g transform="matrix(-0.999898,-0.0142597,-0.0142597,0.999898,117.142,1048.61)">
                    <path d="M-26.63,-33.016L-20.809,-33.016L10.435,0.384L-37.77,-0.262L-26.63,-33.016Z" style="fill:rgb(10,23,35);fill-rule:nonzero;"/>
                </g>
            </g>
        </g>
        <g transform="matrix(0.702222,-0.711958,-0.711958,-0.702222,124.471,169.195)">
            <path d="M-7.759,14.36L38.464,14.36L34.319,18.566L-11.859,18.58L-7.759,14.36Z" style="fill:rgb(73,74,114);fill-rule:nonzero;"/>
        </g>
    </g>
</svg>
