<?xml version="1.0" encoding="UTF-8" standalone="no"?>
<!DOCTYPE svg PUBLIC "-//W3C//DTD SVG 1.1//EN" "http://www.w3.org/Graphics/SVG/1.1/DTD/svg11.dtd">
<svg width="100%" height="100%" viewBox="0 0 288 360" version="1.1" xmlns="http://www.w3.org/2000/svg" xmlns:xlink="http://www.w3.org/1999/xlink" xml:space="preserve" xmlns:serif="http://www.serif.com/" style="fill-rule:evenodd;clip-rule:evenodd;stroke-linejoin:round;stroke-miterlimit:2;">
    <g id="microvan-outbound">
        <g transform="matrix(1,0,0,1,195.296,261.572)">
            <path d="M0,20.368L4.711,13.606L9.81,13.385L8.896,0L-1.164,0.166L0.083,13.052L-2.327,16.874L0,20.368Z" style="fill:rgb(42,43,41);fill-rule:nonzero;"/>
        </g>
        <g transform="matrix(1,0,0,1,92.7036,261.572)">
            <path d="M0,20.368L-4.711,13.606L-9.81,13.385L-8.896,0L1.164,0.166L-0.083,13.052L2.327,16.874L0,20.368Z" style="fill:rgb(42,43,41);fill-rule:nonzero;"/>
        </g>
        <g transform="matrix(0.999995,-0.00305016,-0.00305016,-0.999995,94.6498,360.023)">
            <path d="M-0.03,0.024L13.084,0.024L17.139,19.78L-1.652,19.628L-0.03,0.024Z" style="fill:rgb(92,94,95);fill-rule:nonzero;"/>
        </g>
        <g transform="matrix(1,0,0,1,106.975,359.539)">
            <path d="M0,-19.348L0.842,0L6.839,-19.348L0,-19.348Z" style="fill:rgb(42,43,41);fill-rule:nonzero;"/>
        </g>
        <g transform="matrix(-0.999995,-0.00305039,-0.00305039,0.999995,177.045,340.085)">
            <path d="M-15.455,19.785L-2.342,19.785L1.713,0.029L-17.078,0.181L-15.455,19.785Z" style="fill:rgb(92,94,95);fill-rule:nonzero;"/>
        </g>
        <g transform="matrix(1,0,0,1,180.085,359.456)">
            <path d="M0,-19.348L-0.842,0L-6.839,-19.348L0,-19.348Z" style="fill:rgb(42,43,41);fill-rule:nonzero;"/>
        </g>
        <g transform="matrix(1,0,0,1,106.94,340.467)">
            <path d="M0,-109.651L-14.13,-62.158L-18.362,-48.437L-18.583,-14.257L-15.15,-0.042L88.386,0L91.598,-14.368L91.789,-48.2L87.478,-63.712L72.198,-109.651L0,-109.651Z" style="fill:rgb(252,209,87);fill-rule:nonzero;"/>
        </g>
        <g transform="matrix(-0.274198,0.961673,0.961673,0.274198,168.763,233.909)">
            <path d="M26.184,-52.801L60.554,-52.801L37.346,28.848L8.354,9.43L26.184,-52.801Z" style="fill:rgb(49,49,86);fill-rule:nonzero;"/>
        </g>
        <g transform="matrix(-0.412727,-0.910855,-0.910855,0.412727,125.505,288.204)">
            <path d="M-76.444,-41.852L-68.388,-41.852L-28.471,46.006L-33.704,52.332L-76.444,-41.852Z" style="fill:rgb(42,43,41);fill-rule:nonzero;"/>
        </g>
        <g transform="matrix(1,0,0,1,-117.834,-771.366)">
            <g opacity="0.3">
                <g transform="matrix(1,0,0,1,228.611,1039.44)">
                    <path d="M0,-23.44L-6.605,0.031L16.834,-23.471L0,-23.44Z" style="fill:rgb(15,35,66);fill-rule:nonzero;"/>
                </g>
            </g>
        </g>
        <g transform="matrix(1,0,0,1,-117.834,-771.366)">
            <g opacity="0.3">
                <g transform="matrix(-0.999201,-0.039968,-0.039968,0.999201,269.576,1048.33)">
                    <path d="M-22.455,-33.275L-20.378,-33.275L9.997,0.917L-34.434,-0.819L-22.455,-33.275Z" style="fill:rgb(10,23,35);fill-rule:nonzero;"/>
                </g>
            </g>
        </g>
        <g transform="matrix(0.702241,-0.71194,-0.71194,-0.702241,158.613,282.266)">
            <path d="M-7.799,14.458L38.699,14.458L34.553,18.662L-11.9,18.678L-7.799,14.458Z" style="fill:rgb(73,74,114);fill-rule:nonzero;"/>
        </g>
        <g transform="matrix(-0.999795,-0.0202499,-0.0202499,0.999795,85.2825,272.487)">
            <path d="M-5.792,-8.152L-0.36,-8.152L-0.083,0.058L-5.294,0.063L-5.792,-8.152Z" style="fill:rgb(244,242,237);fill-rule:nonzero;"/>
        </g>
        <g transform="matrix(0.999795,-0.0202462,-0.0202462,-0.999795,196.573,264.514)">
            <path d="M0.083,0.059L5.516,0.059L5.792,-8.151L0.581,-8.156L0.083,0.059Z" style="fill:rgb(244,242,237);fill-rule:nonzero;"/>
        </g>
        <g transform="matrix(0,-1,-1,0,94.6748,314.163)">
            <path d="M-3.165,-3.167C-4.914,-3.167 -6.332,-1.75 -6.332,-0.001C-6.332,1.747 -4.914,3.165 -3.165,3.165C-1.416,3.165 0.001,1.747 0.001,-0.001C0.001,-1.75 -1.416,-3.167 -3.165,-3.167" style="fill:rgb(244,242,237);fill-rule:nonzero;"/>
        </g>
        <g transform="matrix(0,-1,-1,0,94.6758,306.195)">
            <path d="M-3.167,-3.165C-4.915,-3.165 -6.332,-1.749 -6.332,0.001C-6.332,1.749 -4.915,3.167 -3.167,3.167C-1.417,3.167 0.001,1.749 0.001,0.001C0.001,-1.749 -1.417,-3.165 -3.167,-3.165" style="fill:rgb(114,14,26);fill-rule:nonzero;"/>
        </g>
        <g transform="matrix(0,-1,-1,0,94.6748,298.023)">
            <path d="M-3.165,-3.167C-4.914,-3.167 -6.332,-1.75 -6.332,-0.001C-6.332,1.747 -4.914,3.165 -3.165,3.165C-1.416,3.165 0.001,1.747 0.001,-0.001C0.001,-1.75 -1.416,-3.167 -3.165,-3.167" style="fill:rgb(239,156,116);fill-rule:nonzero;"/>
        </g>
        <g transform="matrix(0,-1,-1,0,192.329,314.163)">
            <path d="M-3.165,-3.167C-4.914,-3.167 -6.332,-1.75 -6.332,-0.001C-6.332,1.747 -4.914,3.165 -3.165,3.165C-1.416,3.165 0.001,1.747 0.001,-0.001C0.001,-1.75 -1.416,-3.167 -3.165,-3.167" style="fill:rgb(244,242,237);fill-rule:nonzero;"/>
        </g>
        <g transform="matrix(0,-1,-1,0,192.33,306.195)">
            <path d="M-3.167,-3.165C-4.915,-3.165 -6.332,-1.749 -6.332,0.001C-6.332,1.749 -4.915,3.167 -3.167,3.167C-1.417,3.167 0.001,1.749 0.001,0.001C0.001,-1.749 -1.417,-3.165 -3.167,-3.165" style="fill:rgb(114,14,26);fill-rule:nonzero;"/>
        </g>
        <g transform="matrix(0,-1,-1,0,192.329,298.023)">
            <path d="M-3.165,-3.167C-4.914,-3.167 -6.332,-1.75 -6.332,-0.001C-6.332,1.747 -4.914,3.165 -3.165,3.165C-1.416,3.165 0.001,1.747 0.001,-0.001C0.001,-1.75 -1.416,-3.167 -3.165,-3.167" style="fill:rgb(239,156,116);fill-rule:nonzero;"/>
        </g>
        <g transform="matrix(-0.0215569,0.999768,0.999768,0.0215569,148.432,287.14)">
            <path d="M17.468,-26.788L27.163,-26.788L26.213,17.303L16.523,17.095L17.468,-26.788Z" style="fill:rgb(244,242,237);fill-rule:nonzero;"/>
        </g>
    </g>
</svg>
