<?xml version="1.0" standalone="no"?><!DOCTYPE svg PUBLIC "-//W3C//DTD SVG 1.1//EN" "http://www.w3.org/Graphics/SVG/1.1/DTD/svg11.dtd"><svg width="336px" height="384px" version="1.1" xmlns="http://www.w3.org/2000/svg" xmlns:xlink="http://www.w3.org/1999/xlink" xml:space="preserve" style="fill-rule:evenodd;clip-rule:evenodd;stroke-linejoin:round;stroke-miterlimit:1.41421;"><g><g id="inception-train" transform="matrix(0.5,0,0,0.5,-24,0)"><g id="side-railings"><path d="M97.877,675.1l-12.885,-17.276l23.008,-380.824l13,0l0.371,-15l-26.371,0l-25,401.918l23.844,35.863l4.033,-24.681Z" style="fill:#c1beba;fill-rule:nonzero;"/><path d="M661.494,675.1l12.885,-17.276l-23.008,-380.824l-13,0l-0.371,-15l26.371,0l25,401.918l-23.844,35.863l-4.033,-24.681Z" style="fill:#c1beba;fill-rule:nonzero;"/></g><g id="top"><path d="M389.474,67.4072l-3.116,65.04l-10.5,0l2.948,-65.04l10.668,0Z" style="fill:#2a2b2a;fill-rule:nonzero;"/><path d="M338.832,60.229l84.336,3.116l0,10.5l-84.336,-2.948l0,-10.668Z" style="fill:#2a2b2a;fill-rule:nonzero;"/><path d="M330.369,47.1792l-8.207,22.324l49.055,0.084l-7.988,-22.506l-32.86,0.098Z" style="fill:#2a2b2a;fill-rule:nonzero;"/><path d="M330.369,90.9961l-8.207,-22.324l49.055,-0.085l-7.988,22.507l-32.86,-0.098Z" style="fill:#2a2b2a;fill-rule:nonzero;"/><path d="M402.092,51.0806l-6.73,18.307l40.228,0.069l-6.551,-18.456l-26.947,0.08Z" style="fill:#2a2b2a;fill-rule:nonzero;"/><path d="M402.092,87.0137l-6.73,-18.307l40.228,-0.069l-6.551,18.456l-26.947,-0.08Z" style="fill:#2a2b2a;fill-rule:nonzero;"/></g><g id="wheels"><path d="M612.112,768l32.142,0l4.746,-68.628l-36.935,-0.592l0.047,69.22Z" style="fill:#292a29;fill-rule:nonzero;"/><g transform="matrix(1,0,0,1,0,0.7014)"><path d="M120.966,705.688l4.747,61.611l32.142,0l0.047,-62.203l-36.936,0.592Z" style="fill:#292a29;fill-rule:nonzero;"/></g></g><g id="train"><path d="M651,625l-540,0l12,-432.892l57.093,-74.108l147.993,-18l96.997,0l153.991,18l59.926,69.108l12,437.892Z" style="fill:#2a2b2a;fill-rule:nonzero;"/><path d="M671,752l-581,0l7,-131l566,0l8,131Z" style="fill:#5c5e5f;fill-rule:nonzero;"/></g><g id="window"><path d="M173.5,203.5l-17.788,22.392l-6.712,165.108l63.5,-1l2.5,-41.001l325,-1.999l3.999,43l70.001,1l-3,-165.875l-19,-22.875l-418.5,1.25Z" style="fill:#313156;fill-rule:nonzero;"/><clipPath id="tag1"><path d="M173.5,203.5l-17.787,22.392l-6.713,165.108l63.5,-1l2.5,-41l325,-2l4,43l70,1l-3,-165.875l-19,-22.875l-418.5,1.25Z"/></clipPath><g clip-path="url(#tag1)"><g opacity="0.300003"><path d="M630.532,398l-6.532,-202l-23,-16.279l-234.624,224.847l264.156,-6.568Z" style="fill:#0a1723;fill-rule:nonzero;"/></g><g opacity="0.300003"><path d="M138,194l-14,199l25.209,1.557l199.364,-199.188l-210.573,-1.369Z" style="fill:#0a1723;fill-rule:nonzero;"/></g></g><path d="M567.642,202.323l-145.4,145.402l12.258,-0.076l145.147,-145.362l-12.005,0.036Z" style="fill:#494a72;fill-rule:nonzero;"/><path d="M239.322,350l8.435,-147.691l-25.757,-0.046l-7,147.737l24.322,0Z" style="fill:#2a2b2a;fill-rule:nonzero;"/><path d="M515.435,350l-8.435,-147.691l25.757,-0.046l7,147.737l-24.322,0Z" style="fill:#2a2b2a;fill-rule:nonzero;"/><path d="M509.693,195.682l-3.852,7.871l-255.493,0.111l-5.183,-8.544l264.528,0.562Z" style="fill:#5c5e5f;fill-rule:nonzero;"/><path d="M211.926,390.047l-3.852,7.871l-51.682,0.111l-5.184,-8.544l60.718,0.562Z" style="fill:#5c5e5f;fill-rule:nonzero;"/><path d="M611.277,390.047l-3.852,7.871l-56.132,0.111l-5.184,-8.544l65.168,0.562Z" style="fill:#5c5e5f;fill-rule:nonzero;"/><path d="M227.926,195.41l-3.852,7.871l-51.682,0.111l-5.184,-8.544l60.718,0.562Z" style="fill:#5c5e5f;fill-rule:nonzero;"/><path d="M592.277,196.41l-3.852,7.871l-56.132,0.111l-5.184,-8.544l65.168,0.562Z" style="fill:#5c5e5f;fill-rule:nonzero;"/></g><g id="grill"><path d="M209,621l342,0l-20.357,-274.713l-301.504,-0.169l-20.139,274.882Z" style="fill:#2a2b2a;fill-rule:nonzero;"/><path d="M213.391,561.07l-4.391,59.931l3.772,0l167.228,-167.228l0,-59.312l-166.609,166.609Z" style="fill:#f4f2ed;fill-rule:nonzero;"/><path d="M222.611,435.225l-4.689,64.001l153.027,-153.027l-59.279,-0.034l-89.059,89.06Z" style="fill:#f4f2ed;fill-rule:nonzero;"/><path d="M272.733,619.613l1.387,1.387l56.54,0l49.34,-49.339l0,-59.314l-107.267,107.266Z" style="fill:#f4f2ed;fill-rule:nonzero;"/><path d="M227.241,372.018l25.886,-25.886l-23.988,-0.014l-1.898,25.9Z" style="fill:#f4f2ed;fill-rule:nonzero;"/><path d="M380,453.772l167.227,167.228l3.773,0l-4.445,-59.985l-166.555,-166.555l0,59.312Z" style="fill:#f4f2ed;fill-rule:nonzero;"/><path d="M541.968,499.115l-4.747,-64.059l-88.814,-88.815l-59.345,-0.033l152.906,152.907Z" style="fill:#f4f2ed;fill-rule:nonzero;"/><path d="M380,571.66l49.34,49.34l56.54,0l1.387,-1.387l-107.267,-107.267l0,59.314Z" style="fill:#f4f2ed;fill-rule:nonzero;"/><path d="M532.533,371.793l-1.89,-25.506l-23.629,-0.013l25.519,25.519Z" style="fill:#f4f2ed;fill-rule:nonzero;"/><clipPath id="tag2"><path d="M209,621l342,0l-20.357,-274.713l-301.504,-0.168l-20.139,274.881Z"/></clipPath><g clip-path="url(#tag2)"><g opacity="0.100006"><rect x="380" y="341" width="196" height="280" style="fill:#2a2b2a;fill-rule:nonzero;"/></g></g></g><g id="numbers"><path d="M255.804,146.659l0,-5.73l16.697,0.146l0.303,-5.49l-22.869,0.449l0.057,16.543l16.277,0.211l0.029,8.394l-15.793,0.493l-0.181,4.855l22.076,-0.055l-0.002,-19.39l-16.594,-0.426Z" style="fill:#f4f2ed;fill-rule:nonzero;"/><path d="M323.447,146.659l0,-5.73l-16.697,0.146l-0.303,-5.49l22.869,0.449l-0.057,16.543l-16.277,0.211l-0.029,8.394l15.793,0.493l0.181,4.855l-22.076,-0.055l0.002,-19.39l16.594,-0.426Z" style="fill:#f4f2ed;fill-rule:nonzero;"/><path d="M239.322,146.659l0,-5.73l-16.697,0.146l-0.303,-5.49l22.869,0.449l-0.26,30.496l-22.609,-0.422l0.422,-4.938l16.312,0.188l0.124,-8.707l-16.452,0.082l0,-5.648l16.594,-0.426Z" style="fill:#f4f2ed;fill-rule:nonzero;"/><path d="M295.665,162.484l-10.802,-0.002l-0.493,-21.957l11.499,0.208l-0.204,21.751ZM278.435,135.585l0.404,30.891l22.076,0.054l0.389,-30.496l-22.869,-0.449Z" style="fill:#f4f2ed;fill-rule:nonzero;"/><path d="M481.644,147.085l-16.594,-0.426l0,-5.73l16.697,0.146l0.303,-5.49l-22.869,0.449l0.057,16.543l16.277,0.211l0.029,8.394l-15.793,0.493l-0.181,4.855l22.076,-0.055l-0.002,-19.39Z" style="fill:#f4f2ed;fill-rule:nonzero;"/><path d="M532.693,146.659l0,-5.73l-16.697,0.146l-0.303,-5.49l22.869,0.449l-0.057,16.543l-16.277,0.211l-0.029,8.394l15.793,0.493l0.181,4.855l-22.076,-0.055l0.002,-19.39l16.594,-0.426Z" style="fill:#f4f2ed;fill-rule:nonzero;"/><path d="M448.568,146.659l0,-5.73l-16.697,0.146l-0.303,-5.49l22.869,0.449l-0.26,30.496l-22.609,-0.422l0.422,-4.938l16.312,0.188l0.124,-8.707l-16.452,0.082l0,-5.648l16.594,-0.426Z" style="fill:#f4f2ed;fill-rule:nonzero;"/><path d="M504.911,162.484l-10.802,-0.002l-0.493,-21.957l11.499,0.208l-0.204,21.751ZM487.681,135.585l0.404,30.891l22.076,0.054l0.389,-30.496l-22.869,-0.449Z" style="fill:#f4f2ed;fill-rule:nonzero;"/></g><g id="railings"><path d="M150.098,646.986l9.074,4.682" style="fill:#c1bebb;fill-rule:nonzero;"/><path d="M288.172,475.232l8.016,3.577l1.984,166.859l-9.074,-4.682l-0.926,-165.754Z" style="fill:#c1bebb;fill-rule:nonzero;"/><path d="M472,475.232l-8.016,3.577l-1.984,166.859l9.074,-4.682l0.926,-165.754Z" style="fill:#c1bebb;fill-rule:nonzero;"/><path d="M611.537,589.334l-33.365,-118.334l-390.172,0l-33.365,118.334l-3.463,92.666l20.01,7.959l0.306,-9.791l-11.441,-4.543l2.842,-82.27l33.111,-112.355l374.172,0l33.111,112.355l2.842,82.27l-11.442,4.543l0.307,9.791l20.01,-7.959l-3.463,-92.666Z" style="fill:#c1bebb;fill-rule:nonzero;"/></g><g id="skirt"><path d="M602,758l-435,0l7,-139l420,0l8,139Z" style="fill:#2a2b2a;fill-rule:nonzero;"/></g><g id="doodads"><path d="M360.003,725.124l-10.055,-30.233l60.103,-0.116l-9.785,30.48l-40.263,-0.131Z" style="fill:#645849;fill-rule:nonzero;"/><path d="M370.815,117.222l-5.457,19.761l32.616,0.074l-5.31,-19.921l-21.849,0.086Z" style="fill:#c1beba;fill-rule:nonzero;"/><path d="M370.815,148.249l-5.457,19.761l32.616,0.074l-5.31,-19.921l-21.849,0.086Z" style="fill:#c1beba;fill-rule:nonzero;"/></g><g id="lights"><path d="M187.929,570.652l-6.055,50.233l60.102,0.115l-5.784,-50.48l-48.263,0.132Z" style="fill:#2a2b2a;fill-rule:nonzero;"/><path d="M528.113,570.652l-6.055,50.233l60.102,0.115l-5.785,-50.48l-48.262,0.132Z" style="fill:#2a2b2a;fill-rule:nonzero;"/><path d="M565.217,597.74c0,7.236 -5.867,13.109 -13.107,13.109c-7.237,0 -13.108,-5.873 -13.108,-13.109c0,-7.242 5.871,-13.109 13.108,-13.109c7.24,0 13.107,5.867 13.107,13.109" style="fill:#c1bebb;fill-rule:nonzero;"/><path d="M224.107,597.74c0,7.236 -5.867,13.109 -13.107,13.109c-7.237,0 -13.108,-5.873 -13.108,-13.109c0,-7.242 5.871,-13.109 13.108,-13.109c7.24,0 13.107,5.867 13.107,13.109" style="fill:#c1bebb;fill-rule:nonzero;"/></g></g></g></svg>