<?xml version="1.0" standalone="no"?><!DOCTYPE svg PUBLIC "-//W3C//DTD SVG 1.1//EN" "http://www.w3.org/Graphics/SVG/1.1/DTD/svg11.dtd"><svg width="792px" height="624px" version="1.1" xmlns="http://www.w3.org/2000/svg" xmlns:xlink="http://www.w3.org/1999/xlink" xml:space="preserve" style="fill-rule:evenodd;clip-rule:evenodd;stroke-linejoin:round;stroke-miterlimit:1.41421;"><g><g id="apartments-wide-right" transform="matrix(1,0,0,1,-4,0)"><g transform="matrix(1,0,0,1,-736.778,-296.875)"><path d="M806.971,585.075l-1.11,323.807l726.488,0l0.376,-300.06l0,-23.749l-725.754,0.002Z" style="fill:#f5f3e9;fill-rule:nonzero;"/></g><g transform="matrix(1,0,0,1,-736.778,-296.875)"><rect x="805.877" y="585.319" width="726.847" height="323.563" style="fill:#e7e6de;fill-rule:nonzero;"/></g><g transform="matrix(1,0,0,1,-736.778,-296.875)"><path d="M806.139,630.081l-0.238,227.461l289.332,0l-0.144,-227.484l-288.95,0.023Z" style="fill:#c1bebb;fill-rule:nonzero;"/></g><g transform="matrix(1,0,0,1,-736.778,-296.875)"><path d="M896.603,634.308l-0.437,216.661l107.887,0l-0.084,-216.942l-107.366,0.281Z" style="fill:#313156;fill-rule:nonzero;"/></g><g transform="matrix(1,0,0,1,-736.778,-296.875)"><path d="M812.629,634.308l0,216.661l76.955,0l0,-216.942l-76.955,0.281Z" style="fill:#313156;fill-rule:nonzero;"/></g><g transform="matrix(1,0,0,1,-736.778,-296.875)"><path d="M1011.28,634.308l0,216.661l76.957,0l0,-216.942l-76.957,0.281Z" style="fill:#313156;fill-rule:nonzero;"/></g><g transform="matrix(1,0,0,1,-736.778,-296.875)"><path d="M806.847,344.914l-4.443,-9.492l730.319,0.209l0,9.226l-725.876,0.057Z" style="fill:#e7e6de;fill-rule:nonzero;"/></g><g transform="matrix(1,0,0,1,-736.778,-296.875)"><path d="M802.403,335.422l-4.017,-13.349l-0.01,-11.411l6.731,0l0.002,11.381l727.619,-1.81l-0.001,15.398l-730.324,-0.209Z" style="fill:#fff;fill-rule:nonzero;"/></g><g transform="matrix(1,0,0,1,-736.778,-296.875)"><path d="M806.862,345.511l-0.023,27.569l0.017,211.749l725.867,0l0,-239.347l-572.893,-0.049l-152.968,0.078Z" style="fill:#f5f3e9;fill-rule:nonzero;"/></g><g transform="matrix(1,0,0,1,-736.778,-296.875)"><path d="M1001.56,345.543l0,239.3l71.438,0.001l0,-239.301l-71.438,0Z" style="fill:#e7e6de;fill-rule:nonzero;"/></g><g transform="matrix(1,0,0,1,-736.778,-296.875)"><path d="M910.287,397.409l0.046,137.612l68.913,-0.146l0.093,-137.534l-69.052,0.068Z" style="fill:#c1bebb;fill-rule:nonzero;"/></g><g transform="matrix(1,0,0,1,-736.778,-296.875)"><path d="M915.543,469.564l0,60.228l58.348,-0.157l0,-60.124l-58.348,0.053Z" style="fill:#313156;fill-rule:nonzero;"/></g><g transform="matrix(1,0,0,1,-736.778,-296.875)"><path d="M915.511,464.196l58.38,0.054l0.032,-60.926l-58.38,-0.634l-0.032,61.506Z" style="fill:#313156;fill-rule:nonzero;"/></g><g transform="matrix(1,0,0,1,-736.778,-296.875)"><path d="M827.024,397.409l0.045,137.612l68.916,-0.146l0.088,-137.534l-69.049,0.068Z" style="fill:#c1bebb;fill-rule:nonzero;"/></g><g transform="matrix(1,0,0,1,-736.778,-296.875)"><path d="M832.282,469.564l0,60.228l58.343,-0.157l0,-60.124l-58.343,0.053Z" style="fill:#313156;fill-rule:nonzero;"/></g><g transform="matrix(1,0,0,1,-736.778,-296.875)"><path d="M832.25,464.196l58.376,0.054l0.03,-61.359l-58.374,-0.201l-0.032,61.506Z" style="fill:#313156;fill-rule:nonzero;"/></g><g transform="matrix(1,0,0,1,-736.778,-296.875)"><path d="M1120.11,410.859l0.046,104.603l99.603,-0.143l0.089,-104.527l-99.738,0.067Z" style="fill:#c1bebb;fill-rule:nonzero;"/></g><g transform="matrix(1,0,0,1,-736.778,-296.875)"><path d="M1125.37,467.121l0,43.115l89.031,-0.156l0,-43.013l-89.031,0.054Z" style="fill:#313156;fill-rule:nonzero;"/></g><g transform="matrix(1,0,0,1,-736.778,-296.875)"><path d="M1125.33,461.753l89.062,0.055l0.03,-45.557l-89.061,-0.114l-0.031,45.616Z" style="fill:#313156;fill-rule:nonzero;"/></g><g transform="matrix(1,0,0,1,-736.778,-296.875)"><rect x="915.303" y="464.403" width="59.153" height="5.133" style="fill:#c1bebb;fill-rule:nonzero;"/></g><g transform="matrix(1,0,0,1,-736.778,-296.875)"><path d="M1266.15,345.543l0,239.303l71.438,0.001l0,-239.304l-71.438,0Z" style="fill:#e7e6de;fill-rule:nonzero;"/></g><g transform="matrix(1,0,0,1,-736.778,-296.875)"><path d="M1442.73,397.409l0.045,137.612l68.916,-0.146l0.091,-137.534l-69.052,0.068Z" style="fill:#c1bebb;fill-rule:nonzero;"/></g><g transform="matrix(1,0,0,1,-736.778,-296.875)"><path d="M1447.99,469.564l0,60.228l58.345,-0.157l0,-60.124l-58.345,0.053Z" style="fill:#313156;fill-rule:nonzero;"/></g><g transform="matrix(1,0,0,1,-736.778,-296.875)"><path d="M1447.96,464.196l58.377,0.054l0.033,-60.926l-58.379,-0.634l-0.031,61.506Z" style="fill:#313156;fill-rule:nonzero;"/></g><g transform="matrix(1,0,0,1,-736.778,-296.875)"><path d="M1359.47,397.409l0.041,137.612l68.92,-0.146l0.088,-137.534l-69.049,0.068Z" style="fill:#c1bebb;fill-rule:nonzero;"/></g><g transform="matrix(1,0,0,1,-736.778,-296.875)"><path d="M1364.72,469.564l0,60.228l58.343,-0.157l0,-60.124l-58.343,0.053Z" style="fill:#313156;fill-rule:nonzero;"/></g><g transform="matrix(1,0,0,1,-736.778,-296.875)"><path d="M1364.69,464.196l58.377,0.054l0.031,-61.438l-58.375,-0.122l-0.033,61.506Z" style="fill:#313156;fill-rule:nonzero;"/></g><g transform="matrix(1,0,0,1,-736.778,-296.875)"><path d="M1101.35,594.524l431.421,1.564l0,-11.191l-431.81,0l0.389,9.627Z" style="fill:#dcdcd7;fill-rule:nonzero;"/></g><g transform="matrix(1,0,0,1,-736.778,-296.875)"><path d="M1337.59,908.888l-71.438,0l9.358,-313.316l-11.083,0.274l11.083,-10.984l54.5,0l-11.333,11.255l11.333,0.259l7.58,312.512Z" style="fill:#e7e6de;fill-rule:nonzero;"/></g><g transform="matrix(1,0,0,1,-736.778,-296.875)"><path d="M1311.16,773.988l48.992,0.057l0.033,-57.782l-49.09,-0.03l0.065,57.755Z" style="fill:#5c5e5f;fill-rule:nonzero;"/></g><g transform="matrix(1,0,0,1,-736.778,-296.875)"><path d="M1316.55,768.569l38.152,0.121l0,-46.466l-38.152,-0.041l0,46.386Z" style="fill:#313156;fill-rule:nonzero;"/></g><g transform="matrix(1,0,0,1,-736.778,-296.875)"><path d="M1004.73,563.728l-200.974,0l0,5l200.991,0l-0.017,-5Z" style="fill:#c1bebb;fill-rule:nonzero;"/></g><g transform="matrix(1,0,0,1,-736.778,-296.875)"><path d="M1004.76,568.747l-201.007,0l-5.004,16.126l212.017,0l-6.006,-16.126Z" style="fill:#fff;fill-rule:nonzero;"/></g><g transform="matrix(1,0,0,1,-736.778,-296.875)"><path d="M1004.73,365.996l-200.974,0l0,-5l200.991,0l-0.017,5Z" style="fill:#c1bebb;fill-rule:nonzero;"/></g><g transform="matrix(1,0,0,1,-736.778,-296.875)"><path d="M1004.76,360.977l-201.007,0l-5.004,-16.125l212.017,0l-6.006,16.125Z" style="fill:#fff;fill-rule:nonzero;"/></g><g transform="matrix(1,0,0,1,-736.778,-296.875)"><path d="M1269.73,563.728l-200.974,0l0,5l200.991,0l-0.017,-5Z" style="fill:#c1bebb;fill-rule:nonzero;"/></g><g transform="matrix(1,0,0,1,-736.778,-296.875)"><path d="M1269.76,568.747l-201.006,0l-5.004,16.126l212.017,0l-6.007,-16.126Z" style="fill:#fff;fill-rule:nonzero;"/></g><g transform="matrix(1,0,0,1,-736.778,-296.875)"><path d="M1269.73,366.621l-200.974,0l0,-5l200.991,0l-0.017,5Z" style="fill:#c1bebb;fill-rule:nonzero;"/></g><g transform="matrix(1,0,0,1,-736.778,-296.875)"><path d="M1269.76,361.602l-201.006,0l-5.004,-16.125l212.017,0l-6.007,16.125Z" style="fill:#fff;fill-rule:nonzero;"/></g><g transform="matrix(1,0,0,1,-736.778,-296.875)"><path d="M1532.73,563.728l-197.969,0l0,5l197.987,0l-0.018,-5Z" style="fill:#c1bebb;fill-rule:nonzero;"/></g><g transform="matrix(1,0,0,1,-736.778,-296.875)"><path d="M1532.73,568.747l-197.973,0l-5.004,16.126l203.024,0l-0.047,-16.126Z" style="fill:#fff;fill-rule:nonzero;"/></g><g transform="matrix(1,0,0,1,-736.778,-296.875)"><path d="M1532.73,366.621l-197.971,0l0,-5l197.989,0l-0.018,5Z" style="fill:#c1bebb;fill-rule:nonzero;"/></g><g transform="matrix(1,0,0,1,-736.778,-296.875)"><path d="M1532.73,361.602l-197.973,0l-5.004,-16.125l202.977,0l0,16.125Z" style="fill:#fff;fill-rule:nonzero;"/></g><g transform="matrix(1,0,0,1,-736.778,-296.875)"><g opacity="0.300003"><path d="M876.106,402.844l-43.828,43.759l0.015,-43.915l43.813,0.156Z" style="fill:#0a1723;fill-rule:nonzero;"/></g></g><g transform="matrix(1,0,0,1,-736.778,-296.875)"><g opacity="0.300003"><path d="M1354.71,722.156l-38.109,37.984l-0.018,-37.983l38.127,-0.001Z" style="fill:#0a1723;fill-rule:nonzero;"/></g></g><g transform="matrix(1,0,0,1,-736.778,-296.875)"><path d="M1242.5,773.988l48.992,0.057l0.033,-57.782l-49.09,-0.03l0.065,57.755Z" style="fill:#5c5e5f;fill-rule:nonzero;"/></g><g transform="matrix(1,0,0,1,-736.778,-296.875)"><path d="M1247.88,768.569l38.152,0.121l0,-46.466l-38.152,-0.041l0,46.386Z" style="fill:#313156;fill-rule:nonzero;"/></g><g transform="matrix(1,0,0,1,-736.778,-296.875)"><g opacity="0.300003"><path d="M1286.04,722.156l-38.109,37.984l-0.018,-37.983l38.127,-0.001Z" style="fill:#0a1723;fill-rule:nonzero;"/></g></g><g transform="matrix(1,0,0,1,-736.778,-296.875)"><g opacity="0.300003"><path d="M1201.04,416.207l-75.619,75.4l-0.035,-75.466l75.654,0.066Z" style="fill:#0a1723;fill-rule:nonzero;"/></g></g><g transform="matrix(1,0,0,1,-736.778,-296.875)"><g opacity="0.300003"><path d="M1088.29,850.109l-0.008,-159.604l-166.339,160.454l166.347,-0.85Z" style="fill:#0a1723;fill-rule:nonzero;"/></g></g><g transform="matrix(1,0,0,1,-736.778,-296.875)"><path d="M928.197,850.947l160.104,-160.435l-0.05,-5.971l-166.285,166.434l6.231,-0.028Z" style="fill:#494a72;fill-rule:nonzero;"/></g><g transform="matrix(1,0,0,1,-736.778,-296.875)"><g opacity="0.300003"><path d="M973.902,529.649l0.014,-101.87l-58.335,55.694l0.007,46.192l58.314,-0.016Z" style="fill:#0a1723;fill-rule:nonzero;"/></g></g><g transform="matrix(1,0,0,1,-736.778,-296.875)"><path d="M915.565,486.75l58.284,-58.493l0.045,-0.015l0.005,-6.026l-58.331,58.411l-0.003,6.123Z" style="fill:#494a72;fill-rule:nonzero;"/></g><g transform="matrix(1,0,0,1,-736.778,-296.875)"><g opacity="0.300003"><path d="M890.448,507.16l-16.778,16.022l-1.248,6.551l18.174,-0.005l-0.148,-22.568Z" style="fill:#0a1723;fill-rule:nonzero;"/></g></g><g transform="matrix(1,0,0,1,-736.778,-296.875)"><path d="M872.422,529.712l18.132,-18.196l-0.024,-6.15l-24.327,24.362l6.219,-0.016Z" style="fill:#494a72;fill-rule:nonzero;"/></g><g transform="matrix(1,0,0,1,-736.778,-296.875)"><g opacity="0.300003"><path d="M1408.7,402.832l-43.915,43.771l0.028,-43.947l43.887,0.176Z" style="fill:#0a1723;fill-rule:nonzero;"/></g></g><g transform="matrix(1,0,0,1,-736.778,-296.875)"><g opacity="0.300003"><path d="M1506.32,529.641l0.017,-101.702l-58.377,55.737l0.006,46.074l58.354,-0.109Z" style="fill:#0a1723;fill-rule:nonzero;"/></g></g><g transform="matrix(1,0,0,1,-736.778,-296.875)"><path d="M1447.99,486.908l58.441,-58.651l-0.082,0.114l0.004,-6.027l-58.36,58.441l-0.003,6.123Z" style="fill:#494a72;fill-rule:nonzero;"/></g><g transform="matrix(1,0,0,1,-736.778,-296.875)"><g opacity="0.300003"><path d="M1423.03,507.16l-16.777,16.022l-1.26,6.458l18.062,0l-0.025,-22.48Z" style="fill:#0a1723;fill-rule:nonzero;"/></g></g><g transform="matrix(1,0,0,1,-736.778,-296.875)"><path d="M1405.04,529.674l18.094,-18.158l-0.024,-6.15l-24.273,24.308l6.203,0Z" style="fill:#494a72;fill-rule:nonzero;"/></g><g transform="matrix(1,0,0,1,-736.778,-296.875)"><rect x="914.969" y="464.152" width="59.152" height="5.467" style="fill:#c1bebb;fill-rule:nonzero;"/></g><g transform="matrix(1,0,0,1,-736.778,-296.875)"><rect x="1448.1" y="464.216" width="59.15" height="5.32" style="fill:#c1bebb;fill-rule:nonzero;"/></g><g transform="matrix(1,0,0,1,-736.778,-296.875)"><rect x="1364.16" y="464.216" width="59.15" height="5.32" style="fill:#c1bebb;fill-rule:nonzero;"/></g><g transform="matrix(1,0,0,1,-736.778,-296.875)"><rect x="1124.97" y="461.841" width="91.026" height="5.32" style="fill:#c1bebb;fill-rule:nonzero;"/></g><g transform="matrix(1,0,0,1,-736.778,-296.875)"><rect x="805.859" y="908.875" width="726.802" height="12" style="fill:#352d27;fill-rule:nonzero;"/></g><g transform="matrix(1,0,0,1,-736.778,-296.875)"><g opacity="0.300003"><path d="M919.076,634.35l-106.432,106.082l0.069,-106.078l106.363,-0.004Z" style="fill:#0a1723;fill-rule:nonzero;"/></g></g><g transform="matrix(1,0,0,1,-736.778,-296.875)"><path d="M1011.25,850.413l-7.245,0l0,-216.055l7.245,-0.002l0,216.057Z" style="fill:#c1bebb;fill-rule:nonzero;"/></g><g transform="matrix(1,0,0,1,-736.778,-296.875)"><rect x="889.59" y="634.313" width="7" height="218.403" style="fill:#c1bebb;fill-rule:nonzero;"/></g><g transform="matrix(1,0,0,1,-736.778,-296.875)"><path d="M776.492,673.969l326.014,-0.244l-1.524,-88.856l-307.264,0l-17.226,89.1Z" style="fill:#679a45;fill-rule:nonzero;"/></g><g transform="matrix(1,0,0,1,-736.778,-296.875)"><path d="M1010.76,584.891l-9.844,9.923l-209.128,0l0.725,-3.667l6.182,-6.277l212.065,0.021Z" style="fill:#35813f;fill-rule:nonzero;"/></g><g transform="matrix(1,0,0,1,-736.778,-296.875)"><path d="M1100.94,584.997l0.389,9.553l-47.046,-0.286l9.415,-9.366l37.242,0.099Z" style="fill:#35813f;fill-rule:nonzero;"/></g></g></g></svg>