<?xml version="1.0" standalone="no"?><!DOCTYPE svg PUBLIC "-//W3C//DTD SVG 1.1//EN" "http://www.w3.org/Graphics/SVG/1.1/DTD/svg11.dtd"><svg width="432px" height="624px" version="1.1" xmlns="http://www.w3.org/2000/svg" xmlns:xlink="http://www.w3.org/1999/xlink" xml:space="preserve" style="fill-rule:evenodd;clip-rule:evenodd;stroke-linejoin:round;stroke-miterlimit:1.41421;"><g><g id="apartments-narrow-right" transform="matrix(1,0,0,1,3.0326,0)"><g transform="matrix(1,0,0,1,-2183.66,-296.875)"><path d="M2186.7,671.436l29.964,1.171l-1.011,-87.301l-28.953,86.13Z" style="fill:#cdac80;fill-rule:nonzero;"/></g><g transform="matrix(1,0,0,1,-2183.66,-296.875)"><path d="M2212.79,908.862l399.832,0.023l0,-321.708l-0.02,-2.258l-397.471,-0.021l-2.341,323.964Z" style="fill:#f5f0e0;fill-rule:nonzero;"/></g><g transform="matrix(1,0,0,1,-2183.66,-296.875)"><path d="M2269.25,634.479l-0.265,229.955l243.899,0l-0.159,-229.978l-243.475,0.023Z" style="fill:#5c5f60;fill-rule:nonzero;"/></g><g transform="matrix(1,0,0,1,-2183.66,-296.875)"><path d="M2390.29,639.139l-0.48,218.048l116.259,0l-0.089,-218.361l-115.69,0.313Z" style="fill:#323156;fill-rule:nonzero;"/></g><g transform="matrix(1,0,0,1,-2183.66,-296.875)"><path d="M2275.76,639.141l0,218.047l110.364,0l0,-218.362l-110.364,0.315Z" style="fill:#323156;fill-rule:nonzero;"/></g><g transform="matrix(1,0,0,1,-2183.66,-296.875)"><path d="M2230.49,673.949l318.782,-0.002l-12.048,-89.032l-294.923,-0.015l-11.811,89.049Z" style="fill:#cdac80;fill-rule:nonzero;"/></g><g transform="matrix(1,0,0,1,-2183.66,-296.875)"><path d="M2612.61,584.963l-397.48,0.121l0.244,-240.168l397.236,-0.358l0,240.405Z" style="fill:#f5f0e0;fill-rule:nonzero;"/></g><g transform="matrix(1,0,0,1,-2183.66,-296.875)"><path d="M2436.94,540.517l-75.928,0.156l-0.051,-151.61l76.081,-0.073l-0.102,151.527Z" style="fill:#5c5f60;fill-rule:nonzero;"/></g><g transform="matrix(1,0,0,1,-2183.66,-296.875)"><path d="M2431.04,534.745l-64.283,0.172l0,-66.36l64.283,-0.057l0,66.245Z" style="fill:#323156;fill-rule:nonzero;"/></g><g transform="matrix(1,0,0,1,-2183.66,-296.875)"><path d="M2431.04,462.704l-64.318,-0.056l0.035,-67.769l64.317,0.121l-0.034,67.704Z" style="fill:#323156;fill-rule:nonzero;"/></g><g transform="matrix(1,0,0,1,-2183.66,-296.875)"><path d="M2537.65,468.385l-53.963,0.066l-0.033,-63.645l54.068,-0.032l-0.072,63.611Z" style="fill:#5c5f60;fill-rule:nonzero;"/></g><g transform="matrix(1,0,0,1,-2183.66,-296.875)"><path d="M2531.72,462.418l-42.021,0.133l0,-51.178l42.021,-0.045l0,51.09Z" style="fill:#323156;fill-rule:nonzero;"/></g><g transform="matrix(1,0,0,1,-2183.66,-296.875)"><path d="M2345.21,540.517l-75.927,0.156l-0.052,-151.61l76.079,-0.073l-0.1,151.527Z" style="fill:#5c5f60;fill-rule:nonzero;"/></g><g transform="matrix(1,0,0,1,-2183.66,-296.875)"><path d="M2339.3,534.745l-64.284,0.172l0,-66.36l64.284,-0.057l0,66.245Z" style="fill:#323156;fill-rule:nonzero;"/></g><g transform="matrix(1,0,0,1,-2183.66,-296.875)"><path d="M2339.3,462.704l-64.321,-0.056l0.037,-67.789l64.317,0.004l-0.033,67.841Z" style="fill:#323156;fill-rule:nonzero;"/></g><g transform="matrix(1,0,0,1,-2183.66,-296.875)"><rect x="2366.49" y="462.692" width="65.172" height="5.653" style="fill:#5c5f60;fill-rule:nonzero;"/></g><g transform="matrix(1,0,0,1,-2183.66,-296.875)"><g opacity="0.300003"><path d="M2275.75,673.956l-0.053,183.231l42.903,-0.013l151.713,-145.123l32.197,-38.114l-226.76,0.019Z" style="fill:#0d1824;fill-rule:nonzero;"/></g></g><g transform="matrix(1,0,0,1,-2183.66,-296.875)"><path d="M2500.42,673.947l-182.691,183.23l9.086,0.008l179.177,-179.369l-0.008,-3.848l-5.564,-0.021Z" style="fill:#494a72;fill-rule:nonzero;"/></g><g transform="matrix(1,0,0,1,-2183.66,-296.875)"><rect x="2386.14" y="673.938" width="7.436" height="186.321" style="fill:#5c5f60;fill-rule:nonzero;"/></g><g transform="matrix(1,0,0,1,-2183.66,-296.875)"><g opacity="0.300003"><path d="M2326.54,394.834l-51.494,51.326l-0.012,-51.285l51.506,-0.041Z" style="fill:#0d1824;fill-rule:nonzero;"/></g></g><g transform="matrix(1,0,0,1,-2183.66,-296.875)"><g opacity="0.300003"><path d="M2431.05,534.734l0.023,-66.234l-8.381,-0.004l-55.891,53.845l-0.043,12.596l64.292,-0.203Z" style="fill:#0d1824;fill-rule:nonzero;"/></g></g><g transform="matrix(1,0,0,1,-2183.66,-296.875)"><path d="M2366.77,528.951l60.238,-60.449l-9.31,0.013l-50.936,51.006l0.008,9.43Z" style="fill:#494a72;fill-rule:nonzero;"/></g><g transform="matrix(1,0,0,1,-2183.66,-296.875)"><path d="M2431.03,462.676l0.025,-7.554l-7.553,7.564l7.528,-0.01Z" style="fill:#494a72;fill-rule:nonzero;"/></g><g transform="matrix(1,0,0,1,-2183.66,-296.875)"><rect x="2273.28" y="462.661" width="68.914" height="5.905" style="fill:#5c5f60;fill-rule:nonzero;"/></g><g transform="matrix(1,0,0,1,-2183.66,-296.875)"><path d="M2215.35,344.916l-4.464,-9.479l401.719,0.022l0.026,9.394l-397.281,0.063Z" style="fill:#cdac80;fill-rule:nonzero;"/></g><g transform="matrix(1,0,0,1,-2183.66,-296.875)"><path d="M2210.91,335.44l-4.203,-13.48l0.018,-11.397l6.75,0l0.001,11.397l399.106,0.001l0.024,13.499l-401.696,-0.02Z" style="fill:#fff;fill-rule:nonzero;"/></g><g transform="matrix(1,0,0,1,-2183.66,-296.875)"><g opacity="0.300003"><path d="M2453.2,857.184l52.848,-52.709l0.018,52.697l-52.866,0.012Z" style="fill:#0d1824;fill-rule:nonzero;"/></g></g><g transform="matrix(1,0,0,1,-2183.66,-296.875)"><rect x="2212.78" y="908.859" width="399.848" height="12.016" style="fill:#352d27;fill-rule:nonzero;"/></g></g></g></svg>