<?xml version="1.0" standalone="no"?><!DOCTYPE svg PUBLIC "-//W3C//DTD SVG 1.1//EN" "http://www.w3.org/Graphics/SVG/1.1/DTD/svg11.dtd"><svg width="792px" height="624px" version="1.1" xmlns="http://www.w3.org/2000/svg" xmlns:xlink="http://www.w3.org/1999/xlink" xml:space="preserve" style="fill-rule:evenodd;clip-rule:evenodd;stroke-linejoin:round;stroke-miterlimit:1.41421;"><g><g id="apartments-wide-left" transform="matrix(1,0,0,1,0,24)"><g transform="matrix(1,0,0,1,0,-320.875)"><path d="M725.216,673.209l27.203,-1.063l-26.399,-86.575l-0.804,87.638Z" style="fill:#cead80;fill-rule:nonzero;"/></g><g transform="matrix(1,0,0,1,0,-320.875)"><path d="M0.6273,584.798l0,324.058l727.99,0l-2.129,-324.058l-725.861,0Z" style="fill:#ecdbb1;fill-rule:nonzero;"/></g><g transform="matrix(1,0,0,1,0,-320.875)"><path d="M456.154,868.391l221.44,0l-0.239,-238.175l-221.056,-0.023l-0.145,238.198Z" style="fill:#f6f1e1;fill-rule:nonzero;"/></g><g transform="matrix(1,0,0,1,0,-320.875)"><path d="M462.342,861.436l102.1,0l-0.436,-227.368l-101.58,-0.284l-0.084,227.652Z" style="fill:#313156;fill-rule:nonzero;"/></g><g transform="matrix(1,0,0,1,0,-320.875)"><path d="M571.038,861.319l100.203,0l0,-227.368l-100.203,-0.284l0,227.652Z" style="fill:#313156;fill-rule:nonzero;"/></g><g transform="matrix(1,0,0,1,0,-320.875)"><clipPath id="tag1"><path d="M0.627,908.857l752.389,0.002l0,-324.073l-752.389,-0.002l0,324.073Z"/></clipPath><g clip-path="url(#tag1)"><g opacity="0.300003"><path d="M568.789,633.949l-106.432,106.082l0.069,-106.078l106.363,-0.004Z" style="fill:#0a1723;fill-rule:nonzero;"/></g></g></g><g transform="matrix(1,0,0,1,0,-320.875)"><path d="M0.6525,741.031l455.533,-1.001l0.088,-106.544l-455.646,-0.062l0.025,107.607Z" style="fill:#e0cea8;fill-rule:nonzero;"/></g><g transform="matrix(1,0,0,1,0,-320.875)"><path d="M677.425,633.975l0,28.462l28.48,-28.485l-28.48,0.023Z" style="fill:#e0cea8;fill-rule:nonzero;"/></g><g transform="matrix(1,0,0,1,0,-320.875)"><path d="M0.6309,330.403l0,9.186l725.855,-0.001l4.309,-9.395l-730.164,0.21Z" style="fill:#cead80;fill-rule:nonzero;"/></g><g transform="matrix(1,0,0,1,0,-320.875)"><path d="M728.656,305.492l0.013,11.348l-728.03,-1.411l0.007,15.208l730.165,-0.21l4.472,-13.582l0,-11.353l-6.627,0Z" style="fill:#f6f1e1;fill-rule:nonzero;"/></g><g transform="matrix(1,0,0,1,0,-320.875)"><path d="M0.6273,339.591l0,245.426l725.871,-0.06l0,-245.428l-725.871,0.062Z" style="fill:#cead80;fill-rule:nonzero;"/></g><g transform="matrix(1,0,0,1,0,-320.875)"><path d="M0.6291,339.591l0,245.272l725.85,0.001l0.007,-245.273l-154.103,-0.049l-571.754,0.049Z" style="fill:#ecdbb1;fill-rule:nonzero;"/></g><g transform="matrix(1,0,0,1,0,-320.875)"><path d="M433.666,473.564l48.992,0.059l0.033,-57.785l-49.091,-0.03l0.066,57.756Z" style="fill:#f6f1e1;fill-rule:nonzero;"/></g><g transform="matrix(1,0,0,1,0,-320.875)"><path d="M439.051,468.146l38.151,0.12l0,-46.466l-38.151,-0.038l0,46.384Z" style="fill:#313156;fill-rule:nonzero;"/></g><g transform="matrix(1,0,0,1,0,-320.875)"><path d="M598.291,401.539l-63.271,-0.058l0.092,137.574l68.935,0.14l0,-0.129l63.271,0.129l0.045,-137.65l-69.072,-0.064l0,0.058Z" style="fill:#f6f1e1;fill-rule:nonzero;"/></g><g transform="matrix(1,0,0,1,0,-320.875)"><path d="M603.957,533.813l58.148,0.156l0,-60.248l-58.365,-0.053l0.217,60.145Z" style="fill:#313156;fill-rule:nonzero;"/></g><g transform="matrix(1,0,0,1,0,-320.875)"><path d="M603.711,407.465l0.022,43.836l0.007,17.108l58.399,-0.057l-0.034,-61.525l-58.394,0.638Z" style="fill:#313156;fill-rule:nonzero;"/></g><g transform="matrix(1,0,0,1,0,-320.875)"><path d="M540.472,533.813l57.903,0.156l0.46,-60.248l-58.363,-0.053l0,60.145Z" style="fill:#313156;fill-rule:nonzero;"/></g><g transform="matrix(1,0,0,1,0,-320.875)"><path d="M540.444,407.465l0.028,60.942l58.396,-0.055l-0.009,-16.882l-0.024,-44.643l-58.391,0.638Z" style="fill:#313156;fill-rule:nonzero;"/></g><g transform="matrix(1,0,0,1,0,-320.875)"><rect x="539.908" y="468.392" width="59.168" height="5.135" style="fill:#f6f1e1;fill-rule:nonzero;"/></g><g transform="matrix(1,0,0,1,0,-320.875)"><path d="M200.962,539.055l-68.936,0.141l-0.047,-137.651l69.075,-0.064l-0.092,137.574Z" style="fill:#f6f1e1;fill-rule:nonzero;"/></g><g transform="matrix(1,0,0,1,0,-320.875)"><path d="M195.602,533.812l-58.363,0.156l0,-60.248l58.363,-0.053l0,60.145Z" style="fill:#313156;fill-rule:nonzero;"/></g><g transform="matrix(1,0,0,1,0,-320.875)"><path d="M195.602,468.406l-58.396,-0.055l0.033,-61.525l58.391,0.639l-0.028,60.941Z" style="fill:#313156;fill-rule:nonzero;"/></g><g transform="matrix(1,0,0,1,0,-320.875)"><path d="M302.408,473.565l-48.992,0.059l-0.032,-57.786l49.089,-0.029l-0.065,57.756Z" style="fill:#f6f1e1;fill-rule:nonzero;"/></g><g transform="matrix(1,0,0,1,0,-320.875)"><path d="M297.023,468.147l-38.15,0.119l0,-46.465l38.15,-0.039l0,46.385Z" style="fill:#313156;fill-rule:nonzero;"/></g><g transform="matrix(1,0,0,1,0,-320.875)"><g opacity="0.300003"><path d="M258.873,433.865l34.313,34.281l-34.336,0.071l0.023,-34.352Z" style="fill:#0a1723;fill-rule:nonzero;"/></g></g><g transform="matrix(1,0,0,1,0,-320.875)"><g opacity="0.300003"><path d="M477.162,433.865l-34.313,34.281l34.336,0.071l-0.023,-34.352Z" style="fill:#0a1723;fill-rule:nonzero;"/></g></g><g transform="matrix(1,0,0,1,0,-320.875)"><path d="M137.692,539.055l-68.937,0.141l-0.044,-137.651l69.072,-0.064l-0.091,137.574Z" style="fill:#f6f1e1;fill-rule:nonzero;"/></g><g transform="matrix(1,0,0,1,0,-320.875)"><path d="M132.334,533.812l-58.364,0.156l0,-60.248l58.364,-0.053l0,60.145Z" style="fill:#313156;fill-rule:nonzero;"/></g><g transform="matrix(1,0,0,1,0,-320.875)"><path d="M132.334,468.408l-58.398,-0.057l0.034,-61.525l58.393,0.639l-0.029,60.943Z" style="fill:#313156;fill-rule:nonzero;"/></g><g transform="matrix(1,0,0,1,0,-320.875)"><rect x="136.998" y="468.393" width="59.168" height="5.135" style="fill:#f6f1e1;fill-rule:nonzero;"/></g><g transform="matrix(1,0,0,1,0,-320.875)"><path d="M244.953,406.887l3.748,8.992l59,0l3.748,-8.992l-66.496,0Z" style="fill:#cead80;fill-rule:nonzero;"/></g><g transform="matrix(1,0,0,1,0,-320.875)"><path d="M209.569,392.553l-3.748,8.992l-142.448,0l-3.748,-8.992l149.944,0Z" style="fill:#cead80;fill-rule:nonzero;"/></g><g transform="matrix(1,0,0,1,0,-320.875)"><path d="M207.84,690.032l-3.748,8.992l-102.002,0l-3.748,-8.992l109.498,0Z" style="fill:#cead80;fill-rule:nonzero;"/></g><g transform="matrix(1,0,0,1,0,-320.875)"><rect x="564.124" y="633.364" width="6.833" height="228.662" style="fill:#f6f1e1;fill-rule:nonzero;"/></g><g transform="matrix(1,0,0,1,0,-320.875)"><path d="M491.121,406.887l-3.748,8.992l-59,0l-3.748,-8.992l66.496,0Z" style="fill:#cead80;fill-rule:nonzero;"/></g><g transform="matrix(1,0,0,1,0,-320.875)"><path d="M526.505,392.553l3.748,8.992l142.448,0l3.748,-8.992l-149.944,0Z" style="fill:#cead80;fill-rule:nonzero;"/></g><g transform="matrix(1,0,0,1,0,-320.875)"><path d="M0.6858,330.474l-0.064,9.1l11.376,-0.022l-1.51,-9.109l-9.802,0.031Z" style="fill:#f6f1e1;fill-rule:nonzero;"/></g><g transform="matrix(1,0,0,1,0,-320.875)"><path d="M52.3096,330.474l-1.391,9.1l12.704,-0.021l-1.511,-9.11l-9.802,0.031Z" style="fill:#f6f1e1;fill-rule:nonzero;"/></g><g transform="matrix(1,0,0,1,0,-320.875)"><path d="M103.936,330.474l-1.391,9.1l12.704,-0.021l-1.511,-9.11l-9.802,0.031Z" style="fill:#f6f1e1;fill-rule:nonzero;"/></g><g transform="matrix(1,0,0,1,0,-320.875)"><path d="M155.56,330.474l-1.391,9.1l12.704,-0.021l-1.511,-9.11l-9.802,0.031Z" style="fill:#f6f1e1;fill-rule:nonzero;"/></g><g transform="matrix(1,0,0,1,0,-320.875)"><path d="M206.811,330.474l-1.391,9.1l12.704,-0.021l-1.511,-9.11l-9.802,0.031Z" style="fill:#f6f1e1;fill-rule:nonzero;"/></g><g transform="matrix(1,0,0,1,0,-320.875)"><path d="M258.435,330.474l-1.391,9.1l12.704,-0.021l-1.511,-9.11l-9.802,0.031Z" style="fill:#f6f1e1;fill-rule:nonzero;"/></g><g transform="matrix(1,0,0,1,0,-320.875)"><path d="M309.936,330.474l-1.391,9.1l12.704,-0.021l-1.511,-9.11l-9.802,0.031Z" style="fill:#f6f1e1;fill-rule:nonzero;"/></g><g transform="matrix(1,0,0,1,0,-320.875)"><path d="M361.56,330.474l-1.391,9.1l12.704,-0.021l-1.511,-9.11l-9.802,0.031Z" style="fill:#f6f1e1;fill-rule:nonzero;"/></g><g transform="matrix(1,0,0,1,0,-320.875)"><path d="M412.311,330.474l-1.391,9.1l12.704,-0.021l-1.511,-9.11l-9.802,0.031Z" style="fill:#f6f1e1;fill-rule:nonzero;"/></g><g transform="matrix(1,0,0,1,0,-320.875)"><path d="M463.935,330.474l-1.391,9.1l12.704,-0.021l-1.511,-9.11l-9.802,0.031Z" style="fill:#f6f1e1;fill-rule:nonzero;"/></g><g transform="matrix(1,0,0,1,0,-320.875)"><path d="M514.936,330.474l-1.391,9.1l12.704,-0.021l-1.511,-9.11l-9.802,0.031Z" style="fill:#f6f1e1;fill-rule:nonzero;"/></g><g transform="matrix(1,0,0,1,0,-320.875)"><path d="M566.56,330.474l-1.391,9.1l12.704,-0.021l-1.511,-9.11l-9.802,0.031Z" style="fill:#f6f1e1;fill-rule:nonzero;"/></g><g transform="matrix(1,0,0,1,0,-320.875)"><path d="M618.061,330.474l-1.391,9.1l12.704,-0.021l-1.511,-9.11l-9.802,0.031Z" style="fill:#f6f1e1;fill-rule:nonzero;"/></g><g transform="matrix(1,0,0,1,0,-320.875)"><path d="M669.686,330.474l-1.391,9.1l12.704,-0.021l-1.511,-9.11l-9.802,0.031Z" style="fill:#f6f1e1;fill-rule:nonzero;"/></g><g transform="matrix(1,0,0,1,0,-320.875)"><path d="M720.602,330.474l-1.391,9.1l13.078,-0.021l-1.51,-9.11l-10.177,0.031Z" style="fill:#f6f1e1;fill-rule:nonzero;"/></g><g transform="matrix(1,0,0,1,0,-320.875)"><rect x="0.602" y="339.594" width="733.268" height="5.25" style="fill:#cead80;fill-rule:nonzero;"/></g><g transform="matrix(1,0,0,1,0,-320.875)"><path d="M0.621,584.874l0.031,89.13l723.011,0l-10.84,-89.13l-712.202,0Z" style="fill:#cead80;fill-rule:nonzero;"/></g><g transform="matrix(1,0,0,1,0,-320.875)"><path d="M63.501,330.156l3.127,9.402l-18.691,0.036l3.043,-9.479l12.521,0.041Z" style="fill:#f6f1e1;fill-rule:nonzero;"/></g><g transform="matrix(1,0,0,1,0,-320.875)"><path d="M114.876,330.156l3.127,9.402l-18.691,0.036l3.043,-9.479l12.521,0.041Z" style="fill:#f6f1e1;fill-rule:nonzero;"/></g><g transform="matrix(1,0,0,1,0,-320.875)"><path d="M166.751,330.156l3.127,9.402l-18.691,0.036l3.043,-9.479l12.521,0.041Z" style="fill:#f6f1e1;fill-rule:nonzero;"/></g><g transform="matrix(1,0,0,1,0,-320.875)"><path d="M217.876,330.156l3.127,9.402l-18.691,0.036l3.043,-9.479l12.521,0.041Z" style="fill:#f6f1e1;fill-rule:nonzero;"/></g><g transform="matrix(1,0,0,1,0,-320.875)"><path d="M269.501,330.156l3.127,9.402l-18.691,0.036l3.043,-9.479l12.521,0.041Z" style="fill:#f6f1e1;fill-rule:nonzero;"/></g><g transform="matrix(1,0,0,1,0,-320.875)"><path d="M320.876,330.156l3.127,9.402l-18.691,0.036l3.043,-9.479l12.521,0.041Z" style="fill:#f6f1e1;fill-rule:nonzero;"/></g><g transform="matrix(1,0,0,1,0,-320.875)"><path d="M372.626,330.156l3.127,9.402l-18.691,0.036l3.043,-9.479l12.521,0.041Z" style="fill:#f6f1e1;fill-rule:nonzero;"/></g><g transform="matrix(1,0,0,1,0,-320.875)"><path d="M423.376,330.156l3.127,9.402l-18.691,0.036l3.043,-9.479l12.521,0.041Z" style="fill:#f6f1e1;fill-rule:nonzero;"/></g><g transform="matrix(1,0,0,1,0,-320.875)"><path d="M475.126,330.156l3.127,9.402l-18.691,0.036l3.043,-9.479l12.521,0.041Z" style="fill:#f6f1e1;fill-rule:nonzero;"/></g><g transform="matrix(1,0,0,1,0,-320.875)"><path d="M526.001,330.156l3.127,9.402l-18.691,0.036l3.043,-9.479l12.521,0.041Z" style="fill:#f6f1e1;fill-rule:nonzero;"/></g><g transform="matrix(1,0,0,1,0,-320.875)"><path d="M577.626,330.156l3.127,9.402l-18.691,0.036l3.043,-9.479l12.521,0.041Z" style="fill:#f6f1e1;fill-rule:nonzero;"/></g><g transform="matrix(1,0,0,1,0,-320.875)"><path d="M629.126,330.156l3.127,9.402l-18.691,0.036l3.043,-9.479l12.521,0.041Z" style="fill:#f6f1e1;fill-rule:nonzero;"/></g><g transform="matrix(1,0,0,1,0,-320.875)"><path d="M730.751,330.156l3.127,9.402l-18.691,0.036l3.043,-9.479l12.521,0.041Z" style="fill:#f6f1e1;fill-rule:nonzero;"/></g><g transform="matrix(1,0,0,1,0,-320.875)"><path d="M680.751,330.156l3.127,9.402l-18.691,0.036l3.043,-9.479l12.521,0.041Z" style="fill:#f6f1e1;fill-rule:nonzero;"/></g><g transform="matrix(1,0,0,1,0,-320.875)"><path d="M0.6075,339.586l14.297,-0.028l-3.126,-9.402l-11.169,-0.036l-0.002,9.466Z" style="fill:#f6f1e1;fill-rule:nonzero;"/></g><g transform="matrix(1,0,0,1,0,-320.875)"><g opacity="0.300003"><path d="M195.579,522.475l0.034,-109.996l-115.615,110.402l115.581,-0.406Z" style="fill:#0a1723;fill-rule:nonzero;"/></g></g><g transform="matrix(1,0,0,1,0,-320.875)"><path d="M85.2881,523.512l110.32,-110.617l0.015,0.017l0.016,-5.453l-0.579,-0.011l-115.876,116.043l6.104,0.021Z" style="fill:#494a72;fill-rule:nonzero;"/></g><g transform="matrix(1,0,0,1,0,-320.875)"><rect x="132.373" y="462.135" width="5.417" height="54.25" style="fill:#f6f1e1;fill-rule:nonzero;"/></g><g transform="matrix(1,0,0,1,0,-320.875)"><rect x="73.789" y="468.301" width="122.209" height="5.416" style="fill:#f6f1e1;fill-rule:nonzero;"/></g><g transform="matrix(1,0,0,1,0,-320.875)"><path d="M203.145,535.555l-0.872,3.797l-9.462,9.451l-143.75,0l22.374,-22.375" style="fill:#e0cea8;fill-rule:nonzero;"/></g><g transform="matrix(1,0,0,1,0,-320.875)"><path d="M204.239,776.961l-0.872,3.797l-9.462,9.451l-106.018,0l22.374,-22.375" style="fill:#e0cea8;fill-rule:nonzero;"/></g><g transform="matrix(1,0,0,1,0,-320.875)"><path d="M202.636,539.221l-136.21,0l-6.305,-17.002l149.004,0l-6.489,17.002Z" style="fill:#cead80;fill-rule:nonzero;"/></g><g transform="matrix(1,0,0,1,0,-320.875)"><path d="M198.467,522.209l-4.812,-4.75l-17.848,-1.234l-3.559,-3.516l-5.625,3.426l-4.406,-1.676l-10.201,-1.236l-2.1,1.496l-2.5,-2.459l-3.315,0.691l-1.164,-3.275l-8.12,2.937l-13.568,-3.06l-7.083,7.043l-21.048,-3.502l-5.62,-5.582l-6.949,6.4l-9.313,1.908l-1.863,6.405l129.094,-0.016Z" style="fill:#679a45;fill-rule:nonzero;"/></g><g transform="matrix(1,0,0,1,0,-320.875)"><path d="M141.748,522.262l-2.731,-1.832l-0.769,-3.586l-15.375,1.291l-2.167,4.084l21.042,0.043Z" style="fill:#35813f;fill-rule:nonzero;"/></g><g transform="matrix(1,0,0,1,0,-320.875)"><path d="M193.457,522.26l-19.292,-2.957l-6.958,1.291l-8.625,-1.375l-1.458,2.957l36.333,0.084Z" style="fill:#35813f;fill-rule:nonzero;"/></g><g transform="matrix(1,0,0,1,0,-320.875)"><path d="M103.498,515.553l0.25,-19.5l-15.625,-10.5l-6.25,2.25l4.75,-8.25l21.5,14l0.75,23.25" style="fill:#679a45;fill-rule:nonzero;"/></g><g transform="matrix(1,0,0,1,0,-320.875)"><path d="M114.123,517.678l6.5,-28.75l-10.5,-8.25l1.625,-5.5l-7.375,5.75l11.625,9.25l-7.875,25.75" style="fill:#679a45;fill-rule:nonzero;"/></g><g transform="matrix(1,0,0,1,0,-320.875)"><path d="M105.248,514.303l-12.75,-19.375l-8.625,6.75l7.875,-1.625l7.875,15.75l5.625,-1.5Z" style="fill:#679a45;fill-rule:nonzero;"/></g><g transform="matrix(1,0,0,1,0,-320.875)"><path d="M117.623,498.303l11.875,-5.25l6,7.875l-6.75,-3.125l-12.625,6.375l1.5,-5.875Z" style="fill:#679a45;fill-rule:nonzero;"/></g><g transform="matrix(1,0,0,1,0,-320.875)"><path d="M120.499,522.24l-2.126,-2.854l-13.625,-5.709l-2.5,-3.875l-6.772,9.625l-7.145,2.793l32.168,0.02Z" style="fill:#35813f;fill-rule:nonzero;"/></g><g transform="matrix(1,0,0,1,0,-320.875)"><path d="M159.978,515.656l-0.574,-13.85l-14.76,-6.795l-3.994,1.862l2.038,-5.924l20.218,8.574l1.414,15.819" style="fill:#679a45;fill-rule:nonzero;"/></g><g transform="matrix(1,0,0,1,0,-320.875)"><path d="M153.697,496.795l-1.964,-11.584l13.234,-14.668l10.553,6.408l-9.568,-2.095l-10.491,10.906l3.048,12.5l-4.812,-1.467Z" style="fill:#679a45;fill-rule:nonzero;"/></g><g transform="matrix(1,0,0,1,0,-320.875)"><path d="M163.188,516.338l6.422,-25.686l7.417,-0.369l-4.059,3.731l-5.279,22.701l-4.501,-0.377Z" style="fill:#679a45;fill-rule:nonzero;"/></g><g transform="matrix(1,0,0,1,0,-320.875)"><g opacity="0.300003"><path d="M73.9512,442.975l0,-36.148l35.75,0.382" style="fill:#0a1723;fill-rule:nonzero;"/></g></g><g transform="matrix(1,0,0,1,0,-320.875)"><g opacity="0.300003"><path d="M662.245,522.807l0.034,-109.996l-115.615,110.402l115.581,-0.406Z" style="fill:#0a1723;fill-rule:nonzero;"/></g></g><g transform="matrix(1,0,0,1,0,-320.875)"><path d="M551.954,523.844l110.32,-110.617l0.015,0.017l0.016,-5.453l-0.579,-0.01l-115.876,116.043l6.104,0.02Z" style="fill:#494a72;fill-rule:nonzero;"/></g><g transform="matrix(1,0,0,1,0,-320.875)"><g opacity="0.300003"><path d="M671.186,861.316l0.031,-102.011l-99.996,95.488l-0.191,6.55l100.156,-0.027Z" style="fill:#0a1723;fill-rule:nonzero;"/></g></g><g transform="matrix(1,0,0,1,0,-320.875)"><path d="M571.06,860.219l100.151,-100.497l0.015,0.018l0.022,-6.045l-100.223,100.364l0.035,6.16Z" style="fill:#494a72;fill-rule:nonzero;"/></g><g transform="matrix(1,0,0,1,0,-320.875)"><g opacity="0.300003"><path d="M540.617,443.307l0,-36.148l35.75,0.382" style="fill:#0a1723;fill-rule:nonzero;"/></g></g><g transform="matrix(1,0,0,1,0,-320.875)"><rect x="598.665" y="406.303" width="5.417" height="110" style="fill:#f6f1e1;fill-rule:nonzero;"/></g><g transform="matrix(1,0,0,1,0,-320.875)"><rect x="540.081" y="468.219" width="122.209" height="5.416" style="fill:#f6f1e1;fill-rule:nonzero;"/></g><g transform="matrix(1,0,0,1,0,-320.875)"><path d="M670.041,535.555l-0.422,3.701l-9.557,9.547l-143.75,0l22.374,-22.375" style="fill:#e0cea8;fill-rule:nonzero;"/></g><g transform="matrix(1,0,0,1,0,-320.875)"><path d="M533.61,539.221l136.21,0l6.305,-17.002l-149.004,0l6.489,17.002Z" style="fill:#cead80;fill-rule:nonzero;"/></g><g transform="matrix(1,0,0,1,0,-320.875)"><path d="M537.873,522.209l8.75,-4.209l13.816,-1.744l5.965,-3.328l3.219,3.238l2,-2l12.906,-1.551l2.844,2.823l1.164,-3.276l3.608,0.82l1.165,-3.275l6.723,2.664l1.397,0.274l14.865,-3.264l7.045,7.017l19.788,-3.273l6.66,-5.625l5.909,6.443l9.314,1.909l1.862,6.404l-129,-0.047Z" style="fill:#679a45;fill-rule:nonzero;"/></g><g transform="matrix(1,0,0,1,0,-320.875)"><path d="M602.295,522.225l0.685,-1.795l12.643,-0.564l1.292,-2l4.375,4.353l-18.995,0.006Z" style="fill:#35813f;fill-rule:nonzero;"/></g><g transform="matrix(1,0,0,1,0,-320.875)"><path d="M639.448,522.338l0.697,-1.908l9.895,-3.377l1.833,2.418l6.583,2.748l-19.008,0.119Z" style="fill:#35813f;fill-rule:nonzero;"/></g><g transform="matrix(1,0,0,1,0,-320.875)"><path d="M562.092,522.23l3.5,-3.918l4.423,1.025l11.233,-0.285l4.031,3.157l-9.854,0.021l-13.333,0Z" style="fill:#35813f;fill-rule:nonzero;"/></g><g transform="matrix(1,0,0,1,0,-320.875)"><path d="M630.511,503.926l2.303,0l0.422,14.623l-4.453,0.691l1.728,-15.314Z" style="fill:#679a45;fill-rule:nonzero;"/></g><g transform="matrix(1,0,0,1,0,-320.875)"><path d="M613.777,480.891l2.381,-0.232l0.095,30.343l-4.456,1.051l1.98,-31.162Z" style="fill:#679a45;fill-rule:nonzero;"/></g><g transform="matrix(1,0,0,1,0,-320.875)"><path d="M644.568,487.668l2.383,-0.254l-0.003,26.826l-4.46,1.164l2.08,-27.736Z" style="fill:#679a45;fill-rule:nonzero;"/></g><g transform="matrix(1,0,0,1,0,-320.875)"><path d="M639.564,488.303l-3.127,-9.402l18.691,-0.036l-3.043,9.479l-12.521,-0.041Z" style="fill:#ae2025;fill-rule:nonzero;"/></g><g transform="matrix(1,0,0,1,0,-320.875)"><path d="M608.564,480.803l-3.127,-9.402l18.691,-0.036l-3.043,9.479l-12.521,-0.041Z" style="fill:#ae2025;fill-rule:nonzero;"/></g><g transform="matrix(1,0,0,1,0,-320.875)"><path d="M625.314,504.053l-3.127,-9.402l18.691,-0.036l-3.043,9.479l-12.521,-0.041Z" style="fill:#ae2025;fill-rule:nonzero;"/></g><g transform="matrix(1,0,0,1,0,-320.875)"><path d="M551.761,499.926l2.303,0l0.422,19.16l-4.453,0.904l1.728,-20.064Z" style="fill:#679a45;fill-rule:nonzero;"/></g><g transform="matrix(1,0,0,1,0,-320.875)"><path d="M546.564,500.053l-3.127,-9.402l18.691,-0.036l-3.043,9.479l-12.521,-0.041Z" style="fill:#ae2025;fill-rule:nonzero;"/></g><g transform="matrix(1,0,0,1,0,-320.875)"><path d="M591.011,505.926l2.303,0l0.422,14.623l-4.453,0.691l1.728,-15.314Z" style="fill:#679a45;fill-rule:nonzero;"/></g><g transform="matrix(1,0,0,1,0,-320.875)"><path d="M574.277,491.141l2.381,-0.232l0.095,23.966l-4.456,1.051l1.98,-24.785Z" style="fill:#679a45;fill-rule:nonzero;"/></g><g transform="matrix(1,0,0,1,0,-320.875)"><path d="M569.064,491.053l-3.127,-9.402l18.691,-0.036l-3.043,9.479l-12.521,-0.041Z" style="fill:#ae2025;fill-rule:nonzero;"/></g><g transform="matrix(1,0,0,1,0,-320.875)"><path d="M585.814,506.053l-3.127,-9.402l18.691,-0.036l-3.043,9.479l-12.521,-0.041Z" style="fill:#ae2025;fill-rule:nonzero;"/></g><g transform="matrix(1,0,0,1,0,-320.875)"><rect x="0.594" y="908.875" width="728.02" height="12" style="fill:#352d27;fill-rule:nonzero;"/></g><g transform="matrix(1,0,0,1,0,-320.875)"><path d="M198.006,769.716l-89.834,0.058l-0.065,-70.746l90.03,-0.032l-0.131,70.72Z" style="fill:#f6f1e1;fill-rule:nonzero;"/></g><g transform="matrix(1,0,0,1,0,-320.875)"><path d="M192.325,764.297l-78.43,0.119l0,-59.629l78.43,-0.041l0,59.551Z" style="fill:#313156;fill-rule:nonzero;"/></g><g transform="matrix(1,0,0,1,0,-320.875)"><path d="M203.335,780.78l-100.559,0l-4.654,-17.002l110.004,0l-4.791,17.002Z" style="fill:#cead80;fill-rule:nonzero;"/></g><g transform="matrix(1,0,0,1,0,-320.875)"><g opacity="0.300003"><path d="M192.373,763.791l-0.049,-59.057l-2.961,0.008l-57.367,59.024l60.377,0.025Z" style="fill:#0a1723;fill-rule:nonzero;"/></g></g><g transform="matrix(1,0,0,1,0,-320.875)"><path d="M131.963,763.783l58.925,-59.048l-6.03,0.018l-58.977,59.042l6.082,-0.012Z" style="fill:#494a72;fill-rule:nonzero;"/></g></g></g></svg>