<?xml version="1.0" standalone="no"?><!DOCTYPE svg PUBLIC "-//W3C//DTD SVG 1.1//EN" "http://www.w3.org/Graphics/SVG/1.1/DTD/svg11.dtd"><svg width="432px" height="624px" version="1.1" xmlns="http://www.w3.org/2000/svg" xmlns:xlink="http://www.w3.org/1999/xlink" xml:space="preserve" style="fill-rule:evenodd;clip-rule:evenodd;stroke-linejoin:round;stroke-miterlimit:1.41421;"><g><g id="apartments-narrow-left" transform="matrix(1,0,0,1,0,24)"><g transform="matrix(1,0,0,1,-1697.92,-320.875)"><path d="M2094.01,672.482l29.963,-1.171l-29.078,-86.005l-0.885,87.176Z" style="fill:#d8d3cb;fill-rule:nonzero;"/></g><g transform="matrix(1,0,0,1,-1697.92,-320.875)"><path d="M1697.95,584.919l-0.02,2.258l0,321.708l399.832,-0.023l-2.341,-323.964l-397.471,0.021Z" style="fill:#366387;fill-rule:nonzero;"/></g><g transform="matrix(1,0,0,1,-1697.92,-320.875)"><path d="M1797.67,864.434l243.898,0l-0.264,-229.955l-243.477,-0.024l-0.157,229.979Z" style="fill:#f6f1e1;fill-rule:nonzero;"/></g><g transform="matrix(1,0,0,1,-1697.92,-320.875)"><path d="M1804.48,857.187l116.26,0l-0.48,-218.048l-115.69,-0.314l-0.09,218.362Z" style="fill:#323156;fill-rule:nonzero;"/></g><g transform="matrix(1,0,0,1,-1697.92,-320.875)"><path d="M1924.43,857.187l110.363,0l0,-218.047l-110.363,-0.315l0,218.362Z" style="fill:#323156;fill-rule:nonzero;"/></g><g transform="matrix(1,0,0,1,-1697.92,-320.875)"><path d="M1773.33,584.915l-11.975,89.042l318.834,-0.05l-11.936,-89.008l-294.923,0.016Z" style="fill:#d8d3cb;fill-rule:nonzero;"/></g><g transform="matrix(1,0,0,1,-1697.92,-320.875)"><path d="M1697.94,584.963l397.48,0.121l-0.244,-240.168l-397.236,-0.358l0,240.405Z" style="fill:#366387;fill-rule:nonzero;"/></g><g transform="matrix(1,0,0,1,-1697.92,-320.875)"><path d="M1894.52,540.766l75.928,-0.016l0.051,-151.875l-76.081,0l0.102,151.891Z" style="fill:#f6f1e1;fill-rule:nonzero;"/></g><g transform="matrix(1,0,0,1,-1697.92,-320.875)"><path d="M1900.51,534.875l64.283,0l0,-66.734l-64.283,-0.057l0,66.791Z" style="fill:#323156;fill-rule:nonzero;"/></g><g transform="matrix(1,0,0,1,-1697.92,-320.875)"><path d="M1900.51,462.248l64.318,-0.057l-0.035,-67.082l-64.317,0.016l0.034,67.123Z" style="fill:#323156;fill-rule:nonzero;"/></g><g transform="matrix(1,0,0,1,-1697.92,-320.875)"><path d="M1764.87,468.385l82.991,0.066l0.033,-63.645l-83.096,-0.032l0.072,63.611Z" style="fill:#f6f1e1;fill-rule:nonzero;"/></g><g transform="matrix(1,0,0,1,-1697.92,-320.875)"><path d="M1770.8,462.418l71.05,0.133l0,-51.178l-71.05,-0.045l0,51.09Z" style="fill:#323156;fill-rule:nonzero;"/></g><g transform="matrix(1,0,0,1,-1697.92,-320.875)"><path d="M1964.84,540.541l75.927,0l0.086,-151.654l-76.113,-0.012l0.1,151.666Z" style="fill:#f6f1e1;fill-rule:nonzero;"/></g><g transform="matrix(1,0,0,1,-1697.92,-320.875)"><path d="M1970.75,534.875l64.284,0.042l0,-66.823l-64.284,-0.01l0,66.791Z" style="fill:#323156;fill-rule:nonzero;"/></g><g transform="matrix(1,0,0,1,-1697.92,-320.875)"><path d="M1970.75,462.246l64.321,-0.057l-0.037,-67.08l-64.317,0.032l0.033,67.105Z" style="fill:#323156;fill-rule:nonzero;"/></g><g transform="matrix(1,0,0,1,-1697.92,-320.875)"><rect x="1899.89" y="462.692" width="65.172" height="5.403" style="fill:#f6f1e1;fill-rule:nonzero;"/></g><g transform="matrix(1,0,0,1,-1697.92,-320.875)"><g opacity="0.300003"><path d="M1868.71,673.966l-64.182,63.97l0.041,-63.967l64.141,-0.003Z" style="fill:#0d1824;fill-rule:nonzero;"/></g></g><g transform="matrix(1,0,0,1,-1697.92,-320.875)"><g opacity="0.300003"><path d="M2034.86,857.188l-0.002,-166.184l-151.901,145.311l-12.806,20.877l164.709,-0.004Z" style="fill:#0d1824;fill-rule:nonzero;"/></g></g><g transform="matrix(1,0,0,1,-1697.92,-320.875)"><path d="M1870.09,857.173l164.673,-165.21l0.012,-9.107l-174.15,174.34l9.465,-0.023Z" style="fill:#494a72;fill-rule:nonzero;"/></g><g transform="matrix(1,0,0,1,-1697.92,-320.875)"><rect x="1916.97" y="673.943" width="7.436" height="186.316" style="fill:#f6f1e1;fill-rule:nonzero;"/></g><g transform="matrix(1,0,0,1,-1697.92,-320.875)"><g opacity="0.300003"><path d="M1964.84,463.961l-64.328,64.119l-0.03,-132.955l64.319,0l0.039,68.836Z" style="fill:#0d1824;fill-rule:nonzero;"/></g></g><g transform="matrix(1,0,0,1,-1697.92,-320.875)"><g opacity="0.300003"><path d="M2033.09,395.125l-62.328,62.123l-0.042,-62.123l62.37,0Z" style="fill:#0d1824;fill-rule:nonzero;"/></g></g><g transform="matrix(1,0,0,1,-1697.92,-320.875)"><g opacity="0.300003"><path d="M2035.01,534.922l0.024,-46.444l-48.483,46.438l48.459,0.006Z" style="fill:#0d1824;fill-rule:nonzero;"/></g></g><g transform="matrix(1,0,0,1,-1697.92,-320.875)"><path d="M1993.18,534.906l41.848,-42.059l0.023,-9.32l-51.276,51.349l9.405,0.03Z" style="fill:#494a72;fill-rule:nonzero;"/></g><g transform="matrix(1,0,0,1,-1697.92,-320.875)"><rect x="1897.68" y="462.244" width="68.914" height="5.844" style="fill:#f6f1e1;fill-rule:nonzero;"/></g><g transform="matrix(1,0,0,1,-1697.92,-320.875)"><path d="M2095.2,344.916l4.464,-9.479l-401.719,0.022l-0.026,9.394l397.281,0.063Z" style="fill:#d8d3cb;fill-rule:nonzero;"/></g><g transform="matrix(1,0,0,1,-1697.92,-320.875)"><path d="M2099.63,335.44l4.203,-13.48l-0.018,-11.397l-6.75,0l-0.001,11.397l-399.106,0.001l-0.024,13.499l401.696,-0.02Z" style="fill:#fff;fill-rule:nonzero;"/></g><g transform="matrix(1,0,0,1,-1697.92,-320.875)"><rect x="1697.93" y="908.859" width="399.848" height="12.016" style="fill:#352d27;fill-rule:nonzero;"/></g></g></g></svg>