<?xml version="1.0" standalone="no"?><!DOCTYPE svg PUBLIC "-//W3C//DTD SVG 1.1//EN" "http://www.w3.org/Graphics/SVG/1.1/DTD/svg11.dtd"><svg width="96px" height="168px" version="1.1" xmlns="http://www.w3.org/2000/svg" xmlns:xlink="http://www.w3.org/1999/xlink" xml:space="preserve" style="fill-rule:evenodd;clip-rule:evenodd;stroke-linejoin:round;stroke-miterlimit:1.41421;"><g><g id="fenced-lot-right" transform="matrix(0.5,0,0,0.5,-2651.36,-263.75)"><g id="grass" transform="matrix(2.0004,0,0,2.0004,-5307.84,-863.845)"><path d="M5343.06,853.109l-13.805,-19.9l2.617,-4.575l12.825,23.163l-1.637,1.312Z" style="fill:#689d46;fill-rule:nonzero;"/><path d="M5363.7,825.534l0.375,5.718l8.125,-7.678l6.497,16.451l4.91,13.914l4.582,0.191l-14.989,-35.13l-9.5,6.534Z" style="fill:#8abc6b;fill-rule:nonzero;"/><path d="M5389.86,851.107l-5.673,-39.104l7.42,20.822" style="fill:#689d46;fill-rule:nonzero;"/><path d="M5372.26,842.525l-16.667,3.071l-6.999,1.023l-8.834,-4.709l-11.333,1.229l-18.5,1.842l-0.333,13.311l90.498,-2.043l0,-9.84l-9.665,-0.198l-10.167,-4.711l-8,1.025Z" style="fill:#8abc6b;fill-rule:nonzero;"/><path d="M5339.64,853.838l-2.783,-43.166l5.892,6.417l-0.491,13.416l-2.618,23.333Z" style="fill:#689d46;fill-rule:nonzero;"/><path d="M5349.99,809.796l2.128,3.938l-3.601,16.041l-5.564,12.396l-4.91,10.646l-4.582,0.145l8.509,-17.937l8.02,-25.229Z" style="fill:#8abc6b;fill-rule:nonzero;"/><path d="M5392.02,855.006l1.943,-23.131l5,-4.5l-0.75,-5.75l-6.875,7.875l-2.5,20.5l3.182,5.006Z" style="fill:#689d46;fill-rule:nonzero;"/><path d="M5319.14,847.664l6.117,-20.507l-0.074,-2.211l-5.076,7.016l-0.967,15.702Z" style="fill:#8abc6b;fill-rule:nonzero;"/><path d="M5307.69,858.741l-0.366,-8.456l5.985,-1.363l3.299,2.182l1.223,-3.274l3.787,0.819l1.221,-3.274l7.056,2.663l1.465,0.273l13.958,-2.936c0,0 8.427,6.417 9.038,6.69c0.611,0.273 20.769,-3.273 20.769,-3.273l4.031,-3.417l9.159,4.235l13.092,2.077l-1.363,6.237l-92.354,0.817Z" style="fill:#689d46;fill-rule:nonzero;"/><path d="M5319.1,848.606l-5.674,-39.104l7.42,20.822" style="fill:#689d46;fill-rule:nonzero;"/></g><g id="ground" transform="matrix(2.0004,0,0,2.0004,-5307.84,-863.845)"><path d="M5304.13,856.833l-0.007,6.667l96.47,0l-0.025,-7.214l-96.438,0.547Z" style="fill:#7d715c;fill-rule:nonzero;"/><path d="M5311.14,863.363l63.318,-6.803l26.201,6.94l-89.519,-0.137Z" style="fill:#998b75;fill-rule:nonzero;"/></g><g id="fence" transform="matrix(2.0004,0,0,2.0004,-5307.84,-863.845)"><clipPath id="tag1"><rect x="5304.34" y="706" width="95.749" height="157.5"/></clipPath><g clip-path="url(#tag1)"><g transform="matrix(1,0,0,1,5304.34,671.5)"><g transform="matrix(1,0,0,1,-5304.34,-671.5)"><path d="M5386.22,862.219l-0.174,2.673l-69.088,68.724l-3.288,0.556l72.55,-71.953Z" style="fill:#e7e6de;fill-rule:nonzero;"/></g><g transform="matrix(1,0,0,1,-5304.34,-671.5)"><path d="M5302.81,828.878l0.202,2.674l69.788,69.43l3.295,0.588l-73.285,-72.692Z" style="fill:#c2bfbc;fill-rule:nonzero;"/></g><g transform="matrix(1,0,0,1,-5304.34,-671.5)"><path d="M5303.91,863.646l5.946,0l0.173,-78.767l-6.119,78.767Z" style="fill:#e7e6de;fill-rule:nonzero;"/></g><g transform="matrix(1,0,0,1,-5304.34,-671.5)"><path d="M5310.03,801.861l0.089,-59.052l-6.426,-3.668l0.218,124.505l6.119,-61.785Z" style="fill:#e7e6de;fill-rule:nonzero;"/></g><g transform="matrix(1,0,0,1,-5304.34,-671.5)"><path d="M5391.41,720.681l-0.447,2.945l-82.406,82.044l-3.661,0.925l86.514,-85.914Z" style="fill:#e7e6de;fill-rule:nonzero;"/></g><g transform="matrix(1,0,0,1,-5304.34,-671.5)"><path d="M5389.79,690.551l-0.42,2.918l-80.968,80.603l-3.621,0.892l85.009,-84.413Z" style="fill:#e7e6de;fill-rule:nonzero;"/></g><g transform="matrix(1,0,0,1,-5304.34,-671.5)"><path d="M5397.97,650.625l-0.584,3.076l-88.875,88.518l-3.843,1.107l93.302,-92.701Z" style="fill:#e7e6de;fill-rule:nonzero;"/></g><g transform="matrix(1,0,0,1,-5304.34,-671.5)"><path d="M5376.74,638.163l-0.174,2.846l-72.337,80.663l-3.455,0.968l75.966,-84.477Z" style="fill:#e7e6de;fill-rule:nonzero;"/></g><g transform="matrix(1,0,0,1,-5304.34,-671.5)"><path d="M5441.34,703.505l-1.433,3.928l-129.908,129.547l-4.987,2.254l136.328,-135.729Z" style="fill:#e7e6de;fill-rule:nonzero;"/></g><g transform="matrix(1,0,0,1,-5304.34,-671.5)"><path d="M5458.35,718.241l-1.765,4.262l-146.024,145.665l-5.435,2.698l153.224,-152.625Z" style="fill:#e7e6de;fill-rule:nonzero;"/></g><g transform="matrix(1,0,0,1,-5304.34,-671.5)"><path d="M5427.73,780.616l-1.16,3.654l-116.709,116.347l-4.619,1.887l122.488,-121.888Z" style="fill:#e7e6de;fill-rule:nonzero;"/></g><g transform="matrix(1,0,0,1,-5304.34,-671.5)"><path d="M5435.64,810.789l-1.187,3.688l-118.135,117.771l-4.659,1.924l123.981,-123.383Z" style="fill:#e7e6de;fill-rule:nonzero;"/></g><g transform="matrix(1,0,0,1,-5304.34,-671.5)"><path d="M5302.58,766.608l1.066,3.538l111.589,111.231l4.462,1.755l-117.117,-116.524Z" style="fill:#c2bfbc;fill-rule:nonzero;"/></g><g transform="matrix(1,0,0,1,-5304.34,-671.5)"><path d="M5304.74,736.762l1.288,3.759l122.28,121.924l4.762,2.056l-128.33,-127.739Z" style="fill:#c2bfbc;fill-rule:nonzero;"/></g><g transform="matrix(1,0,0,1,-5304.34,-671.5)"><path d="M5290.92,691.419l1.247,3.713l120.14,119.787l4.699,1.993l-126.086,-125.493Z" style="fill:#c2bfbc;fill-rule:nonzero;"/></g><g transform="matrix(1,0,0,1,-5304.34,-671.5)"><path d="M5302.24,671.216l1.426,3.897l129.017,128.661l4.95,2.242l-135.393,-134.8Z" style="fill:#c2bfbc;fill-rule:nonzero;"/></g><g transform="matrix(1,0,0,1,-5304.34,-671.5)"><path d="M5302.12,639.583l0.883,3.354l102.726,102.369l4.215,1.509l-107.824,-107.232Z" style="fill:#c2bfbc;fill-rule:nonzero;"/></g><g transform="matrix(1,0,0,1,-5304.34,-671.5)"><path d="M5302.7,798.243l0.201,2.674l69.787,69.43l3.297,0.588l-73.285,-72.692Z" style="fill:#c2bfbc;fill-rule:nonzero;"/></g><g transform="matrix(1,0,0,1,-5304.34,-671.5)"><path d="M5300.92,862.928l0.202,2.674l69.786,69.43l3.297,0.589l-73.285,-72.693Z" style="fill:#c2bfbc;fill-rule:nonzero;"/></g><g transform="matrix(1,0,0,1,-5304.34,-671.5)"><path d="M5303.91,863.961l5.946,0l0.173,-79.081l-6.119,79.081Z" style="fill:#e7e6de;fill-rule:nonzero;"/></g><g transform="matrix(1,0,0,1,-5304.34,-671.5)"><path d="M5310.03,792.544l0.089,-67.957l-6.426,-4.221l0.218,143.281l6.119,-71.103Z" style="fill:#e7e6de;fill-rule:nonzero;"/></g><g transform="matrix(1,0,0,1,-5304.34,-671.5)"><path d="M5356.55,726.315l50.242,0.088l3.119,-6.388l-105.925,0.217l52.564,6.083Z" style="fill:#e7e6de;fill-rule:nonzero;"/></g><g transform="matrix(1,0,0,1,-5304.34,-671.5)"><path d="M5303.99,720.352l0,5.91l105.662,-0.329l-105.662,-5.581Z" style="fill:#c2bfbc;fill-rule:nonzero;"/></g></g></g></g></g></g></svg>