<?xml version="1.0" standalone="no"?><!DOCTYPE svg PUBLIC "-//W3C//DTD SVG 1.1//EN" "http://www.w3.org/Graphics/SVG/1.1/DTD/svg11.dtd"><svg width="960px" height="960px" version="1.1" xmlns="http://www.w3.org/2000/svg" xmlns:xlink="http://www.w3.org/1999/xlink" xml:space="preserve" style="fill-rule:evenodd;clip-rule:evenodd;stroke-linejoin:round;stroke-miterlimit:1.41421;"><g><g id="residential-left" transform="matrix(0.5,0,0,0.5,0,0)"><g id="stoop"><path d="M1330,1897l306.01,0l2,-28l-308.01,0l0,28Z" style="fill:#d8d3cb;fill-rule:nonzero;"/><path d="M1330,1869l262.01,0l2,-27l-264.01,0l0,27Z" style="fill:#d8d3cb;fill-rule:nonzero;"/><path d="M1330,1842l218.01,0l2,-28l-220.01,0l0,28Z" style="fill:#d8d3cb;fill-rule:nonzero;"/><path d="M1330,1814l174.01,0l2,-27l-176.01,0l0,27Z" style="fill:#d8d3cb;fill-rule:nonzero;"/><path d="M1330,1787l130.01,0l2,-29l-132.01,0l0,29Z" style="fill:#d8d3cb;fill-rule:nonzero;"/><path d="M1330,1760l86.01,0l2,-27l-88.01,0l0,27Z" style="fill:#d8d3cb;fill-rule:nonzero;"/><path d="M1330,1733l42.01,0l2,-28l-44.01,0l0,28Z" style="fill:#d8d3cb;fill-rule:nonzero;"/><rect x="1038" y="1704" width="332" height="193" style="fill:#d8d3cb;fill-rule:nonzero;"/><path d="M1338,1704l35.762,0.55l-1.752,28.45l46,0l-1.852,25l45.852,0l-2,29l46,0l-2,27l46,0l-2,28l46,0l-2,27l46,0l-2.248,28l-297.762,-1l0,-192Z" style="fill:#d8d3cb;fill-rule:nonzero;"/></g><g id="stoop-railings"><path d="M1376.93,1595.23l6.813,3.577l1.687,90.859l-7.713,-4.682l-0.787,-89.754Z" style="fill:#5c5e5f;fill-rule:nonzero;"/><path d="M1421.03,1624.07l6.813,3.577l1.687,90.859l-7.713,-4.682l-0.787,-89.754Z" style="fill:#5c5e5f;fill-rule:nonzero;"/><path d="M1465.13,1651.78l6.813,3.577l1.687,90.859l-7.713,-4.683l-0.787,-89.753Z" style="fill:#5c5e5f;fill-rule:nonzero;"/><path d="M1509.23,1678.46l6.813,3.577l1.687,90.859l-7.713,-4.682l-0.787,-89.754Z" style="fill:#5c5e5f;fill-rule:nonzero;"/><path d="M1553.33,1711.14l6.813,3.577l1.687,90.859l-7.713,-4.682l-0.787,-89.754Z" style="fill:#5c5e5f;fill-rule:nonzero;"/><path d="M1597.43,1740.98l6.813,3.577l1.687,90.858l-7.713,-4.681l-0.787,-89.754Z" style="fill:#5c5e5f;fill-rule:nonzero;"/><path d="M1331.29,1556.57l301.013,198.987l-4.273,7.366l-298.175,-198.529l1.435,-7.824Z" style="fill:#5c5e5f;fill-rule:nonzero;"/><path d="M1331.13,1649.23l300.654,199.53l-3.583,6.329l-297.914,-198.922l0.843,-6.937Z" style="fill:#5c5e5f;fill-rule:nonzero;"/><path d="M1267.07,1575.98l6.07,-0.423l1.503,105.859l-8.5,0.318l0.927,-105.754Z" style="fill:#5c5e5f;fill-rule:nonzero;"/><path d="M1067.27,1575.98l5.713,-0.423l1.415,105.859l-8,0.318l0.872,-105.754Z" style="fill:#5c5e5f;fill-rule:nonzero;"/><path d="M1117.07,1575.98l6.071,-0.423l1.503,105.859l-8.5,0.318l0.926,-105.754Z" style="fill:#5c5e5f;fill-rule:nonzero;"/><path d="M1167.07,1575.98l6.07,-0.423l1.503,105.859l-8.5,0.318l0.927,-105.754Z" style="fill:#5c5e5f;fill-rule:nonzero;"/><path d="M1217.07,1575.98l6.071,-0.423l1.503,105.859l-8.5,0.318l0.926,-105.754Z" style="fill:#5c5e5f;fill-rule:nonzero;"/><path d="M956.729,1569.77l360.838,0.163l0.505,8.337l-358.219,-1.322l-3.124,-7.178Z" style="fill:#5c5e5f;fill-rule:nonzero;"/><path d="M967.672,1676.68l360.838,0.162l0.505,8.338l-358.219,-1.322l-3.124,-7.178Z" style="fill:#5c5e5f;fill-rule:nonzero;"/><path d="M1322.19,1309l-5.935,254l24.592,0l-5.043,-254l-13.614,0Z" style="fill:#543e36;fill-rule:nonzero;"/><path d="M1677.55,1897.46l-5.333,-149.703l6.82,-7.976l-1.205,-13.857l-56.676,-0.303l-0.781,14.024l7.072,8.112l-6.291,148.241l56.394,1.462Z" style="fill:#e7e6de;fill-rule:nonzero;"/><path d="M1627.01,1748l45,0l7.025,-8.217l-58.662,-0.137l6.637,8.354Z" style="fill:#d8d3cb;fill-rule:nonzero;"/><path d="M1358.55,1705.46l-5.333,-149.703l6.82,-7.976l-1.205,-13.857l-56.676,-0.303l-0.781,14.024l7.072,8.112l-6.291,148.241l56.394,1.462Z" style="fill:#e7e6de;fill-rule:nonzero;"/><path d="M1308.01,1556l45,0l7.025,-8.217l-58.662,-0.136l6.637,8.353Z" style="fill:#d8d3cb;fill-rule:nonzero;"/></g><g id="plants"><path d="M1365.99,1853.54l4.605,0l0.844,29.246l-8.906,1.381l3.457,-30.627Z" style="fill:#679a45;fill-rule:nonzero;"/><path d="M1355.6,1853.79l-6.254,-18.805l37.383,-0.07l-6.086,18.957l-25.043,-0.082Z" style="fill:#ae2025;fill-rule:nonzero;"/><path d="M1274.14,1867.87l4.605,0l0.844,29.246l-8.906,1.381l3.457,-30.627Z" style="fill:#679a45;fill-rule:nonzero;"/><path d="M1263.75,1868.12l-6.254,-18.805l37.383,-0.07l-6.086,18.957l-25.043,-0.082Z" style="fill:#ae2025;fill-rule:nonzero;"/><path d="M1311.11,1830.23l4.766,-0.506l-0.004,53.651l-8.922,2.328l4.16,-55.473Z" style="fill:#679a45;fill-rule:nonzero;"/><path d="M1301.1,1831.5l-6.254,-18.805l37.383,-0.07l-6.086,18.957l-25.043,-0.082Z" style="fill:#ae2025;fill-rule:nonzero;"/><path d="M1312.56,1845.6l-23.703,-10.912l-6.414,2.99l3.273,-9.515l24.836,10.841" style="fill:#679a45;fill-rule:nonzero;"/><path d="M1308.66,1868.36l21.254,-23.557l16.949,10.293l-15.367,-3.367l-16.848,17.516l-5.988,-0.885Z" style="fill:#679a45;fill-rule:nonzero;"/><path d="M1239.87,1826.3l4.762,-0.467l0.191,60.69l-8.914,2.099l3.961,-62.322Z" style="fill:#679a45;fill-rule:nonzero;"/><path d="M1229.44,1826.12l-6.254,-18.805l37.383,-0.07l-6.086,18.957l-25.043,-0.082Z" style="fill:#ae2025;fill-rule:nonzero;"/><path d="M1240.63,1846.92l15.988,-7.359l6.414,2.99l-3.273,-9.516l-19.938,8.457" style="fill:#679a45;fill-rule:nonzero;"/><path d="M1243.67,1877.14l-10.313,-41.246l-11.91,-0.594l6.516,5.99l9.18,42.42l6.527,-6.57Z" style="fill:#679a45;fill-rule:nonzero;"/><path d="M1075.1,1879.11l40.492,-32.892l-31.867,-39.505l-19.841,-2.85l21.322,-12.078l45.155,54.411l-41.228,42.3" style="fill:#679a45;fill-rule:nonzero;"/><path d="M1155.51,1846.56l36.703,-12.486l26.257,18.728l-28.569,-7.433l-62.145,21.09l27.754,-19.899Z" style="fill:#679a45;fill-rule:nonzero;"/><path d="M1084.77,1871.04l-5.079,-50.35l50.379,-12.341l34.273,11.355l17.962,-19.005l24.699,17.524l-22.773,-4.937l-20.854,54.3l9.95,20.979l-30.178,-1.235l-58.379,-16.29Z" style="fill:#35813f;fill-rule:nonzero;"/><path d="M1131.39,1890.54l34.031,-71.209l-32.058,-13.941l-3.551,-11.349l-14.469,12.587l35.778,15.676l-47.457,61.237" style="fill:#679a45;fill-rule:nonzero;"/><path d="M1104.72,1870.3l-39.411,-46.077l-26.661,16.052l24.347,-3.864l24.336,37.455l17.389,-3.566Z" style="fill:#679a45;fill-rule:nonzero;"/><path d="M1132.54,1841.22l-15.271,-61.08l-17.637,-0.879l9.647,8.871l13.595,62.818l9.666,-9.73Z" style="fill:#679a45;fill-rule:nonzero;"/><path d="M1099.8,1879.68l24.74,-4.934l27.929,-35.541l-81.384,-6.84" style="fill:#679a45;fill-rule:nonzero;"/><path d="M1106.99,1861.87l-36.703,-18.416l-18.552,18.728l20.865,-7.433l34.141,15.162l0.249,-8.041Z" style="fill:#35813f;fill-rule:nonzero;"/><path d="M1444.97,1899.87l-0.695,-16.912l11.406,-2.727l6.285,4.366l2.328,-6.549l7.219,1.638l2.328,-6.548l13.445,5.326l2.793,0.547l26.598,-5.873c0,0 16.059,12.834 17.223,13.38c1.164,0.545 39.578,-6.546 39.578,-6.546l7.679,-6.834l17.458,8.47l18.628,3.819l3.723,12.808l-175.996,1.635Z" style="fill:#679a45;fill-rule:nonzero;"/><path d="M1450.68,1895.78l7.449,-11.729l12.281,11.866l-19.73,-0.137Z" style="fill:#35813f;fill-rule:nonzero;"/><path d="M1485.36,1895.78l5.293,-6.547l3.492,0l9.254,-5.32l2.27,6.137l24.097,-2.043l9.602,7.363l-54.008,0.41Z" style="fill:#35813f;fill-rule:nonzero;"/><path d="M1563.12,1894.96l1.395,-3.816l10.011,-1.639l2.914,-4.092l23.739,9.957l-38.059,-0.41Z" style="fill:#35813f;fill-rule:nonzero;"/><path d="M1308.95,1899.87l-0.695,-16.912l11.406,-2.727l6.285,4.366l2.328,-6.549l7.219,1.638l2.328,-6.548l13.445,5.326l2.793,0.547l26.598,-5.873c0,0 16.059,12.834 17.223,13.38c1.164,0.545 39.578,-6.546 39.578,-6.546l7.679,-6.834l17.458,8.47l18.628,3.819l3.723,12.808l-175.996,1.635Z" style="fill:#679a45;fill-rule:nonzero;"/><path d="M1314.65,1895.78l7.449,-11.729l12.281,11.866l-19.73,-0.137Z" style="fill:#35813f;fill-rule:nonzero;"/><path d="M1349.34,1895.78l5.293,-6.547l3.492,0l9.254,-5.32l2.27,6.137l24.097,-2.043l9.602,7.363l-54.008,0.41Z" style="fill:#35813f;fill-rule:nonzero;"/><path d="M1427.1,1894.96l1.395,-3.816l10.011,-1.639l2.914,-4.092l23.739,9.957l-38.059,-0.41Z" style="fill:#35813f;fill-rule:nonzero;"/><path d="M1146.01,1899.87l-0.695,-16.912l11.406,-2.727l6.285,4.366l2.328,-6.549l7.219,1.638l2.328,-6.548l13.445,5.326l2.793,0.547l26.598,-5.873c0,0 16.059,12.834 17.223,13.38c1.164,0.545 39.578,-6.546 39.578,-6.546l7.679,-6.834l17.458,8.47l18.628,3.819l3.723,12.808l-175.996,1.635Z" style="fill:#679a45;fill-rule:nonzero;"/><path d="M1151.71,1895.78l7.449,-11.729l12.281,11.866l-19.73,-0.137Z" style="fill:#35813f;fill-rule:nonzero;"/><path d="M1186.4,1895.78l5.293,-6.547l3.492,0l9.254,-5.32l2.27,6.137l24.097,-2.043l9.602,7.363l-54.008,0.41Z" style="fill:#35813f;fill-rule:nonzero;"/><path d="M1264.15,1894.96l1.395,-3.816l10.011,-1.639l2.914,-4.092l23.739,9.957l-38.059,-0.41Z" style="fill:#35813f;fill-rule:nonzero;"/><path d="M974.518,1899.87l-0.695,-16.912l11.406,-2.727l6.285,4.366l2.328,-6.549l7.219,1.638l2.328,-6.548l13.445,5.326l2.793,0.547l26.598,-5.873c0,0 16.059,12.834 17.223,13.38c1.164,0.545 39.578,-6.546 39.578,-6.546l7.679,-6.834l17.458,8.47l18.628,3.819l3.723,12.808l-175.996,1.635Z" style="fill:#679a45;fill-rule:nonzero;"/><path d="M980.225,1895.78l7.449,-11.729l12.282,11.866l-19.731,-0.137Z" style="fill:#35813f;fill-rule:nonzero;"/><path d="M1014.91,1895.78l5.293,-6.547l3.492,0l9.254,-5.32l2.27,6.137l24.097,-2.043l9.602,7.363l-54.008,0.41Z" style="fill:#35813f;fill-rule:nonzero;"/><path d="M1092.67,1894.96l1.395,-3.816l10.011,-1.639l2.914,-4.092l23.739,9.957l-38.059,-0.41Z" style="fill:#35813f;fill-rule:nonzero;"/></g><g id="chimney"><path d="M545.178,637.482l-6.242,-149.703l9.099,-7.976l-2.314,-13.857l-108.848,-0.303l-1.5,14.024l9.582,8.112l-8.082,148.241l108.305,1.462Z" style="fill:#e7e6de;fill-rule:nonzero;"/><path d="M444.119,488l94.423,0l9.493,-8.207l-112.662,-0.142l8.746,8.349Z" style="fill:#d8d3cb;fill-rule:nonzero;"/></g><g id="base"><path d="M224,715l656,0l0,548l158,0l0,635l-814,0l0,-1183Z" style="fill:#366287;fill-rule:nonzero;"/></g><g id="shadows"><g opacity="0.300003"><path d="M880,742.495l-17.695,17.505l-638.305,0l0,-42l656,0l0,24.495Z" style="fill:#0a1723;fill-rule:nonzero;"/></g><g opacity="0.300003"><path d="M1021.01,1380l-141.01,0l0,-51l158.957,-2l-0.646,36.181l-17.301,16.819Z" style="fill:#0a1723;fill-rule:nonzero;"/></g><g opacity="0.300003"><path d="M880.01,1222.68l-17.705,17.317l-638.305,0l0,-31l655.365,0l0.645,13.683Z" style="fill:#0a1723;fill-rule:nonzero;"/></g><g opacity="0.300003"><path d="M1038.01,1721.92l-19.705,19.075l-794.305,0l0,-34.119l814.313,-0.94l-0.303,15.984Z" style="fill:#0a1723;fill-rule:nonzero;"/></g><g opacity="0.300003"><path d="M1337,1348l-15.99,0l-1.435,69.366l17.425,-31.001l0,-38.365Z" style="fill:#0a1723;fill-rule:nonzero;"/></g></g><g id="roof"><path d="M224,708.095l526.479,10l250.529,-10l-126.31,-144l-650.698,-1l0,145Z" style="fill:#72594b;fill-rule:nonzero;"/></g><g id="trim"><path d="M224,1704l823.01,0l-5.005,20l-818.005,0.925l0,-20.925Z" style="fill:#543e36;fill-rule:nonzero;"/><path d="M224,1203l664.01,0l-5.005,21l-659.005,-0.056l0,-20.944Z" style="fill:#543e36;fill-rule:nonzero;"/><path d="M224,708l778.01,0l-5.005,20.047l-773.005,0.902l0,-20.949Z" style="fill:#543e36;fill-rule:nonzero;"/><path d="M957.547,743.931l-3.261,-15.818l23.446,-0.059l-3.119,15.946l-17.066,-0.069Z" style="fill:#2a2b2a;fill-rule:nonzero;"/><path d="M346.348,743.931l-3.262,-15.818l23.448,-0.059l-3.12,15.946l-17.066,-0.069Z" style="fill:#2a2b2a;fill-rule:nonzero;"/><path d="M499.147,743.931l-3.26,-15.818l23.447,-0.059l-3.12,15.946l-17.067,-0.069Z" style="fill:#2a2b2a;fill-rule:nonzero;"/><path d="M651.947,743.931l-3.262,-15.818l23.448,-0.059l-3.12,15.946l-17.066,-0.069Z" style="fill:#2a2b2a;fill-rule:nonzero;"/><path d="M804.747,743.931l-3.262,-15.818l23.447,-0.059l-3.119,15.946l-17.066,-0.069Z" style="fill:#2a2b2a;fill-rule:nonzero;"/><path d="M1347.82,1363.11l-3.261,-15.818l23.447,-0.059l-3.12,15.946l-17.066,-0.069Z" style="fill:#2a2b2a;fill-rule:nonzero;"/><path d="M889.424,1363.11l-3.262,-15.818l23.448,-0.059l-3.12,15.946l-17.066,-0.069Z" style="fill:#2a2b2a;fill-rule:nonzero;"/><path d="M1042.22,1363.11l-3.262,-15.818l23.448,-0.059l-3.12,15.946l-17.066,-0.069Z" style="fill:#2a2b2a;fill-rule:nonzero;"/><path d="M1195.02,1363.11l-3.262,-15.818l23.448,-0.059l-3.12,15.946l-17.066,-0.069Z" style="fill:#2a2b2a;fill-rule:nonzero;"/></g><g id="stoop-roof"><path d="M874.01,1329l257.475,10l250.525,-10l-96.306,-104l-406.694,-1l-5,105Z" style="fill:#72594b;fill-rule:nonzero;"/><path d="M874.01,1329l508,0l-5,20l-499,0.926l-4,-20.926Z" style="fill:#543e36;fill-rule:nonzero;"/></g><g id="windows"><path d="M875.705,1855.9l-117.608,0.053l-0.087,-47.962l117.869,-0.029l-0.174,47.938Z" style="fill:#d8d3cb;fill-rule:nonzero;"/><path d="M869.156,1850.17l-104.425,0.099l0,-36.591l104.425,-0.034l0,36.526Z" style="fill:#313156;fill-rule:nonzero;"/><rect x="815" y="1809" width="4" height="46" style="fill:#d8d3cb;fill-rule:nonzero;"/><path d="M408.705,1855.9l-117.608,0.053l-0.087,-47.962l117.869,-0.029l-0.174,47.938Z" style="fill:#d8d3cb;fill-rule:nonzero;"/><path d="M402.156,1850.17l-104.425,0.099l0,-36.591l104.425,-0.034l0,36.526Z" style="fill:#313156;fill-rule:nonzero;"/><rect x="348" y="1809" width="4" height="46" style="fill:#d8d3cb;fill-rule:nonzero;"/><g opacity="0.300003"><path d="M579.029,1048.78l-8.02,15.221l158.411,0l11.13,-16.539l-161.521,1.318Z" style="fill:#0a1723;fill-rule:nonzero;"/></g><g opacity="0.300003"><path d="M516.286,1027.88l-6.276,12.116l289.41,0l7.565,-12.269l-290.699,0.153Z" style="fill:#0a1723;fill-rule:nonzero;"/></g><path d="M738.424,1030.84l-78.335,0.16l-0.055,-156.421l78.494,-0.073l-0.104,156.334Z" style="fill:#d8d3cb;fill-rule:nonzero;"/><path d="M732.334,1024.89l-66.321,0.176l0,-68.462l66.321,-0.061l0,68.347Z" style="fill:#313156;fill-rule:nonzero;"/><path d="M732.334,950.562l-66.359,-0.061l0.038,-69.916l66.353,0.726l-0.032,69.251Z" style="fill:#313156;fill-rule:nonzero;"/><path d="M666.527,1030.84l-78.337,0.16l-0.051,-156.421l78.492,-0.073l-0.104,156.334Z" style="fill:#d8d3cb;fill-rule:nonzero;"/><path d="M660.438,1024.89l-66.323,0.176l0,-68.462l66.323,-0.061l0,68.347Z" style="fill:#313156;fill-rule:nonzero;"/><path d="M660.438,950.565l-66.362,-0.064l0.039,-69.916l66.356,0.726l-0.033,69.254Z" style="fill:#313156;fill-rule:nonzero;"/><rect x="665.739" y="950.548" width="67.236" height="5.834" style="fill:#f6f1e1;fill-rule:nonzero;"/><path d="M748.205,864.365l-4.259,10.218l-161.872,0l-4.26,-10.218l170.391,0Z" style="fill:#543e36;fill-rule:nonzero;"/><g opacity="0.300003"><path d="M732.334,1024.89l0.013,-137.88l-138.232,131.998l0,6.058l138.219,-0.176Z" style="fill:#0a1723;fill-rule:nonzero;"/></g><path d="M595.403,1025.04l136.936,-137.289l0.017,0.021l0.019,-6.471l-0.687,-0.013l-137.545,137.743l-0.028,6.03l1.288,-0.021Z" style="fill:#494a72;fill-rule:nonzero;"/><rect x="660.483" y="943.437" width="6.156" height="84.063" style="fill:#d8d3cb;fill-rule:nonzero;"/><rect x="593.91" y="950.443" width="138.873" height="6.155" style="fill:#d8d3cb;fill-rule:nonzero;"/><path d="M740.326,1050.32l-154.783,0l-7.164,-19.32l169.321,0l-7.374,19.32Z" style="fill:#543e36;fill-rule:nonzero;"/><g opacity="0.300003"><path d="M594.094,921.663l0,-41.078l40.625,0.435" style="fill:#0a1723;fill-rule:nonzero;"/></g><rect x="518" y="876" width="70" height="153" style="fill:#e7e6de;fill-rule:nonzero;"/><path d="M580.568,892.532l-3.852,-7.871l-47,-0.111l-5.183,8.544l56.035,-0.562Z" style="fill:#d8d3cb;fill-rule:nonzero;"/><path d="M580.568,1021.93l-3.852,-7.871l-47,-0.111l-5.183,8.544l56.035,-0.562Z" style="fill:#d8d3cb;fill-rule:nonzero;"/><path d="M580.568,996.05l-3.852,-7.871l-47,-0.111l-5.183,8.544l56.035,-0.562Z" style="fill:#d8d3cb;fill-rule:nonzero;"/><path d="M580.568,970.17l-3.852,-7.871l-47,-0.111l-5.183,8.544l56.035,-0.562Z" style="fill:#d8d3cb;fill-rule:nonzero;"/><path d="M580.568,944.291l-3.852,-7.871l-47,-0.111l-5.183,8.544l56.035,-0.562Z" style="fill:#d8d3cb;fill-rule:nonzero;"/><path d="M580.568,918.412l-3.852,-7.871l-47,-0.111l-5.183,8.544l56.035,-0.562Z" style="fill:#d8d3cb;fill-rule:nonzero;"/><rect x="738" y="876" width="70" height="153" style="fill:#e7e6de;fill-rule:nonzero;"/><path d="M800.568,892.532l-3.852,-7.871l-47,-0.111l-5.183,8.544l56.035,-0.562Z" style="fill:#d8d3cb;fill-rule:nonzero;"/><path d="M800.568,1021.93l-3.852,-7.871l-47,-0.111l-5.183,8.544l56.035,-0.562Z" style="fill:#d8d3cb;fill-rule:nonzero;"/><path d="M800.568,996.05l-3.852,-7.871l-47,-0.111l-5.183,8.544l56.035,-0.562Z" style="fill:#d8d3cb;fill-rule:nonzero;"/><path d="M800.568,970.17l-3.852,-7.871l-47,-0.111l-5.183,8.544l56.035,-0.562Z" style="fill:#d8d3cb;fill-rule:nonzero;"/><path d="M800.568,944.291l-3.852,-7.871l-47,-0.111l-5.183,8.544l56.035,-0.562Z" style="fill:#d8d3cb;fill-rule:nonzero;"/><path d="M800.568,918.412l-3.852,-7.871l-47,-0.111l-5.183,8.544l56.035,-0.562Z" style="fill:#d8d3cb;fill-rule:nonzero;"/><g opacity="0.300003"><path d="M296.143,1025.22l-4.992,15.781l78.859,0l6.541,-16.693l-80.408,0.912Z" style="fill:#0a1723;fill-rule:nonzero;"/></g><path d="M374.554,1008.51l-68.319,0.136l-0.046,-134.428l68.454,-0.062l-0.089,134.354Z" style="fill:#d8d3cb;fill-rule:nonzero;"/><path d="M368.397,1002.47l-56.147,0.149l0,-57.961l56.147,-0.052l0,57.864Z" style="fill:#313156;fill-rule:nonzero;"/><path d="M368.685,939.544l-56.181,-0.052l0.033,-59.192l56.176,0.615l-0.028,58.629Z" style="fill:#313156;fill-rule:nonzero;"/><rect x="312.016" y="939.531" width="56.924" height="4.939" style="fill:#f6f1e1;fill-rule:nonzero;"/><g opacity="0.300003"><path d="M368.397,1002.47l0.381,-80.124l-55.999,55.315l-0.529,24.958l56.147,-0.149Z" style="fill:#0a1723;fill-rule:nonzero;"/></g><path d="M312.288,981.117l56.403,-56.625l0.022,-6.12l-56.111,56.276l-0.314,6.469Z" style="fill:#494a72;fill-rule:nonzero;"/><rect x="311.593" y="939.395" width="59.071" height="5.211" style="fill:#d8d3cb;fill-rule:nonzero;"/><g opacity="0.300003"><path d="M312.25,919.972l0,-39.672l39.234,0.42" style="fill:#0a1723;fill-rule:nonzero;"/></g><path d="M385.358,864.365l-4.258,10.218l-81.69,0l-4.26,-10.218l90.208,0Z" style="fill:#543e36;fill-rule:nonzero;"/><path d="M377.479,1027.97l-75.165,0l-7.164,-19.32l89.704,0l-7.375,19.32Z" style="fill:#543e36;fill-rule:nonzero;"/><g opacity="0.300003"><path d="M332.019,1570.78l-8.02,15.221l158.411,0l11.13,-16.539l-161.521,1.318Z" style="fill:#0a1723;fill-rule:nonzero;"/></g><path d="M491.414,1552.84l-78.335,0.16l-0.055,-156.421l78.494,-0.073l-0.104,156.334Z" style="fill:#d8d3cb;fill-rule:nonzero;"/><path d="M485.324,1546.89l-66.321,0.176l0,-68.462l66.321,-0.061l0,68.347Z" style="fill:#313156;fill-rule:nonzero;"/><path d="M485.324,1472.56l-66.359,-0.061l0.038,-69.916l66.353,0.725l-0.032,69.252Z" style="fill:#313156;fill-rule:nonzero;"/><path d="M419.518,1552.84l-78.337,0.16l-0.051,-156.421l78.492,-0.073l-0.104,156.334Z" style="fill:#d8d3cb;fill-rule:nonzero;"/><path d="M413.429,1546.89l-66.323,0.176l0,-68.462l66.323,-0.061l0,68.347Z" style="fill:#313156;fill-rule:nonzero;"/><path d="M413.429,1472.56l-66.362,-0.064l0.039,-69.915l66.356,0.725l-0.033,69.254Z" style="fill:#313156;fill-rule:nonzero;"/><rect x="418.729" y="1472.55" width="67.236" height="5.834" style="fill:#f6f1e1;fill-rule:nonzero;"/><path d="M501.195,1386.37l-4.259,10.218l-161.872,0l-4.26,-10.218l170.391,0Z" style="fill:#543e36;fill-rule:nonzero;"/><g opacity="0.300003"><path d="M485.324,1546.89l0.013,-137.88l-138.232,131.998l0,6.058l138.219,-0.176Z" style="fill:#0a1723;fill-rule:nonzero;"/></g><path d="M348.394,1547.04l136.936,-137.289l0.017,0.021l0.019,-6.471l-0.687,-0.013l-137.545,137.743l-0.028,6.03l1.288,-0.021Z" style="fill:#494a72;fill-rule:nonzero;"/><rect x="413.473" y="1465.44" width="6.156" height="84.063" style="fill:#d8d3cb;fill-rule:nonzero;"/><rect x="346.9" y="1472.44" width="138.873" height="6.155" style="fill:#d8d3cb;fill-rule:nonzero;"/><path d="M493.316,1572.32l-154.783,0l-7.164,-19.32l169.321,0l-7.374,19.32Z" style="fill:#543e36;fill-rule:nonzero;"/><g opacity="0.300003"><path d="M347.084,1443.66l0,-41.078l40.625,0.435" style="fill:#0a1723;fill-rule:nonzero;"/></g><rect x="345" y="1398" width="70" height="153" style="fill:#e7e6de;fill-rule:nonzero;"/><path d="M407.568,1414.53l-3.852,-7.871l-47,-0.111l-5.183,8.544l56.035,-0.562Z" style="fill:#d8d3cb;fill-rule:nonzero;"/><path d="M407.568,1543.93l-3.852,-7.871l-47,-0.111l-5.183,8.544l56.035,-0.562Z" style="fill:#d8d3cb;fill-rule:nonzero;"/><path d="M407.568,1518.05l-3.852,-7.871l-47,-0.111l-5.183,8.544l56.035,-0.562Z" style="fill:#d8d3cb;fill-rule:nonzero;"/><path d="M407.568,1492.17l-3.852,-7.871l-47,-0.111l-5.183,8.544l56.035,-0.562Z" style="fill:#d8d3cb;fill-rule:nonzero;"/><path d="M407.568,1466.29l-3.852,-7.871l-47,-0.111l-5.183,8.545l56.035,-0.563Z" style="fill:#d8d3cb;fill-rule:nonzero;"/><path d="M407.568,1440.41l-3.852,-7.871l-47,-0.111l-5.183,8.544l56.035,-0.562Z" style="fill:#d8d3cb;fill-rule:nonzero;"/><rect x="418" y="1398" width="70" height="153" style="fill:#e7e6de;fill-rule:nonzero;"/><path d="M480.568,1414.53l-3.852,-7.871l-47,-0.111l-5.183,8.544l56.035,-0.562Z" style="fill:#d8d3cb;fill-rule:nonzero;"/><path d="M480.568,1543.93l-3.852,-7.871l-47,-0.111l-5.183,8.544l56.035,-0.562Z" style="fill:#d8d3cb;fill-rule:nonzero;"/><path d="M480.568,1518.05l-3.852,-7.871l-47,-0.111l-5.183,8.544l56.035,-0.562Z" style="fill:#d8d3cb;fill-rule:nonzero;"/><path d="M480.568,1492.17l-3.852,-7.871l-47,-0.111l-5.183,8.544l56.035,-0.562Z" style="fill:#d8d3cb;fill-rule:nonzero;"/><path d="M480.568,1466.29l-3.852,-7.871l-47,-0.111l-5.183,8.545l56.035,-0.563Z" style="fill:#d8d3cb;fill-rule:nonzero;"/><path d="M480.568,1440.41l-3.852,-7.871l-47,-0.111l-5.183,8.544l56.035,-0.562Z" style="fill:#d8d3cb;fill-rule:nonzero;"/><g opacity="0.300003"><path d="M736.029,1570.78l-8.02,15.221l158.411,0l11.13,-16.539l-161.521,1.318Z" style="fill:#0a1723;fill-rule:nonzero;"/></g><g opacity="0.300003"><path d="M673.286,1549.88l-6.276,12.116l289.41,0l7.565,-12.269l-290.699,0.153Z" style="fill:#0a1723;fill-rule:nonzero;"/></g><path d="M895.424,1552.84l-78.335,0.16l-0.055,-156.421l78.494,-0.073l-0.104,156.334Z" style="fill:#d8d3cb;fill-rule:nonzero;"/><path d="M889.334,1546.89l-66.321,0.176l0,-68.462l66.321,-0.061l0,68.347Z" style="fill:#313156;fill-rule:nonzero;"/><path d="M889.334,1472.56l-66.359,-0.061l0.038,-69.916l66.353,0.725l-0.032,69.252Z" style="fill:#313156;fill-rule:nonzero;"/><path d="M823.527,1552.84l-78.337,0.16l-0.051,-156.421l78.492,-0.073l-0.104,156.334Z" style="fill:#d8d3cb;fill-rule:nonzero;"/><path d="M817.438,1546.89l-66.323,0.176l0,-68.462l66.323,-0.061l0,68.347Z" style="fill:#313156;fill-rule:nonzero;"/><path d="M817.438,1472.56l-66.362,-0.064l0.039,-69.915l66.356,0.725l-0.033,69.254Z" style="fill:#313156;fill-rule:nonzero;"/><rect x="822.739" y="1472.55" width="67.236" height="5.834" style="fill:#f6f1e1;fill-rule:nonzero;"/><path d="M905.205,1386.37l-4.259,10.218l-161.872,0l-4.26,-10.218l170.391,0Z" style="fill:#543e36;fill-rule:nonzero;"/><g opacity="0.300003"><path d="M889.334,1546.89l0.013,-137.88l-138.232,131.998l0,6.058l138.219,-0.176Z" style="fill:#0a1723;fill-rule:nonzero;"/></g><path d="M752.403,1547.04l136.936,-137.289l0.017,0.021l0.019,-6.471l-0.687,-0.013l-137.545,137.743l-0.028,6.03l1.288,-0.021Z" style="fill:#494a72;fill-rule:nonzero;"/><rect x="817.483" y="1465.44" width="6.156" height="84.063" style="fill:#d8d3cb;fill-rule:nonzero;"/><rect x="750.91" y="1472.44" width="138.873" height="6.155" style="fill:#d8d3cb;fill-rule:nonzero;"/><path d="M897.326,1572.32l-154.783,0l-7.164,-19.32l169.321,0l-7.374,19.32Z" style="fill:#543e36;fill-rule:nonzero;"/><g opacity="0.300003"><path d="M751.094,1443.66l0,-41.078l40.625,0.435" style="fill:#0a1723;fill-rule:nonzero;"/></g><rect x="675" y="1398" width="70" height="153" style="fill:#e7e6de;fill-rule:nonzero;"/><path d="M737.568,1414.53l-3.852,-7.871l-47,-0.111l-5.183,8.544l56.035,-0.562Z" style="fill:#d8d3cb;fill-rule:nonzero;"/><path d="M737.568,1543.93l-3.852,-7.871l-47,-0.111l-5.183,8.544l56.035,-0.562Z" style="fill:#d8d3cb;fill-rule:nonzero;"/><path d="M737.568,1518.05l-3.852,-7.871l-47,-0.111l-5.183,8.544l56.035,-0.562Z" style="fill:#d8d3cb;fill-rule:nonzero;"/><path d="M737.568,1492.17l-3.852,-7.871l-47,-0.111l-5.183,8.544l56.035,-0.562Z" style="fill:#d8d3cb;fill-rule:nonzero;"/><path d="M737.568,1466.29l-3.852,-7.871l-47,-0.111l-5.183,8.545l56.035,-0.563Z" style="fill:#d8d3cb;fill-rule:nonzero;"/><path d="M737.568,1440.41l-3.852,-7.871l-47,-0.111l-5.183,8.544l56.035,-0.562Z" style="fill:#d8d3cb;fill-rule:nonzero;"/><rect x="895" y="1398" width="70" height="153" style="fill:#e7e6de;fill-rule:nonzero;"/><path d="M957.568,1414.53l-3.852,-7.871l-47,-0.111l-5.183,8.544l56.035,-0.562Z" style="fill:#d8d3cb;fill-rule:nonzero;"/><path d="M957.568,1543.93l-3.852,-7.871l-47,-0.111l-5.183,8.544l56.035,-0.562Z" style="fill:#d8d3cb;fill-rule:nonzero;"/><path d="M957.568,1518.05l-3.852,-7.871l-47,-0.111l-5.183,8.544l56.035,-0.562Z" style="fill:#d8d3cb;fill-rule:nonzero;"/><path d="M957.568,1492.17l-3.852,-7.871l-47,-0.111l-5.183,8.544l56.035,-0.562Z" style="fill:#d8d3cb;fill-rule:nonzero;"/><path d="M957.568,1466.29l-3.852,-7.871l-47,-0.111l-5.183,8.545l56.035,-0.563Z" style="fill:#d8d3cb;fill-rule:nonzero;"/><path d="M957.568,1440.41l-3.852,-7.871l-47,-0.111l-5.183,8.544l56.035,-0.562Z" style="fill:#d8d3cb;fill-rule:nonzero;"/></g><g id="ground"><rect x="224.01" y="1896" width="1456" height="24" style="fill:#352d27;fill-rule:nonzero;"/><rect x="1680" y="1896" width="239.999" height="24" style="fill:#d9d3cb;fill-rule:nonzero;"/></g></g></g></svg>