<?xml version="1.0" standalone="no"?><!DOCTYPE svg PUBLIC "-//W3C//DTD SVG 1.1//EN" "http://www.w3.org/Graphics/SVG/1.1/DTD/svg11.dtd"><svg width="960px" height="960px" version="1.1" xmlns="http://www.w3.org/2000/svg" xmlns:xlink="http://www.w3.org/1999/xlink" xml:space="preserve" style="fill-rule:evenodd;clip-rule:evenodd;stroke-linejoin:round;stroke-miterlimit:1.41421;"><g><g id="residential-right" transform="matrix(0.5,0,0,0.5,0,0)"><g id="stoop"><path d="M590,1897l-306.01,0l-2,-28l308.01,0l0,28Z" style="fill:#d8d3cb;fill-rule:nonzero;"/><path d="M590,1869l-262.01,0l-2,-27l264.01,0l0,27Z" style="fill:#d8d3cb;fill-rule:nonzero;"/><path d="M590,1842l-218.01,0l-2,-28l220.01,0l0,28Z" style="fill:#d8d3cb;fill-rule:nonzero;"/><path d="M590,1814l-174.01,0l-2,-27l176.01,0l0,27Z" style="fill:#d8d3cb;fill-rule:nonzero;"/><path d="M590,1787l-130.01,0l-2,-29l132.01,0l0,29Z" style="fill:#d8d3cb;fill-rule:nonzero;"/><path d="M590,1760l-86.01,0l-2,-27l88.01,0l0,27Z" style="fill:#d8d3cb;fill-rule:nonzero;"/><path d="M590,1733l-42.01,0l-2,-28l44.01,0l0,28Z" style="fill:#d8d3cb;fill-rule:nonzero;"/><rect x="550" y="1704" width="332" height="193" style="fill:#d8d3cb;fill-rule:nonzero;"/><path d="M582,1704l-35.762,0.55l1.752,28.45l-46,0l1.852,25l-45.852,0l2,29l-46,0l2,27l-46,0l2,28l-46,0l2,27l-46,0l2.248,28l297.762,-1l0,-192Z" style="fill:#d8d3cb;fill-rule:nonzero;"/></g><g id="stoop-railings"><path d="M543.068,1595.23l-6.814,3.577l-1.686,90.859l7.713,-4.682l0.787,-89.754Z" style="fill:#5c5e5f;fill-rule:nonzero;"/><path d="M498.969,1624.07l-6.814,3.577l-1.686,90.859l7.713,-4.682l0.787,-89.754Z" style="fill:#5c5e5f;fill-rule:nonzero;"/><path d="M454.868,1651.78l-6.814,3.577l-1.686,90.859l7.713,-4.683l0.787,-89.753Z" style="fill:#5c5e5f;fill-rule:nonzero;"/><path d="M410.769,1678.46l-6.813,3.577l-1.687,90.859l7.713,-4.682l0.787,-89.754Z" style="fill:#5c5e5f;fill-rule:nonzero;"/><path d="M366.668,1711.14l-6.814,3.577l-1.686,90.859l7.713,-4.682l0.787,-89.754Z" style="fill:#5c5e5f;fill-rule:nonzero;"/><path d="M322.568,1740.98l-6.813,3.577l-1.687,90.858l7.713,-4.681l0.787,-89.754Z" style="fill:#5c5e5f;fill-rule:nonzero;"/><path d="M588.706,1556.57l-301.013,198.987l4.273,7.366l298.175,-198.529l-1.435,-7.824Z" style="fill:#5c5e5f;fill-rule:nonzero;"/><path d="M588.865,1649.23l-300.654,199.53l3.583,6.329l297.914,-198.922l-0.843,-6.937Z" style="fill:#5c5e5f;fill-rule:nonzero;"/><path d="M652.926,1575.98l-6.07,-0.423l-1.503,105.859l8.5,0.318l-0.927,-105.754Z" style="fill:#5c5e5f;fill-rule:nonzero;"/><path d="M852.731,1575.98l-5.713,-0.423l-1.415,105.859l8,0.318l-0.872,-105.754Z" style="fill:#5c5e5f;fill-rule:nonzero;"/><path d="M802.927,1575.98l-6.071,-0.423l-1.503,105.859l8.5,0.318l-0.926,-105.754Z" style="fill:#5c5e5f;fill-rule:nonzero;"/><path d="M752.926,1575.98l-6.07,-0.423l-1.503,105.859l8.5,0.318l-0.927,-105.754Z" style="fill:#5c5e5f;fill-rule:nonzero;"/><path d="M702.927,1575.98l-6.071,-0.423l-1.503,105.859l8.5,0.318l-0.926,-105.754Z" style="fill:#5c5e5f;fill-rule:nonzero;"/><path d="M963.272,1569.77l-360.838,0.163l-0.505,8.337l358.219,-1.322l3.124,-7.178Z" style="fill:#5c5e5f;fill-rule:nonzero;"/><path d="M952.328,1676.68l-360.838,0.162l-0.505,8.338l358.219,-1.322l3.124,-7.178Z" style="fill:#5c5e5f;fill-rule:nonzero;"/><path d="M597.806,1309l5.934,254l-24.591,0l5.043,-254l13.614,0Z" style="fill:#543e36;fill-rule:nonzero;"/><path d="M242.452,1897.46l5.333,-149.703l-6.82,-7.976l1.205,-13.857l56.676,-0.303l0.781,14.024l-7.072,8.112l6.291,148.241l-56.394,1.462Z" style="fill:#e7e6de;fill-rule:nonzero;"/><path d="M292.99,1748l-45,0l-7.025,-8.217l58.662,-0.137l-6.637,8.354Z" style="fill:#d8d3cb;fill-rule:nonzero;"/><path d="M561.452,1705.46l5.333,-149.703l-6.82,-7.976l1.205,-13.857l56.676,-0.303l0.781,14.024l-7.072,8.112l6.291,148.241l-56.394,1.462Z" style="fill:#e7e6de;fill-rule:nonzero;"/><path d="M611.99,1556l-45,0l-7.025,-8.217l58.662,-0.136l-6.637,8.353Z" style="fill:#d8d3cb;fill-rule:nonzero;"/></g><g id="plants"><path d="M554.01,1853.54l-4.606,0l-0.843,29.246l8.906,1.381l-3.457,-30.627Z" style="fill:#679a45;fill-rule:nonzero;"/><path d="M564.404,1853.79l6.254,-18.805l-37.383,-0.07l6.086,18.957l25.043,-0.082Z" style="fill:#ae2025;fill-rule:nonzero;"/><path d="M645.859,1867.87l-4.605,0l-0.844,29.246l8.906,1.381l-3.457,-30.627Z" style="fill:#679a45;fill-rule:nonzero;"/><path d="M656.254,1868.12l6.254,-18.805l-37.383,-0.07l6.086,18.957l25.043,-0.082Z" style="fill:#ae2025;fill-rule:nonzero;"/><path d="M608.889,1830.23l-4.766,-0.506l0.004,53.651l8.922,2.328l-4.16,-55.473Z" style="fill:#679a45;fill-rule:nonzero;"/><path d="M618.896,1831.5l6.254,-18.805l-37.383,-0.07l6.086,18.957l25.043,-0.082Z" style="fill:#ae2025;fill-rule:nonzero;"/><path d="M607.435,1845.6l23.703,-10.912l6.414,2.99l-3.273,-9.515l-24.836,10.841" style="fill:#679a45;fill-rule:nonzero;"/><path d="M611.342,1868.36l-21.254,-23.557l-16.949,10.293l15.367,-3.367l16.848,17.516l5.988,-0.885Z" style="fill:#679a45;fill-rule:nonzero;"/><path d="M680.135,1826.3l-4.762,-0.467l-0.191,60.69l8.914,2.099l-3.961,-62.322Z" style="fill:#679a45;fill-rule:nonzero;"/><path d="M690.56,1826.12l6.254,-18.805l-37.383,-0.07l6.086,18.957l25.043,-0.082Z" style="fill:#ae2025;fill-rule:nonzero;"/><path d="M679.373,1846.92l-15.988,-7.359l-6.414,2.99l3.273,-9.516l19.938,8.457" style="fill:#679a45;fill-rule:nonzero;"/><path d="M676.33,1877.14l10.313,-41.246l11.91,-0.594l-6.516,5.99l-9.18,42.42l-6.527,-6.57Z" style="fill:#679a45;fill-rule:nonzero;"/><path d="M850.186,1879.11l-40.491,-32.892l31.868,-39.505l19.841,-2.85l-21.322,-12.078l-45.156,54.411l41.227,42.3" style="fill:#679a45;fill-rule:nonzero;"/><path d="M769.774,1846.56l-36.704,-12.486l-26.256,18.728l28.57,-7.433l62.144,21.09l-27.754,-19.899Z" style="fill:#679a45;fill-rule:nonzero;"/><path d="M840.515,1871.04l5.079,-50.35l-50.379,-12.341l-34.273,11.355l-17.962,-19.005l-24.7,17.524l22.773,-4.937l20.855,54.3l-9.951,20.979l30.18,-1.235l58.378,-16.29Z" style="fill:#35813f;fill-rule:nonzero;"/><path d="M793.891,1890.54l-34.031,-71.209l32.058,-13.941l3.551,-11.349l14.469,12.587l-35.778,15.676l47.456,61.237" style="fill:#679a45;fill-rule:nonzero;"/><path d="M820.557,1870.3l39.411,-46.077l26.662,16.052l-24.347,-3.864l-24.336,37.455l-17.39,-3.566Z" style="fill:#679a45;fill-rule:nonzero;"/><path d="M792.739,1841.22l15.271,-61.08l17.638,-0.879l-9.648,8.871l-13.595,62.818l-9.666,-9.73Z" style="fill:#679a45;fill-rule:nonzero;"/><path d="M825.481,1879.68l-24.74,-4.934l-27.93,-35.541l81.385,-6.84" style="fill:#679a45;fill-rule:nonzero;"/><path d="M818.297,1861.87l36.703,-18.416l18.551,18.728l-20.865,-7.433l-34.141,15.162l-0.248,-8.041Z" style="fill:#35813f;fill-rule:nonzero;"/><path d="M475.031,1899.87l0.695,-16.912l-11.406,-2.727l-6.285,4.366l-2.328,-6.549l-7.219,1.638l-2.328,-6.548l-13.445,5.326l-2.793,0.547l-26.598,-5.873c0,0 -16.059,12.834 -17.223,13.38c-1.164,0.545 -39.578,-6.546 -39.578,-6.546l-7.679,-6.834l-17.458,8.47l-18.628,3.819l-3.723,12.808l175.996,1.635Z" style="fill:#679a45;fill-rule:nonzero;"/><path d="M469.324,1895.78l-7.449,-11.729l-12.281,11.866l19.73,-0.137Z" style="fill:#35813f;fill-rule:nonzero;"/><path d="M434.637,1895.78l-5.293,-6.547l-3.492,0l-9.254,-5.32l-2.27,6.137l-24.097,-2.043l-9.602,7.363l54.008,0.41Z" style="fill:#35813f;fill-rule:nonzero;"/><path d="M356.883,1894.96l-1.395,-3.816l-10.011,-1.639l-2.914,-4.092l-23.739,9.957l38.059,-0.41Z" style="fill:#35813f;fill-rule:nonzero;"/><path d="M611.053,1899.87l0.695,-16.912l-11.406,-2.727l-6.285,4.366l-2.328,-6.549l-7.219,1.638l-2.328,-6.548l-13.445,5.326l-2.793,0.547l-26.598,-5.873c0,0 -16.059,12.834 -17.223,13.38c-1.164,0.545 -39.578,-6.546 -39.578,-6.546l-7.679,-6.834l-17.457,8.47l-18.629,3.819l-3.723,12.808l175.996,1.635Z" style="fill:#679a45;fill-rule:nonzero;"/><path d="M605.346,1895.78l-7.449,-11.729l-12.282,11.866l19.731,-0.137Z" style="fill:#35813f;fill-rule:nonzero;"/><path d="M570.658,1895.78l-5.293,-6.547l-3.492,0l-9.254,-5.32l-2.27,6.137l-24.097,-2.043l-9.602,7.363l54.008,0.41Z" style="fill:#35813f;fill-rule:nonzero;"/><path d="M492.904,1894.96l-1.395,-3.816l-10.011,-1.639l-2.914,-4.092l-23.739,9.957l38.059,-0.41Z" style="fill:#35813f;fill-rule:nonzero;"/><path d="M773.994,1899.87l0.695,-16.912l-11.406,-2.727l-6.285,4.366l-2.328,-6.549l-7.219,1.638l-2.328,-6.548l-13.445,5.326l-2.793,0.547l-26.598,-5.873c0,0 -16.059,12.834 -17.223,13.38c-1.164,0.545 -39.578,-6.546 -39.578,-6.546l-7.679,-6.834l-17.457,8.47l-18.629,3.819l-3.723,12.808l175.996,1.635Z" style="fill:#679a45;fill-rule:nonzero;"/><path d="M768.287,1895.78l-7.449,-11.729l-12.282,11.866l19.731,-0.137Z" style="fill:#35813f;fill-rule:nonzero;"/><path d="M733.6,1895.78l-5.293,-6.547l-3.492,0l-9.254,-5.32l-2.27,6.137l-24.097,-2.043l-9.602,7.363l54.008,0.41Z" style="fill:#35813f;fill-rule:nonzero;"/><path d="M655.846,1894.96l-1.395,-3.816l-10.011,-1.639l-2.914,-4.092l-23.739,9.957l38.059,-0.41Z" style="fill:#35813f;fill-rule:nonzero;"/><path d="M945.482,1899.87l0.695,-16.912l-11.406,-2.727l-6.285,4.366l-2.328,-6.549l-7.219,1.638l-2.328,-6.548l-13.445,5.326l-2.793,0.547l-26.598,-5.873c0,0 -16.059,12.834 -17.223,13.38c-1.164,0.545 -39.578,-6.546 -39.578,-6.546l-7.679,-6.834l-17.458,8.47l-18.628,3.819l-3.723,12.808l175.996,1.635Z" style="fill:#679a45;fill-rule:nonzero;"/><path d="M939.775,1895.78l-7.449,-11.729l-12.281,11.866l19.73,-0.137Z" style="fill:#35813f;fill-rule:nonzero;"/><path d="M905.088,1895.78l-5.293,-6.547l-3.492,0l-9.254,-5.32l-2.27,6.137l-24.097,-2.043l-9.602,7.363l54.008,0.41Z" style="fill:#35813f;fill-rule:nonzero;"/><path d="M827.334,1894.96l-1.394,-3.816l-10.012,-1.639l-2.914,-4.092l-23.739,9.957l38.059,-0.41Z" style="fill:#35813f;fill-rule:nonzero;"/></g><g id="chimney"><path d="M1374.82,637.482l6.242,-149.703l-9.099,-7.976l2.314,-13.857l108.848,-0.303l1.5,14.024l-9.582,8.112l8.082,148.241l-108.305,1.462Z" style="fill:#e7e6de;fill-rule:nonzero;"/><path d="M1475.88,488l-94.423,0l-9.493,-8.207l112.662,-0.142l-8.746,8.349Z" style="fill:#d8d3cb;fill-rule:nonzero;"/></g><g id="base"><path d="M1696,715l-656,0l0,548l-158,0l0,635l814,0l0,-1183Z" style="fill:#e0cea8;fill-rule:nonzero;"/></g><g id="shadows"><g opacity="0.300003"><path d="M1040,742.495l17.695,17.505l638.305,0l0,-42l-656,0l0,24.495Z" style="fill:#0a1723;fill-rule:nonzero;"/></g><g opacity="0.300003"><path d="M898.99,1380l141.01,0l0,-51l-158.957,-2l0.646,36.181l17.301,16.819Z" style="fill:#0a1723;fill-rule:nonzero;"/></g><g opacity="0.300003"><path d="M1039.99,1222.68l17.705,17.317l638.305,0l0,-31l-655.365,0l-0.645,13.683Z" style="fill:#0a1723;fill-rule:nonzero;"/></g><g opacity="0.300003"><path d="M881.99,1721.92l19.705,19.075l794.305,0l0,-34.119l-814.313,-0.94l0.303,15.984Z" style="fill:#0a1723;fill-rule:nonzero;"/></g><g opacity="0.300003"><path d="M583,1348l15.99,0l1.435,69.366l-17.425,-31.001l0,-38.365Z" style="fill:#0a1723;fill-rule:nonzero;"/></g></g><g id="roof"><path d="M1696,708.095l-526.479,10l-250.529,-10l126.31,-144l650.698,-1l0,145Z" style="fill:#72594b;fill-rule:nonzero;"/></g><g id="trim"><path d="M1696,1704l-823.01,0l5.005,20l818.005,0.925l0,-20.925Z" style="fill:#543e36;fill-rule:nonzero;"/><path d="M1696,1203l-664.01,0l5.005,21l659.005,-0.056l0,-20.944Z" style="fill:#543e36;fill-rule:nonzero;"/><path d="M1696,708l-778.01,0l5.005,20.047l773.005,0.902l0,-20.949Z" style="fill:#543e36;fill-rule:nonzero;"/><path d="M962.453,743.931l3.261,-15.818l-23.447,-0.059l3.12,15.946l17.066,-0.069Z" style="fill:#2a2b2a;fill-rule:nonzero;"/><path d="M1573.65,743.931l3.262,-15.818l-23.448,-0.059l3.12,15.946l17.066,-0.069Z" style="fill:#2a2b2a;fill-rule:nonzero;"/><path d="M1420.85,743.931l3.26,-15.818l-23.447,-0.059l3.12,15.946l17.067,-0.069Z" style="fill:#2a2b2a;fill-rule:nonzero;"/><path d="M1268.05,743.931l3.262,-15.818l-23.448,-0.059l3.12,15.946l17.066,-0.069Z" style="fill:#2a2b2a;fill-rule:nonzero;"/><path d="M1115.25,743.931l3.262,-15.818l-23.448,-0.059l3.12,15.946l17.066,-0.069Z" style="fill:#2a2b2a;fill-rule:nonzero;"/><path d="M572.177,1363.11l3.261,-15.818l-23.447,-0.059l3.12,15.946l17.066,-0.069Z" style="fill:#2a2b2a;fill-rule:nonzero;"/><path d="M1030.58,1363.11l3.262,-15.818l-23.448,-0.059l3.12,15.946l17.066,-0.069Z" style="fill:#2a2b2a;fill-rule:nonzero;"/><path d="M877.776,1363.11l3.262,-15.818l-23.448,-0.059l3.12,15.946l17.066,-0.069Z" style="fill:#2a2b2a;fill-rule:nonzero;"/><path d="M724.977,1363.11l3.262,-15.818l-23.448,-0.059l3.12,15.946l17.066,-0.069Z" style="fill:#2a2b2a;fill-rule:nonzero;"/></g><g id="stoop-roof"><path d="M1045.99,1329l-257.475,10l-250.525,-10l96.306,-104l406.694,-1l5,105Z" style="fill:#72594b;fill-rule:nonzero;"/><path d="M1045.99,1329l-508,0l5,20l499,0.926l4,-20.926Z" style="fill:#543e36;fill-rule:nonzero;"/></g><g id="windows"><path d="M1014.29,1855.9l117.608,0.053l0.087,-47.962l-117.869,-0.029l0.174,47.938Z" style="fill:#d8d3cb;fill-rule:nonzero;"/><path d="M1020.84,1850.17l104.425,0.099l0,-36.591l-104.425,-0.034l0,36.526Z" style="fill:#313156;fill-rule:nonzero;"/><rect x="1071" y="1809" width="4" height="46" style="fill:#d8d3cb;fill-rule:nonzero;"/><path d="M1481.29,1855.9l117.608,0.053l0.087,-47.962l-117.869,-0.029l0.174,47.938Z" style="fill:#d8d3cb;fill-rule:nonzero;"/><path d="M1487.84,1850.17l104.425,0.099l0,-36.591l-104.425,-0.034l0,36.526Z" style="fill:#313156;fill-rule:nonzero;"/><rect x="1538" y="1809" width="4" height="46" style="fill:#d8d3cb;fill-rule:nonzero;"/><g opacity="0.300003"><path d="M1336.97,1048.78l8.02,15.221l-158.411,0l-11.13,-16.539l161.521,1.318Z" style="fill:#0a1723;fill-rule:nonzero;"/></g><g opacity="0.300003"><path d="M1399.71,1027.88l6.276,12.116l-289.41,0l-7.565,-12.269l290.699,0.153Z" style="fill:#0a1723;fill-rule:nonzero;"/></g><path d="M1177.58,1030.84l78.335,0.16l0.055,-156.421l-78.494,-0.073l0.104,156.334Z" style="fill:#d8d3cb;fill-rule:nonzero;"/><path d="M1183.67,1024.89l66.321,0.176l0,-68.462l-66.321,-0.062l0,68.348Z" style="fill:#313156;fill-rule:nonzero;"/><path d="M1183.67,950.562l66.359,-0.061l-0.038,-69.916l-66.353,0.726l0.032,69.251Z" style="fill:#313156;fill-rule:nonzero;"/><path d="M1249.47,1030.84l78.337,0.16l0.051,-156.421l-78.492,-0.073l0.104,156.334Z" style="fill:#d8d3cb;fill-rule:nonzero;"/><path d="M1255.56,1024.89l66.323,0.176l0,-68.462l-66.323,-0.062l0,68.348Z" style="fill:#313156;fill-rule:nonzero;"/><path d="M1255.56,950.565l66.362,-0.064l-0.039,-69.916l-66.356,0.726l0.033,69.254Z" style="fill:#313156;fill-rule:nonzero;"/><rect x="1183.03" y="950.548" width="67.236" height="5.834" style="fill:#f6f1e1;fill-rule:nonzero;"/><path d="M1167.79,864.365l4.259,10.218l161.872,0l4.26,-10.218l-170.391,0Z" style="fill:#543e36;fill-rule:nonzero;"/><g opacity="0.300003"><path d="M1183.67,1024.89l-0.013,-137.881l138.232,131.998l0,6.059l-138.219,-0.176Z" style="fill:#0a1723;fill-rule:nonzero;"/></g><path d="M1320.6,1025.04l-136.936,-137.289l-0.017,0.021l-0.019,-6.471l0.687,-0.013l137.545,137.742l0.028,6.031l-1.288,-0.021Z" style="fill:#494a72;fill-rule:nonzero;"/><rect x="1249.36" y="943.437" width="6.156" height="84.063" style="fill:#d8d3cb;fill-rule:nonzero;"/><rect x="1183.22" y="950.444" width="138.873" height="6.154" style="fill:#d8d3cb;fill-rule:nonzero;"/><path d="M1175.67,1050.32l154.783,0l7.164,-19.32l-169.321,0l7.374,19.32Z" style="fill:#543e36;fill-rule:nonzero;"/><g opacity="0.300003"><path d="M1321.91,921.662l0,-41.077l-40.625,0.434" style="fill:#0a1723;fill-rule:nonzero;"/></g><rect x="1328" y="876" width="70" height="153" style="fill:#e7e6de;fill-rule:nonzero;"/><path d="M1335.43,892.532l3.852,-7.871l47,-0.111l5.183,8.544l-56.035,-0.562Z" style="fill:#d8d3cb;fill-rule:nonzero;"/><path d="M1335.43,1021.93l3.852,-7.871l47,-0.111l5.183,8.544l-56.035,-0.562Z" style="fill:#d8d3cb;fill-rule:nonzero;"/><path d="M1335.43,996.05l3.852,-7.871l47,-0.111l5.183,8.544l-56.035,-0.562Z" style="fill:#d8d3cb;fill-rule:nonzero;"/><path d="M1335.43,970.17l3.852,-7.871l47,-0.111l5.183,8.544l-56.035,-0.562Z" style="fill:#d8d3cb;fill-rule:nonzero;"/><path d="M1335.43,944.291l3.852,-7.871l47,-0.111l5.183,8.544l-56.035,-0.562Z" style="fill:#d8d3cb;fill-rule:nonzero;"/><path d="M1335.43,918.411l3.852,-7.871l47,-0.111l5.183,8.544l-56.035,-0.562Z" style="fill:#d8d3cb;fill-rule:nonzero;"/><rect x="1108" y="876" width="70" height="153" style="fill:#e7e6de;fill-rule:nonzero;"/><path d="M1115.43,892.532l3.852,-7.871l47,-0.111l5.183,8.544l-56.035,-0.562Z" style="fill:#d8d3cb;fill-rule:nonzero;"/><path d="M1115.43,1021.93l3.852,-7.871l47,-0.111l5.183,8.544l-56.035,-0.562Z" style="fill:#d8d3cb;fill-rule:nonzero;"/><path d="M1115.43,996.05l3.852,-7.871l47,-0.111l5.183,8.544l-56.035,-0.562Z" style="fill:#d8d3cb;fill-rule:nonzero;"/><path d="M1115.43,970.17l3.852,-7.871l47,-0.111l5.183,8.544l-56.035,-0.562Z" style="fill:#d8d3cb;fill-rule:nonzero;"/><path d="M1115.43,944.291l3.852,-7.871l47,-0.111l5.183,8.544l-56.035,-0.562Z" style="fill:#d8d3cb;fill-rule:nonzero;"/><path d="M1115.43,918.411l3.852,-7.871l47,-0.111l5.183,8.544l-56.035,-0.562Z" style="fill:#d8d3cb;fill-rule:nonzero;"/><g opacity="0.300003"><path d="M1619.86,1025.22l4.992,15.781l-78.859,0l-6.541,-16.693l80.408,0.912Z" style="fill:#0a1723;fill-rule:nonzero;"/></g><path d="M1541.45,1008.51l68.319,0.136l0.046,-134.428l-68.454,-0.062l0.089,134.354Z" style="fill:#d8d3cb;fill-rule:nonzero;"/><path d="M1547.6,1002.47l56.147,0.149l0,-57.961l-56.147,-0.051l0,57.863Z" style="fill:#313156;fill-rule:nonzero;"/><path d="M1547.32,939.543l56.181,-0.052l-0.034,-59.191l-56.175,0.614l0.028,58.629Z" style="fill:#313156;fill-rule:nonzero;"/><rect x="1547.06" y="939.531" width="56.924" height="4.938" style="fill:#f6f1e1;fill-rule:nonzero;"/><g opacity="0.300003"><path d="M1547.6,1002.47l-0.381,-80.123l55.999,55.314l0.529,24.958l-56.147,-0.149Z" style="fill:#0a1723;fill-rule:nonzero;"/></g><path d="M1603.71,981.117l-56.403,-56.625l-0.022,-6.12l56.111,56.276l0.314,6.469Z" style="fill:#494a72;fill-rule:nonzero;"/><rect x="1545.34" y="939.396" width="59.071" height="5.21" style="fill:#d8d3cb;fill-rule:nonzero;"/><g opacity="0.300003"><path d="M1603.75,919.972l0,-39.672l-39.234,0.42" style="fill:#0a1723;fill-rule:nonzero;"/></g><path d="M1530.64,864.365l4.258,10.218l81.69,0l4.26,-10.218l-90.208,0Z" style="fill:#543e36;fill-rule:nonzero;"/><path d="M1538.52,1027.97l75.165,0l7.164,-19.32l-89.704,0l7.375,19.32Z" style="fill:#543e36;fill-rule:nonzero;"/><g opacity="0.300003"><path d="M1179.98,1570.78l8.02,15.221l-158.411,0l-11.13,-16.539l161.521,1.318Z" style="fill:#0a1723;fill-rule:nonzero;"/></g><path d="M1020.59,1552.84l78.335,0.16l0.055,-156.421l-78.494,-0.073l0.104,156.334Z" style="fill:#d8d3cb;fill-rule:nonzero;"/><path d="M1026.68,1546.89l66.321,0.176l0,-68.462l-66.321,-0.062l0,68.348Z" style="fill:#313156;fill-rule:nonzero;"/><path d="M1026.68,1472.56l66.359,-0.061l-0.038,-69.916l-66.353,0.726l0.032,69.251Z" style="fill:#313156;fill-rule:nonzero;"/><path d="M1092.48,1552.84l78.337,0.16l0.051,-156.421l-78.492,-0.073l0.104,156.334Z" style="fill:#d8d3cb;fill-rule:nonzero;"/><path d="M1098.57,1546.89l66.323,0.176l0,-68.462l-66.323,-0.062l0,68.348Z" style="fill:#313156;fill-rule:nonzero;"/><path d="M1098.57,1472.56l66.362,-0.064l-0.039,-69.915l-66.356,0.725l0.033,69.254Z" style="fill:#313156;fill-rule:nonzero;"/><rect x="1026.04" y="1472.55" width="67.236" height="5.834" style="fill:#f6f1e1;fill-rule:nonzero;"/><path d="M1010.8,1386.37l4.259,10.218l161.872,0l4.26,-10.218l-170.391,0Z" style="fill:#543e36;fill-rule:nonzero;"/><g opacity="0.300003"><path d="M1026.68,1546.89l-0.013,-137.881l138.232,131.998l0,6.059l-138.219,-0.176Z" style="fill:#0a1723;fill-rule:nonzero;"/></g><path d="M1163.61,1547.04l-136.936,-137.289l-0.017,0.021l-0.019,-6.471l0.687,-0.013l137.545,137.742l0.028,6.031l-1.288,-0.021Z" style="fill:#494a72;fill-rule:nonzero;"/><rect x="1092.37" y="1465.44" width="6.156" height="84.063" style="fill:#d8d3cb;fill-rule:nonzero;"/><rect x="1026.23" y="1472.44" width="138.873" height="6.154" style="fill:#d8d3cb;fill-rule:nonzero;"/><path d="M1018.68,1572.32l154.783,0l7.164,-19.32l-169.321,0l7.374,19.32Z" style="fill:#543e36;fill-rule:nonzero;"/><g opacity="0.300003"><path d="M1164.92,1443.66l0,-41.077l-40.625,0.434" style="fill:#0a1723;fill-rule:nonzero;"/></g><rect x="1097" y="1398" width="70" height="153" style="fill:#e7e6de;fill-rule:nonzero;"/><path d="M1104.43,1414.53l3.852,-7.871l47,-0.111l5.183,8.544l-56.035,-0.562Z" style="fill:#d8d3cb;fill-rule:nonzero;"/><path d="M1104.43,1543.93l3.852,-7.871l47,-0.111l5.183,8.544l-56.035,-0.562Z" style="fill:#d8d3cb;fill-rule:nonzero;"/><path d="M1104.43,1518.05l3.852,-7.871l47,-0.111l5.183,8.544l-56.035,-0.562Z" style="fill:#d8d3cb;fill-rule:nonzero;"/><path d="M1104.43,1492.17l3.852,-7.871l47,-0.111l5.183,8.544l-56.035,-0.562Z" style="fill:#d8d3cb;fill-rule:nonzero;"/><path d="M1104.43,1466.29l3.852,-7.871l47,-0.111l5.183,8.545l-56.035,-0.563Z" style="fill:#d8d3cb;fill-rule:nonzero;"/><path d="M1104.43,1440.41l3.852,-7.871l47,-0.111l5.183,8.544l-56.035,-0.562Z" style="fill:#d8d3cb;fill-rule:nonzero;"/><rect x="1024" y="1398" width="70" height="153" style="fill:#e7e6de;fill-rule:nonzero;"/><path d="M1031.43,1414.53l3.852,-7.871l47,-0.111l5.183,8.544l-56.035,-0.562Z" style="fill:#d8d3cb;fill-rule:nonzero;"/><path d="M1031.43,1543.93l3.852,-7.871l47,-0.111l5.183,8.544l-56.035,-0.562Z" style="fill:#d8d3cb;fill-rule:nonzero;"/><path d="M1031.43,1518.05l3.852,-7.871l47,-0.111l5.183,8.544l-56.035,-0.562Z" style="fill:#d8d3cb;fill-rule:nonzero;"/><path d="M1031.43,1492.17l3.852,-7.871l47,-0.111l5.183,8.544l-56.035,-0.562Z" style="fill:#d8d3cb;fill-rule:nonzero;"/><path d="M1031.43,1466.29l3.852,-7.871l47,-0.111l5.183,8.545l-56.035,-0.563Z" style="fill:#d8d3cb;fill-rule:nonzero;"/><path d="M1031.43,1440.41l3.852,-7.871l47,-0.111l5.183,8.544l-56.035,-0.562Z" style="fill:#d8d3cb;fill-rule:nonzero;"/><g opacity="0.300003"><path d="M1553.97,1570.78l8.02,15.221l-158.411,0l-11.13,-16.539l161.521,1.318Z" style="fill:#0a1723;fill-rule:nonzero;"/></g><g opacity="0.300003"><path d="M1616.71,1549.88l6.276,12.116l-289.41,0l-7.565,-12.269l290.699,0.153Z" style="fill:#0a1723;fill-rule:nonzero;"/></g><path d="M1394.58,1552.84l78.335,0.16l0.055,-156.421l-78.494,-0.073l0.104,156.334Z" style="fill:#d8d3cb;fill-rule:nonzero;"/><path d="M1400.67,1546.89l66.321,0.176l0,-68.462l-66.321,-0.062l0,68.348Z" style="fill:#313156;fill-rule:nonzero;"/><path d="M1400.67,1472.56l66.359,-0.061l-0.038,-69.916l-66.353,0.726l0.032,69.251Z" style="fill:#313156;fill-rule:nonzero;"/><path d="M1466.47,1552.84l78.337,0.16l0.051,-156.421l-78.492,-0.073l0.104,156.334Z" style="fill:#d8d3cb;fill-rule:nonzero;"/><path d="M1472.56,1546.89l66.323,0.176l0,-68.462l-66.323,-0.062l0,68.348Z" style="fill:#313156;fill-rule:nonzero;"/><path d="M1472.56,1472.56l66.362,-0.064l-0.039,-69.915l-66.356,0.725l0.033,69.254Z" style="fill:#313156;fill-rule:nonzero;"/><rect x="1400.03" y="1472.55" width="67.236" height="5.834" style="fill:#f6f1e1;fill-rule:nonzero;"/><path d="M1384.79,1386.37l4.259,10.218l161.872,0l4.26,-10.218l-170.391,0Z" style="fill:#543e36;fill-rule:nonzero;"/><g opacity="0.300003"><path d="M1400.67,1546.89l-0.013,-137.881l138.232,131.998l0,6.059l-138.219,-0.176Z" style="fill:#0a1723;fill-rule:nonzero;"/></g><path d="M1537.6,1547.04l-136.936,-137.289l-0.017,0.021l-0.019,-6.471l0.687,-0.013l137.545,137.742l0.028,6.031l-1.288,-0.021Z" style="fill:#494a72;fill-rule:nonzero;"/><rect x="1466.36" y="1465.44" width="6.156" height="84.063" style="fill:#d8d3cb;fill-rule:nonzero;"/><rect x="1400.22" y="1472.44" width="138.873" height="6.154" style="fill:#d8d3cb;fill-rule:nonzero;"/><path d="M1392.67,1572.32l154.783,0l7.164,-19.32l-169.321,0l7.374,19.32Z" style="fill:#543e36;fill-rule:nonzero;"/><g opacity="0.300003"><path d="M1538.91,1443.66l0,-41.077l-40.625,0.434" style="fill:#0a1723;fill-rule:nonzero;"/></g><rect x="1545" y="1398" width="70" height="153" style="fill:#e7e6de;fill-rule:nonzero;"/><path d="M1552.43,1414.53l3.852,-7.871l47,-0.111l5.183,8.544l-56.035,-0.562Z" style="fill:#d8d3cb;fill-rule:nonzero;"/><path d="M1552.43,1543.93l3.852,-7.871l47,-0.111l5.183,8.544l-56.035,-0.562Z" style="fill:#d8d3cb;fill-rule:nonzero;"/><path d="M1552.43,1518.05l3.852,-7.871l47,-0.111l5.183,8.544l-56.035,-0.562Z" style="fill:#d8d3cb;fill-rule:nonzero;"/><path d="M1552.43,1492.17l3.852,-7.871l47,-0.111l5.183,8.544l-56.035,-0.562Z" style="fill:#d8d3cb;fill-rule:nonzero;"/><path d="M1552.43,1466.29l3.852,-7.871l47,-0.111l5.183,8.545l-56.035,-0.563Z" style="fill:#d8d3cb;fill-rule:nonzero;"/><path d="M1552.43,1440.41l3.852,-7.871l47,-0.111l5.183,8.544l-56.035,-0.562Z" style="fill:#d8d3cb;fill-rule:nonzero;"/><rect x="1325" y="1398" width="70" height="153" style="fill:#e7e6de;fill-rule:nonzero;"/><path d="M1332.43,1414.53l3.852,-7.871l47,-0.111l5.183,8.544l-56.035,-0.562Z" style="fill:#d8d3cb;fill-rule:nonzero;"/><path d="M1332.43,1543.93l3.852,-7.871l47,-0.111l5.183,8.544l-56.035,-0.562Z" style="fill:#d8d3cb;fill-rule:nonzero;"/><path d="M1332.43,1518.05l3.852,-7.871l47,-0.111l5.183,8.544l-56.035,-0.562Z" style="fill:#d8d3cb;fill-rule:nonzero;"/><path d="M1332.43,1492.17l3.852,-7.871l47,-0.111l5.183,8.544l-56.035,-0.562Z" style="fill:#d8d3cb;fill-rule:nonzero;"/><path d="M1332.43,1466.29l3.852,-7.871l47,-0.111l5.183,8.545l-56.035,-0.563Z" style="fill:#d8d3cb;fill-rule:nonzero;"/><path d="M1332.43,1440.41l3.852,-7.871l47,-0.111l5.183,8.544l-56.035,-0.562Z" style="fill:#d8d3cb;fill-rule:nonzero;"/></g><g id="ground"><rect x="239.99" y="1896" width="1456" height="24" style="fill:#352d27;fill-rule:nonzero;"/><rect x="0" y="1896" width="240" height="24" style="fill:#d9d3cb;fill-rule:nonzero;"/></g></g></g></svg>