<?xml version="1.0" encoding="UTF-8" standalone="no"?><!DOCTYPE svg PUBLIC "-//W3C//DTD SVG 1.1//EN" "http://www.w3.org/Graphics/SVG/1.1/DTD/svg11.dtd"><svg width="100%" height="100%" viewBox="0 0 96 96" version="1.1" xmlns="http://www.w3.org/2000/svg" xmlns:xlink="http://www.w3.org/1999/xlink" xml:space="preserve" xmlns:serif="http://www.serif.com/" style="fill-rule:evenodd;clip-rule:evenodd;stroke-linejoin:round;stroke-miterlimit:2;"><g id="left-right-straight-inbound"><path d="M30.05,49.361l0,11.1l-24.4,-17.1l24.4,-17.1l0,13.3c10.2,-0.8 12.8,-13.8 12.8,-34.1l10.3,0c-0.1,22.8 -2.9,42.6 -23.1,43.9Z" style="fill:#fff;fill-rule:nonzero;"/><path d="M65.95,49.361l0,11.1l24.4,-17.1l-24.4,-17.1l0,13.3c-10.2,-0.8 -12.8,-13.8 -12.8,-34.1l-10.3,0c0.1,22.8 2.9,42.6 23.1,43.9Z" style="fill:#fff;fill-rule:nonzero;"/><path d="M53.138,65.314l0,-33.388l-10.676,0l0,33.388l-11.162,0l16.5,23.683l16.5,-23.683l-11.162,0Z" style="fill:#fff;fill-rule:nonzero;"/></g><g id="straight-outbound-light"><path d="M42.862,43.547l0,33.388l10.676,0l0,-33.388l11.162,0l-16.5,-23.682l-16.5,23.682l11.162,0Z" style="fill:#fff;fill-opacity:0.2;fill-rule:nonzero;"/></g></svg>