<?xml version="1.0" encoding="UTF-8" standalone="no"?>
<!DOCTYPE svg PUBLIC "-//W3C//DTD SVG 1.1//EN" "http://www.w3.org/Graphics/SVG/1.1/DTD/svg11.dtd">
<svg width="100%" height="100%" viewBox="0 0 72 192" version="1.1" xmlns="http://www.w3.org/2000/svg" xmlns:xlink="http://www.w3.org/1999/xlink" xml:space="preserve" xmlns:serif="http://www.serif.com/" style="fill-rule:evenodd;clip-rule:evenodd;stroke-linejoin:round;stroke-miterlimit:1.41421;">
    <g id="scooter-right" transform="matrix(-1,0,0,1,97.1031,24.1374)">
        <g transform="matrix(1,0,0,1,85.5614,161.088)">
            <path d="M0,3.775L2.818,6.608L8.417,6.775L11,3.525L10.917,-0.225L8.5,-3L2.591,-3L-0.083,-0.225L0,3.775Z" style="fill:rgb(93,95,96);fill-rule:nonzero;"/>
        </g>
        <g transform="matrix(1,0,0,1,31.1444,160.238)">
            <path d="M0,-6.375L2.625,-9L11.5,-0.875L59.083,-1.063L59.083,2.625L10.25,2.619L0,-6.375Z" style="fill:rgb(42,43,42);fill-rule:nonzero;"/>
        </g>
        <g transform="matrix(0.112072,-0.9937,-0.9937,-0.112072,64.112,123.768)">
            <path d="M-23.888,30.676L34.235,30.676L34.748,26.781L-23.847,26.556L-23.888,30.676Z" style="fill:rgb(55,99,136);fill-rule:nonzero;"/>
        </g>
        <g transform="matrix(0.116327,-0.993211,-0.993211,-0.116327,39.8957,154.256)">
            <rect x="-5.315" y="5.957" width="16.583" height="4.12" style="fill:rgb(42,43,42);"/>
        </g>
        <g transform="matrix(0.998574,0.0533883,0.0533883,-0.998574,36.281,77.8354)">
            <path d="M-0.283,-0.192L6.741,-0.192L4.725,-10.66L0.188,-10.953L-0.283,-0.192Z" style="fill:rgb(42,43,42);fill-rule:nonzero;"/>
        </g>
        <g transform="matrix(1,0,0,1,25.7279,161.088)">
            <path d="M0,3.775L2.818,6.608L8.417,6.775L11,3.525L10.917,-0.225L8.5,-3L2.591,-3L-0.083,-0.225L0,3.775Z" style="fill:rgb(93,95,96);fill-rule:nonzero;"/>
        </g>
        <g transform="matrix(1,0,0,1,48.8944,114.87)">
            <path d="M0,5.659L-1.909,-33.834L11.5,-28.007L12.167,5.826L14.167,39.493L6,39.493L0,5.659Z" style="fill:rgb(191,189,186);fill-rule:nonzero;"/>
        </g>
        <g transform="matrix(-0.227118,-0.973867,-0.973867,0.227118,59.9602,36.029)">
            <path d="M-7.931,-0.01L-0.882,-0.01L-0.54,6.122L-6.694,7.853L-7.931,-0.01Z" style="fill:rgb(206,171,151);fill-rule:nonzero;"/>
        </g>
        <g transform="matrix(1,0,0,1,46.1444,147.279)">
            <path d="M0,-66.416L13.167,-26.75L34.667,1.25L41.417,-4L24.25,-30.583L22.25,-67.666L0,-66.416Z" style="fill:rgb(227,225,220);fill-rule:nonzero;"/>
        </g>
        <g transform="matrix(1,0,0,1,46.2279,44.1037)">
            <path d="M0,36.925L22.167,35.821L21.042,3.165L12.703,0L2.948,9.728L0,36.925Z" style="fill:rgb(206,173,128);fill-rule:nonzero;"/>
        </g>
        <g transform="matrix(1,0,0,1,63.0614,159.431)">
            <path d="M0,-6.402L1.708,-0.184L-18.156,0.396L-19.902,-4.134L-8.155,-6.798L0,-6.402Z" style="fill:rgb(206,173,128);fill-rule:nonzero;"/>
        </g>
        <g transform="matrix(1,0,0,1,60.3334,27.0597)">
            <path d="M0,10.843L2.474,0.69L-13.545,-2.23L-15.194,6.882L-13.108,7L-11.862,13.073L-6.049,11.905" style="fill:rgb(225,197,181);fill-rule:nonzero;"/>
        </g>
        <g transform="matrix(-0.993744,0.111684,0.111684,0.993744,37.752,23.6075)">
            <path d="M-12.648,3.364L-2.136,3.364L-0.152,-0.388L-10.505,-0.73L-12.648,3.364Z" style="fill:rgb(114,152,79);fill-rule:nonzero;"/>
        </g>
        <g transform="matrix(1,0,0,1,47.5653,20.9369)">
            <path d="M0,4.749L15.283,7.168L14.009,-1.111L3.134,-2.419L-1.407,1.172L0,4.749Z" style="fill:rgb(114,152,79);fill-rule:nonzero;"/>
        </g>
        <g transform="matrix(0.996649,0.0817963,0.0817963,-0.996649,55.8734,34.1518)">
            <path d="M0.196,-0.107L2.25,-0.107L2.606,4.961L-0.054,4.225L0.196,-0.107Z" style="fill:rgb(225,197,181);fill-rule:nonzero;"/>
        </g>
        <g transform="matrix(1,0,0,1,54.0228,27.0297)">
            <path d="M0,12.416L0.836,7.232L3.803,7.312L4.754,2.402L1.57,2.771L2.009,0L8.825,1.075L6.412,10.975L0,12.416Z" style="fill:rgb(206,171,151);fill-rule:nonzero;"/>
        </g>
        <g transform="matrix(1,0,0,1,56.0316,20.9006)">
            <path d="M0,6.129L5.542,-1.075L6.816,7.204L0,6.129Z" style="fill:rgb(75,128,70);fill-rule:nonzero;"/>
        </g>
        <g transform="matrix(1,0,0,1,36.8695,95.1955)">
            <path d="M0,-14.701L4.021,-12.54L-3.2,-0.684L-5.725,0L-7.6,-0.875L-7.877,-3.596L0,-14.701Z" style="fill:rgb(92,94,95);fill-rule:nonzero;"/>
        </g>
        <g transform="matrix(1,0,0,1,40.1591,86.0176)">
            <path d="M0,2.598L-5.779,4.446L-9.936,0.329L-6.59,-1.848L-3.098,-1.072L0,2.598Z" style="fill:rgb(225,197,181);fill-rule:nonzero;"/>
        </g>
        <g transform="matrix(1,0,0,1,57.0507,88.6124)">
            <path d="M0,-29.906L7.177,-29.25L2.677,-14.417L-16.906,0L-20.656,-3.75L-1.989,-17.584L0,-29.906Z" style="fill:rgb(225,197,181);fill-rule:nonzero;"/>
        </g>
        <g transform="matrix(1,0,0,1,55.9803,57.1467)">
            <path d="M0,-7.662L1.081,1.549L8.248,2.216L11.304,-9.878" style="fill:rgb(255,238,204);fill-rule:nonzero;"/>
        </g>
        <g transform="matrix(1,0,0,1,67.266,50.3463)">
            <path d="M0,-3.093L-5.497,-6.609L-13.497,-5.984L-18.122,3.516L-8.654,0.326L0,-3.093Z" style="fill:rgb(255,238,204);fill-rule:nonzero;"/>
        </g>
        <g transform="matrix(1,0,0,1,87.3851,159.991)">
            <path d="M0,-16.971L5.093,-13.128L-9.201,0L-13.485,-2.283L-6.741,-11.628L0,-16.971Z" style="fill:rgb(206,173,128);fill-rule:nonzero;"/>
        </g>
    </g>
</svg>
