<?xml version="1.0" encoding="UTF-8" standalone="no"?>
<!DOCTYPE svg PUBLIC "-//W3C//DTD SVG 1.1//EN" "http://www.w3.org/Graphics/SVG/1.1/DTD/svg11.dtd">
<svg width="100%" height="100%" viewBox="0 0 72 192" version="1.1" xmlns="http://www.w3.org/2000/svg" xmlns:xlink="http://www.w3.org/1999/xlink" xml:space="preserve" xmlns:serif="http://www.serif.com/" style="fill-rule:evenodd;clip-rule:evenodd;stroke-linejoin:round;stroke-miterlimit:1.41421;">
    <g id="scooter-outbound" transform="matrix(1,0,0,1,1.11749,-13.0995)">
        <g transform="matrix(-0.00867124,-0.999962,-0.999962,0.00867124,63.6534,160.548)">
            <path d="M-27.236,31.12L30.887,31.12L30.454,26.73L-27.195,27L-27.236,31.12Z" style="fill:rgb(55,99,136);fill-rule:nonzero;"/>
        </g>
        <g transform="matrix(-0.0177035,-0.999843,-0.999843,0.0177035,41.1186,193.854)">
            <rect x="-4.178" y="4.103" width="12.314" height="4.12" style="fill:rgb(42,43,42);"/>
        </g>
        <g transform="matrix(1,0,0,1,38.0052,193.05)">
            <path d="M0,-54.04L-0.156,-34.221L-0.892,-0.386L-5.651,0L-7.975,-34.433L0,-54.04Z" style="fill:rgb(82,64,56);fill-rule:nonzero;"/>
        </g>
        <g transform="matrix(-0.118338,0.992973,0.992973,0.118338,26.8813,119.828)">
            <path d="M2.291,-7.218L6.592,-7.218L6.388,2.209L1.715,1.987L2.291,-7.218Z" style="fill:rgb(110,90,77);fill-rule:nonzero;"/>
        </g>
        <g transform="matrix(0.118338,0.992973,0.992973,-0.118338,50.2145,127.854)">
            <path d="M-6.409,2.034L-2.108,2.034L-2.312,-7.392L-6.985,-7.171L-6.409,2.034Z" style="fill:rgb(110,90,77);fill-rule:nonzero;"/>
        </g>
        <g transform="matrix(-0.0556399,0.998451,0.998451,0.0556399,24.9343,134.226)">
            <path d="M-8.479,5.892L-3.914,5.892L-4.663,-7.969L-10.161,-7.619L-8.479,5.892Z" style="fill:rgb(42,43,42);fill-rule:nonzero;"/>
        </g>
        <g transform="matrix(0.0550329,0.998485,0.998485,-0.0550329,48.4095,119.713)">
            <path d="M5.58,-8.019L10.141,-8.019L9.388,5.846L3.89,5.49L5.58,-8.019Z" style="fill:rgb(42,43,42);fill-rule:nonzero;"/>
        </g>
        <g transform="matrix(1,0,0,1,30.1517,200.099)">
            <path d="M0,-7.917L-0.17,-2.189L0.603,0L7.885,0L8,-7.834L0,-7.917Z" style="fill:rgb(102,153,68);fill-rule:nonzero;"/>
        </g>
        <g transform="matrix(1,0,0,1,27.4852,76.0734)">
            <path d="M0,-2.683L3.025,-4.582L5.086,-10.421L9.844,-9.065L11.354,-5.356L14.615,-3.724L7.513,7.738L0,-2.683Z" style="fill:rgb(164,139,128);fill-rule:nonzero;"/>
        </g>
        <g transform="matrix(0.999818,-0.0190954,-0.0190954,-0.999818,27.4207,196.838)">
            <path d="M0.031,0.142L14.904,0.142L14.833,-3.545L0.06,-3.256L0.031,0.142Z" style="fill:rgb(42,43,42);fill-rule:nonzero;"/>
        </g>
        <g transform="matrix(0.186488,0.982457,0.982457,-0.186488,49.0828,176.948)">
            <path d="M-5.49,-0.245L1.507,-0.245L0.052,-7.913L-6.563,-5.894L-5.49,-0.245Z" style="fill:rgb(102,153,68);fill-rule:nonzero;"/>
        </g>
        <g transform="matrix(1,0,0,1,43.1502,98.5797)">
            <path d="M0,-6.327L-2.834,-8.216L-4.895,-14.055L-9.652,-12.698L-11.162,-8.989L-14.424,-7.357L-7.518,7.728L0,-6.327Z" style="fill:rgb(110,90,77);fill-rule:nonzero;"/>
        </g>
        <g transform="matrix(0.103177,0.994663,0.994663,-0.103177,55.9409,105.513)">
            <path d="M-6.98,-11.234L16.572,-11.234L15.748,-8.082L-11.045,-7.282L-6.98,-11.234Z" style="fill:rgb(110,90,77);fill-rule:nonzero;"/>
        </g>
        <g transform="matrix(1,0,0,1,39.2352,171.599)">
            <path d="M0,-11.667L2.833,0L8.583,0L9.167,-11.5" style="fill:rgb(110,90,77);fill-rule:nonzero;"/>
        </g>
        <g transform="matrix(-0.0414019,0.999143,0.999143,0.0414019,34.948,110.467)">
            <path d="M-12.835,-8.859L12.454,-8.859L12.352,-12.154L-16.804,-11.964L-12.835,-8.859Z" style="fill:rgb(110,90,77);fill-rule:nonzero;"/>
        </g>
        <g transform="matrix(1,0,0,1,23.7235,158.214)">
            <path d="M0,-65.083L5.702,-67.435L7.976,-61.832L16.028,-61.599L18.736,-66.593L23.926,-63.03L20.441,-58.425L20.008,-43.031L27.216,2.119L-2.631,2.352L4.258,-42.531L2.944,-60.902L0,-65.083Z" style="fill:rgb(113,151,79);fill-rule:nonzero;"/>
        </g>
        <g transform="matrix(1,0,0,1,45.7352,63.4206)">
            <path d="M0,37.583L-2.605,0.125L-10.066,-3.296L-10.059,-3.417L-18.284,0.833L-19.458,37.251L-15.714,40.5L-3.173,41L0,37.583Z" style="fill:rgb(42,43,42);fill-rule:nonzero;"/>
        </g>
        <g transform="matrix(1,0,0,1,32.0086,197.204)">
            <path d="M0,6.016L1.711,7.896L4.505,7.896L6.16,5.778L5.933,-0.799L4.221,-1.88L1.485,-1.88L-0.057,-0.561L0,6.016Z" style="fill:rgb(93,95,96);fill-rule:nonzero;"/>
        </g>
    </g>
</svg>
