<?xml version="1.0" encoding="UTF-8" standalone="no"?><!DOCTYPE svg PUBLIC "-//W3C//DTD SVG 1.1//EN" "http://www.w3.org/Graphics/SVG/1.1/DTD/svg11.dtd"><svg width="100%" height="100%" viewBox="0 0 87 72" version="1.1" xmlns="http://www.w3.org/2000/svg" xmlns:xlink="http://www.w3.org/1999/xlink" xml:space="preserve" style="fill-rule:evenodd;clip-rule:evenodd;stroke-linejoin:round;stroke-miterlimit:1.41421;"><g id="guidebook.-yep.-example.-contrast"><g><path d="M13.84,53.881l0.328,2.393l-2.333,-0.06l-0.179,-2.572l2.184,0.239Z" style="fill:#2a2b2a;fill-rule:nonzero;"/><path d="M10.057,57.097l-0.48,3.156l0.27,0.762l1.839,0l0.471,-3.478l-2.1,-0.44Z" style="fill:#2a2b2a;fill-rule:nonzero;"/><path d="M8.904,17.087l0.988,-0.658l0.717,-2.033l1.658,0.472l0.526,1.292l1.137,0.568l-2.475,3.993l-2.551,-3.634Z" style="fill:#ceab97;fill-rule:nonzero;"/><path d="M10.574,15.845l1.493,0l1.608,-2.068l-0.287,-4.422l-2.868,-0.479l-1.783,0.709l0.058,4.192l1.779,2.068Z" style="fill:#e1c5b5;fill-rule:nonzero;"/><path d="M9.652,8.951l0.15,-0.598l4.813,0.465l0.401,3.424l-1.49,0.09l-1.167,-2.379l-2.168,-0.314l-0.539,-0.688Z" style="fill:#543e36;fill-rule:nonzero;"/><path d="M13.496,11.183l0.983,0.016l0.078,1.713l-1.004,-0.052l-0.057,-1.677Z" style="fill:#e1c5b5;fill-rule:nonzero;"/><path d="M10.205,9.639l-1.211,0.493l-0.224,2.154l-1.761,0.224l0.202,-2.836l2.613,-1.306l0.381,1.271Z" style="fill:#543e36;fill-rule:nonzero;"/><path d="M8.867,11.416l-0.993,0.27l0.078,1.436l0.877,0.034l0.038,-1.74Z" style="fill:#e1c5b5;fill-rule:nonzero;"/><path d="M15.464,30.369l-1.624,23.511l-1.885,0l-0.418,-19.981l0.973,9.217l-0.375,14.444l-2.064,-0.449l-1.078,-13.909l-1.405,-12.654l7.876,-0.179Z" style="fill:#5c5e5f;fill-rule:nonzero;"/><path d="M11.726,33.864l0.948,9.966l-0.447,10.053l1.852,-3.508l0.898,-13.304l-3.251,-3.207Z" style="fill:#2a2b2a;fill-rule:nonzero;"/><path d="M5.043,28.962l-0.819,2.009l0.157,2.784l0.925,-0.355l0.189,-2.351l-0.077,0.71l0.836,0.036l-0.304,-1.932l-0.907,-0.901Z" style="fill:#e1c5b5;fill-rule:nonzero;"/><path d="M17.621,29.058l0.619,1.56l-0.055,2.571l-1.01,-0.133l-0.205,-2.35l0.081,0.708l-0.869,0.12l0.292,-1.948l1.147,-0.528Z" style="fill:#e1c5b5;fill-rule:nonzero;"/><path d="M13.975,16.684l2.168,0.942l1.553,11.726l-1.256,0.209l-1.433,-10.32l0.478,11.128l-7.897,0.179l0.658,-10.349l-2.273,9.691l-1.152,-0.509l2.049,-11.097l2.034,-1.242l2.917,2.962l2.154,-3.32Z" style="fill:#f4f2ed;fill-rule:nonzero;"/></g><g><clipPath id="_clip1"><path d="M28.31,34.724c0,14.74 11.949,26.69 26.69,26.69c14.741,0 26.69,-11.95 26.69,-26.69c0,-14.741 -11.949,-26.691 -26.69,-26.691c-14.741,0 -26.69,11.95 -26.69,26.691Z"/></clipPath><g clip-path="url(#_clip1)"><path d="M71.559,22.86l-5.905,85.504l-6.855,0l-1.521,-72.669l3.541,33.522l-1.366,52.527l-7.505,-1.632l-3.919,-50.583l-5.111,-46.02l28.641,-0.649Z" style="fill:#5c5e5f;fill-rule:nonzero;"/><path d="M57.967,35.568l3.445,36.244l-1.622,36.562l6.735,-12.76l3.264,-48.383l-11.822,-11.663Z" style="fill:#2a2b2a;fill-rule:nonzero;"/><path d="M33.661,17.739l-2.977,7.307l0.571,10.126l3.363,-1.29l0.685,-8.549l-0.277,2.578l3.039,0.134l-1.104,-7.03l-3.3,-3.276Z" style="fill:#e1c5b5;fill-rule:nonzero;"/><path d="M79.405,18.091l2.25,5.673l-0.197,9.349l-3.675,-0.484l-0.746,-8.545l0.295,2.574l-3.159,0.437l1.06,-7.087l4.172,-1.917Z" style="fill:#e1c5b5;fill-rule:nonzero;"/><path d="M66.144,-26.913l7.886,3.427l5.649,42.645l-4.568,0.759l-5.214,-37.531l1.741,40.47l-28.719,0.653l2.392,-37.639l-8.266,35.245l-4.19,-1.849l7.452,-40.36l7.397,-4.516l10.606,10.771l7.834,-12.075Z" style="fill:#f4f2ed;fill-rule:nonzero;"/></g></g></g></svg>