<?xml version="1.0" encoding="UTF-8" standalone="no"?><!DOCTYPE svg PUBLIC "-//W3C//DTD SVG 1.1//EN" "http://www.w3.org/Graphics/SVG/1.1/DTD/svg11.dtd"><svg width="100%" height="100%" viewBox="0 0 360 192" version="1.1" xmlns="http://www.w3.org/2000/svg" xmlns:xlink="http://www.w3.org/1999/xlink" xml:space="preserve" style="fill-rule:evenodd;clip-rule:evenodd;stroke-miterlimit:10;"><g id="guidebook.-example.-brick.-trapezoid"><path d="M4.765,25.246l0,6.441l217.214,-0.001l2.983,-6.503l-220.197,0.063Z" style="fill:#cead80;fill-rule:nonzero;"/><path d="M223.48,8.08l0.009,7.856l-218.724,-0.424l0,9.895l220.207,-0.063l3.097,-9.405l0,-7.859l-4.589,0Z" style="fill:#f6f1e1;fill-rule:nonzero;"/><path d="M4.765,31.664l0,153.862l217.222,0l0,-153.881l-217.222,0.019Z" style="fill:#cead80;fill-rule:nonzero;"/><path d="M4.765,31.664l0,153.862l217.209,0l0.005,-153.838l-106.454,-0.034l-110.76,0.01Z" style="fill:#ecdbb1;fill-rule:nonzero;"/><path d="M19.256,124.438l33.918,0.041l0.022,-40.006l-33.986,-0.018l0.046,39.983Z" style="fill:#f6f1e1;fill-rule:nonzero;"/><path d="M22.984,120.686l26.412,0.085l0,-32.169l-26.412,-0.028l0,32.112Z" style="fill:#313156;fill-rule:nonzero;"/><path d="M133.228,74.575l-43.802,-0.04l0.063,95.242l47.724,0.098l0,-0.09l43.803,0.09l0.031,-95.296l-47.819,-0.044l0,0.04Z" style="fill:#f6f1e1;fill-rule:nonzero;"/><path d="M137.149,166.149l40.257,0.108l0,-41.711l-40.406,-0.036l0.149,41.639Z" style="fill:#313156;fill-rule:nonzero;"/><path d="M136.979,78.676l0.015,30.35l0.006,11.842l40.429,-0.039l-0.023,-42.594l-40.427,0.441Z" style="fill:#313156;fill-rule:nonzero;"/><path d="M93.199,166.149l40.087,0.108l0.319,-41.711l-40.406,-0.036l0,41.639Z" style="fill:#313156;fill-rule:nonzero;"/><path d="M93.179,78.676l0.02,42.19l40.428,-0.037l-0.006,-11.688l-0.017,-30.906l-40.425,0.441Z" style="fill:#313156;fill-rule:nonzero;"/><rect x="92.809" y="120.858" width="40.963" height="3.553" style="fill:#f6f1e1;fill-rule:nonzero;"/><g><g opacity="0.300003"><clipPath id="_clip1"><rect x="25.615" y="96.954" width="23.769" height="23.781"/></clipPath><g clip-path="url(#_clip1)"><path d="M49.37,96.954l-23.754,23.732l23.769,0.049l-0.015,-23.781Z" style="fill:#0a1723;fill-rule:nonzero;"/></g></g></g><path d="M59.033,78.277l-2.595,6.225l-40.846,0l-2.595,-6.225l46.036,0Z" style="fill:#cead80;fill-rule:nonzero;"/><path d="M83.529,68.352l2.595,6.227l98.619,0l2.594,-6.227l-103.808,0Z" style="fill:#cead80;fill-rule:nonzero;"/><path d="M4.765,25.375l0,6.3l7.54,-0.013l-1.046,-6.308l-6.494,0.021Z" style="fill:#f6f1e1;fill-rule:nonzero;"/><path d="M40.213,25.376l-0.964,6.301l8.795,-0.016l-1.046,-6.307l-6.785,0.022Z" style="fill:#f6f1e1;fill-rule:nonzero;"/><path d="M75.52,25.376l-0.963,6.301l8.795,-0.016l-1.046,-6.307l-6.786,0.022Z" style="fill:#f6f1e1;fill-rule:nonzero;"/><path d="M111.26,25.376l-0.962,6.301l8.793,-0.016l-1.045,-6.307l-6.786,0.022Z" style="fill:#f6f1e1;fill-rule:nonzero;"/><path d="M146.915,25.376l-0.963,6.301l8.795,-0.016l-1.048,-6.307l-6.784,0.022Z" style="fill:#f6f1e1;fill-rule:nonzero;"/><path d="M182.654,25.376l-0.963,6.301l8.795,-0.016l-1.046,-6.307l-6.786,0.022Z" style="fill:#f6f1e1;fill-rule:nonzero;"/><path d="M217.904,25.376l-0.963,6.301l9.055,-0.016l-1.045,-6.307l-7.047,0.022Z" style="fill:#f6f1e1;fill-rule:nonzero;"/><rect x="4.764" y="31.689" width="222.326" height="3.635" style="fill:#cead80;fill-rule:nonzero;"/><path d="M4.765,31.683l9.533,-0.018l-2.165,-6.509l-7.368,-0.025l0,6.552Z" style="fill:#f6f1e1;fill-rule:nonzero;"/><path d="M47.959,25.156l2.165,6.509l-12.94,0.024l2.107,-6.563l8.668,0.03Z" style="fill:#f6f1e1;fill-rule:nonzero;"/><path d="M83.181,25.156l2.165,6.509l-12.94,0.024l2.106,-6.563l8.669,0.03Z" style="fill:#f6f1e1;fill-rule:nonzero;"/><path d="M118.921,25.156l2.166,6.509l-12.941,0.024l2.106,-6.563l8.669,0.03Z" style="fill:#f6f1e1;fill-rule:nonzero;"/><path d="M154.575,25.156l2.165,6.509l-12.94,0.024l2.107,-6.563l8.668,0.03Z" style="fill:#f6f1e1;fill-rule:nonzero;"/><path d="M224.931,25.156l2.164,6.509l-12.94,0.024l2.107,-6.563l8.669,0.03Z" style="fill:#f6f1e1;fill-rule:nonzero;"/><path d="M190.315,25.156l2.165,6.509l-12.94,0.024l2.106,-6.563l8.669,0.03Z" style="fill:#f6f1e1;fill-rule:nonzero;"/><g><g opacity="0.300003"><path d="M177.504,158.529l0.022,-76.151l-80.039,76.433l80.017,-0.282Z" style="fill:#0a1723;fill-rule:nonzero;"/></g></g><path d="M101.148,159.248l76.376,-76.581l0.01,0.012l0.011,-3.776l-0.4,-0.008l-80.224,80.337l4.227,0.016Z" style="fill:#494a72;fill-rule:nonzero;"/><g><g opacity="0.300003"><clipPath id="_clip2"><rect x="93.299" y="78.465" width="24.75" height="25.026"/></clipPath><g clip-path="url(#_clip2)"><path d="M93.3,103.491l0,-25.025l24.75,0.264" style="fill:#0a1723;fill-rule:nonzero;"/></g></g></g><rect x="133.486" y="77.873" width="3.751" height="76.154" style="fill:#f6f1e1;fill-rule:nonzero;"/><rect x="92.928" y="120.736" width="84.607" height="3.751" style="fill:#f6f1e1;fill-rule:nonzero;"/><path d="M182.9,167.355l-0.292,2.561l-6.616,6.611l-99.52,0l15.489,-15.49" style="fill:#e0cea8;fill-rule:nonzero;"/><path d="M88.448,169.892l94.299,0l4.366,-11.77l-103.157,0l4.492,11.77Z" style="fill:#cead80;fill-rule:nonzero;"/><path d="M91.4,158.114l6.057,-2.914l9.566,-1.205l4.128,-2.304l2.229,2.239l1.385,-1.382l8.935,-1.076l1.969,1.955l0.806,-2.268l2.498,0.568l0.805,-2.265l4.655,1.842l0.967,0.189l10.292,-2.259l4.877,4.859l13.699,-2.267l4.611,-3.894l4.091,4.462l6.448,1.321l1.29,4.432l-89.308,-0.033Z" style="fill:#679a45;fill-rule:nonzero;"/><path d="M135.999,158.126l0.474,-1.242l8.753,-0.391l0.894,-1.384l3.03,3.014l-13.151,0.003Z" style="fill:#35813f;fill-rule:nonzero;"/><path d="M161.722,158.205l0.482,-1.321l6.85,-2.338l1.269,1.673l4.558,1.904l-13.159,0.082Z" style="fill:#35813f;fill-rule:nonzero;"/><path d="M108.166,158.13l2.424,-2.711l3.061,0.709l7.778,-0.197l2.79,2.183l-6.821,0.016l-9.232,0Z" style="fill:#35813f;fill-rule:nonzero;"/><path d="M155.533,145.458l1.594,0l0.293,10.124l-3.082,0.478l1.195,-10.602Z" style="fill:#679a45;fill-rule:nonzero;"/><path d="M143.949,129.511l1.648,-0.162l0.066,21.009l-3.085,0.726l1.371,-21.573Z" style="fill:#679a45;fill-rule:nonzero;"/><path d="M165.266,134.202l1.65,-0.175l-0.002,18.571l-3.088,0.805l1.44,-19.201Z" style="fill:#679a45;fill-rule:nonzero;"/><path d="M161.802,134.64l-2.165,-6.51l12.94,-0.023l-2.106,6.562l-8.669,-0.029Z" style="fill:#ae2025;fill-rule:nonzero;"/><path d="M140.339,129.449l-2.165,-6.509l12.941,-0.024l-2.107,6.56l-8.669,-0.027Z" style="fill:#ae2025;fill-rule:nonzero;"/><path d="M151.936,145.546l-2.165,-6.509l12.94,-0.026l-2.107,6.562l-8.668,-0.027Z" style="fill:#ae2025;fill-rule:nonzero;"/><path d="M101.015,142.689l1.594,0l0.291,13.265l-3.081,0.625l1.196,-13.89Z" style="fill:#679a45;fill-rule:nonzero;"/><path d="M97.417,142.777l-2.165,-6.51l12.94,-0.024l-2.106,6.561l-8.669,-0.027Z" style="fill:#ae2025;fill-rule:nonzero;"/><path d="M128.187,146.843l1.594,0l0.293,10.124l-3.083,0.477l1.196,-10.601Z" style="fill:#679a45;fill-rule:nonzero;"/><path d="M116.601,136.607l1.649,-0.161l0.066,16.592l-3.085,0.727l1.37,-17.158Z" style="fill:#679a45;fill-rule:nonzero;"/><path d="M112.994,136.545l-2.165,-6.509l12.94,-0.025l-2.107,6.563l-8.668,-0.029Z" style="fill:#ae2025;fill-rule:nonzero;"/><path d="M124.59,146.929l-2.164,-6.51l12.939,-0.024l-2.106,6.563l-8.669,-0.029Z" style="fill:#ae2025;fill-rule:nonzero;"/><path d="M306.82,45.316l-15.155,-0.787l-0.149,5.545l-2.998,-0.448l0.015,-9.402l18.436,1.946l-0.149,3.146Z" style="fill:#2a2b2a;fill-rule:nonzero;"/><path d="M286.269,49.176l0.599,22.933l10.642,1.5l1.949,-22.334l-13.19,-2.099Z" style="fill:#2a2b2a;fill-rule:nonzero;"/><path d="M308.065,185.081l13.789,0l2.848,-13.94l-17.837,0.151l1.2,13.789Z" style="fill:#5c5e5f;fill-rule:nonzero;"/><path d="M321.255,170.991l0.599,14.09l4.268,-14.09l-4.867,0Z" style="fill:#2a2b2a;fill-rule:nonzero;"/><path d="M303.483,40.879l3.29,130.403l48.463,0l0,-130.835l-51.753,0.432Z" style="fill:#e4e2dc;fill-rule:nonzero;"/><path d="M321.658,15.161l-18.295,11.391l0,14.99l51.872,-0.024l0,-26.357l-33.577,0Z" style="fill:#e4e2dc;fill-rule:nonzero;"/><path d="M317.929,40.908l37.306,-0.083l0,-17.361l-37.336,-0.052l0.03,17.496Z" style="fill:#2a2b2a;fill-rule:nonzero;"/><path d="M308.776,118.296l46.459,-0.104l0,-71.117l-47.809,-0.263l1.35,71.484Z" style="fill:#313156;fill-rule:nonzero;"/><g><g opacity="0.300003"><clipPath id="_clip3"><rect x="307.426" y="46.811" width="51.143" height="50.435"/></clipPath><g clip-path="url(#_clip3)"><path d="M307.426,46.811l0.985,50.435l50.158,-50.116l-51.143,-0.319Z" style="fill:#0a1723;fill-rule:nonzero;"/></g></g></g><path d="M321.473,27.12l0.02,5.864l5.77,0.075l0.019,4.872l2.154,-0.02l-0.001,-10.773l-2.228,0l-0.018,3.749l-3.635,0l0,-3.749l-2.081,-0.018Z" style="fill:#ef9c74;fill-rule:nonzero;"/><g><g opacity="0.300003"><clipPath id="_clip4"><rect x="286.269" y="49.249" width="13.19" height="5.396"/></clipPath><g clip-path="url(#_clip4)"><path d="M286.269,49.25l0.15,5.321l12.74,0.075l0.3,-3.372l-13.19,-2.024Z" style="fill:#5c5e5f;fill-rule:nonzero;"/></g></g></g><path d="M347.627,153.813l2.217,6.666l-13.251,0.025l2.157,-6.719l8.877,0.028Z" style="fill:#c1bebb;fill-rule:nonzero;"/><path d="M334.803,160.475l2.217,-6.666l-13.251,-0.024l2.157,6.719l8.877,-0.029Z" style="fill:#f6f1e1;fill-rule:nonzero;"/><path d="M317.433,153.695l2.217,6.666l-13.251,0.024l-0.16,-6.705l11.194,0.015Z" style="fill:#ef9c74;fill-rule:nonzero;"/><path d="M113.476,140.524c0,6.627 -5.373,12 -12,12c-6.627,0 -12,-5.373 -12,-12c0,-6.627 5.373,-12 12,-12c6.627,0 12,5.373 12,12Z" style="fill:none;stroke:#db00e9;stroke-width:2px;"/><path d="M89.476,28.524c0,6.627 -5.373,12 -12,12c-6.627,0 -12,-5.373 -12,-12c0,-6.627 5.373,-12 12,-12c6.627,0 12,5.373 12,12Z" style="fill:none;stroke:#db00e9;stroke-width:2px;"/><path d="M324.089,156.444c0,6.627 -5.372,12 -12,12c-6.627,0 -12,-5.373 -12,-12c0,-6.627 5.373,-12 12,-12c6.628,0 12,5.373 12,12Z" style="fill:none;stroke:#db00e9;stroke-width:2px;"/></g></svg>