<?xml version="1.0" encoding="UTF-8" standalone="no"?><!DOCTYPE svg PUBLIC "-//W3C//DTD SVG 1.1//EN" "http://www.w3.org/Graphics/SVG/1.1/DTD/svg11.dtd"><svg width="100%" height="100%" viewBox="0 0 87 72" version="1.1" xmlns="http://www.w3.org/2000/svg" xmlns:xlink="http://www.w3.org/1999/xlink" xml:space="preserve" style="fill-rule:evenodd;clip-rule:evenodd;stroke-linejoin:round;stroke-miterlimit:1.41421;"><g id="guidebook.-nope.-example.-contrast"><g><path d="M74.884,53.88l0.328,2.393l-2.333,-0.059l-0.179,-2.572l2.184,0.238Z" style="fill:#2a2b2a;fill-rule:nonzero;"/><path d="M71.101,57.096l-0.48,3.156l0.269,0.763l1.84,0l0.471,-3.478l-2.1,-0.441Z" style="fill:#2a2b2a;fill-rule:nonzero;"/><path d="M69.948,17.087l0.987,-0.658l0.718,-2.033l1.658,0.471l0.526,1.292l1.136,0.569l-2.474,3.993l-2.551,-3.634Z" style="fill:#ceab97;fill-rule:nonzero;"/><path d="M71.618,15.845l1.493,0l1.608,-2.068l-0.287,-4.422l-2.869,-0.479l-1.782,0.709l0.057,4.192l1.78,2.068Z" style="fill:#e1c5b5;fill-rule:nonzero;"/><path d="M70.696,8.951l0.15,-0.598l4.813,0.465l0.401,3.423l-1.491,0.091l-1.166,-2.38l-2.169,-0.314l-0.538,-0.687Z" style="fill:#543e36;fill-rule:nonzero;"/><path d="M74.539,11.182l0.984,0.017l0.078,1.713l-1.004,-0.053l-0.058,-1.677Z" style="fill:#e1c5b5;fill-rule:nonzero;"/><path d="M71.249,9.639l-1.212,0.493l-0.223,2.154l-1.761,0.224l0.202,-2.836l2.613,-1.307l0.381,1.272Z" style="fill:#543e36;fill-rule:nonzero;"/><path d="M69.91,11.416l-0.992,0.27l0.078,1.436l0.877,0.034l0.037,-1.74Z" style="fill:#e1c5b5;fill-rule:nonzero;"/><path d="M76.508,30.369l-1.624,23.511l-1.885,0l-0.418,-19.982l0.973,9.218l-0.375,14.444l-2.064,-0.449l-1.078,-13.91l-1.405,-12.653l7.876,-0.179Z" style="fill:#f4f2ed;fill-rule:nonzero;"/><path d="M72.77,33.863l0.948,9.966l-0.447,10.054l1.852,-3.508l0.897,-13.304l-3.25,-3.208Z" style="fill:#e4e2dc;fill-rule:nonzero;"/><path d="M66.087,28.961l-0.819,2.01l0.157,2.784l0.925,-0.355l0.188,-2.351l-0.076,0.709l0.836,0.037l-0.304,-1.933l-0.907,-0.901Z" style="fill:#e1c5b5;fill-rule:nonzero;"/><path d="M78.665,29.058l0.619,1.56l-0.055,2.57l-1.01,-0.132l-0.205,-2.35l0.081,0.708l-0.869,0.12l0.292,-1.949l1.147,-0.527Z" style="fill:#e1c5b5;fill-rule:nonzero;"/><path d="M75.019,16.683l2.168,0.942l1.553,11.727l-1.256,0.208l-1.433,-10.319l0.478,11.127l-7.897,0.18l0.658,-10.35l-2.273,9.692l-1.152,-0.509l2.049,-11.097l2.034,-1.242l2.917,2.961l2.154,-3.32Z" style="fill:#5c5e5f;fill-rule:nonzero;"/></g><g><clipPath id="_clip1"><path d="M-0.154,34.724c0,14.74 11.95,26.69 26.691,26.69c14.741,0 26.69,-11.95 26.69,-26.69c0,-14.741 -11.949,-26.691 -26.69,-26.691c-14.741,0 -26.691,11.95 -26.691,26.691Z"/></clipPath><g clip-path="url(#_clip1)"><path d="M43.096,22.86l-5.905,85.504l-6.855,0l-1.522,-72.669l3.541,33.521l-1.365,52.528l-7.506,-1.632l-3.918,-50.584l-5.111,-46.018l28.641,-0.65Z" style="fill:#f4f2ed;fill-rule:nonzero;"/><path d="M29.504,35.568l3.445,36.244l-1.623,36.562l6.736,-12.76l3.263,-48.383l-11.821,-11.663Z" style="fill:#e4e2dc;fill-rule:nonzero;"/><path d="M5.197,17.74l-2.976,7.307l0.571,10.125l3.363,-1.29l0.685,-8.549l-0.277,2.578l3.039,0.133l-1.105,-7.029l-3.3,-3.275Z" style="fill:#e1c5b5;fill-rule:nonzero;"/><path d="M50.941,18.091l2.251,5.673l-0.198,9.349l-3.675,-0.484l-0.745,-8.545l0.295,2.575l-3.16,0.436l1.06,-7.087l4.172,-1.917Z" style="fill:#e1c5b5;fill-rule:nonzero;"/><path d="M37.681,-26.912l7.886,3.426l5.649,42.644l-4.569,0.761l-5.213,-37.532l1.74,40.47l-28.719,0.653l2.392,-37.64l-8.266,35.245l-4.19,-1.848l7.452,-40.36l7.397,-4.516l10.606,10.771l7.835,-12.074Z" style="fill:#5c5e5f;fill-rule:nonzero;"/></g></g></g></svg>