<?xml version="1.0" encoding="UTF-8" standalone="no"?>
<!DOCTYPE svg PUBLIC "-//W3C//DTD SVG 1.1//EN" "http://www.w3.org/Graphics/SVG/1.1/DTD/svg11.dtd">
<svg width="100%" height="100%" viewBox="0 0 360 300" version="1.1" xmlns="http://www.w3.org/2000/svg" xmlns:xlink="http://www.w3.org/1999/xlink" xml:space="preserve" xmlns:serif="http://www.serif.com/" style="fill-rule:evenodd;clip-rule:evenodd;stroke-linejoin:round;stroke-miterlimit:1.41421;">
    <g id="guidebook-yep-example-contrast" transform="matrix(1,0,0,1,0,-134.571)">
        <g transform="matrix(1,0,0,1,6,-8)">
            <g transform="matrix(2.24665,0,0,2.24665,-448.222,-105.301)">
                <path d="M222.504,210.258L223.113,214.697L218.786,214.586L218.453,209.816L222.504,210.258Z" style="fill:rgb(42,43,42);fill-rule:nonzero;"/>
            </g>
            <g transform="matrix(2.24665,0,0,2.24665,-448.222,-105.301)">
                <path d="M215.488,216.222L214.598,222.075L215.098,223.489L218.509,223.489L219.383,217.039L215.488,216.222Z" style="fill:rgb(42,43,42);fill-rule:nonzero;"/>
            </g>
            <g transform="matrix(2.24665,0,0,2.24665,-448.222,-105.301)">
                <path d="M213.35,142.02L215.181,140.8L216.512,137.028L219.586,137.904L220.562,140.3L222.67,141.354L218.08,148.76L213.35,142.02Z" style="fill:rgb(206,171,151);fill-rule:nonzero;"/>
            </g>
            <g transform="matrix(2.24665,0,0,2.24665,-448.222,-105.301)">
                <path d="M216.447,139.717L219.216,139.717L222.199,135.882L221.666,127.681L216.346,126.792L213.041,128.107L213.147,135.882L216.447,139.717Z" style="fill:rgb(225,197,181);fill-rule:nonzero;"/>
            </g>
            <g transform="matrix(2.24665,0,0,2.24665,-448.222,-105.301)">
                <path d="M214.737,126.93L215.015,125.821L223.942,126.684L224.685,133.034L221.921,133.2L219.758,128.788L215.736,128.206L214.737,126.93Z" style="fill:rgb(84,62,54);fill-rule:nonzero;"/>
            </g>
            <g transform="matrix(2.24665,0,0,2.24665,-448.222,-105.301)">
                <path d="M221.865,131.07L223.689,131.1L223.833,134.276L221.972,134.18L221.865,131.07Z" style="fill:rgb(225,197,181);fill-rule:nonzero;"/>
            </g>
            <g transform="matrix(2.24665,0,0,2.24665,-448.222,-105.301)">
                <path d="M215.763,128.207L213.516,129.122L213.101,133.116L209.835,133.532L210.211,128.272L215.057,125.849L215.763,128.207Z" style="fill:rgb(84,62,54);fill-rule:nonzero;"/>
            </g>
            <g transform="matrix(2.24665,0,0,2.24665,-448.222,-105.301)">
                <path d="M213.28,131.503L211.44,132.003L211.584,134.667L213.211,134.73L213.28,131.503Z" style="fill:rgb(225,197,181);fill-rule:nonzero;"/>
            </g>
            <g transform="matrix(2.24665,0,0,2.24665,-448.222,-105.301)">
                <path d="M225.516,166.653L222.504,210.257L219.009,210.257L218.233,173.199L220.038,190.294L219.342,217.081L215.515,216.249L213.516,190.453L210.91,166.985L225.516,166.653Z" style="fill:rgb(92,94,95);fill-rule:nonzero;"/>
            </g>
            <g transform="matrix(2.24665,0,0,2.24665,-448.222,-105.301)">
                <path d="M218.584,173.135L220.341,191.618L219.513,210.263L222.948,203.757L224.612,179.083L218.584,173.135Z" style="fill:rgb(42,43,42);fill-rule:nonzero;"/>
            </g>
            <g transform="matrix(2.24665,0,0,2.24665,-448.222,-105.301)">
                <path d="M206.189,164.043L204.671,167.769L204.962,172.933L206.677,172.275L207.027,167.915L206.885,169.23L208.435,169.298L207.872,165.714L206.189,164.043Z" style="fill:rgb(225,197,181);fill-rule:nonzero;"/>
            </g>
            <g transform="matrix(2.24665,0,0,2.24665,-448.222,-105.301)">
                <path d="M229.516,164.221L230.664,167.115L230.563,171.882L228.689,171.635L228.309,167.278L228.459,168.59L226.848,168.813L227.389,165.2L229.516,164.221Z" style="fill:rgb(225,197,181);fill-rule:nonzero;"/>
            </g>
            <g transform="matrix(2.24665,0,0,2.24665,-448.222,-105.301)">
                <path d="M222.754,141.272L226.775,143.019L229.656,164.766L227.327,165.154L224.668,146.014L225.555,166.652L210.91,166.985L212.13,147.791L207.914,165.764L205.777,164.821L209.578,144.239L213.35,141.936L218.759,147.429L222.754,141.272Z" style="fill:rgb(244,242,237);fill-rule:nonzero;"/>
            </g>
        </g>
        <g transform="matrix(2.24665,0,0,2.24665,-448.222,-105.301)">
            <path d="M252.011,171.168C252.011,198.506 274.172,220.668 301.511,220.668C328.849,220.668 351.011,198.506 351.011,171.168C351.011,143.83 328.849,121.668 301.511,121.668C274.172,121.668 252.011,143.83 252.011,171.168Z" style="fill:white;fill-opacity:0.3;"/>
        </g>
        <g transform="matrix(2.24665,0,0,2.24665,-448.222,-105.301)">
            <clipPath id="_clip1">
                <path d="M252.011,171.168C252.011,198.506 274.172,220.668 301.511,220.668C328.849,220.668 351.011,198.506 351.011,171.168C351.011,143.83 328.849,121.668 301.511,121.668C274.172,121.668 252.011,143.83 252.011,171.168Z"/>
            </clipPath>
            <g clip-path="url(#_clip1)">
                <path d="M332.222,149.165L321.27,307.743L308.557,307.743L305.736,172.97L312.303,235.14L309.77,332.558L295.85,329.53L288.583,235.718L279.104,150.37L332.222,149.165Z" style="fill:rgb(92,94,95);fill-rule:nonzero;"/>
                <path d="M307.013,172.733L313.403,239.952L310.393,307.761L322.885,284.096L328.938,194.364L307.013,172.733Z" style="fill:rgb(42,43,42);fill-rule:nonzero;"/>
                <path d="M261.934,139.669L256.413,153.22L257.473,171.999L263.71,169.608L264.981,153.753L264.466,158.534L270.102,158.782L268.055,145.744L261.934,139.669Z" style="fill:rgb(225,197,181);fill-rule:nonzero;"/>
                <path d="M346.771,140.321L350.945,150.842L350.579,168.18L343.763,167.284L342.381,151.435L342.928,156.21L337.068,157.02L339.034,143.876L346.771,140.321Z" style="fill:rgb(225,197,181);fill-rule:nonzero;"/>
                <path d="M322.179,56.856L336.804,63.211L347.281,142.301L338.808,143.71L329.139,74.104L332.367,149.159L279.104,150.37L283.541,80.565L268.21,145.93L260.439,142.502L274.26,67.65L287.979,59.275L307.649,79.251L322.179,56.856Z" style="fill:rgb(244,242,237);fill-rule:nonzero;"/>
            </g>
        </g>
    </g>
</svg>
