<?xml version="1.0" encoding="UTF-8" standalone="no"?><!DOCTYPE svg PUBLIC "-//W3C//DTD SVG 1.1//EN" "http://www.w3.org/Graphics/SVG/1.1/DTD/svg11.dtd"><svg width="100%" height="100%" viewBox="0 0 360 192" version="1.1" xmlns="http://www.w3.org/2000/svg" xmlns:xlink="http://www.w3.org/1999/xlink" xml:space="preserve" style="fill-rule:evenodd;clip-rule:evenodd;stroke-miterlimit:10;"><g id="guidebook.-example.-platter"><path d="M115.893,122.28l10.565,-1.896l2.167,-5.633l-11.811,-2.061l-0.975,5.202l-1.796,1.81l1.85,2.578Z" style="fill:#e4e2dc;fill-rule:nonzero;"/><path d="M115.904,122.283l-1.801,-2.704l1.748,-1.691l0.982,-5.183l1.004,0.161l5.125,8.128l-7.058,1.289Z" style="fill:#c1bebb;fill-rule:nonzero;"/><path d="M17.144,114.678l2.167,5.633l10.566,1.897l1.849,-2.578l-1.796,-1.811l-0.975,-5.201l-11.811,2.06Z" style="fill:#e4e2dc;fill-rule:nonzero;"/><path d="M29.889,122.206l1.801,-2.704l-1.749,-1.691l-0.982,-5.183l-1.004,0.161l-5.139,8.15l7.073,1.267Z" style="fill:#c1bebb;fill-rule:nonzero;"/><path d="M20.155,170.631l1.3,15.116l14.954,0l3.088,-15.279l-19.342,0.163Z" style="fill:#5c5e5f;fill-rule:nonzero;"/><path d="M35.759,170.468l0.65,15.28l4.638,-15.28l-5.288,0Z" style="fill:#2a2b2a;fill-rule:nonzero;"/><path d="M107.974,185.747l14.976,0l1.3,-14.953l-19.343,-0.164l3.067,15.117Z" style="fill:#5c5e5f;fill-rule:nonzero;"/><path d="M103.358,170.631l4.616,15.116l0.672,-15.116l-5.288,0Z" style="fill:#2a2b2a;fill-rule:nonzero;"/><path d="M39.951,93.56l-21.762,43.21l1.95,33.817l1.462,0.006l102.655,0.362l2.938,-33.975l-21.287,-43.42l-65.956,0Z" style="fill:#e4e2dc;fill-rule:nonzero;"/><path d="M42.652,96.728l-12.096,23.234l83.529,0l-10.58,-23.234l-60.853,0Z" style="fill:#313156;fill-rule:nonzero;"/><g><g opacity="0.300003"><path d="M42.68,96.728l-12.124,23.234l21.652,0l23.15,-23.234l-32.678,0Z" style="fill:#0f2342;fill-rule:nonzero;"/></g></g><g><g opacity="0.300003"><path d="M103.537,96.728l-2.83,0l-23.388,23.234l36.766,0l-10.548,-23.234Z" style="fill:#0a1723;fill-rule:nonzero;"/></g></g><path d="M77.738,119.962l22.969,-23.234l-6.414,0l-22.534,23.234l5.979,0Z" style="fill:#494a72;fill-rule:nonzero;"/><path d="M18.189,137.376l0.671,11.222l21.763,-0.022l0.813,-11.231l-23.247,0.031Z" style="fill:#f6f1e1;fill-rule:nonzero;"/><path d="M41.437,137.345l5.859,9.929l-6.674,1.302l0.815,-11.231Z" style="fill:#ef9c74;fill-rule:nonzero;"/><path d="M127.162,137.376l-0.978,11.189l-21.163,0.011l-0.814,-11.231l22.955,0.031Z" style="fill:#f6f1e1;fill-rule:nonzero;"/><path d="M104.207,137.345l-4.503,9.929l5.317,1.302l-0.814,-11.231Z" style="fill:#ef9c74;fill-rule:nonzero;"/><path d="M104.181,137.376l-62.736,-0.033l5.885,9.931l52.408,0l4.443,-9.898Z" style="fill:#2a2b2a;fill-rule:nonzero;"/><path d="M99.793,140.529l-1.491,3.046l-49.562,0.043l-2.006,-3.307l53.059,0.218Z" style="fill:#5c5e5f;fill-rule:nonzero;"/><path d="M200.554,101.937l-0.393,84.676l154.533,0l0,-84.677l-154.14,0.001Z" style="fill:#f5f3e9;fill-rule:nonzero;"/><rect x="200.167" y="102.022" width="154.527" height="84.591" style="fill:#e7e6de;fill-rule:nonzero;"/><path d="M200.259,117.873l-0.084,54.46l102.451,0l-0.051,-54.469l-102.316,0.009Z" style="fill:#c1bebb;fill-rule:nonzero;"/><path d="M270.311,119.271l0.029,50.734l-38.202,0l0.154,-50.635l38.019,-0.1Z" style="fill:#313156;fill-rule:nonzero;"/><path d="M229.807,119.271l0,50.734l-27.25,0l0,-50.635l27.25,-0.1Z" style="fill:#313156;fill-rule:nonzero;"/><path d="M300.149,119.271l0,50.734l-27.251,0l0,-50.635l27.251,-0.1Z" style="fill:#313156;fill-rule:nonzero;"/><path d="M195.872,101.857l-6.099,17.519l115.44,0l-0.54,-17.519l-108.801,0Z" style="fill:#679a45;fill-rule:nonzero;"/><path d="M194.907,104.625l-0.249,0.754l74.584,0l3.494,-3.503l-75.102,-0.019l-2.727,2.768Z" style="fill:#35813f;fill-rule:nonzero;"/><path d="M288.136,105.185l16.659,0.102l-0.138,-3.383l-13.187,-0.035l-3.334,3.316Z" style="fill:#35813f;fill-rule:nonzero;"/><path d="M200.509,17.122l154.185,-0.012l0,-3.305l-155.757,-0.045l1.572,3.362Z" style="fill:#e7e6de;fill-rule:nonzero;"/><path d="M197.51,5.387l0.005,3.647l1.421,4.727l155.758,0.044l0,-5.167l-154.8,0.385l0,-3.636l-2.384,0Z" style="fill:#fff;fill-rule:nonzero;"/><path d="M200.515,17.113l-0.008,9.851l0.006,74.891l154.181,0l0,-84.762l-99.859,-0.008l-54.32,0.028Z" style="fill:#f5f3e9;fill-rule:nonzero;"/><rect x="269.458" y="17.123" width="25.295" height="84.736" style="fill:#e7e6de;fill-rule:nonzero;"/><path d="M237.138,35.49l0.016,48.727l24.402,-0.051l0.033,-48.7l-24.451,0.024Z" style="fill:#c1bebb;fill-rule:nonzero;"/><path d="M238.999,61.039l0,21.327l20.66,-0.056l0,-21.289l-20.66,0.018Z" style="fill:#313156;fill-rule:nonzero;"/><path d="M238.987,59.139l20.672,0.018l0.012,-21.574l-20.672,-0.223l-0.012,21.779Z" style="fill:#313156;fill-rule:nonzero;"/><path d="M207.654,35.49l0.016,48.727l24.404,-0.051l0.031,-48.7l-24.451,0.024Z" style="fill:#c1bebb;fill-rule:nonzero;"/><path d="M209.517,61.039l0,21.327l20.66,-0.056l0,-21.289l-20.66,0.018Z" style="fill:#313156;fill-rule:nonzero;"/><path d="M209.505,59.139l20.671,0.018l0.011,-21.574l-20.67,-0.223l-0.012,21.779Z" style="fill:#313156;fill-rule:nonzero;"/><path d="M311.434,40.252l0.016,37.039l35.269,-0.05l0.032,-37.013l-35.317,0.024Z" style="fill:#c1bebb;fill-rule:nonzero;"/><path d="M313.296,60.174l0,15.267l31.527,-0.055l0,-15.231l-31.527,0.019Z" style="fill:#313156;fill-rule:nonzero;"/><path d="M313.285,58.273l31.538,0.02l0.011,-15.946l-31.538,-0.226l-0.011,16.152Z" style="fill:#313156;fill-rule:nonzero;"/><rect x="238.914" y="59.212" width="20.946" height="1.817" style="fill:#c1bebb;fill-rule:nonzero;"/><path d="M304.657,101.873l0.138,3.409l49.899,0.181l0,-3.59l-50.037,0Z" style="fill:#dcdcd7;fill-rule:nonzero;"/><path d="M270.581,94.383l-71.165,0l0,1.77l71.171,0l-0.006,-1.77Z" style="fill:#c1bebb;fill-rule:nonzero;"/><path d="M270.592,96.16l-71.176,0l-1.772,5.71l75.074,0l-2.126,-5.71Z" style="fill:#fff;fill-rule:nonzero;"/><path d="M270.581,24.587l-71.165,0l0,-1.771l71.171,0l-0.006,1.771Z" style="fill:#c1bebb;fill-rule:nonzero;"/><path d="M270.592,22.81l-71.176,0l-1.772,-5.71l75.074,0l-2.126,5.71Z" style="fill:#fff;fill-rule:nonzero;"/><rect x="293.253" y="94.384" width="61.441" height="1.77" style="fill:#c1bebb;fill-rule:nonzero;"/><path d="M293.252,96.16l-1.772,5.71l63.214,0l0,-5.71l-61.442,0Z" style="fill:#fff;fill-rule:nonzero;"/><rect x="293.253" y="22.817" width="61.441" height="1.77" style="fill:#c1bebb;fill-rule:nonzero;"/><path d="M291.48,17.1l1.772,5.71l61.442,0l0,-5.71l-63.214,0Z" style="fill:#fff;fill-rule:nonzero;"/><g><g opacity="0.300003"><clipPath id="_clip1"><rect x="262.456" y="119.377" width="37.688" height="37.563"/></clipPath><g clip-path="url(#_clip1)"><path d="M262.456,119.377l37.688,37.563l-0.025,-37.562l-37.663,-0.001Z" style="fill:#0a1723;fill-rule:nonzero;"/></g></g></g><g><g opacity="0.300003"><clipPath id="_clip2"><rect x="244.109" y="37.411" width="15.549" height="15.497"/></clipPath><g clip-path="url(#_clip2)"><path d="M244.108,37.41l15.55,15.498l-0.01,-15.336l-15.54,-0.162Z" style="fill:#0a1723;fill-rule:nonzero;"/></g></g></g><g><g opacity="0.300003"><clipPath id="_clip3"><rect x="318.04" y="42.146" width="26.789" height="26.699"/></clipPath><g clip-path="url(#_clip3)"><path d="M318.04,42.146l26.776,26.699l0.013,-26.502l-26.789,-0.197Z" style="fill:#0a1723;fill-rule:nonzero;"/></g></g></g><g><g opacity="0.300003"><clipPath id="_clip4"><rect x="202.551" y="133.882" width="35.851" height="36.132"/></clipPath><g clip-path="url(#_clip4)"><path d="M202.562,170.004l-0.011,-36.122l35.408,33.812l0.443,2.32l-35.84,-0.01Z" style="fill:#0a1723;fill-rule:nonzero;"/></g></g></g><path d="M238.401,170.006l-35.85,-35.977l-0.005,0.007l-0.007,-2.14l38.063,38.116l-2.201,-0.006Z" style="fill:#494a72;fill-rule:nonzero;"/><g><g opacity="0.300003"><clipPath id="_clip5"><rect x="209.5" y="46.265" width="20.706" height="36.128"/></clipPath><g clip-path="url(#_clip5)"><path d="M209.511,82.387l-0.011,-36.122l20.706,19.771l-0.003,16.357l-20.692,-0.006Z" style="fill:#0a1723;fill-rule:nonzero;"/></g></g></g><path d="M230.195,67.181l-20.694,-20.769l-0.005,0.007l-0.008,-2.14l20.706,20.734l0.001,2.168Z" style="fill:#494a72;fill-rule:nonzero;"/><g><g opacity="0.300003"><clipPath id="_clip6"><rect x="238.982" y="74.352" width="6.435" height="7.993"/></clipPath><g clip-path="url(#_clip6)"><path d="M239.033,74.352l5.942,5.674l0.442,2.319l-6.436,-0.001l0.052,-7.992Z" style="fill:#0a1723;fill-rule:nonzero;"/></g></g></g><path d="M245.417,82.338l-6.421,-6.443l0.009,-2.178l8.613,8.626l-2.201,-0.005Z" style="fill:#494a72;fill-rule:nonzero;"/><path d="M272.887,169.809l-2.565,0l0,-50.421l2.565,-0.001l0,50.422Z" style="fill:#c1bebb;fill-rule:nonzero;"/><rect x="229.809" y="158.858" width="2.357" height="12.001" style="fill:#c1bebb;fill-rule:nonzero;"/><rect x="209.435" y="59.182" width="20.945" height="1.818" style="fill:#c1bebb;fill-rule:nonzero;"/><rect x="313.158" y="58.305" width="32.232" height="1.884" style="fill:#c1bebb;fill-rule:nonzero;"/><rect x="42.41" y="137.042" width="62.07" height="10.031" style="fill:none;stroke:#db00e9;stroke-width:2px;"/><rect x="192.169" y="91.095" width="83.5" height="8.5" style="fill:none;stroke:#db00e9;stroke-width:2px;"/><path d="M240.037,174.204l-43.779,-41.223l5.827,-6.189l43.779,41.224l-5.827,6.188Z" style="fill:none;stroke:#db00e9;stroke-width:2px;"/></g></svg>