<?xml version="1.0" encoding="UTF-8" standalone="no"?>
<!DOCTYPE svg PUBLIC "-//W3C//DTD SVG 1.1//EN" "http://www.w3.org/Graphics/SVG/1.1/DTD/svg11.dtd">
<svg width="100%" height="100%" viewBox="0 0 288 360" version="1.1" xmlns="http://www.w3.org/2000/svg" xmlns:xlink="http://www.w3.org/1999/xlink" xml:space="preserve" style="fill-rule:evenodd;clip-rule:evenodd;stroke-linejoin:round;stroke-miterlimit:1.41421;">
    <g id="car.-inbound.-nope.-example.-1" transform="matrix(1,0,0,1,71.9798,166.584)">
        <g transform="matrix(1,0,0,1,0,-10.3296)">
            <path d="M127.589,121.742L141.24,119.292L144.04,112.013L128.779,109.351L127.52,116.072L125.199,118.411L127.589,121.742Z" style="fill:rgb(228,226,220);fill-rule:nonzero;"/>
        </g>
        <g transform="matrix(1,0,0,1,0,-10.3296)">
            <path d="M127.604,121.746L125.277,118.252L127.536,116.067L128.805,109.37L130.102,109.578L136.723,120.08L127.604,121.746Z" style="fill:rgb(193,190,187);fill-rule:nonzero;"/>
        </g>
        <g transform="matrix(1,0,0,1,0,-10.3296)">
            <path d="M0,111.919L2.8,119.198L16.451,121.648L18.841,118.317L16.52,115.978L15.26,109.258L0,111.919Z" style="fill:rgb(228,226,220);fill-rule:nonzero;"/>
        </g>
        <g transform="matrix(1,0,0,1,0,-10.3296)">
            <path d="M16.467,121.646L18.794,118.152L16.535,115.967L15.266,109.27L13.969,109.479L7.328,120.009L16.467,121.646Z" style="fill:rgb(193,190,187);fill-rule:nonzero;"/>
        </g>
        <path d="M3.89,173.884L5.57,193.416L24.891,193.416L28.882,173.674L3.89,173.884Z" style="fill:rgb(92,94,95);fill-rule:nonzero;"/>
        <path d="M24.052,173.675L24.892,193.416L30.884,173.675L24.052,173.675Z" style="fill:rgb(42,43,42);fill-rule:nonzero;"/>
        <path d="M117.358,193.416L136.708,193.416L138.388,174.095L113.395,173.884L117.358,193.416Z" style="fill:rgb(92,94,95);fill-rule:nonzero;"/>
        <path d="M111.394,173.884L117.358,193.416L118.227,173.884L111.394,173.884Z" style="fill:rgb(42,43,42);fill-rule:nonzero;"/>
        <g transform="matrix(1,-3.22153e-17,-3.22153e-17,1.13153,0,-22.926)">
            <path d="M29.468,85.928L13.8,113.421L2.491,128.741L1.35,135.269L3.869,173.884L5.759,173.89L138.396,174.304L142.192,135.508L141.402,130.095L130.298,114.068L114.687,85.928L93.991,83.276L52.425,83.276L29.468,85.928Z" style="fill:rgb(228,226,220);fill-rule:nonzero;"/>
        </g>
        <g transform="matrix(1,-8.52366e-17,-8.52366e-17,1.348,1.39815e-14,-42.2467)">
            <path d="M32.958,89.498L17.329,111.768L125.254,111.768L111.584,89.498L32.958,89.498Z" style="fill:rgb(49,49,86);fill-rule:nonzero;"/>
        </g>
        <g transform="matrix(1.35601,0,0,1.35601,-9.08601,-43.1939)">
            <g opacity="0.300003">
                <path d="M31.032,89.668L19.48,111.806L40.11,111.806L62.169,89.668L31.032,89.668Z" style="fill:rgb(15,35,66);fill-rule:nonzero;"/>
            </g>
        </g>
        <g>
            <g opacity="0.300003">
                <path d="M111.625,78.397L107.969,78.397L77.75,108.416L125.254,108.416L111.625,78.397Z" style="fill:rgb(10,23,35);fill-rule:nonzero;"/>
            </g>
        </g>
        <g transform="matrix(1.34973,0,0,1.34973,-25.576,-42.4401)">
            <path d="M76.954,111.768L98.941,89.527L92.801,89.527L71.23,111.768L76.954,111.768Z" style="fill:rgb(73,74,114);fill-rule:nonzero;"/>
        </g>
        <g transform="matrix(1,0,0,1,-199.295,-4.4702)">
            <path d="M200.645,135.387L201.512,149.887L229.631,149.859L230.682,135.348L200.645,135.387Z" style="fill:rgb(255,238,204);fill-rule:nonzero;"/>
        </g>
        <g transform="matrix(1,0,0,1,-199.295,-4.4702)">
            <path d="M230.683,135.348L238.254,148.177L229.631,149.859L230.683,135.348Z" style="fill:rgb(239,156,116);fill-rule:nonzero;"/>
        </g>
        <g transform="matrix(1,0,0,1,-199.295,-4.4702)">
            <path d="M341.445,135.387L340.182,149.845L312.838,149.859L311.786,135.348L341.445,135.387Z" style="fill:rgb(255,238,204);fill-rule:nonzero;"/>
        </g>
        <g transform="matrix(1,0,0,1,-199.295,-4.4702)">
            <path d="M311.786,135.348L305.968,148.177L312.838,149.859L311.786,135.348Z" style="fill:rgb(239,156,116);fill-rule:nonzero;"/>
        </g>
        <g transform="matrix(1,0,0,1,-199.295,-4.4702)">
            <path d="M311.753,135.388L230.693,135.345L238.297,148.176L306.012,148.176L311.753,135.388Z" style="fill:rgb(42,43,42);fill-rule:nonzero;"/>
        </g>
        <g transform="matrix(1.28611,0,0,1.28611,-79.0566,-417.71)">
            <path d="M75.951,449.305L70.951,456.305L116.947,457.072L162.823,456.389L159.823,449.389L117.281,449.405L75.951,449.305Z" style="fill:rgb(42,43,42);fill-rule:nonzero;"/>
        </g>
        <g transform="matrix(1.28611,0,0,1.28611,-66.7709,-418.281)">
            <path d="M85.934,452.5L88.934,455.167L126.934,455.5L129.601,452.167L85.934,452.5Z" style="fill:rgb(92,94,95);fill-rule:nonzero;"/>
        </g>
        <g transform="matrix(1.28611,0,0,1.28611,-52.3423,-416.995)">
            <path d="M60.601,452.5C60.601,453.974 59.407,455.167 57.934,455.167C56.461,455.167 55.268,453.974 55.268,452.5C55.268,451.027 56.461,449.834 57.934,449.834C59.407,449.834 60.601,451.027 60.601,452.5" style="fill:rgb(92,94,95);fill-rule:nonzero;"/>
        </g>
        <g transform="matrix(1.28611,0,0,1.28611,-78.628,-416.995)">
            <path d="M158.6,452.5C158.6,453.974 157.406,455.167 155.933,455.167C154.46,455.167 153.267,453.974 153.267,452.5C153.267,451.027 154.46,449.834 155.933,449.834C157.406,449.834 158.6,451.027 158.6,452.5" style="fill:rgb(92,94,95);fill-rule:nonzero;"/>
        </g>
        <g transform="matrix(1.28611,0,0,1.28611,-67.1995,-414.71)">
            <path d="M136.225,426.457L134.737,427.664L81.821,427.702L79.819,426.234L136.225,426.457Z" style="fill:rgb(92,94,95);fill-rule:nonzero;"/>
        </g>
        <g transform="matrix(1.28611,0,0,1.28611,-67.1995,-414.71)">
            <path d="M135.892,428.957L134.404,430.164L83.265,430.202L81.263,428.734L135.892,428.957Z" style="fill:rgb(92,94,95);fill-rule:nonzero;"/>
        </g>
        <g transform="matrix(1.28611,0,0,1.28611,-67.1995,-414.71)">
            <path d="M135.337,431.452L133.849,432.659L84.154,432.702L82.152,431.234L135.337,431.452Z" style="fill:rgb(92,94,95);fill-rule:nonzero;"/>
        </g>
        <g transform="matrix(1.28611,0,0,1.28611,-67.1995,-414.71)">
            <path d="M113.601,428.999C113.601,432.222 110.989,434.833 107.768,434.833C104.546,434.833 101.934,432.222 101.934,428.999C101.934,425.777 104.546,423.166 107.768,423.166C110.989,423.166 113.601,425.777 113.601,428.999" style="fill:rgb(92,94,95);fill-rule:nonzero;"/>
        </g>
        <g transform="matrix(1.28611,0,0,1.28611,-50.0566,-414.424)">
            <path d="M59.934,429.749C59.934,431.867 58.218,433.583 56.101,433.583C53.983,433.583 52.267,431.867 52.267,429.749C52.267,427.632 53.983,425.916 56.101,425.916C58.218,425.916 59.934,427.632 59.934,429.749" style="fill:rgb(246,241,225);fill-rule:nonzero;"/>
        </g>
        <g transform="matrix(1.28611,0,0,1.28611,-78.3423,-414.567)">
            <path d="M158.934,429.749C158.934,431.867 157.218,433.583 155.101,433.583C152.983,433.583 151.267,431.867 151.267,429.749C151.267,427.632 152.983,425.916 155.101,425.916C157.218,425.916 158.934,427.632 158.934,429.749" style="fill:rgb(246,241,225);fill-rule:nonzero;"/>
        </g>
    </g>
</svg>
