<?xml version="1.0" encoding="UTF-8" standalone="no"?>
<!DOCTYPE svg PUBLIC "-//W3C//DTD SVG 1.1//EN" "http://www.w3.org/Graphics/SVG/1.1/DTD/svg11.dtd">
<svg width="100%" height="100%" viewBox="0 0 360 300" version="1.1" xmlns="http://www.w3.org/2000/svg" xmlns:xlink="http://www.w3.org/1999/xlink" xml:space="preserve" xmlns:serif="http://www.serif.com/" style="fill-rule:evenodd;clip-rule:evenodd;stroke-linejoin:round;stroke-miterlimit:1.41421;">
    <g id="guidebook-nope-example-contrast" transform="matrix(1,0,0,1,4.52725,-71.8519)">
        <g transform="matrix(1,0,0,1,0,-0.158742)">
            <g transform="matrix(2.24665,0,0,2.24665,-5.89055,-168.021)">
                <path d="M139.487,206.766L140.096,211.205L135.769,211.094L135.436,206.325L139.487,206.766Z" style="fill:rgb(42,43,42);fill-rule:nonzero;"/>
            </g>
            <g transform="matrix(2.24665,0,0,2.24665,-5.89055,-168.021)">
                <path d="M132.471,212.731L131.581,218.583L132.081,219.999L135.492,219.999L136.366,213.549L132.471,212.731Z" style="fill:rgb(42,43,42);fill-rule:nonzero;"/>
            </g>
            <g transform="matrix(2.24665,0,0,2.24665,-5.89055,-168.021)">
                <path d="M130.333,138.53L132.164,137.309L133.496,133.538L136.569,134.413L137.545,136.809L139.653,137.864L135.063,145.27L130.333,138.53Z" style="fill:rgb(206,171,151);fill-rule:nonzero;"/>
            </g>
            <g transform="matrix(2.24665,0,0,2.24665,-5.89055,-168.021)">
                <path d="M133.43,136.225L136.199,136.225L139.182,132.391L138.649,124.19L133.329,123.301L130.024,124.616L130.13,132.391L133.43,136.225Z" style="fill:rgb(225,197,181);fill-rule:nonzero;"/>
            </g>
            <g transform="matrix(2.24665,0,0,2.24665,-5.89055,-168.021)">
                <path d="M131.72,123.44L131.998,122.331L140.925,123.194L141.668,129.542L138.904,129.71L136.741,125.297L132.719,124.715L131.72,123.44Z" style="fill:rgb(84,62,54);fill-rule:nonzero;"/>
            </g>
            <g transform="matrix(2.24665,0,0,2.24665,-5.89055,-168.021)">
                <path d="M138.849,127.579L140.673,127.61L140.817,130.786L138.956,130.689L138.849,127.579Z" style="fill:rgb(225,197,181);fill-rule:nonzero;"/>
            </g>
            <g transform="matrix(2.24665,0,0,2.24665,-5.89055,-168.021)">
                <path d="M132.746,124.716L130.499,125.632L130.084,129.626L126.818,130.042L127.194,124.781L132.04,122.358L132.746,124.716Z" style="fill:rgb(84,62,54);fill-rule:nonzero;"/>
            </g>
            <g transform="matrix(2.24665,0,0,2.24665,-5.89055,-168.021)">
                <path d="M130.264,128.012L128.424,128.513L128.568,131.176L130.195,131.239L130.264,128.012Z" style="fill:rgb(225,197,181);fill-rule:nonzero;"/>
            </g>
            <g transform="matrix(2.24665,0,0,2.24665,-5.89055,-168.021)">
                <path d="M142.499,163.163L139.487,206.767L135.992,206.767L135.216,169.708L137.021,186.804L136.325,213.591L132.498,212.759L130.499,186.962L127.893,163.495L142.499,163.163Z" style="fill:rgb(244,242,237);fill-rule:nonzero;"/>
            </g>
            <g transform="matrix(2.24665,0,0,2.24665,-5.89055,-168.021)">
                <path d="M135.567,169.643L137.324,188.126L136.496,206.772L139.931,200.265L141.595,175.591L135.567,169.643Z" style="fill:rgb(228,226,220);fill-rule:nonzero;"/>
            </g>
            <g transform="matrix(2.24665,0,0,2.24665,-5.89055,-168.021)">
                <path d="M123.172,160.552L121.654,164.279L121.945,169.443L123.66,168.784L124.01,164.425L123.868,165.739L125.418,165.808L124.855,162.223L123.172,160.552Z" style="fill:rgb(225,197,181);fill-rule:nonzero;"/>
            </g>
            <g transform="matrix(2.24665,0,0,2.24665,-5.89055,-168.021)">
                <path d="M146.499,160.731L147.647,163.624L147.546,168.391L145.672,168.145L145.293,163.788L145.443,165.1L143.831,165.323L144.372,161.708L146.499,160.731Z" style="fill:rgb(225,197,181);fill-rule:nonzero;"/>
            </g>
            <g transform="matrix(2.24665,0,0,2.24665,-5.89055,-168.021)">
                <path d="M139.737,137.781L143.758,139.528L146.639,161.276L144.31,161.663L141.651,142.524L142.538,163.161L127.893,163.495L129.113,144.299L124.897,162.274L122.76,161.331L126.561,140.749L130.333,138.446L135.742,143.938L139.737,137.781Z" style="fill:rgb(92,94,95);fill-rule:nonzero;"/>
            </g>
        </g>
        <g transform="matrix(2.24665,0,0,2.24665,-563.639,-168.021)">
            <path d="M252.011,171.168C252.011,198.506 274.172,220.668 301.511,220.668C328.849,220.668 351.011,198.506 351.011,171.168C351.011,143.83 328.849,121.668 301.511,121.668C274.172,121.668 252.011,143.83 252.011,171.168Z" style="fill:white;fill-opacity:0.3;"/>
        </g>
        <g transform="matrix(2.24665,0,0,2.24665,1.17875,-166.522)">
            <clipPath id="_clip1">
                <path d="M0.322,170.501C0.322,197.838 22.484,220.001 49.822,220.001C77.161,220.001 99.322,197.838 99.322,170.501C99.322,143.163 77.161,121.001 49.822,121.001C22.484,121.001 0.322,143.163 0.322,170.501Z"/>
            </clipPath>
            <g clip-path="url(#_clip1)">
                <path d="M80.533,148.498L69.581,307.076L56.868,307.076L54.046,172.303L60.613,234.472L58.081,331.891L44.16,328.863L36.894,235.05L27.415,149.704L80.533,148.498Z" style="fill:rgb(244,242,237);fill-rule:nonzero;"/>
                <path d="M55.325,172.066L61.715,239.286L58.704,307.094L71.197,283.429L77.249,193.698L55.325,172.066Z" style="fill:rgb(228,226,220);fill-rule:nonzero;"/>
                <path d="M10.245,139.003L4.725,152.554L5.784,171.333L12.021,168.941L13.292,153.086L12.778,157.866L18.414,158.114L16.366,145.077L10.245,139.003Z" style="fill:rgb(225,197,181);fill-rule:nonzero;"/>
                <path d="M95.083,139.654L99.257,150.175L98.891,167.514L92.075,166.617L90.693,150.768L91.239,155.544L85.379,156.353L87.346,143.209L95.083,139.654Z" style="fill:rgb(225,197,181);fill-rule:nonzero;"/>
                <path d="M70.49,56.19L85.115,62.545L95.592,141.633L87.119,143.044L77.451,73.437L80.678,148.492L27.415,149.704L31.852,79.897L16.521,145.262L8.75,141.835L22.571,66.983L36.29,58.608L55.96,78.584L70.49,56.19Z" style="fill:rgb(92,94,95);fill-rule:nonzero;"/>
            </g>
        </g>
    </g>
</svg>
