<?xml version="1.0" standalone="no"?><!DOCTYPE svg PUBLIC "-//W3C//DTD SVG 1.1//EN" "http://www.w3.org/Graphics/SVG/1.1/DTD/svg11.dtd"><svg width="800px" height="400px" version="1.1" xmlns="http://www.w3.org/2000/svg" xmlns:xlink="http://www.w3.org/1999/xlink" xml:space="preserve" style="fill-rule:evenodd;clip-rule:evenodd;stroke-linejoin:round;stroke-miterlimit:1.41421;"><g><g id="Layer 1"><rect x="25.75" y="29" width="6.053" height="38" style="fill:#231f20;fill-rule:nonzero;"/><path d="M197.146,52.6772l-3.128,-11.574l-3.867,0l-3.128,11.574l-11.516,0l16.586,10.587l16.588,-10.587l-11.535,0Z" style="fill:#231f20;fill-rule:nonzero;"/><path d="M280.717,51.2607l-16.588,-10.586l-16.586,10.586l11.545,0l-3.062,11.333l15.867,0l-3.063,-11.333l11.887,0Z" style="fill:#231f20;fill-rule:nonzero;"/><path d="M45.3789,109.777l-5.56,2.781l-0.437,6.107l1.946,-0.249l0.086,1.565l1.794,0.069l0.019,1.342l3.103,3.607l-0.741,2.103l-2.069,1.378l-0.057,-0.06l-4.379,2.673l-2.383,12.907l3.285,0l2.06,-8.784l-0.558,8.784l15.579,0l-0.466,-10.845l1.507,10.845l2.837,0l-1.898,-14.322l-4.668,-2.03l-0.852,1.314l0.754,-1.216l-2.446,-1.224l-0.719,-1.765l2.619,-3.365l-0.128,-1.969l2.025,0.105l-0.063,-1.379l1.051,-0.063l-0.862,-7.37l-10.363,-1.003l-0.016,0.064Z" style="fill:#231f20;fill-rule:nonzero;"/><path d="M108.151,109.347l-4.448,2.224l-0.35,4.886l1.557,-0.199l0.068,1.251l1.436,0.057l0.015,1.073l2.482,2.885l-0.593,1.682l-1.654,1.103l-0.046,-0.047l-3.503,2.138l-3.25,17.601l2.265,0l3.355,-14.303l-0.909,14.303l13.239,0l-0.686,-15.953l2.216,15.953l2.223,0l-2.482,-18.734l-3.735,-1.623l-0.681,1.051l0.603,-0.974l-1.957,-0.979l-0.574,-1.411l2.093,-2.692l-0.101,-1.575l1.62,0.083l-0.051,-1.103l0.842,-0.05l-0.691,-5.896l-8.29,-0.803l-0.013,0.052Z" style="fill:#231f20;fill-rule:nonzero;"/><path d="M128.668,113.48l-4.448,2.225l-0.349,4.885l1.557,-0.199l0.068,1.251l1.436,0.057l0.014,1.073l2.483,2.886l-0.593,1.682l-1.654,1.102l-0.047,-0.047l-3.502,2.138l-2.487,13.468l2.471,0l2.385,-10.17l-0.646,10.17l12.798,0l-0.508,-11.819l1.643,11.819l2.248,0l-1.934,-14.601l-3.734,-1.623l-0.682,1.052l0.603,-0.974l-1.957,-0.979l-0.574,-1.412l2.094,-2.692l-0.102,-1.575l1.62,0.084l-0.05,-1.103l0.841,-0.052l-0.691,-5.895l-8.29,-0.802l-0.013,0.051Z" style="fill:#231f20;fill-rule:nonzero;"/><path d="M177.852,115.791l-3.559,1.779l-0.279,3.91l1.246,-0.159l0.054,1l1.149,0.045l0.012,0.859l1.986,2.308l-0.474,1.346l-1.324,0.882l-0.037,-0.038l-2.802,1.711l-2.69,14.567l1.787,0l2.799,-11.929l-0.758,11.929l10.642,0l-0.569,-13.248l1.84,13.248l1.775,0l-2.05,-15.473l-2.988,-1.299l-0.545,0.841l0.482,-0.78l-1.564,-0.783l-0.46,-1.128l1.675,-2.154l-0.082,-1.26l1.297,0.067l-0.042,-0.883l0.674,-0.041l-0.553,-4.716l-6.631,-0.641l-0.011,0.04Z" style="fill:#231f20;fill-rule:nonzero;"/><path d="M190.352,121.291l-3.559,1.779l-0.279,3.91l1.246,-0.159l0.054,1l1.149,0.045l0.012,0.859l1.986,2.308l-0.475,1.346l-1.323,0.882l-0.037,-0.038l-2.802,1.711l-1.674,9.067l2.061,0l1.508,-6.429l-0.408,6.429l10.056,0l-0.333,-7.748l1.077,7.748l1.81,0l-1.321,-9.973l-2.989,-1.299l-0.544,0.841l0.482,-0.779l-1.564,-0.784l-0.46,-1.128l1.675,-2.154l-0.083,-1.26l1.297,0.067l-0.041,-0.882l0.675,-0.041l-0.554,-4.717l-6.631,-0.641l-0.011,0.04Z" style="fill:#231f20;fill-rule:nonzero;"/><path d="M202.602,117.541l-3.559,1.779l-0.279,3.909l1.246,-0.159l0.055,1.001l1.148,0.044l0.012,0.86l1.986,2.308l-0.474,1.345l-1.325,0.882l-0.036,-0.037l-2.802,1.71l-2.367,12.817l1.875,0l2.387,-10.179l-0.647,10.179l10.457,0l-0.494,-11.498l1.597,11.498l1.786,0l-1.818,-13.723l-2.988,-1.299l-0.545,0.842l0.482,-0.78l-1.564,-0.783l-0.46,-1.129l1.675,-2.153l-0.082,-1.26l1.297,0.067l-0.042,-0.883l0.674,-0.041l-0.553,-4.716l-6.631,-0.642l-0.011,0.041Z" style="fill:#231f20;fill-rule:nonzero;"/><path d="M45.0405,173.184l1.297,3.918l0.346,0.234l-0.346,-0.009l-0.007,1.12l-11.356,-0.558l-0.624,3.809l-0.556,0.015l-6.92,4.408l5.25,15.861l7.819,-0.075l4.706,-15.75l-6.862,-4.555l-0.59,0.016l-0.028,-1.704l9.149,0.167l-0.244,35.92l4.476,0l-0.204,-35.919l8.985,-0.168l-0.197,1.699l-0.422,-0.011l-6.863,4.555l4.707,15.75l7.818,0.075l5.25,-15.861l-6.918,-4.408l-0.558,-0.015l-0.624,-3.809l-11.187,0.54l-0.006,-0.991l-0.232,-0.006l0.232,-0.219l1.368,-4.099l-3.336,-3.365l-3.323,3.435ZM30.4415,187.194l11.23,-0.326l-3.313,12.275l-4.803,0l-3.114,-11.949ZM55.2585,187.443l11.005,0l-3.314,11.7l-4.802,0l-2.889,-11.7Z" style="fill:#000;fill-rule:nonzero;"/><path d="M127.639,173.38l1.297,3.918l0.345,0.234l-0.345,-0.009l-0.007,1.121l-11.356,-0.559l-0.623,3.809l-0.557,0.015l-6.92,4.408l5.25,15.86l7.819,-0.074l4.706,-15.75l-6.862,-4.555l-0.589,0.016l-0.029,-1.704l9.149,0.168l-0.242,35.722l4.473,0l-0.218,-38.365l-0.232,-0.007l0.232,-0.219l1.368,-4.099l-3.336,-3.365l-3.323,3.435ZM113.04,187.39l11.23,-0.326l-3.313,12.276l-4.803,0l-3.114,-11.95Z" style="fill:#000;fill-rule:nonzero;"/><path d="M177.739,173.38l1.297,3.918l0.345,0.234l-0.345,-0.009l-0.261,38.477l4.472,0l-0.203,-35.722l8.985,-0.168l-0.196,1.699l-0.422,-0.011l-6.863,4.555l4.707,15.75l7.817,0.074l5.251,-15.86l-6.919,-4.408l-0.557,-0.015l-0.624,-3.809l-11.188,0.54l-0.006,-0.99l-0.231,-0.007l0.231,-0.219l1.369,-4.099l-3.335,-3.365l-3.324,3.435ZM187.957,187.64l11.004,0l-3.313,11.7l-4.802,0l-2.889,-11.7Z" style="fill:#231f20;fill-rule:nonzero;"/><path d="M36.688,265.987l2.365,-4.171l18.091,-0.042l2.751,4.227l-23.207,-0.014ZM31.156,271.231l5.838,-0.008l-0.21,2.903l-5.477,0.006l0.345,6.387l0.016,0l0.321,3.731l3.869,-0.008l0.049,-0.242l1.075,-3.467l21.733,0.057l1.094,3.529l0.025,0.123l3.87,0l0.566,-3.639l-0.062,0l0.516,-6.48l-5.493,0.003l-0.21,-2.903l5.926,0.008l0.018,-0.134l-7.108,-10.599l-19.475,0l-7.235,10.683" style="fill:#231f20;fill-rule:nonzero;"/><path d="M101.443,240l0.515,23.098l0.556,14.054l0.133,4.172l0.032,0l0.002,0.038l0.019,0l0.335,3.895l3.89,0l0.05,-0.245l1.128,-3.65l24.758,0l1.191,3.895l0.004,-0.1l0.012,0.057l3.891,0.043l0.338,-3.891l-0.332,-0.004l0.357,0l0.109,-4.214l0.36,-13.847l0.332,-23.301l-37.68,0ZM107.291,248.405l25.703,0.048l3.257,12.36l-32.009,0l3.049,-12.408ZM132.994,270.423l3.738,0.007l-0.625,1.881l-2.505,0.008l-0.608,-1.896ZM104.094,270.423l3.737,0.007l-0.624,1.881l-2.505,0.008l-0.608,-1.896ZM133.065,273.275l3.738,0.006l-0.625,1.881l-2.505,0.008l-0.608,-1.895ZM104.165,273.275l3.738,0.006l-0.625,1.881l-2.505,0.008l-0.608,-1.895Z" style="fill:#231f20;fill-rule:nonzero;"/><path d="M262.991,175.41l-11.732,0.393l-5.401,6.718l-0.8,33.48l3.601,0l-0.147,-27.771l-0.023,-4.372l0.895,-0.897l2.954,-5.44l19.966,-0.496l2.319,2.308l6.655,-0.11l2.374,-2.369l-0.386,0.004l2.159,-0.033l-4.299,-4.237l-18.135,2.822Z" style="fill:#231f20;fill-rule:nonzero;"/><path d="M324.665,173.38l1.298,3.918l0.344,0.234l-0.344,-0.009l-0.261,38.477l4.472,0l-0.203,-35.722l8.985,-0.168l-0.196,1.699l-0.422,-0.011l-6.863,4.555l4.706,15.75l7.818,0.074l5.251,-15.86l-6.919,-4.408l-0.557,-0.015l-0.624,-3.809l-11.189,0.54l-0.005,-0.99l-0.231,-0.007l0.231,-0.219l1.369,-4.099l-3.336,-3.365l-3.324,3.435ZM334.884,187.64l11.004,0l-3.313,11.7l-4.802,0l-2.889,-11.7Z" style="fill:#231f20;fill-rule:nonzero;"/><rect x="171.75" y="243.75" width="40.578" height="40.578" style="fill:#292a29;fill-rule:nonzero;"/><g opacity="0.25"><path d="M212.328,284.328l-40.578,0l40.578,-40.578l0,40.578Z" style="fill:#fff;fill-rule:nonzero;"/></g><rect x="243.75" y="243.75" width="40.578" height="40.578" style="fill:#9b1f22;fill-rule:nonzero;"/><g opacity="0.330002"><path d="M284.328,284.328l-40.578,0l40.578,-40.578l0,40.578Z" style="fill:#fff;fill-rule:nonzero;"/></g><rect x="315.75" y="243.75" width="40.578" height="40.578" style="fill:#2b6750;fill-rule:nonzero;"/><g opacity="0.330002"><path d="M356.328,284.328l-40.578,0l40.578,-40.578l0,40.578Z" style="fill:#fff;fill-rule:nonzero;"/></g><path d="M58.9365,316.322l-0.052,-0.001l-3.929,4.753l-1.488,5.447l-1.263,4.535l-0.037,-0.389l-0.65,-7.581l-1.933,-3.916l-4.437,-0.348l-0.897,0.502l-3.538,1.875l5.37,0.383l0.518,1.115l2.011,0.679l-0.757,0.054l0.183,0.575l-0.529,0.174l1.811,6.504l-2.539,-3.018l-4.342,-1.458l-4.911,0.349l-1.394,1.612l-3.445,0.087l-5.027,2.495l-1.733,1.773l6.169,-0.338l0.761,-0.379l0.211,0.506l8.154,-0.592l6.503,1.682l-3.355,-0.033l-8.619,3.738l-3.066,4.768l3.953,-0.808l0.565,-0.968l0.484,-0.08l0.323,0.644l0.086,-0.052l2.471,-0.377l2.75,-1.328l-2.581,5.891l-0.085,1.267l2.536,-3.126l5.472,-6.207l2.414,-1.354l-0.001,0.005l0.014,-0.002l-0.745,22.959l0,0.01l0.041,1.651l2.951,0l0.228,-4.871l-1.025,-19.596l6.057,1.404l0.058,-0.578l0.747,0.869l2.041,0.598l2.941,1.689l1.115,-0.463l-0.084,1.055l0.007,0.015l-0.011,-0.02l1.273,4.31l-0.001,0.047l1.098,-0.549l0.465,-4.268l-2.361,-1.962l-1.631,-1.365l-0.012,-0.002l-0.01,-0.007l-8.891,-1.598l7.731,-0.906l-0.639,-1.68l1.661,1.7l1.518,0.029l2.431,4.535l0.343,-4.015l-2.144,-3.899l-4.366,-0.151l-5.601,2.01l1.131,-0.845l3.98,-1.516l-0.872,-0.974l1.925,0.572l3.195,-0.981l-0.269,-0.669l0.382,-0.308l1.099,0.219l3.227,-2.421l-5.601,-0.869l-1.704,0.753l0.083,0.001l-6.895,3.212l-0.016,0.018l-0.064,-0.018l-0.44,0.598l-0.418,0.482l2.309,-4.825l-0.637,-0.155l1.001,-0.668l0.816,-1.85l4.119,-3.548l0.063,-0.444l0.507,0.507l3.33,-1.32l0.082,-0.011l-0.191,-0.76l-7.476,-0.19l-0.002,0.001ZM49.8965,323.25l0.076,0.03l-0.048,0.004l-0.028,-0.034ZM38.3825,327.221l-0.022,0.889l-0.626,0.016l0.648,-0.905ZM40.0855,328.459l1.751,-0.064l1.584,0.76l0.919,0.096l-0.475,0.189l2.28,1.541l-6.059,-2.522ZM50.2915,331.839l0.016,0.008l-0.007,0.005l-0.009,-0.013ZM54.0075,334.471l-0.073,-0.212l0.386,0.269l-0.313,-0.057Z" style="fill:#231f20;fill-rule:nonzero;"/><path d="M103.746,312l1.244,1.673l-2.239,1.387l4.538,0.788l-0.326,1.871l-2.786,0.247l-0.307,1.886l1.831,0.917l-0.391,0.736l-2.24,5.214l2.778,0.339l-0.071,1.028l1.209,-0.094l-1.605,2.067l-1.564,0.681l1.493,4.053l-2.293,0.453l0.054,0.934l2.31,0.402l0.116,1.304l1.693,-0.147l0.885,1.671l-3.564,2.103l0.159,1.759l3.361,1.6l-0.907,0.694l3.52,1.707l2.838,-1.958l5.511,7.061l0.04,2.568l-0.059,2.252l-0.004,0.005l-0.043,1.81l-0.026,0.99l1.774,0l-0.173,-4.301l0.002,-0.013l-0.002,0.002l0,-0.002l4.882,-4.886l2.314,-9.245l6.399,0.203l-2.161,-2.785l0.894,0.058l-0.288,-0.864l3.355,-0.409l-2.24,-5.213l-0.388,-0.74l1.828,-0.914l-0.16,-1.326l-2.934,-0.807l-0.335,-1.934l0.593,-1.052l3.636,-0.633l-2.24,-1.387l-0.559,-2.827l2.053,-1.227l-2.013,-0.873l0.279,-1.639l2.159,-0.548l-1.946,-1.792l0.178,-2.847l-30.062,0ZM116.112,312.913l0.031,-0.001l-0.008,0.013l-0.023,-0.012ZM114.03,315.112l0.037,0.013l-0.07,0.022l0.033,-0.035ZM120.983,342.208l-0.007,-0.719l0.006,-0.129l5.315,-2.09l0.627,1.569l-2.587,9.408l-3.926,3.193l-0.032,-0.806l0.056,-1.045l0.001,0.002l0.547,-9.383ZM118.353,348.364l-2.96,-4.366l2.446,-1.688l0.988,0.031l0.101,6.865l-0.575,-0.842Z" style="fill:#231f20;fill-rule:nonzero;"/><clipPath id="tag1"><rect x="168" y="311.999" width="48" height="48.001"/></clipPath><g clip-path="url(#tag1)"><path d="M234.365,360l-0.055,-0.015l-0.019,-5.756l-4.296,0.024l-1.114,-3.837l-7.452,-1.527l-6.982,-3.389l-3.072,2.733c0,0 -15.365,2.837 -15.831,2.62c-0.467,-0.219 -6.89,-5.353 -6.89,-5.353l-10.639,2.35l-1.116,-0.219l-5.379,-2.131l-0.932,2.619l-2.887,-0.655l-0.931,2.62l-2.514,-1.746l-4.563,1.09l0.215,5.222l-2.767,0.016l-0.006,5.334Z" style="fill:#231f20;fill-rule:nonzero;"/></g><path d="M672,344.837l0,15.163l48,0l0,-15.296l-6.632,0.952l-0.831,-2.018l-13.102,2.125l-0.833,-2.127l-17.782,2.12l-0.832,-2.131l-7.988,1.212Z" style="fill:#231f20;fill-rule:nonzero;"/><path d="M702.366,318.425l-1.708,3.481l-3.994,1.043l3.32,1.162l-0.357,3.096l2.029,-4l4.641,-1.153l0.137,-4.207l-4.068,0.578Z" style="fill:#231f20;fill-rule:nonzero;"/><path d="M690.11,346l3.525,-6.203l-3.635,3.11l0,-4.072l-1.453,3.588l-2.614,-1.331l1.159,4.908l3.018,0Z" style="fill:#231f20;fill-rule:nonzero;"/><path d="M676.599,352.598l14.282,-2.515l7.444,2.515l-8.047,-1.207l-13.679,1.207Z" style="fill:#fff;fill-rule:nonzero;"/><path d="M698.19,357.393l10.535,-2.515l5.49,2.515l-5.935,-1.207l-10.09,1.207Z" style="fill:#fff;fill-rule:nonzero;"/><path d="M265.36,360l0.032,0l0.001,-0.419l-0.033,0.419Z" style="fill:#231f20;fill-rule:nonzero;"/><path d="M262.19,360l3.217,0l0.037,-24.084l-3.254,-1.856l0,25.94Z" style="fill:#231f20;fill-rule:nonzero;"/><path d="M274.379,360l1.506,0l12.115,-12.061l0,-1.466l-13.621,13.527Z" style="fill:#231f20;fill-rule:nonzero;"/><path d="M262.437,354.003l2.035,-0.5l23.528,-23.422l0,-1.462l-25.563,25.384Z" style="fill:#231f20;fill-rule:nonzero;"/><path d="M283.505,315.211l-21.132,20.996l2.16,-0.623l20.455,-20.373l-1.483,0Z" style="fill:#231f20;fill-rule:nonzero;"/><path d="M268.6,315.211l-6.41,7.128l0,1.617l7.842,-8.745l-1.432,0Z" style="fill:#231f20;fill-rule:nonzero;"/><clipPath id="tag2"><rect x="262.19" y="315.211" width="25.81" height="44.789"/></clipPath><g clip-path="url(#tag2)"><path d="M339.25,313.808l-0.805,2.209l-73.074,72.87l-2.805,1.269l76.684,-76.348Z" style="fill:#231f20;fill-rule:nonzero;"/><path d="M348.818,322.097l-0.992,2.397l-82.139,81.937l-3.057,1.518l86.188,-85.852Z" style="fill:#231f20;fill-rule:nonzero;"/><path d="M331.594,357.183l-0.652,2.056l-65.649,65.445l-2.597,1.061l68.898,-68.562Z" style="fill:#231f20;fill-rule:nonzero;"/></g><path d="M262.19,351.68l8.346,8.32l1.418,0l-9.764,-9.714l0,1.394Z" style="fill:#231f20;fill-rule:nonzero;"/><path d="M263.142,334.629l24.858,24.786l0,-1.434l-25.584,-25.466l0.726,2.114Z" style="fill:#231f20;fill-rule:nonzero;"/><path d="M262.19,315.211l0,0.714l25.81,25.735l0,-1.447l-25.121,-25.002l-0.689,0Z" style="fill:#231f20;fill-rule:nonzero;"/><clipPath id="tag3"><rect x="262.19" y="315.211" width="25.81" height="44.789"/></clipPath><g clip-path="url(#tag3)"><path d="M279.231,315.211l8.769,8.745l0,-1.438l-7.339,-7.307l-1.43,0Z" style="fill:#231f20;fill-rule:nonzero;"/><path d="M260.943,277.852l0.496,1.887l57.783,57.582l2.371,0.849l-60.65,-60.318Z" style="fill:#231f20;fill-rule:nonzero;"/></g><path d="M265.36,360l0.032,0l0,-0.419l-0.032,0.419Z" style="fill:#231f20;fill-rule:nonzero;"/><path d="M262.19,360l3.208,0l0.046,-34.334l-3.254,-2.137l0,36.471Z" style="fill:#231f20;fill-rule:nonzero;"/><path d="M262.19,323.216l0,0.023l25.81,2.987l0,-3.063l-25.81,0.053Z" style="fill:#231f20;fill-rule:nonzero;"/><path d="M262.19,326.609l25.81,-0.081l0,-1.87l-25.81,-1.364l0,3.315Z" style="fill:#231f20;fill-rule:nonzero;"/><clipPath id="tag4"><rect x="240" y="315.586" width="24.861" height="44.414"/></clipPath><g clip-path="url(#tag4)"><path d="M240,343.683l0,1.457l19.726,-19.64l0.251,-1.656l-19.977,19.839Z" style="fill:#231f20;fill-rule:nonzero;"/><path d="M250.315,315.586l-10.315,10.243l0,1.453l11.749,-11.696l-1.434,0Z" style="fill:#231f20;fill-rule:nonzero;"/><path d="M263.668,284.438l-0.33,1.73l-49.992,49.791l-2.16,0.624l52.482,-52.145Z" style="fill:#231f20;fill-rule:nonzero;"/><path d="M251.727,277.428l-0.098,1.601l-40.689,45.373l-1.943,0.544l42.73,-47.518Z" style="fill:#231f20;fill-rule:nonzero;"/></g><path d="M242.042,360l1.485,0l21.333,-21.274l0,-1.445l-22.818,22.719Z" style="fill:#231f20;fill-rule:nonzero;"/><path d="M259.955,360l1.466,0l3.44,-3.432l0,-1.455l-4.906,4.887Z" style="fill:#231f20;fill-rule:nonzero;"/><clipPath id="tag5"><rect x="240" y="315.586" width="24.861" height="44.414"/></clipPath><g clip-path="url(#tag5)"><path d="M280.406,357.558l-0.652,2.056l-65.649,65.445l-2.597,1.061l68.898,-68.562Z" style="fill:#231f20;fill-rule:nonzero;"/><path d="M210.014,349.678l0.6,1.99l62.767,62.569l2.511,0.986l-65.878,-65.545Z" style="fill:#231f20;fill-rule:nonzero;"/><path d="M211.228,332.89l0.726,2.114l68.782,68.582l2.679,1.158l-72.187,-71.854Z" style="fill:#231f20;fill-rule:nonzero;"/></g><path d="M240,345.214l14.829,14.786l1.488,0l-16.317,-16.24l0,1.454Z" style="fill:#231f20;fill-rule:nonzero;"/><path d="M240,327.51l24.861,24.792l0,-1.483l-24.861,-24.752l0,1.443Z" style="fill:#231f20;fill-rule:nonzero;"/><path d="M245.849,315.586l19.012,18.946l0,-1.502l-17.54,-17.444l-1.472,0Z" style="fill:#231f20;fill-rule:nonzero;"/><path d="M240,323.532l0,3.439l0.373,0.043l24.488,0.042l0,-3.575l-24.861,0.051Z" style="fill:#231f20;fill-rule:nonzero;"/><path d="M240,326.893l24.861,-0.078l0,-0.301l-24.861,-1.313l0,1.692Z" style="fill:#231f20;fill-rule:nonzero;"/><path d="M407.59,348.588l1.381,0l0.254,8.773l-2.672,0.415l1.037,-9.188Z" style="fill:#231f20;fill-rule:nonzero;"/><path d="M397.549,336.568l1.429,-0.141l0.057,18.207l-2.674,0.629l1.188,-18.695Z" style="fill:#231f20;fill-rule:nonzero;"/><path d="M416.024,338.832l1.43,-0.152l-0.002,16.095l-2.677,0.699l1.249,-16.642Z" style="fill:#231f20;fill-rule:nonzero;"/><path d="M413.021,339.213l-1.877,-5.642l11.216,-0.021l-1.827,5.687l-7.512,-0.024Z" style="fill:#231f20;fill-rule:nonzero;"/><path d="M394.421,336.514l-1.876,-5.641l11.215,-0.021l-1.826,5.687l-7.513,-0.025Z" style="fill:#231f20;fill-rule:nonzero;"/><path d="M404.471,348.662l-1.876,-5.641l11.216,-0.021l-1.827,5.687l-7.513,-0.025Z" style="fill:#231f20;fill-rule:nonzero;"/><path d="M326.152,351.696l8.203,-6.663l-6.455,-8.004l-4.019,-0.577l4.32,-2.446l9.146,11.022l-8.351,8.569" style="fill:#231f20;fill-rule:nonzero;"/><path d="M342.443,345.102l7.436,-2.529l5.318,3.794l-5.787,-1.505l-12.589,4.271l5.622,-4.031Z" style="fill:#231f20;fill-rule:nonzero;"/><path d="M328.111,350.06l-1.027,-10.199l10.206,-2.5l6.942,2.301l3.639,-3.852l5.003,3.551l-4.613,-1l-4.224,11l2.015,4.25l-6.114,-0.25l-11.827,-3.301Z" style="fill:#231f20;fill-rule:nonzero;"/><path d="M337.557,354.011l6.895,-14.426l-6.495,-2.824l-0.718,-2.299l-2.932,2.55l7.249,3.176l-9.616,12.405" style="fill:#231f20;fill-rule:nonzero;"/><path d="M332.155,349.91l-7.984,-9.334l-5.402,3.251l4.933,-0.782l4.93,7.588l3.523,-0.723Z" style="fill:#231f20;fill-rule:nonzero;"/><path d="M416.46,343.441l-7.11,-3.273l-1.926,0.896l0.983,-2.854l7.45,3.252" style="fill:#231f20;fill-rule:nonzero;"/><path d="M415.288,350.272l6.375,-7.066l5.086,3.087l-4.61,-1.009l-5.055,5.254l-1.796,-0.266Z" style="fill:#231f20;fill-rule:nonzero;"/><path d="M397.777,342.753l4.797,-2.208l1.924,0.897l-0.982,-2.854l-5.981,2.537" style="fill:#231f20;fill-rule:nonzero;"/><path d="M398.69,351.818l-3.094,-12.374l-3.571,-0.178l1.954,1.798l2.754,12.726l1.957,-1.972Z" style="fill:#231f20;fill-rule:nonzero;"/><clipPath id="tag6"><rect x="312" y="311.999" width="48" height="48.001"/></clipPath><g clip-path="url(#tag6)"><path d="M337.791,344.019l-3.094,-12.374l-3.573,-0.178l1.955,1.797l2.753,12.727l1.959,-1.972Z" style="fill:#231f20;fill-rule:nonzero;"/><path d="M331.157,351.81l5.013,-1l5.657,-7.199l-16.485,-1.386" style="fill:#231f20;fill-rule:nonzero;"/><path d="M332.613,348.203l-7.436,-3.73l-3.757,3.793l4.226,-1.505l6.917,3.071l0.05,-1.629Z" style="fill:#231f20;fill-rule:nonzero;"/><path d="M308.772,356.81l-0.209,-5.073l3.423,-0.819l1.885,1.31l0.698,-1.965l2.166,0.492l0.698,-1.965l4.034,1.598l0.838,0.164l7.98,-1.762c0,0 4.817,3.85 5.167,4.014c0.348,0.163 11.872,-1.964 11.872,-1.964l2.304,-2.05l5.238,2.541l5.588,1.146l1.117,3.842l-52.799,0.491Z" style="fill:#231f20;fill-rule:nonzero;"/><path d="M310.484,355.583l2.235,-3.519l3.685,3.559l-5.92,-0.04Z" style="fill:#231f20;fill-rule:nonzero;"/><path d="M320.892,355.583l1.587,-1.964l1.049,0l2.775,-1.597l0.681,1.841l7.229,-0.612l2.88,2.208l-16.201,0.124Z" style="fill:#231f20;fill-rule:nonzero;"/><path d="M344.217,355.337l0.418,-1.146l3.004,-0.491l0.875,-1.227l7.121,2.986l-11.418,-0.122Z" style="fill:#231f20;fill-rule:nonzero;"/><path d="M306.085,355.665l0.224,4l58.218,0l-0.015,-4.328l-58.427,0.328Z" style="fill:#231f20;fill-rule:nonzero;"/><path d="M310.519,359.583l37.99,-4.081l16.059,4.163l-54.049,-0.082Z" style="fill:#231f20;fill-rule:nonzero;"/></g><clipPath id="tag7"><rect x="384" y="311.999" width="48" height="48.001"/></clipPath><g clip-path="url(#tag7)"><path d="M380.473,356.81l-0.209,-5.073l3.422,-0.819l1.886,1.31l0.698,-1.965l2.166,0.492l0.698,-1.965l4.034,1.598l0.838,0.164l7.98,-1.762c0,0 4.817,3.85 5.165,4.014c0.35,0.163 11.874,-1.964 11.874,-1.964l2.304,-2.05l5.238,2.541l5.588,1.146l1.117,3.842l-52.799,0.491Z" style="fill:#231f20;fill-rule:nonzero;"/><path d="M382.185,355.583l2.234,-3.519l3.684,3.559l-5.918,-0.04Z" style="fill:#231f20;fill-rule:nonzero;"/><path d="M392.592,355.583l1.587,-1.964l1.047,0l2.776,-1.597l0.682,1.841l7.229,-0.612l2.88,2.208l-16.201,0.124Z" style="fill:#231f20;fill-rule:nonzero;"/><path d="M415.916,355.337l0.419,-1.146l3.003,-0.491l0.875,-1.227l7.122,2.986l-11.419,-0.122Z" style="fill:#231f20;fill-rule:nonzero;"/><path d="M377.785,355.665l0.224,4l58.218,0l-0.015,-4.328l-58.427,0.328Z" style="fill:#231f20;fill-rule:nonzero;"/><path d="M382.22,359.583l37.99,-4.081l16.058,4.163l-54.048,-0.082Z" style="fill:#231f20;fill-rule:nonzero;"/></g><path d="M477,322.637l-0.532,37.363l7.065,0l-0.533,-37.381l-1.324,-2.313l-3.351,-0.035l-1.325,2.366ZM479.473,330.939l2.544,-4.999l0.994,-0.166l0.067,4.747l-3.078,0.503l-0.527,-0.085ZM476.922,330.521l0.067,-4.747l2.884,0.479l-2.195,4.391l-0.756,-0.123Z" style="fill:#231f20;fill-rule:nonzero;"/><rect x="528" y="352" width="48" height="8" style="fill:#231f20;fill-rule:nonzero;"/><rect x="604.933" y="316.801" width="6.401" height="38.399" style="fill:#231f20;fill-rule:nonzero;"/><rect x="636.735" y="316.801" width="6.399" height="38.399" style="fill:#231f20;fill-rule:nonzero;"/><path d="M604.801,316.799l0,4.794l33.606,33.606l4.793,0l0,-4.258l-34.143,-34.142l-4.256,0Z" style="fill:#231f20;fill-rule:nonzero;"/><path d="M620.406,316.799l20.033,20.033l2.761,-2.761l0,-3.531l-13.742,-13.741l-9.052,0Z" style="fill:#231f20;fill-rule:nonzero;"/><path d="M604.801,342.424l12.775,12.775l9.052,0l-21.827,-21.826l0,9.051Z" style="fill:#231f20;fill-rule:nonzero;"/><rect x="384.202" y="208" width="48" height="8" style="fill:#231f20;fill-rule:nonzero;"/><path d="M419.933,188.428l-11.8,13.675l-11.8,-13.675l23.6,0Z" style="fill:#231f20;fill-rule:nonzero;"/><rect x="455.952" y="195.5" width="48" height="20.5" style="fill:#231f20;fill-rule:nonzero;"/><path d="M491.683,187.102l-11.8,-13.675l-11.8,13.675l23.6,0Z" style="fill:#231f20;fill-rule:nonzero;"/><path d="M552.812,194.812l-6.875,8.125l6.875,0" style="fill:#231f20;fill-rule:nonzero;"/><rect x="552.25" y="168" width="9" height="48" style="fill:#231f20;fill-rule:nonzero;"/><path d="M616.312,194.812l-6.875,8.125l6.875,0" style="fill:#231f20;fill-rule:nonzero;"/><rect x="615.75" y="168" width="29" height="48" style="fill:#231f20;fill-rule:nonzero;"/><path d="M271.553,102.106l-15.14,0l-1.163,4.25l17.5,0l-1.197,-4.25Z" style="fill:#231f20;fill-rule:nonzero;"/><path d="M270.025,130.783l-2.551,0.697l0,-16.5l2.551,0.719l0,15.084ZM265.025,130.783l-2.551,0.697l0,-16.5l2.551,0.719l0,15.084ZM260.025,130.783l-2.551,0.697l0,-16.5l2.551,0.719l0,15.084ZM255,110.25l0,23.167l3.334,3.083l11.167,0l3.249,-3.25l0,-23l-17.75,0Z" style="fill:#231f20;fill-rule:nonzero;"/><rect x="252.667" y="104.75" width="23" height="3.5" style="fill:#231f20;fill-rule:nonzero;"/><path d="M420.135,274.806l0.666,-0.035l-0.046,-4.5l-0.679,-0.001l0.059,4.536Z" style="fill:#231f20;fill-rule:nonzero;"/><path d="M417.536,276.122l-0.087,1.893l0.453,0.97l0.499,-0.033l0.264,-0.901l-0.219,-2.066l-0.91,0.137Z" style="fill:#231f20;fill-rule:nonzero;"/><path d="M423.648,276.283l0.573,1.768l-0.43,0.716l-0.585,0.048l-0.429,-0.628l0.024,-1.829" style="fill:#231f20;fill-rule:nonzero;"/><path d="M420.7,269.052l-0.603,0.008l-1.375,-0.436l-0.086,0.458l1.469,0.494l0.609,0.008l1.467,-0.587l-0.087,-0.412l-1.394,0.467Z" style="fill:#231f20;fill-rule:nonzero;"/><path d="M422.35,268.659l0.048,0.887l3.086,-0.296l-0.129,-1.064l-3.005,0.473Z" style="fill:#231f20;fill-rule:nonzero;"/><path d="M418.329,268.516l-0.05,0.887l-3.085,-0.296l0.129,-1.064l3.006,0.473Z" style="fill:#231f20;fill-rule:nonzero;"/><path d="M420.184,269.854l-1.553,1.545l-0.229,4.658l-0.841,0.103l-0.098,-5.389l1.12,-3.762l2.805,-0.502l0.508,0.485l1.286,2.551l0.479,6.767l-0.847,0.037l-0.899,-5.48l-1.012,-1.083l-0.719,0.07Z" style="fill:#231f20;fill-rule:nonzero;"/><path d="M418.601,267.015l-0.2,-3.558l-1.462,1.576l0.1,3.237l-0.64,-0.016l-0.123,-3.57l1.941,-2.173l1.382,-0.268l1.212,-0.058l1.355,0.143l1.911,1.974l-0.083,4.034l-0.578,-0.095l-0.021,-3.64l-1.41,-1.46l-0.079,3.884l-0.524,-0.518l-2.781,0.508Z" style="fill:#231f20;fill-rule:nonzero;"/><path d="M419.589,262.268l1.351,-0.057l0.624,-0.59l-0.158,-2.375l-1.289,0.064l-1.208,0.06l0.033,2.251l0.647,0.647Z" style="fill:#231f20;fill-rule:nonzero;"/><g opacity="0.5"><path d="M420.163,269.857l1.167,0.384l0.588,0.621l0.387,2.335l1.222,1.228l-0.352,-4.88l-2.701,-1.784l-3.003,3.012l1.165,0.623l1.527,-1.539Z" style="fill:#231f20;fill-rule:nonzero;"/></g><path d="M418.93,259.747l-0.397,0.306l-0.3,0.622l1.602,1.089l0.782,-0.042l1.937,-0.807l-0.513,-0.886l-0.602,-0.549l-2.509,0.267Z" style="fill:#231f20;fill-rule:nonzero;"/><path d="M418.673,259.864l1.952,0.136l1.321,-0.462l0.537,-0.661l-1.779,-1.718l-0.778,0.046l-1.976,2.032l0.723,0.627Z" style="fill:#231f20;fill-rule:nonzero;"/><path d="M415.702,268.659l1.63,0.151l-0.119,-0.666l-1.391,-0.174l-0.12,0.689Z" style="fill:#231f20;fill-rule:nonzero;"/><path d="M423.147,268.239l-0.081,0.575l1.462,0.047l0.045,-0.652l-1.426,0.03Z" style="fill:#231f20;fill-rule:nonzero;"/><path d="M422.508,258.877l-0.486,1.108l-1.39,0.377l-1.997,-0.23l-0.685,-0.895l2.633,0.066l1.925,-0.426Z" style="fill:#231f20;fill-rule:nonzero;"/><path d="M419.597,279.228l0.417,3.01l0.023,-6.115l-0.44,3.105Z" style="fill:#231f20;fill-rule:nonzero;"/><path d="M421.002,282.239l0.417,-3.01l-0.439,-3.106l0.022,6.116Z" style="fill:#231f20;fill-rule:nonzero;"/><path d="M420.256,274.464l-0.248,0.258l0.01,9.162l0.275,0.367l0.448,0l0.266,-0.413l-0.036,-9.162l-0.275,-0.212l-0.44,0Z" style="fill:#231f20;fill-rule:nonzero;"/><path d="M421.642,278.99l0.608,0.082l-0.364,-6.475l-1.056,-0.339l-0.775,0.006l-1.148,0.361l-0.239,6.521l0.673,-0.133l0.301,-5.92l0.434,-0.205l0.783,0.005l0.343,0.182l0.44,5.915Z" style="fill:#231f20;fill-rule:nonzero;"/><path d="M421.393,279.522l0.905,-0.198l0,-0.243l-0.912,-0.125l0.007,0.566Z" style="fill:#231f20;fill-rule:nonzero;"/><path d="M418.666,279.135l0,0.236l0.977,0.151l0.009,-0.566l-0.986,0.179Z" style="fill:#231f20;fill-rule:nonzero;"/><path d="M418.717,277.696l-2.377,0.318l0.21,-0.98l2.215,-0.187l-0.048,0.849Z" style="fill:#231f20;fill-rule:nonzero;"/><path d="M422.171,277.556l2.768,0.031l-0.126,-0.81l-2.689,-0.125l0.047,0.904Z" style="fill:#231f20;fill-rule:nonzero;"/><g opacity="0.5"><path d="M420.775,271.668l-0.698,-0.703l0,-0.691l0.678,0.014l0.02,1.38Z" style="fill:#231f20;fill-rule:nonzero;"/></g><path d="M419.083,270.281l2.79,0.003l-0.278,-0.811l-2.196,-0.007l-0.316,0.815Z" style="fill:#231f20;fill-rule:nonzero;"/><path d="M419.926,272.798l-0.156,0.881l1.351,0l-0.109,-0.881l-1.086,0Z" style="fill:#231f20;fill-rule:nonzero;"/><path d="M384,260.498l0,1.313l15.644,-0.037l2.75,4.227l-18.394,-0.011l0,14.555l17.214,0.045l1.095,3.528l0.025,0.124l3.869,0l0.566,-3.639l-0.061,0l0.516,-6.48l-5.494,0.003l-0.21,-2.903l5.927,0.008l0.018,-0.134l-7.108,-10.599l-16.357,0Z" style="fill:#231f20;fill-rule:nonzero;"/><path d="M490.4,116.489l-10.589,-14.015l-10.602,14.015l7.555,0l0,20.876l6.054,0l0,-20.876l7.582,0Z" style="fill:#000;fill-rule:nonzero;"/><path d="M432.297,113.89l-14.622,-9.945l0,5.545c-3.527,0.132 -6.448,1.871 -9.449,8.386c-0.864,-1.912 -1.452,-3.663 -2.827,-5.057c-2.045,-2.073 -3.692,-3.205 -6.479,-3.316l0,-5.558l-14.623,9.945l14.623,9.932l0,-7.717c1.01,0.097 1.869,0.533 2.676,1.349c3.191,3.227 2.918,10.76 3.219,15.611l0,1.46c-0.028,0.734 -0.03,1.184 -0.03,1.249l0.03,0l0,1.9l6.787,0l0,-5.643c0.569,-5.938 1.054,-15.38 6.073,-15.914l0,7.705l14.622,-9.932Z" style="fill:#000;fill-rule:nonzero;"/><path d="M352.941,114.999l-14.621,-11.345l0,6.949c-11.333,0.251 -12.963,7.948 -13.501,11.165c-0.332,1.985 -0.565,7.004 -0.692,10.58c-0.084,2.324 -0.135,3.719 -0.104,4.628l6.611,0c0.001,-2.255 0.127,-10.709 0.698,-14.12c1.035,-6.195 3.269,-5.558 6.988,-5.653l0,7.728l14.621,-9.932Z" style="fill:#000;fill-rule:nonzero;"/><path d="M536.014,114.999l14.621,-11.345l0,6.949c11.333,0.251 12.963,7.948 13.501,11.165c0.332,1.985 0.565,7.004 0.692,10.58c0.084,2.324 0.135,3.719 0.104,4.628l-6.611,0c-0.001,-2.255 -0.127,-10.709 -0.698,-14.12c-1.035,-6.195 -3.269,-5.558 -6.988,-5.653l0,7.728l-14.621,-9.932Z" style="fill:#000;fill-rule:nonzero;"/><path d="M634.068,142.83l0,-30.841l7.582,0l-10.589,-14.015l-10.602,14.015l7.555,0l0,11.472c-1.917,-1.198 -4.534,-2.028 -8.13,-2.109l0,-6.948l-14.621,11.345l14.621,9.932l0,-7.728c3.719,0.095 5.954,-0.542 6.989,5.653c0.57,3.411 0.696,6.865 0.697,9.12l6.611,0c0.032,-0.909 -0.019,-2.304 -0.103,-4.628c-0.003,-0.088 -0.007,4.821 -0.01,4.732" style="fill:#000;fill-rule:nonzero;"/><path d="M684.346,142.83l0,-30.841l-7.582,0l10.589,-14.015l10.602,14.015l-7.555,0l0,11.472c1.917,-1.198 4.534,-2.028 8.13,-2.109l0,-6.948l14.621,11.345l-14.621,9.932l0,-7.728c-3.719,0.095 -5.954,-0.542 -6.989,5.653c-0.57,3.411 -0.696,6.865 -0.697,9.12l-6.611,0c-0.032,-0.909 0.019,-2.304 0.103,-4.628c0.003,-0.088 0.007,4.821 0.01,4.732" style="fill:#000;fill-rule:nonzero;"/><path d="M411.441,59.0146l14.015,-10.589l-14.015,-10.602l0,7.555l-20.877,0l0,6.054l20.877,0l0,7.582Z" style="fill:#000;fill-rule:nonzero;"/><path d="M332.328,59.0146l-14.015,-10.589l14.015,-10.602l0,7.555l20.877,0l0,6.054l-20.877,0l0,7.582Z" style="fill:#000;fill-rule:nonzero;"/><path d="M503.206,48.4258l-14.015,-10.603l0,7.556l-18.363,0l0,-7.556l-14.015,10.603l14.015,10.589l0,-7.582l18.363,0l0,7.582l14.015,-10.589Z" style="fill:#000;fill-rule:nonzero;"/><clipPath id="tag8"><rect x="528.75" y="23.999" width="48" height="48.001"/></clipPath><g clip-path="url(#tag8)"><path d="M576.677,54.1021l-14.621,-11.345l0,6.949c-11.333,0.251 -12.963,7.948 -13.501,11.165c-0.332,1.985 -0.565,7.004 -0.692,10.58c-0.084,2.324 -0.135,3.719 -0.104,4.628l6.611,0c0.001,-2.255 0.127,-10.709 0.698,-14.12c1.035,-6.195 3.269,-5.558 6.988,-5.653l0,7.728l14.621,-9.932Z" style="fill:#000;fill-rule:nonzero;"/><path d="M528.843,42.2339l14.621,11.345l0,-6.949c11.333,-0.251 12.963,-7.948 13.501,-11.165c0.332,-1.985 0.565,-7.004 0.692,-10.58c0.084,-2.324 0.135,-3.719 0.104,-4.628l-6.611,0c-0.001,2.255 -0.127,10.709 -0.698,14.12c-1.035,6.195 -3.269,5.558 -6.988,5.653l0,-7.728l-14.621,9.932Z" style="fill:#000;fill-rule:nonzero;"/></g><path d="M47.5781,59.0146l-14.015,-10.589l14.015,-10.602Z" style="fill:#000;fill-rule:nonzero;"/><rect x="136.025" y="29" width="6.053" height="38" style="fill:#231f20;fill-rule:nonzero;"/><path d="M120.25,59.0146l14.015,-10.589l-14.015,-10.602Z" style="fill:#000;fill-rule:nonzero;"/><path d="M487.359,284.35l-1.577,0.001l-2.432,-4.454l-6.7,0.015l-2.438,4.452l-1.571,0.001l-1.36,3.385l17.436,0l-1.358,-3.4Z" style="fill:#231f20;fill-rule:nonzero;"/><path d="M563.25,262.336l0,-10.086l-5,0l0,5.322l-12.587,0l-17.226,17.726l10.313,0l0,12.452l26.25,0l0,-12.711l10.25,0l-12,-12.703Z" style="fill:#231f20;fill-rule:nonzero;"/><rect x="610" y="250" width="28" height="38" style="fill:#231f20;fill-rule:nonzero;"/><rect x="687" y="246" width="18" height="42" style="fill:#231f20;fill-rule:nonzero;"/><rect x="762" y="242" width="10" height="46" style="fill:#231f20;fill-rule:nonzero;"/></g></g></svg>