<?xml version="1.0" standalone="no"?><!DOCTYPE svg PUBLIC "-//W3C//DTD SVG 1.1//EN" "http://www.w3.org/Graphics/SVG/1.1/DTD/svg11.dtd"><svg width="72px" height="192px" version="1.1" xmlns="http://www.w3.org/2000/svg" xmlns:xlink="http://www.w3.org/1999/xlink" xml:space="preserve" style="fill-rule:evenodd;clip-rule:evenodd;stroke-linejoin:round;stroke-miterlimit:1.41421;"><g><g id="biker-02-outbound" transform="matrix(0.5,0,0,0.5,-2440.11,-239.75)"><g transform="matrix(2.00022,0,0,2.00022,-4915.45,-863.694)"><path d="M4932.26,816.084l-0.299,-22.78l3.413,0.009l0.231,22.591l-3.345,0.18Z" style="fill:#f19d75;fill-rule:nonzero;"/></g><g transform="matrix(2.00022,0,0,2.00022,-4915.45,-863.694)"><path d="M4919.21,822.688l-0.437,9.5l2.277,4.873l2.501,-0.156l1.327,-4.534l-1.106,-10.37l-4.562,0.687Z" style="fill:#af2026;fill-rule:nonzero;"/></g><g transform="matrix(2.00022,0,0,2.00022,-4915.45,-863.694)"><path d="M4949.89,823.5l2.875,8.875l-2.165,3.599l-2.933,0.235l-2.152,-3.146l0.125,-9.188" style="fill:#af2026;fill-rule:nonzero;"/></g><g transform="matrix(2.00022,0,0,2.00022,-4915.45,-863.694)"><path d="M4932.1,789.814l3.063,0.039l7.363,-2.943l-0.439,-2.071l-7.002,2.35l-3.026,0.039l-6.903,-2.188l-0.436,2.289l7.38,2.485Z" style="fill:#e9ce78;fill-rule:nonzero;"/></g><g transform="matrix(2.00022,0,0,2.00022,-4915.45,-863.694)"><path d="M4943.37,785.214l0.246,4.452l15.493,-1.481l-0.643,-5.347l-15.096,2.376Z" style="fill:#cfae81;fill-rule:nonzero;"/></g><g transform="matrix(2.00022,0,0,2.00022,-4915.45,-863.694)"><path d="M4923.18,784.491l-0.248,4.455l-15.49,-1.484l0.64,-5.347l15.098,2.376Z" style="fill:#cfae81;fill-rule:nonzero;"/></g><g transform="matrix(2.00022,0,0,2.00022,-4915.45,-863.694)"><path d="M4932.5,791.209l-7.797,7.757l-1.154,23.394l-4.216,0.515l-0.496,-27.063l5.625,-18.89l14.09,-2.516l2.543,2.438l6.46,12.809l2.403,33.972l-4.25,0.188l-4.518,-27.516l-5.076,-5.438l-3.614,0.35Z" style="fill:#313156;fill-rule:nonzero;"/></g><g transform="matrix(2.00022,0,0,2.00022,-4915.45,-863.694)"><path d="M4924.54,776.962l-1.002,-17.875l-7.332,7.916l0.502,16.252l-3.217,-0.084l-0.619,-17.918l9.75,-10.916l6.931,-1.339l6.085,-0.288l6.818,0.71l9.586,9.916l-0.418,20.252l-2.896,-0.478l-0.104,-18.273l-7.084,-7.334l-0.398,19.497l-2.625,-2.594l-13.977,2.556Z" style="fill:#af2026;fill-rule:nonzero;"/></g><g transform="matrix(2.00022,0,0,2.00022,-4915.45,-863.694)"><path d="M4929.51,753.119l6.78,-0.285l3.134,-2.961l-0.777,-11.926l-6.483,0.32l-6.064,0.299l0.158,11.307l3.252,3.246Z" style="fill:#e3c7b7;fill-rule:nonzero;"/></g><g transform="matrix(2.00022,0,0,2.00022,-4915.45,-863.694)"><g opacity="0.5"><path d="M4932.39,791.23l5.859,1.927l2.954,3.125l1.937,11.721l6.146,6.165l-1.772,-24.501l-13.562,-8.959l-15.083,15.126l5.853,3.125l7.668,-7.729Z" style="fill:#171818;fill-rule:nonzero;"/></g></g><g transform="matrix(2.00022,0,0,2.00022,-4915.45,-863.694)"><path d="M4926.2,740.47l-1.996,1.53l-1.5,3.125l8.041,5.463l3.922,-0.207l9.731,-4.054l-2.569,-4.452l-3.035,-2.747l-12.594,1.342Z" style="fill:#543e36;fill-rule:nonzero;"/></g><g transform="matrix(2.00022,0,0,2.00022,-4915.45,-863.694)"><path d="M4924.91,741.054l9.796,0.677l6.637,-2.319l2.7,-3.319l-8.935,-8.624l-3.906,0.23l-9.919,10.206l3.627,3.149Z" style="fill:#ecdbb2;fill-rule:nonzero;"/></g><g transform="matrix(2.00022,0,0,2.00022,-4915.45,-863.694)"><path d="M4910.59,781.759l-0.602,3.46l8.191,0.756l-0.603,-3.343l-6.986,-0.873Z" style="fill:#e3c7b7;fill-rule:nonzero;"/></g><g transform="matrix(2.00022,0,0,2.00022,-4915.45,-863.694)"><path d="M4947.37,783.106l-0.401,2.891l7.334,0.233l0.23,-3.277l-7.163,0.153Z" style="fill:#e3c7b7;fill-rule:nonzero;"/></g><g transform="matrix(2.00022,0,0,2.00022,-4915.45,-863.694)"><path d="M4944.17,736.093l-2.447,5.566l-6.972,1.898l-10.03,-1.163l-3.432,-4.489l13.217,0.33l9.664,-2.142Z" style="fill:#ecdbb2;fill-rule:nonzero;"/></g><g transform="matrix(2.00022,0,0,2.00022,-4915.45,-863.694)"><path d="M4931.76,822.692l-2.206,15.597l2.09,15.106l0.116,-30.703Z" style="fill:#c2bfbc;fill-rule:nonzero;"/></g><g transform="matrix(2.00022,0,0,2.00022,-4915.45,-863.694)"><path d="M4936.49,822.692l2.207,15.597l-2.092,15.106l-0.115,-30.703Z" style="fill:#c2bfbc;fill-rule:nonzero;"/></g><g transform="matrix(2.00022,0,0,2.00022,-4915.45,-863.694)"><path d="M4932.86,814.367l-1.243,1.288l0.046,46.009l1.38,1.836l2.254,0l1.333,-2.07l-0.184,-46.009l-1.38,-1.054l-2.206,0Z" style="fill:#2a2b2a;fill-rule:nonzero;"/></g><g transform="matrix(2.00022,0,0,2.00022,-4915.45,-863.694)"><path d="M4939.82,837.086l3.055,0.415l-1.828,-32.513l-5.296,-1.704l-3.899,0.03l-5.77,1.811l-1.188,32.75l3.37,-0.672l1.519,-29.726l2.173,-1.026l3.932,0.03l1.723,0.908l2.209,29.697Z" style="fill:#f19d75;fill-rule:nonzero;"/></g><g transform="matrix(2.00022,0,0,2.00022,-4915.45,-863.694)"><path d="M4938.54,836.919l4.582,0.633l0,1.215l-4.546,0.99l-0.036,-2.838Z" style="fill:#5c5e5f;fill-rule:nonzero;"/></g><g transform="matrix(2.00022,0,0,2.00022,-4915.45,-863.694)"><path d="M4929.82,836.919l-4.945,0.902l0,1.182l4.91,0.754l0.035,-2.838Z" style="fill:#5c5e5f;fill-rule:nonzero;"/></g><g transform="matrix(2.00022,0,0,2.00022,-4915.45,-863.694)"><path d="M4925.13,830.589l-11.93,1.602l1.055,-4.925l11.117,-0.932l-0.242,4.255Z" style="fill:#373837;fill-rule:nonzero;"/></g><g transform="matrix(2.00022,0,0,2.00022,-4915.45,-863.694)"><path d="M4942.48,829.884l13.894,0.156l-0.624,-4.064l-13.507,-0.625l0.237,4.533Z" style="fill:#373837;fill-rule:nonzero;"/></g><g transform="matrix(2.00022,0,0,2.00022,-4915.45,-863.694)"><g opacity="0.5"><path d="M4935.47,800.322l-3.5,-3.531l0,-3.469l3.405,0.063l0.095,6.937Z" style="fill:#171818;fill-rule:nonzero;"/></g></g><g transform="matrix(2.00022,0,0,2.00022,-4915.45,-863.694)"><path d="M4926.97,793.362l14.01,0.009l-1.393,-4.069l-11.026,-0.039l-1.591,4.099Z" style="fill:#c2a03f;fill-rule:nonzero;"/></g><g transform="matrix(2.00022,0,0,2.00022,-4915.45,-863.694)"><path d="M4931.2,806.001l-0.784,4.416l6.784,0l-0.549,-4.416l-5.451,0Z" style="fill:#b01f25;fill-rule:nonzero;"/></g></g></g></svg>