<?xml version="1.0" standalone="no"?><!DOCTYPE svg PUBLIC "-//W3C//DTD SVG 1.1//EN" "http://www.w3.org/Graphics/SVG/1.1/DTD/svg11.dtd"><svg width="216px" height="288px" version="1.1" xmlns="http://www.w3.org/2000/svg" xmlns:xlink="http://www.w3.org/1999/xlink" xml:space="preserve" style="fill-rule:evenodd;clip-rule:evenodd;stroke-linejoin:round;stroke-miterlimit:1.41421;"><g><g id="transit-shelter-02-right" transform="matrix(0.5,0,0,0.5,-5.18455,-12)"><g id="pole"><path d="M20.7402,600l24.163,0l-8.815,-566.29l-12.539,5.339l-2.809,560.951Z" style="fill:#e4e2dc;fill-rule:nonzero;"/><path d="M44.9053,600l-24.167,0l20.225,-203.397l3.942,203.397Z" style="fill:#c1bebb;fill-rule:nonzero;"/><path d="M22.8047,183.035l13.28,-149.325l-12.537,5.357l-0.743,143.968Z" style="fill:#c1bebb;fill-rule:nonzero;"/><path d="M39,162l49,0l2,-99l-53,0l2,99Z" style="fill:#d8d3cb;fill-rule:nonzero;"/><path d="M65.0205,84.1016l0,-5.731l16.697,0.147l0.303,-5.49l-22.869,0.449l0.057,16.543l16.277,0.211l0.029,8.394l-15.793,0.493l-0.181,4.855l22.076,-0.055l-0.002,-19.39" style="fill:#313156;fill-rule:nonzero;"/></g><g id="seat"><path d="M394.205,600l-0.211,-55.441l-63.734,-5.055l4.156,10.512l45.293,3.901l4.291,46.083l10.205,0Z" style="fill:#5c5e5f;fill-rule:nonzero;"/><path d="M291,539.508l98.25,4.801l1.125,-111.699l-10.356,5.361l-3.454,90.414l-85.565,4.725l0,6.398Z" style="fill:#679a45;fill-rule:nonzero;"/></g><g id="ad-panel"><path d="M408,600l21,0l-4,-372l-17,0l0,372Z" style="fill:#5c5e5f;fill-rule:nonzero;"/><path d="M171,600l21,0l0,-432l-17,0l-4,432Z" style="fill:#5c5e5f;fill-rule:nonzero;"/><path d="M192,600l-21,0l2.633,-237l18.367,237Z" style="fill:#2a2b2a;fill-rule:nonzero;"/><path d="M408,600l21,0l-21,-237l0,237Z" style="fill:#2a2b2a;fill-rule:nonzero;"/><rect x="192" y="230" width="216" height="286" style="fill:#c1bebb;fill-rule:nonzero;"/><path d="M205.988,246.602l0,250.835l187.051,0l0,-250.343l-187.051,-0.492Z" style="fill:#f5f3e9;fill-rule:nonzero;"/><path d="M390.101,246.947l-184.112,182.461l0,-182.807l184.112,0.346Z" style="fill:#e7e6de;fill-rule:nonzero;"/><path d="M393.039,497.437l0.01,-152.499l-157.549,152.106l157.539,0.393Z" style="fill:#e7e6de;fill-rule:nonzero;"/><path d="M241.111,497.478l103.005,-103.336l48.923,-48.922l0,-8.636l-160.734,160.861l8.806,0.033Z" style="fill:#d8d3cb;fill-rule:nonzero;"/></g><g id="roof"><path d="M428.338,196l3.662,32l-24,0l-293,-58.5l1,-21.082l312.338,47.582Z" style="fill:#679a45;fill-rule:nonzero;"/></g></g></g></svg>